G75*
%MOIN*%
%OFA0B0*%
%FSLAX24Y24*%
%IPPOS*%
%LPD*%
%AMOC8*
5,1,8,0,0,1.08239X$1,22.5*
%
%ADD10C,0.0110*%
%ADD11C,0.0560*%
%ADD12OC8,0.0560*%
%ADD13R,0.0591X0.0630*%
%ADD14R,0.0512X0.0591*%
%ADD15C,0.0160*%
D10*
X001105Y001117D02*
X001105Y001413D01*
X001203Y001511D01*
X001302Y001413D01*
X001302Y001216D01*
X001400Y001117D01*
X001499Y001216D01*
X001499Y001511D01*
X001400Y001762D02*
X001499Y001860D01*
X001499Y002057D01*
X001400Y002156D01*
X001105Y002156D01*
X001105Y002406D02*
X001105Y002603D01*
X001105Y002505D02*
X001499Y002505D01*
X001499Y002406D01*
X001696Y002505D02*
X001794Y002505D01*
X001400Y002836D02*
X001499Y002935D01*
X001499Y003131D01*
X001400Y003230D01*
X001302Y003230D01*
X001302Y002836D01*
X001400Y002836D02*
X001203Y002836D01*
X001105Y002935D01*
X001105Y003131D01*
X001105Y003481D02*
X001105Y003678D01*
X001105Y003579D02*
X001696Y003579D01*
X001696Y003481D01*
X001400Y003910D02*
X001499Y004009D01*
X001499Y004304D01*
X001696Y004304D02*
X001105Y004304D01*
X001105Y004009D01*
X001203Y003910D01*
X001400Y003910D01*
X001696Y001762D02*
X001105Y001762D01*
X008453Y013621D02*
X008355Y013720D01*
X008355Y014015D01*
X008453Y014266D02*
X008552Y014364D01*
X008552Y014660D01*
X008650Y014660D02*
X008355Y014660D01*
X008355Y014364D01*
X008453Y014266D01*
X008749Y014561D02*
X008650Y014660D01*
X008749Y014561D02*
X008749Y014364D01*
X008749Y014015D02*
X008749Y013720D01*
X008650Y013621D01*
X008453Y013621D01*
X008355Y014910D02*
X008749Y014910D01*
X008749Y015009D01*
X008650Y015107D01*
X008749Y015206D01*
X008650Y015304D01*
X008355Y015304D01*
X008355Y015107D02*
X008650Y015107D01*
D11*
X007000Y013000D03*
D12*
X007000Y014000D03*
X006000Y014000D03*
X006000Y013000D03*
X005000Y013000D03*
X005000Y014000D03*
X004000Y014000D03*
X004000Y013000D03*
X003000Y013000D03*
X003000Y014000D03*
X003000Y002500D03*
X003000Y001500D03*
X004000Y001500D03*
X004000Y002500D03*
X005000Y002500D03*
X005000Y001500D03*
X006000Y001500D03*
X006000Y002500D03*
X007000Y002500D03*
X007000Y001500D03*
D13*
X002498Y008746D03*
X002498Y010754D03*
X001002Y010754D03*
X001002Y008746D03*
D14*
X001665Y007250D03*
X002335Y007250D03*
D15*
X000000Y000000D02*
X000000Y016500D01*
X010000Y016500D01*
X010000Y000000D01*
X000000Y000000D01*
X000490Y000490D02*
X000490Y016010D01*
X002146Y016010D01*
X002091Y015987D01*
X002013Y015909D01*
X000763Y014659D01*
X000720Y014556D01*
X000720Y012944D01*
X000763Y012841D01*
X000841Y012763D01*
X000841Y012763D01*
X002218Y011386D01*
X002218Y011269D01*
X002120Y011269D01*
X002003Y011152D01*
X002003Y010356D01*
X002120Y010239D01*
X002876Y010239D01*
X002993Y010356D01*
X002993Y011152D01*
X002876Y011269D01*
X002778Y011269D01*
X002778Y011558D01*
X002765Y011589D01*
X003220Y011134D01*
X003220Y009366D01*
X002993Y009139D01*
X002993Y009144D01*
X002876Y009261D01*
X002120Y009261D01*
X002003Y009144D01*
X002003Y009030D01*
X001497Y009030D01*
X001497Y009144D01*
X001380Y009261D01*
X000624Y009261D01*
X000507Y009144D01*
X000507Y008348D01*
X000624Y008231D01*
X001380Y008231D01*
X001497Y008348D01*
X001497Y008470D01*
X002003Y008470D01*
X002003Y008348D01*
X002120Y008231D01*
X002218Y008231D01*
X002218Y007745D01*
X001996Y007745D01*
X001969Y007719D01*
X001945Y007725D01*
X001713Y007725D01*
X001713Y007298D01*
X001617Y007298D01*
X001617Y007202D01*
X001229Y007202D01*
X001229Y006931D01*
X001242Y006885D01*
X001265Y006844D01*
X001299Y006811D01*
X001340Y006787D01*
X001386Y006775D01*
X001617Y006775D01*
X001617Y007202D01*
X001713Y007202D01*
X001713Y006775D01*
X001945Y006775D01*
X001969Y006781D01*
X001996Y006755D01*
X002055Y006755D01*
X002055Y005610D01*
X002097Y005507D01*
X003720Y003884D01*
X003720Y002899D01*
X003520Y002699D01*
X003520Y002301D01*
X003801Y002020D01*
X004199Y002020D01*
X004480Y002301D01*
X004480Y002699D01*
X004280Y002899D01*
X004280Y004056D01*
X004237Y004159D01*
X004159Y004237D01*
X002615Y005781D01*
X002615Y006755D01*
X002673Y006755D01*
X002791Y006872D01*
X002791Y007628D01*
X002778Y007641D01*
X002778Y008231D01*
X002876Y008231D01*
X002993Y008348D01*
X002993Y008470D01*
X003056Y008470D01*
X003159Y008513D01*
X003659Y009013D01*
X003737Y009091D01*
X003780Y009194D01*
X003780Y011306D01*
X003737Y011409D01*
X002280Y012866D01*
X002280Y014384D01*
X002616Y014720D01*
X003634Y014720D01*
X003720Y014634D01*
X003720Y014399D01*
X003520Y014199D01*
X003520Y013801D01*
X003801Y013520D01*
X004199Y013520D01*
X004220Y013541D01*
X004220Y013431D01*
X004191Y013460D01*
X004010Y013460D01*
X004010Y013010D01*
X003990Y013010D01*
X003990Y013460D01*
X003809Y013460D01*
X003540Y013191D01*
X003540Y013010D01*
X003990Y013010D01*
X003990Y012990D01*
X004010Y012990D01*
X004010Y012540D01*
X004191Y012540D01*
X004220Y012569D01*
X004220Y011444D01*
X004263Y011341D01*
X004341Y011263D01*
X006720Y008884D01*
X006720Y008023D01*
X006514Y008473D01*
X006179Y008860D01*
X006179Y008860D01*
X005748Y009137D01*
X005256Y009282D01*
X004744Y009282D01*
X004252Y009137D01*
X003821Y008860D01*
X003486Y008473D01*
X003273Y008007D01*
X003200Y007500D01*
X003273Y006993D01*
X003486Y006527D01*
X003821Y006140D01*
X004252Y005863D01*
X004744Y005718D01*
X005256Y005718D01*
X005748Y005863D01*
X006179Y006140D01*
X006514Y006527D01*
X006720Y006977D01*
X006720Y006116D01*
X004763Y004159D01*
X004720Y004056D01*
X004720Y002899D01*
X004520Y002699D01*
X004520Y002301D01*
X004801Y002020D01*
X005124Y002020D01*
X005084Y001980D01*
X004801Y001980D01*
X004520Y001699D01*
X004520Y001301D01*
X004801Y001020D01*
X005199Y001020D01*
X005480Y001301D01*
X005480Y001584D01*
X005520Y001624D01*
X005520Y001301D01*
X005801Y001020D01*
X006199Y001020D01*
X006480Y001301D01*
X006480Y001584D01*
X006520Y001624D01*
X006520Y001301D01*
X006801Y001020D01*
X007199Y001020D01*
X007399Y001220D01*
X008056Y001220D01*
X008159Y001263D01*
X009159Y002263D01*
X009237Y002341D01*
X009280Y002444D01*
X009280Y010056D01*
X009237Y010159D01*
X007280Y012116D01*
X007280Y012601D01*
X007407Y012728D01*
X007480Y012905D01*
X007480Y013095D01*
X007407Y013272D01*
X007272Y013407D01*
X007095Y013480D01*
X006905Y013480D01*
X006728Y013407D01*
X006593Y013272D01*
X006520Y013095D01*
X006520Y012905D01*
X006593Y012728D01*
X006720Y012601D01*
X006720Y011944D01*
X006763Y011841D01*
X006841Y011763D01*
X008720Y009884D01*
X008720Y002616D01*
X007884Y001780D01*
X007399Y001780D01*
X007199Y001980D01*
X006801Y001980D01*
X006780Y001959D01*
X006780Y002069D01*
X006809Y002040D01*
X006990Y002040D01*
X006990Y002490D01*
X007010Y002490D01*
X007010Y002510D01*
X006990Y002510D01*
X006990Y002960D01*
X006809Y002960D01*
X006780Y002931D01*
X006780Y003384D01*
X008409Y005013D01*
X008487Y005091D01*
X008530Y005194D01*
X008530Y009806D01*
X008487Y009909D01*
X006280Y012116D01*
X006280Y012601D01*
X006480Y012801D01*
X006480Y013199D01*
X006199Y013480D01*
X005801Y013480D01*
X005520Y013199D01*
X005520Y012801D01*
X005720Y012601D01*
X005720Y011944D01*
X005763Y011841D01*
X007970Y009634D01*
X007970Y005366D01*
X006341Y003737D01*
X006263Y003659D01*
X006220Y003556D01*
X006220Y002959D01*
X006199Y002980D01*
X005801Y002980D01*
X005780Y002959D01*
X005780Y003384D01*
X007737Y005341D01*
X007780Y005444D01*
X007780Y009556D01*
X007737Y009659D01*
X005280Y012116D01*
X005280Y012601D01*
X005480Y012801D01*
X005480Y013199D01*
X005199Y013480D01*
X004876Y013480D01*
X004916Y013520D01*
X005199Y013520D01*
X005480Y013801D01*
X005480Y014199D01*
X005199Y014480D01*
X004801Y014480D01*
X004520Y014199D01*
X004520Y013916D01*
X004480Y013876D01*
X004480Y014199D01*
X004280Y014399D01*
X004280Y014806D01*
X004237Y014909D01*
X004159Y014987D01*
X003909Y015237D01*
X003806Y015280D01*
X002444Y015280D01*
X002341Y015237D01*
X002263Y015159D01*
X001763Y014659D01*
X001720Y014556D01*
X001720Y012694D01*
X001733Y012663D01*
X001280Y013116D01*
X001280Y014384D01*
X002366Y015470D01*
X005384Y015470D01*
X005720Y015134D01*
X005720Y014399D01*
X005520Y014199D01*
X005520Y013801D01*
X005801Y013520D01*
X006199Y013520D01*
X006480Y013801D01*
X006480Y014199D01*
X006280Y014399D01*
X006280Y015306D01*
X006237Y015409D01*
X006159Y015487D01*
X005659Y015987D01*
X005604Y016010D01*
X009510Y016010D01*
X009510Y000490D01*
X000490Y000490D01*
X000490Y000634D02*
X009510Y000634D01*
X009510Y000793D02*
X000490Y000793D01*
X000490Y000951D02*
X000911Y000951D01*
X000889Y000973D02*
X000961Y000901D01*
X001054Y000862D01*
X001156Y000862D01*
X001249Y000901D01*
X001253Y000904D01*
X001256Y000901D01*
X001310Y000879D01*
X001350Y000862D01*
X001451Y000862D01*
X001489Y000878D01*
X001545Y000901D01*
X001643Y001000D01*
X001715Y001071D01*
X001754Y001165D01*
X001754Y001510D01*
X001840Y001546D01*
X001912Y001617D01*
X001951Y001711D01*
X001951Y001813D01*
X001912Y001906D01*
X001840Y001978D01*
X001754Y002014D01*
X001754Y002108D01*
X001715Y002202D01*
X001685Y002232D01*
X001703Y002250D01*
X001845Y002250D01*
X001938Y002289D01*
X002010Y002360D01*
X002049Y002454D01*
X002049Y002556D01*
X002010Y002649D01*
X001938Y002721D01*
X001845Y002760D01*
X001685Y002760D01*
X001715Y002790D01*
X001754Y002884D01*
X001754Y003182D01*
X001736Y003226D01*
X001746Y003226D01*
X001840Y003265D01*
X001912Y003336D01*
X001951Y003430D01*
X001951Y003630D01*
X001912Y003724D01*
X001840Y003795D01*
X001746Y003834D01*
X001685Y003834D01*
X001715Y003864D01*
X001754Y003958D01*
X001754Y004052D01*
X001840Y004088D01*
X001912Y004160D01*
X001951Y004253D01*
X001951Y004355D01*
X001912Y004449D01*
X001840Y004520D01*
X001746Y004559D01*
X001054Y004559D01*
X000961Y004520D01*
X000889Y004449D01*
X000850Y004355D01*
X000850Y003958D01*
X000889Y003864D01*
X000910Y003843D01*
X000889Y003822D01*
X000850Y003728D01*
X000850Y003430D01*
X000889Y003336D01*
X000919Y003306D01*
X000889Y003276D01*
X000850Y003182D01*
X000850Y002884D01*
X000889Y002790D01*
X000910Y002769D01*
X000889Y002748D01*
X000850Y002654D01*
X000850Y002356D01*
X000881Y002281D01*
X000850Y002206D01*
X000850Y002105D01*
X000889Y002011D01*
X000941Y001959D01*
X000889Y001906D01*
X000850Y001813D01*
X000850Y001711D01*
X000889Y001617D01*
X000919Y001587D01*
X000889Y001557D01*
X000850Y001463D01*
X000850Y001067D01*
X000889Y000973D01*
X000850Y001110D02*
X000490Y001110D01*
X000490Y001268D02*
X000850Y001268D01*
X000850Y001427D02*
X000490Y001427D01*
X000490Y001585D02*
X000917Y001585D01*
X000850Y001744D02*
X000490Y001744D01*
X000490Y001902D02*
X000887Y001902D01*
X000868Y002061D02*
X000490Y002061D01*
X000490Y002219D02*
X000855Y002219D01*
X000850Y002378D02*
X000490Y002378D01*
X000490Y002536D02*
X000850Y002536D01*
X000867Y002695D02*
X000490Y002695D01*
X000490Y002853D02*
X000863Y002853D01*
X000850Y003012D02*
X000490Y003012D01*
X000490Y003170D02*
X000850Y003170D01*
X000897Y003329D02*
X000490Y003329D01*
X000490Y003487D02*
X000850Y003487D01*
X000850Y003646D02*
X000490Y003646D01*
X000490Y003804D02*
X000881Y003804D01*
X000850Y003963D02*
X000490Y003963D01*
X000490Y004121D02*
X000850Y004121D01*
X000850Y004280D02*
X000490Y004280D01*
X000490Y004438D02*
X000884Y004438D01*
X000490Y004597D02*
X003008Y004597D01*
X002849Y004755D02*
X000490Y004755D01*
X000490Y004914D02*
X002691Y004914D01*
X002532Y005072D02*
X000490Y005072D01*
X000490Y005231D02*
X002374Y005231D01*
X002215Y005389D02*
X000490Y005389D01*
X000490Y005548D02*
X002080Y005548D01*
X002055Y005706D02*
X000490Y005706D01*
X000490Y005865D02*
X002055Y005865D01*
X002055Y006023D02*
X000490Y006023D01*
X000490Y006182D02*
X002055Y006182D01*
X002055Y006340D02*
X000490Y006340D01*
X000490Y006499D02*
X002055Y006499D01*
X002055Y006657D02*
X000490Y006657D01*
X000490Y006816D02*
X001294Y006816D01*
X001229Y006974D02*
X000490Y006974D01*
X000490Y007133D02*
X001229Y007133D01*
X001229Y007298D02*
X001617Y007298D01*
X001617Y007725D01*
X001386Y007725D01*
X001340Y007713D01*
X001299Y007689D01*
X001265Y007656D01*
X001242Y007615D01*
X001229Y007569D01*
X001229Y007298D01*
X001229Y007450D02*
X000490Y007450D01*
X000490Y007608D02*
X001240Y007608D01*
X001617Y007608D02*
X001713Y007608D01*
X001713Y007450D02*
X001617Y007450D01*
X001617Y007291D02*
X000490Y007291D01*
X000490Y007767D02*
X002218Y007767D01*
X002218Y007925D02*
X000490Y007925D01*
X000490Y008084D02*
X002218Y008084D01*
X002109Y008242D02*
X001391Y008242D01*
X001497Y008401D02*
X002003Y008401D01*
X002498Y008746D02*
X002498Y007413D01*
X002335Y007250D01*
X002335Y005665D01*
X004000Y004000D01*
X004000Y002500D01*
X003674Y002853D02*
X003298Y002853D01*
X003191Y002960D02*
X003460Y002691D01*
X003460Y002510D01*
X003010Y002510D01*
X003010Y002490D01*
X003460Y002490D01*
X003460Y002309D01*
X003191Y002040D01*
X003010Y002040D01*
X003010Y002490D01*
X002990Y002490D01*
X002990Y002040D01*
X002809Y002040D01*
X002540Y002309D01*
X002540Y002490D01*
X002990Y002490D01*
X002990Y002510D01*
X002990Y002960D01*
X002809Y002960D01*
X002540Y002691D01*
X002540Y002510D01*
X002990Y002510D01*
X003010Y002510D01*
X003010Y002960D01*
X003191Y002960D01*
X003010Y002853D02*
X002990Y002853D01*
X002990Y002695D02*
X003010Y002695D01*
X003010Y002536D02*
X002990Y002536D01*
X002990Y002378D02*
X003010Y002378D01*
X003010Y002219D02*
X002990Y002219D01*
X002990Y002061D02*
X003010Y002061D01*
X003199Y001980D02*
X002801Y001980D01*
X002520Y001699D01*
X002520Y001301D01*
X002801Y001020D01*
X003199Y001020D01*
X003480Y001301D01*
X003480Y001699D01*
X003199Y001980D01*
X003211Y002061D02*
X003761Y002061D01*
X003809Y001960D02*
X003540Y001691D01*
X003540Y001510D01*
X003990Y001510D01*
X003990Y001960D01*
X003809Y001960D01*
X003751Y001902D02*
X003277Y001902D01*
X003435Y001744D02*
X003593Y001744D01*
X003540Y001585D02*
X003480Y001585D01*
X003540Y001490D02*
X003540Y001309D01*
X003809Y001040D01*
X003990Y001040D01*
X003990Y001490D01*
X004010Y001490D01*
X004010Y001510D01*
X004460Y001510D01*
X004460Y001691D01*
X004191Y001960D01*
X004010Y001960D01*
X004010Y001510D01*
X003990Y001510D01*
X003990Y001490D01*
X003540Y001490D01*
X003540Y001427D02*
X003480Y001427D01*
X003447Y001268D02*
X003581Y001268D01*
X003740Y001110D02*
X003288Y001110D01*
X002712Y001110D02*
X001731Y001110D01*
X001754Y001268D02*
X002553Y001268D01*
X002520Y001427D02*
X001754Y001427D01*
X001879Y001585D02*
X002520Y001585D01*
X002565Y001744D02*
X001951Y001744D01*
X001914Y001902D02*
X002723Y001902D01*
X002789Y002061D02*
X001754Y002061D01*
X001697Y002219D02*
X002630Y002219D01*
X002540Y002378D02*
X002017Y002378D01*
X002049Y002536D02*
X002540Y002536D01*
X002544Y002695D02*
X001965Y002695D01*
X001741Y002853D02*
X002702Y002853D01*
X003370Y002219D02*
X003602Y002219D01*
X003520Y002378D02*
X003460Y002378D01*
X003460Y002536D02*
X003520Y002536D01*
X003520Y002695D02*
X003456Y002695D01*
X003720Y003012D02*
X001754Y003012D01*
X001754Y003170D02*
X003720Y003170D01*
X003720Y003329D02*
X001904Y003329D01*
X001951Y003487D02*
X003720Y003487D01*
X003720Y003646D02*
X001944Y003646D01*
X001819Y003804D02*
X003720Y003804D01*
X003642Y003963D02*
X001754Y003963D01*
X001873Y004121D02*
X003483Y004121D01*
X003325Y004280D02*
X001951Y004280D01*
X001916Y004438D02*
X003166Y004438D01*
X003482Y004914D02*
X005518Y004914D01*
X005676Y005072D02*
X003324Y005072D01*
X003165Y005231D02*
X005835Y005231D01*
X005993Y005389D02*
X003007Y005389D01*
X002848Y005548D02*
X006152Y005548D01*
X006310Y005706D02*
X002690Y005706D01*
X002615Y005865D02*
X004249Y005865D01*
X004252Y005863D02*
X004252Y005863D01*
X004003Y006023D02*
X002615Y006023D01*
X002615Y006182D02*
X003785Y006182D01*
X003821Y006140D02*
X003821Y006140D01*
X003648Y006340D02*
X002615Y006340D01*
X002615Y006499D02*
X003510Y006499D01*
X003426Y006657D02*
X002615Y006657D01*
X002734Y006816D02*
X003354Y006816D01*
X003282Y006974D02*
X002791Y006974D01*
X002791Y007133D02*
X003253Y007133D01*
X003230Y007291D02*
X002791Y007291D01*
X002791Y007450D02*
X003207Y007450D01*
X003216Y007608D02*
X002791Y007608D01*
X002778Y007767D02*
X003238Y007767D01*
X003261Y007925D02*
X002778Y007925D01*
X002778Y008084D02*
X003308Y008084D01*
X003380Y008242D02*
X002887Y008242D01*
X002993Y008401D02*
X003453Y008401D01*
X003486Y008473D02*
X003486Y008473D01*
X003560Y008559D02*
X003205Y008559D01*
X003363Y008718D02*
X003697Y008718D01*
X003821Y008860D02*
X003821Y008860D01*
X003821Y008860D01*
X003846Y008876D02*
X003522Y008876D01*
X003680Y009035D02*
X004092Y009035D01*
X004252Y009137D02*
X004252Y009137D01*
X004442Y009193D02*
X003779Y009193D01*
X003780Y009352D02*
X006253Y009352D01*
X006411Y009193D02*
X005558Y009193D01*
X005748Y009137D02*
X005748Y009137D01*
X005908Y009035D02*
X006570Y009035D01*
X006720Y008876D02*
X006154Y008876D01*
X006303Y008718D02*
X006720Y008718D01*
X006720Y008559D02*
X006440Y008559D01*
X006514Y008473D02*
X006514Y008473D01*
X006547Y008401D02*
X006720Y008401D01*
X006720Y008242D02*
X006620Y008242D01*
X006692Y008084D02*
X006720Y008084D01*
X007000Y009000D02*
X004500Y011500D01*
X004500Y013500D01*
X005000Y014000D01*
X005310Y013631D02*
X005690Y013631D01*
X005794Y013473D02*
X005206Y013473D01*
X005365Y013314D02*
X005635Y013314D01*
X005520Y013156D02*
X005480Y013156D01*
X005480Y012997D02*
X005520Y012997D01*
X005520Y012839D02*
X005480Y012839D01*
X005359Y012680D02*
X005641Y012680D01*
X005720Y012522D02*
X005280Y012522D01*
X005280Y012363D02*
X005720Y012363D01*
X005720Y012205D02*
X005280Y012205D01*
X005350Y012046D02*
X005720Y012046D01*
X005744Y011888D02*
X005508Y011888D01*
X005667Y011729D02*
X005875Y011729D01*
X005825Y011571D02*
X006034Y011571D01*
X005984Y011412D02*
X006192Y011412D01*
X006142Y011254D02*
X006351Y011254D01*
X006301Y011095D02*
X006509Y011095D01*
X006459Y010937D02*
X006668Y010937D01*
X006618Y010778D02*
X006826Y010778D01*
X006776Y010620D02*
X006985Y010620D01*
X006935Y010461D02*
X007143Y010461D01*
X007093Y010303D02*
X007302Y010303D01*
X007252Y010144D02*
X007460Y010144D01*
X007410Y009986D02*
X007619Y009986D01*
X007569Y009827D02*
X007777Y009827D01*
X007727Y009669D02*
X007936Y009669D01*
X007970Y009510D02*
X007780Y009510D01*
X007780Y009352D02*
X007970Y009352D01*
X007970Y009193D02*
X007780Y009193D01*
X007780Y009035D02*
X007970Y009035D01*
X007970Y008876D02*
X007780Y008876D01*
X007780Y008718D02*
X007970Y008718D01*
X007970Y008559D02*
X007780Y008559D01*
X007780Y008401D02*
X007970Y008401D01*
X007970Y008242D02*
X007780Y008242D01*
X007780Y008084D02*
X007970Y008084D01*
X007970Y007925D02*
X007780Y007925D01*
X007780Y007767D02*
X007970Y007767D01*
X007970Y007608D02*
X007780Y007608D01*
X007780Y007450D02*
X007970Y007450D01*
X007970Y007291D02*
X007780Y007291D01*
X007780Y007133D02*
X007970Y007133D01*
X007970Y006974D02*
X007780Y006974D01*
X007780Y006816D02*
X007970Y006816D01*
X007970Y006657D02*
X007780Y006657D01*
X007780Y006499D02*
X007970Y006499D01*
X007970Y006340D02*
X007780Y006340D01*
X007780Y006182D02*
X007970Y006182D01*
X007970Y006023D02*
X007780Y006023D01*
X007780Y005865D02*
X007970Y005865D01*
X007970Y005706D02*
X007780Y005706D01*
X007780Y005548D02*
X007970Y005548D01*
X007970Y005389D02*
X007757Y005389D01*
X007835Y005231D02*
X007626Y005231D01*
X007676Y005072D02*
X007468Y005072D01*
X007518Y004914D02*
X007309Y004914D01*
X007359Y004755D02*
X007151Y004755D01*
X007201Y004597D02*
X006992Y004597D01*
X007042Y004438D02*
X006834Y004438D01*
X006884Y004280D02*
X006675Y004280D01*
X006725Y004121D02*
X006517Y004121D01*
X006567Y003963D02*
X006358Y003963D01*
X006408Y003804D02*
X006200Y003804D01*
X006341Y003737D02*
X006341Y003737D01*
X006257Y003646D02*
X006041Y003646D01*
X005883Y003487D02*
X006220Y003487D01*
X006220Y003329D02*
X005780Y003329D01*
X005780Y003170D02*
X006220Y003170D01*
X006220Y003012D02*
X005780Y003012D01*
X005500Y003500D02*
X007500Y005500D01*
X007500Y009500D01*
X005000Y012000D01*
X005000Y013000D01*
X005468Y013790D02*
X005532Y013790D01*
X005520Y013948D02*
X005480Y013948D01*
X005480Y014107D02*
X005520Y014107D01*
X005586Y014265D02*
X005414Y014265D01*
X005255Y014424D02*
X005720Y014424D01*
X005720Y014582D02*
X004280Y014582D01*
X004280Y014424D02*
X004745Y014424D01*
X004586Y014265D02*
X004414Y014265D01*
X004480Y014107D02*
X004520Y014107D01*
X004520Y013948D02*
X004480Y013948D01*
X004220Y013473D02*
X003206Y013473D01*
X003199Y013480D02*
X002801Y013480D01*
X002520Y013199D01*
X002520Y012801D01*
X002801Y012520D01*
X003199Y012520D01*
X003480Y012801D01*
X003480Y013199D01*
X003199Y013480D01*
X003191Y013540D02*
X003460Y013809D01*
X003460Y013990D01*
X003010Y013990D01*
X003010Y014010D01*
X003460Y014010D01*
X003460Y014191D01*
X003191Y014460D01*
X003010Y014460D01*
X003010Y014010D01*
X002990Y014010D01*
X002990Y014460D01*
X002809Y014460D01*
X002540Y014191D01*
X002540Y014010D01*
X002990Y014010D01*
X002990Y013990D01*
X003010Y013990D01*
X003010Y013540D01*
X003191Y013540D01*
X003282Y013631D02*
X003690Y013631D01*
X003532Y013790D02*
X003440Y013790D01*
X003460Y013948D02*
X003520Y013948D01*
X003520Y014107D02*
X003460Y014107D01*
X003386Y014265D02*
X003586Y014265D01*
X003720Y014424D02*
X003227Y014424D01*
X003010Y014424D02*
X002990Y014424D01*
X002990Y014265D02*
X003010Y014265D01*
X003010Y014107D02*
X002990Y014107D01*
X002990Y013990D02*
X002540Y013990D01*
X002540Y013809D01*
X002809Y013540D01*
X002990Y013540D01*
X002990Y013990D01*
X002990Y013948D02*
X003010Y013948D01*
X003010Y013790D02*
X002990Y013790D01*
X002990Y013631D02*
X003010Y013631D01*
X002794Y013473D02*
X002280Y013473D01*
X002280Y013631D02*
X002718Y013631D01*
X002560Y013790D02*
X002280Y013790D01*
X002280Y013948D02*
X002540Y013948D01*
X002540Y014107D02*
X002280Y014107D01*
X002280Y014265D02*
X002614Y014265D01*
X002773Y014424D02*
X002320Y014424D01*
X002478Y014582D02*
X003720Y014582D01*
X004000Y014750D02*
X003750Y015000D01*
X002500Y015000D01*
X002000Y014500D01*
X002000Y012750D01*
X003500Y011250D01*
X003500Y009250D01*
X003000Y008750D01*
X002502Y008750D01*
X001006Y008750D01*
X001002Y008746D01*
X000556Y009193D02*
X000490Y009193D01*
X000490Y009035D02*
X000507Y009035D01*
X000490Y008876D02*
X000507Y008876D01*
X000490Y008718D02*
X000507Y008718D01*
X000490Y008559D02*
X000507Y008559D01*
X000490Y008401D02*
X000507Y008401D01*
X000490Y008242D02*
X000613Y008242D01*
X000490Y009352D02*
X003206Y009352D01*
X003220Y009510D02*
X000490Y009510D01*
X000490Y009669D02*
X003220Y009669D01*
X003220Y009827D02*
X000490Y009827D01*
X000490Y009986D02*
X003220Y009986D01*
X003220Y010144D02*
X000490Y010144D01*
X000490Y010303D02*
X000589Y010303D01*
X000596Y010295D02*
X000637Y010271D01*
X000683Y010259D01*
X000934Y010259D01*
X000934Y010686D01*
X000527Y010686D01*
X000527Y010415D01*
X000539Y010369D01*
X000563Y010328D01*
X000596Y010295D01*
X000527Y010461D02*
X000490Y010461D01*
X000490Y010620D02*
X000527Y010620D01*
X000490Y010778D02*
X000934Y010778D01*
X000934Y010822D02*
X000934Y010686D01*
X001070Y010686D01*
X001070Y010822D01*
X000934Y010822D01*
X000934Y011249D01*
X000683Y011249D01*
X000637Y011237D01*
X000596Y011213D01*
X000563Y011179D01*
X000539Y011138D01*
X000527Y011093D01*
X000527Y010822D01*
X000934Y010822D01*
X000934Y010937D02*
X001070Y010937D01*
X001070Y010822D02*
X001070Y011249D01*
X001321Y011249D01*
X001367Y011237D01*
X001408Y011213D01*
X001441Y011179D01*
X001465Y011138D01*
X001477Y011093D01*
X001477Y010822D01*
X001070Y010822D01*
X001070Y010778D02*
X002003Y010778D01*
X002003Y010620D02*
X001477Y010620D01*
X001477Y010686D02*
X001070Y010686D01*
X001070Y010259D01*
X001321Y010259D01*
X001367Y010271D01*
X001408Y010295D01*
X001441Y010328D01*
X001465Y010369D01*
X001477Y010415D01*
X001477Y010686D01*
X001477Y010461D02*
X002003Y010461D01*
X002056Y010303D02*
X001415Y010303D01*
X001070Y010303D02*
X000934Y010303D01*
X000934Y010461D02*
X001070Y010461D01*
X001070Y010620D02*
X000934Y010620D01*
X000934Y011095D02*
X001070Y011095D01*
X001477Y011095D02*
X002003Y011095D01*
X002003Y010937D02*
X001477Y010937D01*
X002034Y011571D02*
X000490Y011571D01*
X000490Y011729D02*
X001875Y011729D01*
X001717Y011888D02*
X000490Y011888D01*
X000490Y012046D02*
X001558Y012046D01*
X001400Y012205D02*
X000490Y012205D01*
X000490Y012363D02*
X001241Y012363D01*
X001083Y012522D02*
X000490Y012522D01*
X000490Y012680D02*
X000924Y012680D01*
X000765Y012839D02*
X000490Y012839D01*
X000490Y012997D02*
X000720Y012997D01*
X000720Y013156D02*
X000490Y013156D01*
X000490Y013314D02*
X000720Y013314D01*
X000720Y013473D02*
X000490Y013473D01*
X000490Y013631D02*
X000720Y013631D01*
X000720Y013790D02*
X000490Y013790D01*
X000490Y013948D02*
X000720Y013948D01*
X000720Y014107D02*
X000490Y014107D01*
X000490Y014265D02*
X000720Y014265D01*
X000720Y014424D02*
X000490Y014424D01*
X000490Y014582D02*
X000731Y014582D01*
X000845Y014741D02*
X000490Y014741D01*
X000490Y014899D02*
X001003Y014899D01*
X001162Y015058D02*
X000490Y015058D01*
X000490Y015216D02*
X001320Y015216D01*
X001479Y015375D02*
X000490Y015375D01*
X000490Y015533D02*
X001637Y015533D01*
X001796Y015692D02*
X000490Y015692D01*
X000490Y015850D02*
X001954Y015850D01*
X002142Y016009D02*
X000490Y016009D01*
X001000Y014500D02*
X001000Y013000D01*
X002498Y011502D01*
X002498Y010754D01*
X002105Y011254D02*
X000490Y011254D01*
X000490Y011412D02*
X002192Y011412D01*
X002773Y011571D02*
X002784Y011571D01*
X002778Y011412D02*
X002942Y011412D01*
X002892Y011254D02*
X003101Y011254D01*
X002993Y011095D02*
X003220Y011095D01*
X003220Y010937D02*
X002993Y010937D01*
X002993Y010778D02*
X003220Y010778D01*
X003220Y010620D02*
X002993Y010620D01*
X002993Y010461D02*
X003220Y010461D01*
X003220Y010303D02*
X002940Y010303D01*
X002944Y009193D02*
X003047Y009193D01*
X002502Y008750D02*
X002498Y008746D01*
X002052Y009193D02*
X001448Y009193D01*
X001497Y009035D02*
X002003Y009035D01*
X001713Y007133D02*
X001617Y007133D01*
X001617Y006974D02*
X001713Y006974D01*
X001713Y006816D02*
X001617Y006816D01*
X003641Y004755D02*
X005359Y004755D01*
X005201Y004597D02*
X003799Y004597D01*
X003958Y004438D02*
X005042Y004438D01*
X004884Y004280D02*
X004116Y004280D01*
X004253Y004121D02*
X004747Y004121D01*
X004720Y003963D02*
X004280Y003963D01*
X004280Y003804D02*
X004720Y003804D01*
X004720Y003646D02*
X004280Y003646D01*
X004280Y003487D02*
X004720Y003487D01*
X004720Y003329D02*
X004280Y003329D01*
X004280Y003170D02*
X004720Y003170D01*
X004720Y003012D02*
X004280Y003012D01*
X004326Y002853D02*
X004674Y002853D01*
X004520Y002695D02*
X004480Y002695D01*
X004480Y002536D02*
X004520Y002536D01*
X004520Y002378D02*
X004480Y002378D01*
X004398Y002219D02*
X004602Y002219D01*
X004761Y002061D02*
X004239Y002061D01*
X004249Y001902D02*
X004723Y001902D01*
X004565Y001744D02*
X004407Y001744D01*
X004460Y001585D02*
X004520Y001585D01*
X004460Y001490D02*
X004460Y001309D01*
X004191Y001040D01*
X004010Y001040D01*
X004010Y001490D01*
X004460Y001490D01*
X004460Y001427D02*
X004520Y001427D01*
X004553Y001268D02*
X004419Y001268D01*
X004260Y001110D02*
X004712Y001110D01*
X005000Y001500D02*
X005500Y002000D01*
X005500Y003500D01*
X005000Y004000D02*
X007000Y006000D01*
X007000Y009000D01*
X006094Y009510D02*
X003780Y009510D01*
X003780Y009669D02*
X005936Y009669D01*
X005777Y009827D02*
X003780Y009827D01*
X003780Y009986D02*
X005619Y009986D01*
X005460Y010144D02*
X003780Y010144D01*
X003780Y010303D02*
X005302Y010303D01*
X005143Y010461D02*
X003780Y010461D01*
X003780Y010620D02*
X004985Y010620D01*
X004826Y010778D02*
X003780Y010778D01*
X003780Y010937D02*
X004668Y010937D01*
X004509Y011095D02*
X003780Y011095D01*
X003780Y011254D02*
X004351Y011254D01*
X004233Y011412D02*
X003734Y011412D01*
X003575Y011571D02*
X004220Y011571D01*
X004220Y011729D02*
X003417Y011729D01*
X003258Y011888D02*
X004220Y011888D01*
X004220Y012046D02*
X003100Y012046D01*
X002941Y012205D02*
X004220Y012205D01*
X004220Y012363D02*
X002783Y012363D01*
X002800Y012522D02*
X002624Y012522D01*
X002641Y012680D02*
X002466Y012680D01*
X002520Y012839D02*
X002307Y012839D01*
X002280Y012997D02*
X002520Y012997D01*
X002520Y013156D02*
X002280Y013156D01*
X002280Y013314D02*
X002635Y013314D01*
X003200Y012522D02*
X004220Y012522D01*
X003990Y012540D02*
X003990Y012990D01*
X003540Y012990D01*
X003540Y012809D01*
X003809Y012540D01*
X003990Y012540D01*
X003990Y012680D02*
X004010Y012680D01*
X004010Y012839D02*
X003990Y012839D01*
X003990Y012997D02*
X003480Y012997D01*
X003480Y012839D02*
X003540Y012839D01*
X003669Y012680D02*
X003359Y012680D01*
X003480Y013156D02*
X003540Y013156D01*
X003663Y013314D02*
X003365Y013314D01*
X003990Y013314D02*
X004010Y013314D01*
X004010Y013156D02*
X003990Y013156D01*
X004000Y014000D02*
X004000Y014750D01*
X004241Y014899D02*
X005720Y014899D01*
X005720Y014741D02*
X004280Y014741D01*
X004088Y015058D02*
X005720Y015058D01*
X005638Y015216D02*
X003930Y015216D01*
X005479Y015375D02*
X002271Y015375D01*
X002320Y015216D02*
X002112Y015216D01*
X002162Y015058D02*
X001954Y015058D01*
X002003Y014899D02*
X001795Y014899D01*
X001845Y014741D02*
X001637Y014741D01*
X001731Y014582D02*
X001478Y014582D01*
X001320Y014424D02*
X001720Y014424D01*
X001720Y014265D02*
X001280Y014265D01*
X001280Y014107D02*
X001720Y014107D01*
X001720Y013948D02*
X001280Y013948D01*
X001280Y013790D02*
X001720Y013790D01*
X001720Y013631D02*
X001280Y013631D01*
X001280Y013473D02*
X001720Y013473D01*
X001720Y013314D02*
X001280Y013314D01*
X001280Y013156D02*
X001720Y013156D01*
X001720Y012997D02*
X001399Y012997D01*
X001557Y012839D02*
X001720Y012839D01*
X001716Y012680D02*
X001726Y012680D01*
X001000Y014500D02*
X002250Y015750D01*
X005500Y015750D01*
X006000Y015250D01*
X006000Y014000D01*
X006310Y013631D02*
X006718Y013631D01*
X006809Y013540D02*
X006540Y013809D01*
X006540Y013990D01*
X006990Y013990D01*
X007010Y013990D01*
X007010Y014010D01*
X007460Y014010D01*
X007460Y014191D01*
X007191Y014460D01*
X007010Y014460D01*
X007010Y014010D01*
X006990Y014010D01*
X006990Y014460D01*
X006809Y014460D01*
X006540Y014191D01*
X006540Y014010D01*
X006990Y014010D01*
X006990Y013990D01*
X006990Y013540D01*
X006809Y013540D01*
X006886Y013473D02*
X006206Y013473D01*
X006365Y013314D02*
X006635Y013314D01*
X006545Y013156D02*
X006480Y013156D01*
X006480Y012997D02*
X006520Y012997D01*
X006547Y012839D02*
X006480Y012839D01*
X006359Y012680D02*
X006641Y012680D01*
X006720Y012522D02*
X006280Y012522D01*
X006280Y012363D02*
X006720Y012363D01*
X006720Y012205D02*
X006280Y012205D01*
X006350Y012046D02*
X006720Y012046D01*
X006744Y011888D02*
X006508Y011888D01*
X006667Y011729D02*
X006875Y011729D01*
X006825Y011571D02*
X007034Y011571D01*
X006984Y011412D02*
X007192Y011412D01*
X007142Y011254D02*
X007351Y011254D01*
X007301Y011095D02*
X007509Y011095D01*
X007459Y010937D02*
X007668Y010937D01*
X007618Y010778D02*
X007826Y010778D01*
X007776Y010620D02*
X007985Y010620D01*
X007935Y010461D02*
X008143Y010461D01*
X008093Y010303D02*
X008302Y010303D01*
X008252Y010144D02*
X008460Y010144D01*
X008410Y009986D02*
X008619Y009986D01*
X008521Y009827D02*
X008720Y009827D01*
X008720Y009669D02*
X008530Y009669D01*
X008530Y009510D02*
X008720Y009510D01*
X008720Y009352D02*
X008530Y009352D01*
X008530Y009193D02*
X008720Y009193D01*
X008720Y009035D02*
X008530Y009035D01*
X008530Y008876D02*
X008720Y008876D01*
X008720Y008718D02*
X008530Y008718D01*
X008530Y008559D02*
X008720Y008559D01*
X008720Y008401D02*
X008530Y008401D01*
X008530Y008242D02*
X008720Y008242D01*
X008720Y008084D02*
X008530Y008084D01*
X008530Y007925D02*
X008720Y007925D01*
X008720Y007767D02*
X008530Y007767D01*
X008530Y007608D02*
X008720Y007608D01*
X008720Y007450D02*
X008530Y007450D01*
X008530Y007291D02*
X008720Y007291D01*
X008720Y007133D02*
X008530Y007133D01*
X008530Y006974D02*
X008720Y006974D01*
X008720Y006816D02*
X008530Y006816D01*
X008530Y006657D02*
X008720Y006657D01*
X008720Y006499D02*
X008530Y006499D01*
X008530Y006340D02*
X008720Y006340D01*
X008720Y006182D02*
X008530Y006182D01*
X008530Y006023D02*
X008720Y006023D01*
X008720Y005865D02*
X008530Y005865D01*
X008530Y005706D02*
X008720Y005706D01*
X008720Y005548D02*
X008530Y005548D01*
X008530Y005389D02*
X008720Y005389D01*
X008720Y005231D02*
X008530Y005231D01*
X008468Y005072D02*
X008720Y005072D01*
X008720Y004914D02*
X008309Y004914D01*
X008409Y005013D02*
X008409Y005013D01*
X008250Y005250D02*
X008250Y009750D01*
X006000Y012000D01*
X006000Y013000D01*
X006468Y013790D02*
X006560Y013790D01*
X006540Y013948D02*
X006480Y013948D01*
X006480Y014107D02*
X006540Y014107D01*
X006614Y014265D02*
X006414Y014265D01*
X006280Y014424D02*
X006773Y014424D01*
X006990Y014424D02*
X007010Y014424D01*
X007010Y014265D02*
X006990Y014265D01*
X006990Y014107D02*
X007010Y014107D01*
X007010Y013990D02*
X007460Y013990D01*
X007460Y013809D01*
X007191Y013540D01*
X007010Y013540D01*
X007010Y013990D01*
X007010Y013948D02*
X006990Y013948D01*
X006990Y013790D02*
X007010Y013790D01*
X007010Y013631D02*
X006990Y013631D01*
X007114Y013473D02*
X008242Y013473D01*
X008211Y013504D02*
X008309Y013405D01*
X008403Y013366D01*
X008701Y013366D01*
X008795Y013405D01*
X008866Y013477D01*
X008965Y013575D01*
X009004Y013669D01*
X009004Y013770D01*
X009004Y014066D01*
X008965Y014159D01*
X008935Y014190D01*
X008965Y014220D01*
X009004Y014314D01*
X009004Y014612D01*
X008965Y014706D01*
X008935Y014736D01*
X008965Y014766D01*
X009004Y014860D01*
X009004Y015060D01*
X008988Y015097D01*
X008984Y015107D01*
X008987Y015115D01*
X009004Y015155D01*
X009004Y015256D01*
X008988Y015294D01*
X008965Y015350D01*
X008866Y015449D01*
X008795Y015520D01*
X008701Y015559D01*
X008304Y015559D01*
X008211Y015520D01*
X008139Y015449D01*
X008100Y015355D01*
X008100Y015253D01*
X008120Y015206D01*
X008100Y015158D01*
X008100Y015057D01*
X008120Y015009D01*
X008100Y014961D01*
X008100Y014860D01*
X008131Y014785D01*
X008100Y014710D01*
X008100Y014314D01*
X008139Y014220D01*
X008169Y014190D01*
X008139Y014159D01*
X008100Y014066D01*
X008100Y013669D01*
X008139Y013575D01*
X008211Y013504D01*
X008116Y013631D02*
X007282Y013631D01*
X007440Y013790D02*
X008100Y013790D01*
X008100Y013948D02*
X007460Y013948D01*
X007460Y014107D02*
X008117Y014107D01*
X008120Y014265D02*
X007386Y014265D01*
X007227Y014424D02*
X008100Y014424D01*
X008100Y014582D02*
X006280Y014582D01*
X006280Y014741D02*
X008113Y014741D01*
X008100Y014899D02*
X006280Y014899D01*
X006280Y015058D02*
X008100Y015058D01*
X008115Y015216D02*
X006280Y015216D01*
X006251Y015375D02*
X008108Y015375D01*
X008241Y015533D02*
X006113Y015533D01*
X005954Y015692D02*
X009510Y015692D01*
X009510Y015850D02*
X005796Y015850D01*
X005608Y016009D02*
X009510Y016009D01*
X009510Y015533D02*
X008764Y015533D01*
X008940Y015375D02*
X009510Y015375D01*
X009510Y015216D02*
X009004Y015216D01*
X009004Y015058D02*
X009510Y015058D01*
X009510Y014899D02*
X009004Y014899D01*
X008939Y014741D02*
X009510Y014741D01*
X009510Y014582D02*
X009004Y014582D01*
X009004Y014424D02*
X009510Y014424D01*
X009510Y014265D02*
X008984Y014265D01*
X008987Y014107D02*
X009510Y014107D01*
X009510Y013948D02*
X009004Y013948D01*
X009004Y013790D02*
X009510Y013790D01*
X009510Y013631D02*
X008988Y013631D01*
X008862Y013473D02*
X009510Y013473D01*
X009510Y013314D02*
X007365Y013314D01*
X007455Y013156D02*
X009510Y013156D01*
X009510Y012997D02*
X007480Y012997D01*
X007453Y012839D02*
X009510Y012839D01*
X009510Y012680D02*
X007359Y012680D01*
X007280Y012522D02*
X009510Y012522D01*
X009510Y012363D02*
X007280Y012363D01*
X007280Y012205D02*
X009510Y012205D01*
X009510Y012046D02*
X007350Y012046D01*
X007508Y011888D02*
X009510Y011888D01*
X009510Y011729D02*
X007667Y011729D01*
X007825Y011571D02*
X009510Y011571D01*
X009510Y011412D02*
X007984Y011412D01*
X008142Y011254D02*
X009510Y011254D01*
X009510Y011095D02*
X008301Y011095D01*
X008459Y010937D02*
X009510Y010937D01*
X009510Y010778D02*
X008618Y010778D01*
X008776Y010620D02*
X009510Y010620D01*
X009510Y010461D02*
X008935Y010461D01*
X009093Y010303D02*
X009510Y010303D01*
X009510Y010144D02*
X009243Y010144D01*
X009280Y009986D02*
X009510Y009986D01*
X009510Y009827D02*
X009280Y009827D01*
X009280Y009669D02*
X009510Y009669D01*
X009510Y009510D02*
X009280Y009510D01*
X009280Y009352D02*
X009510Y009352D01*
X009510Y009193D02*
X009280Y009193D01*
X009280Y009035D02*
X009510Y009035D01*
X009510Y008876D02*
X009280Y008876D01*
X009280Y008718D02*
X009510Y008718D01*
X009510Y008559D02*
X009280Y008559D01*
X009280Y008401D02*
X009510Y008401D01*
X009510Y008242D02*
X009280Y008242D01*
X009280Y008084D02*
X009510Y008084D01*
X009510Y007925D02*
X009280Y007925D01*
X009280Y007767D02*
X009510Y007767D01*
X009510Y007608D02*
X009280Y007608D01*
X009280Y007450D02*
X009510Y007450D01*
X009510Y007291D02*
X009280Y007291D01*
X009280Y007133D02*
X009510Y007133D01*
X009510Y006974D02*
X009280Y006974D01*
X009280Y006816D02*
X009510Y006816D01*
X009510Y006657D02*
X009280Y006657D01*
X009280Y006499D02*
X009510Y006499D01*
X009510Y006340D02*
X009280Y006340D01*
X009280Y006182D02*
X009510Y006182D01*
X009510Y006023D02*
X009280Y006023D01*
X009280Y005865D02*
X009510Y005865D01*
X009510Y005706D02*
X009280Y005706D01*
X009280Y005548D02*
X009510Y005548D01*
X009510Y005389D02*
X009280Y005389D01*
X009280Y005231D02*
X009510Y005231D01*
X009510Y005072D02*
X009280Y005072D01*
X009280Y004914D02*
X009510Y004914D01*
X009510Y004755D02*
X009280Y004755D01*
X009280Y004597D02*
X009510Y004597D01*
X009510Y004438D02*
X009280Y004438D01*
X009280Y004280D02*
X009510Y004280D01*
X009510Y004121D02*
X009280Y004121D01*
X009280Y003963D02*
X009510Y003963D01*
X009510Y003804D02*
X009280Y003804D01*
X009280Y003646D02*
X009510Y003646D01*
X009510Y003487D02*
X009280Y003487D01*
X009280Y003329D02*
X009510Y003329D01*
X009510Y003170D02*
X009280Y003170D01*
X009280Y003012D02*
X009510Y003012D01*
X009510Y002853D02*
X009280Y002853D01*
X009280Y002695D02*
X009510Y002695D01*
X009510Y002536D02*
X009280Y002536D01*
X009252Y002378D02*
X009510Y002378D01*
X009510Y002219D02*
X009115Y002219D01*
X008956Y002061D02*
X009510Y002061D01*
X009510Y001902D02*
X008798Y001902D01*
X008639Y001744D02*
X009510Y001744D01*
X009510Y001585D02*
X008481Y001585D01*
X008322Y001427D02*
X009510Y001427D01*
X009510Y001268D02*
X008164Y001268D01*
X008000Y001500D02*
X009000Y002500D01*
X009000Y010000D01*
X007000Y012000D01*
X007000Y013000D01*
X006718Y006974D02*
X006720Y006974D01*
X006720Y006816D02*
X006646Y006816D01*
X006574Y006657D02*
X006720Y006657D01*
X006720Y006499D02*
X006490Y006499D01*
X006514Y006527D02*
X006514Y006527D01*
X006352Y006340D02*
X006720Y006340D01*
X006720Y006182D02*
X006215Y006182D01*
X006179Y006140D02*
X006179Y006140D01*
X006179Y006140D01*
X005997Y006023D02*
X006627Y006023D01*
X006469Y005865D02*
X005751Y005865D01*
X005748Y005863D02*
X005748Y005863D01*
X005000Y004000D02*
X005000Y002500D01*
X005481Y001585D02*
X005520Y001585D01*
X005520Y001427D02*
X005480Y001427D01*
X005447Y001268D02*
X005553Y001268D01*
X005712Y001110D02*
X005288Y001110D01*
X006000Y001500D02*
X006500Y002000D01*
X006500Y003500D01*
X008250Y005250D01*
X008151Y004755D02*
X008720Y004755D01*
X008720Y004597D02*
X007992Y004597D01*
X007834Y004438D02*
X008720Y004438D01*
X008720Y004280D02*
X007675Y004280D01*
X007517Y004121D02*
X008720Y004121D01*
X008720Y003963D02*
X007358Y003963D01*
X007200Y003804D02*
X008720Y003804D01*
X008720Y003646D02*
X007041Y003646D01*
X006883Y003487D02*
X008720Y003487D01*
X008720Y003329D02*
X006780Y003329D01*
X006780Y003170D02*
X008720Y003170D01*
X008720Y003012D02*
X006780Y003012D01*
X007010Y002960D02*
X007010Y002510D01*
X007460Y002510D01*
X007460Y002691D01*
X007191Y002960D01*
X007010Y002960D01*
X007010Y002853D02*
X006990Y002853D01*
X006990Y002695D02*
X007010Y002695D01*
X007010Y002536D02*
X006990Y002536D01*
X007010Y002490D02*
X007460Y002490D01*
X007460Y002309D01*
X007191Y002040D01*
X007010Y002040D01*
X007010Y002490D01*
X007010Y002378D02*
X006990Y002378D01*
X006990Y002219D02*
X007010Y002219D01*
X007010Y002061D02*
X006990Y002061D01*
X007211Y002061D02*
X008165Y002061D01*
X008323Y002219D02*
X007370Y002219D01*
X007460Y002378D02*
X008482Y002378D01*
X008640Y002536D02*
X007460Y002536D01*
X007456Y002695D02*
X008720Y002695D01*
X008720Y002853D02*
X007298Y002853D01*
X006789Y002061D02*
X006780Y002061D01*
X006520Y001585D02*
X006481Y001585D01*
X006480Y001427D02*
X006520Y001427D01*
X006553Y001268D02*
X006447Y001268D01*
X006288Y001110D02*
X006712Y001110D01*
X007000Y001500D02*
X008000Y001500D01*
X008006Y001902D02*
X007277Y001902D01*
X007288Y001110D02*
X009510Y001110D01*
X009510Y000951D02*
X001594Y000951D01*
X001256Y000901D02*
X001256Y000901D01*
X001253Y000904D02*
X001253Y000904D01*
X003990Y001110D02*
X004010Y001110D01*
X004010Y001268D02*
X003990Y001268D01*
X003990Y001427D02*
X004010Y001427D01*
X004010Y001585D02*
X003990Y001585D01*
X003990Y001744D02*
X004010Y001744D01*
X004010Y001902D02*
X003990Y001902D01*
X000527Y010937D02*
X000490Y010937D01*
X000490Y011095D02*
X000527Y011095D01*
M02*
