G75*
%MOIN*%
%OFA0B0*%
%FSLAX24Y24*%
%IPPOS*%
%LPD*%
%AMOC8*
5,1,8,0,0,1.08239X$1,22.5*
%
%ADD10C,0.0110*%
%ADD11C,0.0560*%
%ADD12OC8,0.0560*%
%ADD13R,0.0591X0.0630*%
%ADD14R,0.0512X0.0591*%
%ADD15C,0.0600*%
%ADD16C,0.0160*%
D10*
X001285Y002151D02*
X001285Y002446D01*
X001383Y002544D01*
X001482Y002446D01*
X001482Y002249D01*
X001580Y002151D01*
X001679Y002249D01*
X001679Y002544D01*
X001580Y002795D02*
X001679Y002894D01*
X001679Y003091D01*
X001580Y003189D01*
X001285Y003189D01*
X001285Y003440D02*
X001285Y003637D01*
X001285Y003538D02*
X001679Y003538D01*
X001679Y003440D01*
X001876Y003538D02*
X001974Y003538D01*
X001580Y003870D02*
X001679Y003968D01*
X001679Y004165D01*
X001580Y004263D01*
X001482Y004263D01*
X001482Y003870D01*
X001580Y003870D02*
X001383Y003870D01*
X001285Y003968D01*
X001285Y004165D01*
X001285Y004514D02*
X001285Y004711D01*
X001285Y004612D02*
X001876Y004612D01*
X001876Y004514D01*
X001580Y004944D02*
X001679Y005042D01*
X001679Y005337D01*
X001876Y005337D02*
X001285Y005337D01*
X001285Y005042D01*
X001383Y004944D01*
X001580Y004944D01*
X001876Y002795D02*
X001285Y002795D01*
X008633Y014655D02*
X008535Y014753D01*
X008535Y015048D01*
X008633Y015299D02*
X008535Y015398D01*
X008535Y015693D01*
X008830Y015693D01*
X008929Y015594D01*
X008929Y015398D01*
X008732Y015398D02*
X008732Y015693D01*
X008732Y015398D02*
X008633Y015299D01*
X008929Y015048D02*
X008929Y014753D01*
X008830Y014655D01*
X008633Y014655D01*
X008535Y015944D02*
X008929Y015944D01*
X008929Y016042D01*
X008830Y016141D01*
X008929Y016239D01*
X008830Y016337D01*
X008535Y016337D01*
X008535Y016141D02*
X008830Y016141D01*
D11*
X007180Y014033D03*
D12*
X007180Y015033D03*
X006180Y015033D03*
X006180Y014033D03*
X005180Y014033D03*
X005180Y015033D03*
X004180Y015033D03*
X004180Y014033D03*
X003180Y014033D03*
X003180Y015033D03*
X003180Y003533D03*
X003180Y002533D03*
X004180Y002533D03*
X004180Y003533D03*
X005180Y003533D03*
X005180Y002533D03*
X006180Y002533D03*
X006180Y003533D03*
X007180Y003533D03*
X007180Y002533D03*
D13*
X002678Y009779D03*
X002678Y011787D03*
X001182Y011787D03*
X001182Y009779D03*
D14*
X001845Y008283D03*
X002515Y008283D03*
D15*
X008880Y012033D02*
X009480Y012033D01*
X009480Y013033D02*
X008880Y013033D01*
X008880Y014033D02*
X009480Y014033D01*
D16*
X000180Y017533D02*
X000180Y001033D01*
X010180Y001033D01*
X010180Y017533D01*
X000180Y017533D01*
X000665Y017048D02*
X002338Y017048D01*
X002271Y017021D01*
X002193Y016942D01*
X001021Y015771D01*
X000943Y015692D01*
X000900Y015589D01*
X000900Y013978D01*
X000943Y013875D01*
X001021Y013796D01*
X002398Y012419D01*
X002398Y012302D01*
X002300Y012302D01*
X002183Y012185D01*
X002183Y011389D01*
X002300Y011272D01*
X003056Y011272D01*
X003173Y011389D01*
X003173Y012185D01*
X003056Y012302D01*
X002958Y012302D01*
X002958Y012591D01*
X002945Y012622D01*
X003400Y012167D01*
X003400Y010399D01*
X003173Y010173D01*
X003173Y010177D01*
X003056Y010294D01*
X002300Y010294D01*
X002183Y010177D01*
X002183Y010063D01*
X001677Y010063D01*
X001677Y010177D01*
X001560Y010294D01*
X000804Y010294D01*
X000687Y010177D01*
X000687Y009382D01*
X000804Y009264D01*
X001560Y009264D01*
X001677Y009382D01*
X001677Y009503D01*
X002183Y009503D01*
X002183Y009382D01*
X002300Y009264D01*
X002398Y009264D01*
X002398Y008779D01*
X002176Y008779D01*
X002149Y008752D01*
X002125Y008759D01*
X001893Y008759D01*
X001893Y008331D01*
X001797Y008331D01*
X001797Y008235D01*
X001893Y008235D01*
X001893Y007808D01*
X002125Y007808D01*
X002149Y007815D01*
X002176Y007788D01*
X002235Y007788D01*
X002235Y006643D01*
X002277Y006540D01*
X003900Y004917D01*
X003900Y003932D01*
X003700Y003732D01*
X003700Y003335D01*
X003981Y003053D01*
X004379Y003053D01*
X004660Y003335D01*
X004660Y003732D01*
X004460Y003932D01*
X004460Y005089D01*
X004417Y005192D01*
X004339Y005271D01*
X002795Y006815D01*
X002795Y007788D01*
X002853Y007788D01*
X002971Y007905D01*
X002971Y008661D01*
X002958Y008674D01*
X002958Y009264D01*
X003056Y009264D01*
X003173Y009382D01*
X003173Y009503D01*
X003236Y009503D01*
X003339Y009546D01*
X003839Y010046D01*
X003917Y010125D01*
X003960Y010228D01*
X003960Y012339D01*
X003917Y012442D01*
X002460Y013899D01*
X002460Y015417D01*
X002796Y015753D01*
X003814Y015753D01*
X003900Y015667D01*
X003900Y015432D01*
X003700Y015232D01*
X003700Y014835D01*
X003981Y014553D01*
X004379Y014553D01*
X004400Y014575D01*
X004400Y014464D01*
X004371Y014493D01*
X004190Y014493D01*
X004190Y014043D01*
X004170Y014043D01*
X004170Y014023D01*
X004190Y014023D01*
X004190Y013573D01*
X004371Y013573D01*
X004400Y013603D01*
X004400Y012478D01*
X004443Y012375D01*
X004521Y012296D01*
X006900Y009917D01*
X006900Y009056D01*
X006694Y009506D01*
X006694Y009506D01*
X006359Y009894D01*
X006359Y009894D01*
X005928Y010171D01*
X005928Y010171D01*
X005436Y010315D01*
X004924Y010315D01*
X004432Y010171D01*
X004001Y009894D01*
X003666Y009506D01*
X003453Y009040D01*
X003380Y008533D01*
X003453Y008026D01*
X003666Y007560D01*
X004001Y007173D01*
X004432Y006896D01*
X004432Y006896D01*
X004924Y006752D01*
X005436Y006752D01*
X005928Y006896D01*
X006359Y007173D01*
X006694Y007560D01*
X006694Y007560D01*
X006900Y008011D01*
X006900Y007149D01*
X004943Y005192D01*
X004900Y005089D01*
X004900Y003932D01*
X004700Y003732D01*
X004700Y003335D01*
X004981Y003053D01*
X005304Y003053D01*
X005264Y003013D01*
X004981Y003013D01*
X004700Y002732D01*
X004700Y002335D01*
X004981Y002053D01*
X005379Y002053D01*
X005660Y002335D01*
X005660Y002617D01*
X005700Y002657D01*
X005700Y002335D01*
X005981Y002053D01*
X006379Y002053D01*
X006660Y002335D01*
X006660Y002617D01*
X006700Y002657D01*
X006700Y002335D01*
X006981Y002053D01*
X007379Y002053D01*
X007579Y002253D01*
X008236Y002253D01*
X008339Y002296D01*
X009339Y003296D01*
X009417Y003375D01*
X009460Y003478D01*
X009460Y011089D01*
X009417Y011192D01*
X009076Y011533D01*
X009579Y011533D01*
X009695Y011581D01*
X009695Y001518D01*
X000665Y001518D01*
X000665Y017048D01*
X000665Y017042D02*
X002322Y017042D01*
X002193Y016942D02*
X002193Y016942D01*
X002134Y016883D02*
X000665Y016883D01*
X000665Y016725D02*
X001976Y016725D01*
X001817Y016566D02*
X000665Y016566D01*
X000665Y016408D02*
X001659Y016408D01*
X001500Y016249D02*
X000665Y016249D01*
X000665Y016091D02*
X001342Y016091D01*
X001183Y015932D02*
X000665Y015932D01*
X000665Y015774D02*
X001025Y015774D01*
X001021Y015771D02*
X001021Y015771D01*
X000911Y015615D02*
X000665Y015615D01*
X000665Y015457D02*
X000900Y015457D01*
X000900Y015298D02*
X000665Y015298D01*
X000665Y015140D02*
X000900Y015140D01*
X000900Y014981D02*
X000665Y014981D01*
X000665Y014823D02*
X000900Y014823D01*
X000900Y014664D02*
X000665Y014664D01*
X000665Y014506D02*
X000900Y014506D01*
X000900Y014347D02*
X000665Y014347D01*
X000665Y014189D02*
X000900Y014189D01*
X000900Y014030D02*
X000665Y014030D01*
X000665Y013872D02*
X000945Y013872D01*
X001104Y013713D02*
X000665Y013713D01*
X000665Y013555D02*
X001263Y013555D01*
X001421Y013396D02*
X000665Y013396D01*
X000665Y013238D02*
X001580Y013238D01*
X001738Y013079D02*
X000665Y013079D01*
X000665Y012921D02*
X001897Y012921D01*
X002055Y012762D02*
X000665Y012762D01*
X000665Y012604D02*
X002214Y012604D01*
X002372Y012445D02*
X000665Y012445D01*
X000665Y012287D02*
X002285Y012287D01*
X002183Y012128D02*
X001657Y012128D01*
X001657Y012126D02*
X001645Y012172D01*
X001621Y012213D01*
X001588Y012246D01*
X001547Y012270D01*
X001501Y012282D01*
X001250Y012282D01*
X001250Y011855D01*
X001657Y011855D01*
X001657Y012126D01*
X001657Y011970D02*
X002183Y011970D01*
X002183Y011811D02*
X001250Y011811D01*
X001250Y011855D02*
X001250Y011720D01*
X001657Y011720D01*
X001657Y011449D01*
X001645Y011403D01*
X001621Y011362D01*
X001588Y011328D01*
X001547Y011305D01*
X001501Y011292D01*
X001250Y011292D01*
X001250Y011720D01*
X001114Y011720D01*
X000707Y011720D01*
X000707Y011449D01*
X000719Y011403D01*
X000743Y011362D01*
X000776Y011328D01*
X000817Y011305D01*
X000863Y011292D01*
X001114Y011292D01*
X001114Y011720D01*
X001114Y011855D01*
X000707Y011855D01*
X000707Y012126D01*
X000719Y012172D01*
X000743Y012213D01*
X000776Y012246D01*
X000817Y012270D01*
X000863Y012282D01*
X001114Y012282D01*
X001114Y011855D01*
X001250Y011855D01*
X001250Y011970D02*
X001114Y011970D01*
X001114Y012128D02*
X001250Y012128D01*
X001114Y011811D02*
X000665Y011811D01*
X000665Y011653D02*
X000707Y011653D01*
X000707Y011494D02*
X000665Y011494D01*
X000665Y011336D02*
X000769Y011336D01*
X000665Y011177D02*
X003400Y011177D01*
X003400Y011019D02*
X000665Y011019D01*
X000665Y010860D02*
X003400Y010860D01*
X003400Y010702D02*
X000665Y010702D01*
X000665Y010543D02*
X003400Y010543D01*
X003386Y010385D02*
X000665Y010385D01*
X000665Y010226D02*
X000736Y010226D01*
X000687Y010068D02*
X000665Y010068D01*
X000665Y009909D02*
X000687Y009909D01*
X000687Y009751D02*
X000665Y009751D01*
X000665Y009592D02*
X000687Y009592D01*
X000687Y009434D02*
X000665Y009434D01*
X000665Y009275D02*
X000793Y009275D01*
X000665Y009117D02*
X002398Y009117D01*
X002398Y008958D02*
X000665Y008958D01*
X000665Y008800D02*
X002398Y008800D01*
X002678Y008447D02*
X002515Y008283D01*
X002515Y006699D01*
X004180Y005033D01*
X004180Y003533D01*
X003941Y003094D02*
X003391Y003094D01*
X003371Y003073D02*
X003640Y003343D01*
X003640Y003523D01*
X003190Y003523D01*
X003190Y003073D01*
X003371Y003073D01*
X003379Y003013D02*
X002981Y003013D01*
X002700Y002732D01*
X002700Y002335D01*
X002981Y002053D01*
X003379Y002053D01*
X003660Y002335D01*
X003660Y002732D01*
X003379Y003013D01*
X003457Y002935D02*
X003931Y002935D01*
X003989Y002993D02*
X003720Y002724D01*
X003720Y002543D01*
X004170Y002543D01*
X004170Y002523D01*
X004190Y002523D01*
X004190Y002073D01*
X004371Y002073D01*
X004640Y002343D01*
X004640Y002523D01*
X004190Y002523D01*
X004190Y002543D01*
X004640Y002543D01*
X004640Y002724D01*
X004371Y002993D01*
X004190Y002993D01*
X004190Y002543D01*
X004170Y002543D01*
X004170Y002993D01*
X003989Y002993D01*
X004170Y002935D02*
X004190Y002935D01*
X004190Y002777D02*
X004170Y002777D01*
X004170Y002618D02*
X004190Y002618D01*
X004170Y002523D02*
X003720Y002523D01*
X003720Y002343D01*
X003989Y002073D01*
X004170Y002073D01*
X004170Y002523D01*
X004170Y002460D02*
X004190Y002460D01*
X004190Y002301D02*
X004170Y002301D01*
X004170Y002143D02*
X004190Y002143D01*
X004440Y002143D02*
X004892Y002143D01*
X004733Y002301D02*
X004599Y002301D01*
X004640Y002460D02*
X004700Y002460D01*
X004700Y002618D02*
X004640Y002618D01*
X004587Y002777D02*
X004745Y002777D01*
X004903Y002935D02*
X004429Y002935D01*
X004419Y003094D02*
X004941Y003094D01*
X004782Y003252D02*
X004578Y003252D01*
X004660Y003411D02*
X004700Y003411D01*
X004700Y003569D02*
X004660Y003569D01*
X004660Y003728D02*
X004700Y003728D01*
X004854Y003886D02*
X004506Y003886D01*
X004460Y004045D02*
X004900Y004045D01*
X004900Y004203D02*
X004460Y004203D01*
X004460Y004362D02*
X004900Y004362D01*
X004900Y004520D02*
X004460Y004520D01*
X004460Y004679D02*
X004900Y004679D01*
X004900Y004837D02*
X004460Y004837D01*
X004460Y004996D02*
X004900Y004996D01*
X004927Y005154D02*
X004433Y005154D01*
X004296Y005313D02*
X005064Y005313D01*
X005222Y005471D02*
X004138Y005471D01*
X003979Y005630D02*
X005381Y005630D01*
X005539Y005788D02*
X003821Y005788D01*
X003662Y005947D02*
X005698Y005947D01*
X005856Y006105D02*
X003504Y006105D01*
X003345Y006264D02*
X006015Y006264D01*
X006173Y006422D02*
X003187Y006422D01*
X003028Y006581D02*
X006332Y006581D01*
X006490Y006739D02*
X002870Y006739D01*
X002795Y006898D02*
X004429Y006898D01*
X004183Y007056D02*
X002795Y007056D01*
X002795Y007215D02*
X003965Y007215D01*
X004001Y007173D02*
X004001Y007173D01*
X003828Y007373D02*
X002795Y007373D01*
X002795Y007532D02*
X003690Y007532D01*
X003666Y007560D02*
X003666Y007560D01*
X003606Y007690D02*
X002795Y007690D01*
X002914Y007849D02*
X003534Y007849D01*
X003462Y008007D02*
X002971Y008007D01*
X002971Y008166D02*
X003433Y008166D01*
X003410Y008324D02*
X002971Y008324D01*
X002971Y008483D02*
X003387Y008483D01*
X003396Y008641D02*
X002971Y008641D01*
X002958Y008800D02*
X003418Y008800D01*
X003441Y008958D02*
X002958Y008958D01*
X002958Y009117D02*
X003488Y009117D01*
X003453Y009040D02*
X003453Y009040D01*
X003560Y009275D02*
X003067Y009275D01*
X003173Y009434D02*
X003633Y009434D01*
X003666Y009506D02*
X003666Y009506D01*
X003740Y009592D02*
X003385Y009592D01*
X003543Y009751D02*
X003877Y009751D01*
X004001Y009894D02*
X004001Y009894D01*
X004001Y009894D01*
X004026Y009909D02*
X003702Y009909D01*
X003860Y010068D02*
X004272Y010068D01*
X004432Y010171D02*
X004432Y010171D01*
X004622Y010226D02*
X003959Y010226D01*
X003960Y010385D02*
X006433Y010385D01*
X006591Y010226D02*
X005738Y010226D01*
X006088Y010068D02*
X006750Y010068D01*
X006900Y009909D02*
X006334Y009909D01*
X006483Y009751D02*
X006900Y009751D01*
X006900Y009592D02*
X006620Y009592D01*
X006727Y009434D02*
X006900Y009434D01*
X006900Y009275D02*
X006800Y009275D01*
X006872Y009117D02*
X006900Y009117D01*
X007180Y010033D02*
X004680Y012533D01*
X004680Y014533D01*
X005180Y015033D01*
X005490Y014664D02*
X005870Y014664D01*
X005981Y014553D02*
X005700Y014835D01*
X005700Y015232D01*
X005900Y015432D01*
X005900Y016167D01*
X005564Y016503D01*
X002546Y016503D01*
X001460Y015417D01*
X001460Y014149D01*
X001913Y013696D01*
X001900Y013728D01*
X001900Y015589D01*
X001943Y015692D01*
X002443Y016192D01*
X002521Y016271D01*
X002624Y016313D01*
X003986Y016313D01*
X004089Y016271D01*
X004339Y016021D01*
X004417Y015942D01*
X004460Y015839D01*
X004460Y015432D01*
X004660Y015232D01*
X004660Y014909D01*
X004700Y014949D01*
X004700Y015232D01*
X004981Y015513D01*
X005379Y015513D01*
X005660Y015232D01*
X005660Y014835D01*
X005379Y014553D01*
X005096Y014553D01*
X005056Y014513D01*
X005379Y014513D01*
X005660Y014232D01*
X005660Y013835D01*
X005460Y013635D01*
X005460Y013149D01*
X007917Y010692D01*
X007960Y010589D01*
X007960Y006478D01*
X007917Y006375D01*
X005960Y004417D01*
X005960Y003992D01*
X005981Y004013D01*
X006379Y004013D01*
X006400Y003992D01*
X006400Y004589D01*
X006443Y004692D01*
X008150Y006399D01*
X008150Y010667D01*
X006021Y012796D01*
X005943Y012875D01*
X005900Y012978D01*
X005900Y013635D01*
X005700Y013835D01*
X005700Y014232D01*
X005981Y014513D01*
X006379Y014513D01*
X006660Y014232D01*
X006660Y013835D01*
X006460Y013635D01*
X006460Y013149D01*
X008589Y011021D01*
X008589Y011021D01*
X008667Y010942D01*
X008710Y010839D01*
X008710Y006228D01*
X008667Y006125D01*
X008589Y006046D01*
X006960Y004417D01*
X006960Y003964D01*
X006989Y003993D01*
X007170Y003993D01*
X007170Y003543D01*
X007190Y003543D01*
X007640Y003543D01*
X007640Y003724D01*
X007371Y003993D01*
X007190Y003993D01*
X007190Y003543D01*
X007190Y003523D01*
X007190Y003073D01*
X007371Y003073D01*
X007640Y003343D01*
X007640Y003523D01*
X007190Y003523D01*
X007170Y003523D01*
X007170Y003073D01*
X006989Y003073D01*
X006960Y003103D01*
X006960Y002992D01*
X006981Y003013D01*
X007379Y003013D01*
X007579Y002813D01*
X008064Y002813D01*
X008900Y003649D01*
X008900Y010917D01*
X006943Y012875D01*
X006900Y012978D01*
X006900Y013635D01*
X006773Y013761D01*
X006700Y013938D01*
X006700Y014129D01*
X006773Y014305D01*
X006908Y014440D01*
X007085Y014513D01*
X007275Y014513D01*
X007452Y014440D01*
X007587Y014305D01*
X007660Y014129D01*
X007660Y013938D01*
X007587Y013761D01*
X007460Y013635D01*
X007460Y013149D01*
X008408Y012201D01*
X008456Y012317D01*
X008597Y012457D01*
X008781Y012533D01*
X009579Y012533D01*
X009695Y012485D01*
X009695Y012581D01*
X009579Y012533D01*
X008781Y012533D01*
X008597Y012609D01*
X008456Y012750D01*
X008380Y012934D01*
X008380Y013133D01*
X008456Y013317D01*
X008597Y013457D01*
X008781Y013533D01*
X009579Y013533D01*
X009695Y013485D01*
X009695Y013581D01*
X009579Y013533D01*
X008781Y013533D01*
X008597Y013609D01*
X008456Y013750D01*
X008380Y013934D01*
X008380Y014133D01*
X008456Y014317D01*
X008552Y014412D01*
X008489Y014439D01*
X008391Y014537D01*
X008319Y014609D01*
X008280Y014702D01*
X008280Y015099D01*
X008319Y015193D01*
X008349Y015223D01*
X008319Y015253D01*
X008280Y015347D01*
X008280Y015744D01*
X008311Y015818D01*
X008280Y015893D01*
X008280Y015995D01*
X008300Y016042D01*
X008280Y016090D01*
X008280Y016191D01*
X008300Y016239D01*
X008280Y016287D01*
X008280Y016388D01*
X008319Y016482D01*
X008391Y016554D01*
X008484Y016592D01*
X008881Y016592D01*
X008975Y016554D01*
X009046Y016482D01*
X009145Y016383D01*
X009168Y016327D01*
X009184Y016290D01*
X009184Y016188D01*
X009167Y016148D01*
X009164Y016141D01*
X009168Y016131D01*
X009184Y016093D01*
X009184Y015893D01*
X009145Y015799D01*
X009115Y015769D01*
X009145Y015739D01*
X009184Y015645D01*
X009184Y015347D01*
X009145Y015253D01*
X009115Y015223D01*
X009145Y015193D01*
X009184Y015099D01*
X009184Y014702D01*
X009145Y014609D01*
X009070Y014533D01*
X009579Y014533D01*
X009695Y014485D01*
X009695Y016832D01*
X009479Y017048D01*
X005772Y017048D01*
X005839Y017021D01*
X006339Y016521D01*
X006339Y016521D01*
X006417Y016442D01*
X006460Y016339D01*
X006460Y015432D01*
X006660Y015232D01*
X006660Y014835D01*
X006379Y014553D01*
X005981Y014553D01*
X005974Y014506D02*
X005386Y014506D01*
X005545Y014347D02*
X005815Y014347D01*
X005700Y014189D02*
X005660Y014189D01*
X005660Y014030D02*
X005700Y014030D01*
X005700Y013872D02*
X005660Y013872D01*
X005539Y013713D02*
X005821Y013713D01*
X005900Y013555D02*
X005460Y013555D01*
X005460Y013396D02*
X005900Y013396D01*
X005900Y013238D02*
X005460Y013238D01*
X005530Y013079D02*
X005900Y013079D01*
X005924Y012921D02*
X005688Y012921D01*
X005847Y012762D02*
X006055Y012762D01*
X006005Y012604D02*
X006214Y012604D01*
X006164Y012445D02*
X006372Y012445D01*
X006322Y012287D02*
X006531Y012287D01*
X006481Y012128D02*
X006689Y012128D01*
X006639Y011970D02*
X006848Y011970D01*
X006798Y011811D02*
X007006Y011811D01*
X006956Y011653D02*
X007165Y011653D01*
X007115Y011494D02*
X007323Y011494D01*
X007273Y011336D02*
X007482Y011336D01*
X007432Y011177D02*
X007640Y011177D01*
X007590Y011019D02*
X007799Y011019D01*
X007749Y010860D02*
X007957Y010860D01*
X007907Y010702D02*
X008116Y010702D01*
X008150Y010543D02*
X007960Y010543D01*
X007960Y010385D02*
X008150Y010385D01*
X008150Y010226D02*
X007960Y010226D01*
X007960Y010068D02*
X008150Y010068D01*
X008150Y009909D02*
X007960Y009909D01*
X007960Y009751D02*
X008150Y009751D01*
X008150Y009592D02*
X007960Y009592D01*
X007960Y009434D02*
X008150Y009434D01*
X008150Y009275D02*
X007960Y009275D01*
X007960Y009117D02*
X008150Y009117D01*
X008150Y008958D02*
X007960Y008958D01*
X007960Y008800D02*
X008150Y008800D01*
X008150Y008641D02*
X007960Y008641D01*
X007960Y008483D02*
X008150Y008483D01*
X008150Y008324D02*
X007960Y008324D01*
X007960Y008166D02*
X008150Y008166D01*
X008150Y008007D02*
X007960Y008007D01*
X007960Y007849D02*
X008150Y007849D01*
X008150Y007690D02*
X007960Y007690D01*
X007960Y007532D02*
X008150Y007532D01*
X008150Y007373D02*
X007960Y007373D01*
X007960Y007215D02*
X008150Y007215D01*
X008150Y007056D02*
X007960Y007056D01*
X007960Y006898D02*
X008150Y006898D01*
X008150Y006739D02*
X007960Y006739D01*
X007960Y006581D02*
X008150Y006581D01*
X008150Y006422D02*
X007937Y006422D01*
X008015Y006264D02*
X007806Y006264D01*
X007856Y006105D02*
X007648Y006105D01*
X007698Y005947D02*
X007489Y005947D01*
X007539Y005788D02*
X007331Y005788D01*
X007381Y005630D02*
X007172Y005630D01*
X007222Y005471D02*
X007014Y005471D01*
X007064Y005313D02*
X006855Y005313D01*
X006905Y005154D02*
X006697Y005154D01*
X006747Y004996D02*
X006538Y004996D01*
X006588Y004837D02*
X006380Y004837D01*
X006437Y004679D02*
X006221Y004679D01*
X006063Y004520D02*
X006400Y004520D01*
X006400Y004362D02*
X005960Y004362D01*
X005960Y004203D02*
X006400Y004203D01*
X006400Y004045D02*
X005960Y004045D01*
X005680Y004533D02*
X007680Y006533D01*
X007680Y010533D01*
X005180Y013033D01*
X005180Y014033D01*
X005648Y014823D02*
X005712Y014823D01*
X005700Y014981D02*
X005660Y014981D01*
X005660Y015140D02*
X005700Y015140D01*
X005766Y015298D02*
X005594Y015298D01*
X005435Y015457D02*
X005900Y015457D01*
X005900Y015615D02*
X004460Y015615D01*
X004460Y015457D02*
X004925Y015457D01*
X004766Y015298D02*
X004594Y015298D01*
X004660Y015140D02*
X004700Y015140D01*
X004700Y014981D02*
X004660Y014981D01*
X004400Y014506D02*
X003386Y014506D01*
X003379Y014513D02*
X002981Y014513D01*
X002700Y014232D01*
X002700Y013835D01*
X002981Y013553D01*
X003379Y013553D01*
X003660Y013835D01*
X003660Y014232D01*
X003379Y014513D01*
X003371Y014573D02*
X003640Y014843D01*
X003640Y015023D01*
X003190Y015023D01*
X003190Y014573D01*
X003371Y014573D01*
X003462Y014664D02*
X003870Y014664D01*
X003989Y014493D02*
X003720Y014224D01*
X003720Y014043D01*
X004170Y014043D01*
X004170Y014493D01*
X003989Y014493D01*
X003843Y014347D02*
X003545Y014347D01*
X003660Y014189D02*
X003720Y014189D01*
X003720Y014023D02*
X003720Y013843D01*
X003989Y013573D01*
X004170Y013573D01*
X004170Y014023D01*
X003720Y014023D01*
X003660Y014030D02*
X004170Y014030D01*
X004170Y013872D02*
X004190Y013872D01*
X004190Y013713D02*
X004170Y013713D01*
X004400Y013555D02*
X003380Y013555D01*
X003539Y013713D02*
X003849Y013713D01*
X003720Y013872D02*
X003660Y013872D01*
X004170Y014189D02*
X004190Y014189D01*
X004190Y014347D02*
X004170Y014347D01*
X004180Y015033D02*
X004180Y015783D01*
X003930Y016033D01*
X002680Y016033D01*
X002180Y015533D01*
X002180Y013783D01*
X003680Y012283D01*
X003680Y010283D01*
X003180Y009783D01*
X002682Y009783D01*
X001186Y009783D01*
X001182Y009779D01*
X001628Y010226D02*
X002232Y010226D01*
X002183Y010068D02*
X001677Y010068D01*
X001677Y009434D02*
X002183Y009434D01*
X002289Y009275D02*
X001571Y009275D01*
X001566Y008759D02*
X001520Y008746D01*
X001479Y008723D01*
X001445Y008689D01*
X001422Y008648D01*
X001409Y008602D01*
X001409Y008331D01*
X001797Y008331D01*
X001797Y008759D01*
X001566Y008759D01*
X001420Y008641D02*
X000665Y008641D01*
X000665Y008483D02*
X001409Y008483D01*
X001409Y008235D02*
X001409Y007964D01*
X001422Y007919D01*
X001445Y007878D01*
X001479Y007844D01*
X001520Y007820D01*
X001566Y007808D01*
X001797Y007808D01*
X001797Y008235D01*
X001409Y008235D01*
X001409Y008166D02*
X000665Y008166D01*
X000665Y008324D02*
X001797Y008324D01*
X001797Y008166D02*
X001893Y008166D01*
X001893Y008007D02*
X001797Y008007D01*
X001797Y007849D02*
X001893Y007849D01*
X002235Y007690D02*
X000665Y007690D01*
X000665Y007532D02*
X002235Y007532D01*
X002235Y007373D02*
X000665Y007373D01*
X000665Y007215D02*
X002235Y007215D01*
X002235Y007056D02*
X000665Y007056D01*
X000665Y006898D02*
X002235Y006898D01*
X002235Y006739D02*
X000665Y006739D01*
X000665Y006581D02*
X002260Y006581D01*
X002395Y006422D02*
X000665Y006422D01*
X000665Y006264D02*
X002554Y006264D01*
X002712Y006105D02*
X000665Y006105D01*
X000665Y005947D02*
X002871Y005947D01*
X003029Y005788D02*
X000665Y005788D01*
X000665Y005630D02*
X003188Y005630D01*
X003346Y005471D02*
X002096Y005471D01*
X002092Y005482D02*
X002020Y005554D01*
X001926Y005592D01*
X001234Y005592D01*
X001141Y005554D01*
X001069Y005482D01*
X001030Y005388D01*
X001030Y004991D01*
X001069Y004898D01*
X001090Y004877D01*
X001069Y004855D01*
X001030Y004762D01*
X001030Y004463D01*
X001069Y004370D01*
X001099Y004339D01*
X001069Y004309D01*
X001030Y004216D01*
X001030Y003917D01*
X001069Y003823D01*
X001090Y003802D01*
X001069Y003781D01*
X001030Y003687D01*
X001030Y003389D01*
X001061Y003314D01*
X001030Y003240D01*
X001030Y003138D01*
X001069Y003045D01*
X001121Y002992D01*
X001069Y002940D01*
X001030Y002846D01*
X001030Y002745D01*
X001069Y002651D01*
X001099Y002621D01*
X001069Y002590D01*
X001030Y002497D01*
X001030Y002100D01*
X001069Y002006D01*
X001141Y001935D01*
X001234Y001896D01*
X001336Y001896D01*
X001429Y001935D01*
X001433Y001938D01*
X001433Y001937D01*
X001436Y001935D01*
X001436Y001935D01*
X001490Y001912D01*
X001530Y001896D01*
X001631Y001896D01*
X001669Y001911D01*
X001725Y001935D01*
X001823Y002033D01*
X001895Y002105D01*
X001934Y002198D01*
X001934Y002543D01*
X002020Y002579D01*
X002092Y002651D01*
X002131Y002745D01*
X002131Y002846D01*
X002092Y002940D01*
X002020Y003011D01*
X001934Y003047D01*
X001934Y003141D01*
X001895Y003235D01*
X001865Y003265D01*
X001883Y003283D01*
X002025Y003283D01*
X002118Y003322D01*
X002190Y003394D01*
X002229Y003488D01*
X002229Y003589D01*
X002190Y003683D01*
X002118Y003754D01*
X002025Y003793D01*
X001865Y003793D01*
X001895Y003823D01*
X001934Y003917D01*
X001934Y004216D01*
X001916Y004259D01*
X001926Y004259D01*
X002020Y004298D01*
X002092Y004370D01*
X002131Y004463D01*
X002131Y004663D01*
X002092Y004757D01*
X002020Y004829D01*
X001926Y004867D01*
X001865Y004867D01*
X001895Y004898D01*
X001934Y004991D01*
X001934Y005086D01*
X002020Y005121D01*
X002092Y005193D01*
X002131Y005287D01*
X002131Y005388D01*
X002092Y005482D01*
X002131Y005313D02*
X003505Y005313D01*
X003663Y005154D02*
X002053Y005154D01*
X001934Y004996D02*
X003822Y004996D01*
X003900Y004837D02*
X001999Y004837D01*
X002124Y004679D02*
X003900Y004679D01*
X003900Y004520D02*
X002131Y004520D01*
X002084Y004362D02*
X003900Y004362D01*
X003900Y004203D02*
X001934Y004203D01*
X001934Y004045D02*
X003900Y004045D01*
X003854Y003886D02*
X003478Y003886D01*
X003371Y003993D02*
X003190Y003993D01*
X003190Y003543D01*
X003640Y003543D01*
X003640Y003724D01*
X003371Y003993D01*
X003170Y003993D02*
X003170Y003543D01*
X003170Y003523D01*
X003190Y003523D01*
X003190Y003543D01*
X003170Y003543D01*
X002720Y003543D01*
X002720Y003724D01*
X002989Y003993D01*
X003170Y003993D01*
X003170Y003886D02*
X003190Y003886D01*
X003190Y003728D02*
X003170Y003728D01*
X003170Y003569D02*
X003190Y003569D01*
X003170Y003523D02*
X002720Y003523D01*
X002720Y003343D01*
X002989Y003073D01*
X003170Y003073D01*
X003170Y003523D01*
X003170Y003411D02*
X003190Y003411D01*
X003190Y003252D02*
X003170Y003252D01*
X003170Y003094D02*
X003190Y003094D01*
X002969Y003094D02*
X001934Y003094D01*
X001877Y003252D02*
X002810Y003252D01*
X002720Y003411D02*
X002197Y003411D01*
X002229Y003569D02*
X002720Y003569D01*
X002724Y003728D02*
X002145Y003728D01*
X001921Y003886D02*
X002882Y003886D01*
X002903Y002935D02*
X002094Y002935D01*
X002131Y002777D02*
X002745Y002777D01*
X002700Y002618D02*
X002059Y002618D01*
X001934Y002460D02*
X002700Y002460D01*
X002733Y002301D02*
X001934Y002301D01*
X001911Y002143D02*
X002892Y002143D01*
X003468Y002143D02*
X003920Y002143D01*
X003761Y002301D02*
X003627Y002301D01*
X003660Y002460D02*
X003720Y002460D01*
X003720Y002618D02*
X003660Y002618D01*
X003615Y002777D02*
X003773Y002777D01*
X003782Y003252D02*
X003550Y003252D01*
X003640Y003411D02*
X003700Y003411D01*
X003700Y003569D02*
X003640Y003569D01*
X003636Y003728D02*
X003700Y003728D01*
X005180Y003533D02*
X005180Y005033D01*
X007180Y007033D01*
X007180Y010033D01*
X006274Y010543D02*
X003960Y010543D01*
X003960Y010702D02*
X006116Y010702D01*
X005957Y010860D02*
X003960Y010860D01*
X003960Y011019D02*
X005799Y011019D01*
X005640Y011177D02*
X003960Y011177D01*
X003960Y011336D02*
X005482Y011336D01*
X005323Y011494D02*
X003960Y011494D01*
X003960Y011653D02*
X005165Y011653D01*
X005006Y011811D02*
X003960Y011811D01*
X003960Y011970D02*
X004848Y011970D01*
X004689Y012128D02*
X003960Y012128D01*
X003960Y012287D02*
X004531Y012287D01*
X004413Y012445D02*
X003914Y012445D01*
X003755Y012604D02*
X004400Y012604D01*
X004400Y012762D02*
X003597Y012762D01*
X003438Y012921D02*
X004400Y012921D01*
X004400Y013079D02*
X003280Y013079D01*
X003121Y013238D02*
X004400Y013238D01*
X004400Y013396D02*
X002963Y013396D01*
X002980Y013555D02*
X002804Y013555D01*
X002821Y013713D02*
X002646Y013713D01*
X002700Y013872D02*
X002487Y013872D01*
X002460Y014030D02*
X002700Y014030D01*
X002700Y014189D02*
X002460Y014189D01*
X002460Y014347D02*
X002815Y014347D01*
X002974Y014506D02*
X002460Y014506D01*
X002460Y014664D02*
X002898Y014664D01*
X002989Y014573D02*
X002720Y014843D01*
X002720Y015023D01*
X003170Y015023D01*
X003190Y015023D01*
X003190Y015043D01*
X003640Y015043D01*
X003640Y015224D01*
X003371Y015493D01*
X003190Y015493D01*
X003190Y015043D01*
X003170Y015043D01*
X003170Y015023D01*
X003170Y014573D01*
X002989Y014573D01*
X003170Y014664D02*
X003190Y014664D01*
X003190Y014823D02*
X003170Y014823D01*
X003170Y014981D02*
X003190Y014981D01*
X003170Y015043D02*
X002720Y015043D01*
X002720Y015224D01*
X002989Y015493D01*
X003170Y015493D01*
X003170Y015043D01*
X003170Y015140D02*
X003190Y015140D01*
X003190Y015298D02*
X003170Y015298D01*
X003170Y015457D02*
X003190Y015457D01*
X003407Y015457D02*
X003900Y015457D01*
X003900Y015615D02*
X002658Y015615D01*
X002500Y015457D02*
X002953Y015457D01*
X002794Y015298D02*
X002460Y015298D01*
X002460Y015140D02*
X002720Y015140D01*
X002720Y014981D02*
X002460Y014981D01*
X002460Y014823D02*
X002740Y014823D01*
X002183Y015932D02*
X001975Y015932D01*
X002025Y015774D02*
X001817Y015774D01*
X001911Y015615D02*
X001658Y015615D01*
X001500Y015457D02*
X001900Y015457D01*
X001900Y015298D02*
X001460Y015298D01*
X001460Y015140D02*
X001900Y015140D01*
X001900Y014981D02*
X001460Y014981D01*
X001460Y014823D02*
X001900Y014823D01*
X001900Y014664D02*
X001460Y014664D01*
X001460Y014506D02*
X001900Y014506D01*
X001900Y014347D02*
X001460Y014347D01*
X001460Y014189D02*
X001900Y014189D01*
X001900Y014030D02*
X001579Y014030D01*
X001737Y013872D02*
X001900Y013872D01*
X001896Y013713D02*
X001906Y013713D01*
X001180Y014033D02*
X002678Y012535D01*
X002678Y011787D01*
X002183Y011653D02*
X001657Y011653D01*
X001657Y011494D02*
X002183Y011494D01*
X002236Y011336D02*
X001595Y011336D01*
X001250Y011336D02*
X001114Y011336D01*
X001114Y011494D02*
X001250Y011494D01*
X001250Y011653D02*
X001114Y011653D01*
X000707Y011970D02*
X000665Y011970D01*
X000665Y012128D02*
X000707Y012128D01*
X001180Y014033D02*
X001180Y015533D01*
X002430Y016783D01*
X005680Y016783D01*
X006180Y016283D01*
X006180Y015033D01*
X006490Y014664D02*
X006898Y014664D01*
X006989Y014573D02*
X007170Y014573D01*
X007170Y015023D01*
X007190Y015023D01*
X007190Y014573D01*
X007371Y014573D01*
X007640Y014843D01*
X007640Y015023D01*
X007190Y015023D01*
X007190Y015043D01*
X007640Y015043D01*
X007640Y015224D01*
X007371Y015493D01*
X007190Y015493D01*
X007190Y015043D01*
X007170Y015043D01*
X007170Y015023D01*
X006720Y015023D01*
X006720Y014843D01*
X006989Y014573D01*
X007066Y014506D02*
X006386Y014506D01*
X006545Y014347D02*
X006815Y014347D01*
X006725Y014189D02*
X006660Y014189D01*
X006660Y014030D02*
X006700Y014030D01*
X006727Y013872D02*
X006660Y013872D01*
X006539Y013713D02*
X006821Y013713D01*
X006900Y013555D02*
X006460Y013555D01*
X006460Y013396D02*
X006900Y013396D01*
X006900Y013238D02*
X006460Y013238D01*
X006530Y013079D02*
X006900Y013079D01*
X006924Y012921D02*
X006688Y012921D01*
X006847Y012762D02*
X007055Y012762D01*
X007005Y012604D02*
X007214Y012604D01*
X007164Y012445D02*
X007372Y012445D01*
X007322Y012287D02*
X007531Y012287D01*
X007481Y012128D02*
X007689Y012128D01*
X007639Y011970D02*
X007848Y011970D01*
X007798Y011811D02*
X008006Y011811D01*
X007956Y011653D02*
X008165Y011653D01*
X008115Y011494D02*
X008323Y011494D01*
X008273Y011336D02*
X008482Y011336D01*
X008432Y011177D02*
X008640Y011177D01*
X008590Y011019D02*
X008799Y011019D01*
X008701Y010860D02*
X008900Y010860D01*
X008900Y010702D02*
X008710Y010702D01*
X008710Y010543D02*
X008900Y010543D01*
X008900Y010385D02*
X008710Y010385D01*
X008710Y010226D02*
X008900Y010226D01*
X008900Y010068D02*
X008710Y010068D01*
X008710Y009909D02*
X008900Y009909D01*
X008900Y009751D02*
X008710Y009751D01*
X008710Y009592D02*
X008900Y009592D01*
X008900Y009434D02*
X008710Y009434D01*
X008710Y009275D02*
X008900Y009275D01*
X008900Y009117D02*
X008710Y009117D01*
X008710Y008958D02*
X008900Y008958D01*
X008900Y008800D02*
X008710Y008800D01*
X008710Y008641D02*
X008900Y008641D01*
X008900Y008483D02*
X008710Y008483D01*
X008710Y008324D02*
X008900Y008324D01*
X008900Y008166D02*
X008710Y008166D01*
X008710Y008007D02*
X008900Y008007D01*
X008900Y007849D02*
X008710Y007849D01*
X008710Y007690D02*
X008900Y007690D01*
X008900Y007532D02*
X008710Y007532D01*
X008710Y007373D02*
X008900Y007373D01*
X008900Y007215D02*
X008710Y007215D01*
X008710Y007056D02*
X008900Y007056D01*
X008900Y006898D02*
X008710Y006898D01*
X008710Y006739D02*
X008900Y006739D01*
X008900Y006581D02*
X008710Y006581D01*
X008710Y006422D02*
X008900Y006422D01*
X008900Y006264D02*
X008710Y006264D01*
X008648Y006105D02*
X008900Y006105D01*
X008900Y005947D02*
X008489Y005947D01*
X008331Y005788D02*
X008900Y005788D01*
X008900Y005630D02*
X008172Y005630D01*
X008014Y005471D02*
X008900Y005471D01*
X008900Y005313D02*
X007855Y005313D01*
X007697Y005154D02*
X008900Y005154D01*
X008900Y004996D02*
X007538Y004996D01*
X007380Y004837D02*
X008900Y004837D01*
X008900Y004679D02*
X007221Y004679D01*
X007063Y004520D02*
X008900Y004520D01*
X008900Y004362D02*
X006960Y004362D01*
X006960Y004203D02*
X008900Y004203D01*
X008900Y004045D02*
X006960Y004045D01*
X007170Y003886D02*
X007190Y003886D01*
X007190Y003728D02*
X007170Y003728D01*
X007170Y003569D02*
X007190Y003569D01*
X007190Y003411D02*
X007170Y003411D01*
X007170Y003252D02*
X007190Y003252D01*
X007190Y003094D02*
X007170Y003094D01*
X006969Y003094D02*
X006960Y003094D01*
X006680Y003033D02*
X006680Y004533D01*
X008430Y006283D01*
X008430Y010783D01*
X006180Y013033D01*
X006180Y014033D01*
X006648Y014823D02*
X006740Y014823D01*
X006720Y014981D02*
X006660Y014981D01*
X006720Y015043D02*
X007170Y015043D01*
X007170Y015493D01*
X006989Y015493D01*
X006720Y015224D01*
X006720Y015043D01*
X006720Y015140D02*
X006660Y015140D01*
X006594Y015298D02*
X006794Y015298D01*
X006953Y015457D02*
X006460Y015457D01*
X006460Y015615D02*
X008280Y015615D01*
X008280Y015457D02*
X007407Y015457D01*
X007190Y015457D02*
X007170Y015457D01*
X007170Y015298D02*
X007190Y015298D01*
X007190Y015140D02*
X007170Y015140D01*
X007170Y014981D02*
X007190Y014981D01*
X007190Y014823D02*
X007170Y014823D01*
X007170Y014664D02*
X007190Y014664D01*
X007294Y014506D02*
X008422Y014506D01*
X008487Y014347D02*
X007545Y014347D01*
X007635Y014189D02*
X008403Y014189D01*
X008380Y014030D02*
X007660Y014030D01*
X007633Y013872D02*
X008406Y013872D01*
X008493Y013713D02*
X007539Y013713D01*
X007460Y013555D02*
X008729Y013555D01*
X008536Y013396D02*
X007460Y013396D01*
X007460Y013238D02*
X008424Y013238D01*
X008380Y013079D02*
X007530Y013079D01*
X007688Y012921D02*
X008385Y012921D01*
X008451Y012762D02*
X007847Y012762D01*
X008005Y012604D02*
X008610Y012604D01*
X008585Y012445D02*
X008164Y012445D01*
X008322Y012287D02*
X008444Y012287D01*
X009115Y011494D02*
X009695Y011494D01*
X009695Y011336D02*
X009273Y011336D01*
X009423Y011177D02*
X009695Y011177D01*
X009695Y011019D02*
X009460Y011019D01*
X009460Y010860D02*
X009695Y010860D01*
X009695Y010702D02*
X009460Y010702D01*
X009460Y010543D02*
X009695Y010543D01*
X009695Y010385D02*
X009460Y010385D01*
X009460Y010226D02*
X009695Y010226D01*
X009695Y010068D02*
X009460Y010068D01*
X009460Y009909D02*
X009695Y009909D01*
X009695Y009751D02*
X009460Y009751D01*
X009460Y009592D02*
X009695Y009592D01*
X009695Y009434D02*
X009460Y009434D01*
X009460Y009275D02*
X009695Y009275D01*
X009695Y009117D02*
X009460Y009117D01*
X009460Y008958D02*
X009695Y008958D01*
X009695Y008800D02*
X009460Y008800D01*
X009460Y008641D02*
X009695Y008641D01*
X009695Y008483D02*
X009460Y008483D01*
X009460Y008324D02*
X009695Y008324D01*
X009695Y008166D02*
X009460Y008166D01*
X009460Y008007D02*
X009695Y008007D01*
X009695Y007849D02*
X009460Y007849D01*
X009460Y007690D02*
X009695Y007690D01*
X009695Y007532D02*
X009460Y007532D01*
X009460Y007373D02*
X009695Y007373D01*
X009695Y007215D02*
X009460Y007215D01*
X009460Y007056D02*
X009695Y007056D01*
X009695Y006898D02*
X009460Y006898D01*
X009460Y006739D02*
X009695Y006739D01*
X009695Y006581D02*
X009460Y006581D01*
X009460Y006422D02*
X009695Y006422D01*
X009695Y006264D02*
X009460Y006264D01*
X009460Y006105D02*
X009695Y006105D01*
X009695Y005947D02*
X009460Y005947D01*
X009460Y005788D02*
X009695Y005788D01*
X009695Y005630D02*
X009460Y005630D01*
X009460Y005471D02*
X009695Y005471D01*
X009695Y005313D02*
X009460Y005313D01*
X009460Y005154D02*
X009695Y005154D01*
X009695Y004996D02*
X009460Y004996D01*
X009460Y004837D02*
X009695Y004837D01*
X009695Y004679D02*
X009460Y004679D01*
X009460Y004520D02*
X009695Y004520D01*
X009695Y004362D02*
X009460Y004362D01*
X009460Y004203D02*
X009695Y004203D01*
X009695Y004045D02*
X009460Y004045D01*
X009460Y003886D02*
X009695Y003886D01*
X009695Y003728D02*
X009460Y003728D01*
X009460Y003569D02*
X009695Y003569D01*
X009695Y003411D02*
X009432Y003411D01*
X009295Y003252D02*
X009695Y003252D01*
X009695Y003094D02*
X009136Y003094D01*
X008978Y002935D02*
X009695Y002935D01*
X009695Y002777D02*
X008819Y002777D01*
X008661Y002618D02*
X009695Y002618D01*
X009695Y002460D02*
X008502Y002460D01*
X008344Y002301D02*
X009695Y002301D01*
X009695Y002143D02*
X007468Y002143D01*
X007180Y002533D02*
X008180Y002533D01*
X009180Y003533D01*
X009180Y011033D01*
X007180Y013033D01*
X007180Y014033D01*
X007462Y014664D02*
X008296Y014664D01*
X008280Y014823D02*
X007620Y014823D01*
X007640Y014981D02*
X008280Y014981D01*
X008297Y015140D02*
X007640Y015140D01*
X007566Y015298D02*
X008300Y015298D01*
X008293Y015774D02*
X006460Y015774D01*
X006460Y015932D02*
X008280Y015932D01*
X008280Y016091D02*
X006460Y016091D01*
X006460Y016249D02*
X008295Y016249D01*
X008288Y016408D02*
X006431Y016408D01*
X006293Y016566D02*
X008421Y016566D01*
X008944Y016566D02*
X009695Y016566D01*
X009695Y016408D02*
X009120Y016408D01*
X009184Y016249D02*
X009695Y016249D01*
X009695Y016091D02*
X009184Y016091D01*
X009184Y015932D02*
X009695Y015932D01*
X009695Y015774D02*
X009119Y015774D01*
X009184Y015615D02*
X009695Y015615D01*
X009695Y015457D02*
X009184Y015457D01*
X009164Y015298D02*
X009695Y015298D01*
X009695Y015140D02*
X009167Y015140D01*
X009184Y014981D02*
X009695Y014981D01*
X009695Y014823D02*
X009184Y014823D01*
X009168Y014664D02*
X009695Y014664D01*
X009695Y014506D02*
X009646Y014506D01*
X009631Y013555D02*
X009695Y013555D01*
X009695Y016725D02*
X006134Y016725D01*
X005976Y016883D02*
X009644Y016883D01*
X009486Y017042D02*
X005788Y017042D01*
X005659Y016408D02*
X002451Y016408D01*
X002500Y016249D02*
X002292Y016249D01*
X002342Y016091D02*
X002134Y016091D01*
X003566Y015298D02*
X003766Y015298D01*
X003700Y015140D02*
X003640Y015140D01*
X003640Y014981D02*
X003700Y014981D01*
X003712Y014823D02*
X003620Y014823D01*
X004268Y016091D02*
X005900Y016091D01*
X005900Y015932D02*
X004421Y015932D01*
X004460Y015774D02*
X005900Y015774D01*
X005818Y016249D02*
X004110Y016249D01*
X002964Y012604D02*
X002953Y012604D01*
X002958Y012445D02*
X003122Y012445D01*
X003072Y012287D02*
X003281Y012287D01*
X003173Y012128D02*
X003400Y012128D01*
X003400Y011970D02*
X003173Y011970D01*
X003173Y011811D02*
X003400Y011811D01*
X003400Y011653D02*
X003173Y011653D01*
X003173Y011494D02*
X003400Y011494D01*
X003400Y011336D02*
X003120Y011336D01*
X003124Y010226D02*
X003227Y010226D01*
X002682Y009783D02*
X002678Y009779D01*
X002678Y008447D01*
X001893Y008483D02*
X001797Y008483D01*
X001797Y008641D02*
X001893Y008641D01*
X001474Y007849D02*
X000665Y007849D01*
X000665Y008007D02*
X001409Y008007D01*
X001064Y005471D02*
X000665Y005471D01*
X000665Y005313D02*
X001030Y005313D01*
X001030Y005154D02*
X000665Y005154D01*
X000665Y004996D02*
X001030Y004996D01*
X001061Y004837D02*
X000665Y004837D01*
X000665Y004679D02*
X001030Y004679D01*
X001030Y004520D02*
X000665Y004520D01*
X000665Y004362D02*
X001077Y004362D01*
X001030Y004203D02*
X000665Y004203D01*
X000665Y004045D02*
X001030Y004045D01*
X001043Y003886D02*
X000665Y003886D01*
X000665Y003728D02*
X001047Y003728D01*
X001030Y003569D02*
X000665Y003569D01*
X000665Y003411D02*
X001030Y003411D01*
X001035Y003252D02*
X000665Y003252D01*
X000665Y003094D02*
X001048Y003094D01*
X001067Y002935D02*
X000665Y002935D01*
X000665Y002777D02*
X001030Y002777D01*
X001097Y002618D02*
X000665Y002618D01*
X000665Y002460D02*
X001030Y002460D01*
X001030Y002301D02*
X000665Y002301D01*
X000665Y002143D02*
X001030Y002143D01*
X001091Y001984D02*
X000665Y001984D01*
X000665Y001826D02*
X009695Y001826D01*
X009695Y001984D02*
X001774Y001984D01*
X000665Y001667D02*
X009695Y001667D01*
X008662Y003411D02*
X007640Y003411D01*
X007640Y003569D02*
X008820Y003569D01*
X008900Y003728D02*
X007636Y003728D01*
X007478Y003886D02*
X008900Y003886D01*
X008503Y003252D02*
X007550Y003252D01*
X007391Y003094D02*
X008345Y003094D01*
X008186Y002935D02*
X007457Y002935D01*
X006892Y002143D02*
X006468Y002143D01*
X006627Y002301D02*
X006733Y002301D01*
X006700Y002460D02*
X006660Y002460D01*
X006661Y002618D02*
X006700Y002618D01*
X006680Y003033D02*
X006180Y002533D01*
X005892Y002143D02*
X005468Y002143D01*
X005627Y002301D02*
X005733Y002301D01*
X005700Y002460D02*
X005660Y002460D01*
X005661Y002618D02*
X005700Y002618D01*
X005680Y003033D02*
X005680Y004533D01*
X005680Y003033D02*
X005180Y002533D01*
X005928Y006896D02*
X005928Y006896D01*
X005931Y006898D02*
X006649Y006898D01*
X006807Y007056D02*
X006177Y007056D01*
X006359Y007173D02*
X006359Y007173D01*
X006359Y007173D01*
X006395Y007215D02*
X006900Y007215D01*
X006900Y007373D02*
X006532Y007373D01*
X006670Y007532D02*
X006900Y007532D01*
X006900Y007690D02*
X006754Y007690D01*
X006826Y007849D02*
X006900Y007849D01*
X006898Y008007D02*
X006900Y008007D01*
M02*
