G75*
%MOIN*%
%OFA0B0*%
%FSLAX24Y24*%
%IPPOS*%
%LPD*%
%AMOC8*
5,1,8,0,0,1.08239X$1,22.5*
%
%ADD10C,0.0110*%
%ADD11C,0.0560*%
%ADD12OC8,0.0560*%
%ADD13R,0.0591X0.0630*%
%ADD14R,0.0512X0.0591*%
%ADD15C,0.0160*%
D10*
X002785Y003297D02*
X002785Y003593D01*
X002883Y003691D01*
X002982Y003593D01*
X002982Y003396D01*
X003080Y003297D01*
X003179Y003396D01*
X003179Y003691D01*
X003080Y003942D02*
X003179Y004040D01*
X003179Y004237D01*
X003080Y004336D01*
X002785Y004336D01*
X002785Y004586D02*
X002785Y004783D01*
X002785Y004685D02*
X003179Y004685D01*
X003179Y004586D01*
X003376Y004685D02*
X003474Y004685D01*
X003080Y005016D02*
X003179Y005115D01*
X003179Y005311D01*
X003080Y005410D01*
X002982Y005410D01*
X002982Y005016D01*
X003080Y005016D02*
X002883Y005016D01*
X002785Y005115D01*
X002785Y005311D01*
X002785Y005661D02*
X002785Y005858D01*
X002785Y005759D02*
X003376Y005759D01*
X003376Y005661D01*
X003080Y006090D02*
X003179Y006189D01*
X003179Y006484D01*
X003376Y006484D02*
X002785Y006484D01*
X002785Y006189D01*
X002883Y006090D01*
X003080Y006090D01*
X003376Y003942D02*
X002785Y003942D01*
X010133Y015801D02*
X010035Y015900D01*
X010035Y016195D01*
X010133Y016446D02*
X010232Y016544D01*
X010232Y016840D01*
X010330Y016840D02*
X010035Y016840D01*
X010035Y016544D01*
X010133Y016446D01*
X010429Y016544D02*
X010429Y016741D01*
X010330Y016840D01*
X010429Y017090D02*
X010429Y017189D01*
X010330Y017287D01*
X010429Y017386D01*
X010330Y017484D01*
X010035Y017484D01*
X010035Y017287D02*
X010330Y017287D01*
X010429Y017090D02*
X010035Y017090D01*
X010429Y016195D02*
X010429Y015900D01*
X010330Y015801D01*
X010133Y015801D01*
D11*
X008680Y015180D03*
D12*
X008680Y016180D03*
X007680Y016180D03*
X007680Y015180D03*
X006680Y015180D03*
X006680Y016180D03*
X005680Y016180D03*
X005680Y015180D03*
X004680Y015180D03*
X004680Y016180D03*
X004680Y004680D03*
X004680Y003680D03*
X005680Y003680D03*
X005680Y004680D03*
X006680Y004680D03*
X006680Y003680D03*
X007680Y003680D03*
X007680Y004680D03*
X008680Y004680D03*
X008680Y003680D03*
D13*
X004178Y010926D03*
X004178Y012934D03*
X002682Y012934D03*
X002682Y010926D03*
D14*
X003345Y009430D03*
X004015Y009430D03*
D15*
X001680Y002180D02*
X001680Y018680D01*
X011680Y018680D01*
X011680Y002180D01*
X001680Y002180D01*
X002160Y002660D02*
X002160Y018200D01*
X003850Y018200D01*
X003771Y018167D01*
X003693Y018089D01*
X002443Y016839D01*
X002400Y016736D01*
X002400Y015124D01*
X002443Y015021D01*
X002521Y014943D01*
X002521Y014943D01*
X003898Y013566D01*
X003898Y013449D01*
X003800Y013449D01*
X003683Y013332D01*
X003683Y012536D01*
X003800Y012419D01*
X004556Y012419D01*
X004673Y012536D01*
X004673Y013332D01*
X004556Y013449D01*
X004458Y013449D01*
X004458Y013738D01*
X004445Y013769D01*
X004900Y013314D01*
X004900Y011546D01*
X004673Y011319D01*
X004673Y011324D01*
X004556Y011441D01*
X003800Y011441D01*
X003683Y011324D01*
X003683Y011210D01*
X003177Y011210D01*
X003177Y011324D01*
X003060Y011441D01*
X002304Y011441D01*
X002187Y011324D01*
X002187Y010528D01*
X002304Y010411D01*
X003060Y010411D01*
X003177Y010528D01*
X003177Y010650D01*
X003683Y010650D01*
X003683Y010528D01*
X003800Y010411D01*
X003898Y010411D01*
X003898Y009925D01*
X003676Y009925D01*
X003649Y009899D01*
X003625Y009905D01*
X003393Y009905D01*
X003393Y009478D01*
X003297Y009478D01*
X003297Y009382D01*
X002909Y009382D01*
X002909Y009111D01*
X002922Y009065D01*
X002945Y009024D01*
X002979Y008991D01*
X003020Y008967D01*
X003066Y008955D01*
X003297Y008955D01*
X003297Y009382D01*
X003393Y009382D01*
X003393Y008955D01*
X003625Y008955D01*
X003649Y008961D01*
X003676Y008935D01*
X003735Y008935D01*
X003735Y007790D01*
X003777Y007687D01*
X005400Y006064D01*
X005400Y005079D01*
X005200Y004879D01*
X005200Y004481D01*
X005481Y004200D01*
X005879Y004200D01*
X006160Y004481D01*
X006160Y004879D01*
X005960Y005079D01*
X005960Y006236D01*
X005917Y006339D01*
X005839Y006417D01*
X004295Y007961D01*
X004295Y008935D01*
X004353Y008935D01*
X004471Y009052D01*
X004471Y009808D01*
X004458Y009821D01*
X004458Y010411D01*
X004556Y010411D01*
X004673Y010528D01*
X004673Y010650D01*
X004736Y010650D01*
X004839Y010693D01*
X005339Y011193D01*
X005417Y011271D01*
X005460Y011374D01*
X005460Y013486D01*
X005417Y013589D01*
X003960Y015046D01*
X003960Y016564D01*
X004296Y016900D01*
X005314Y016900D01*
X005400Y016814D01*
X005400Y016579D01*
X005200Y016379D01*
X005200Y015981D01*
X005481Y015700D01*
X005879Y015700D01*
X005900Y015721D01*
X005900Y015611D01*
X005871Y015640D01*
X005690Y015640D01*
X005690Y015190D01*
X005670Y015190D01*
X005670Y015640D01*
X005489Y015640D01*
X005220Y015371D01*
X005220Y015190D01*
X005670Y015190D01*
X005670Y015170D01*
X005690Y015170D01*
X005690Y014720D01*
X005871Y014720D01*
X005900Y014749D01*
X005900Y013624D01*
X005943Y013521D01*
X006021Y013443D01*
X008400Y011064D01*
X008400Y010203D01*
X008194Y010653D01*
X007859Y011040D01*
X007859Y011040D01*
X007428Y011317D01*
X006936Y011462D01*
X006424Y011462D01*
X005932Y011317D01*
X005501Y011040D01*
X005166Y010653D01*
X004953Y010187D01*
X004880Y009680D01*
X004953Y009173D01*
X005166Y008707D01*
X005501Y008320D01*
X005932Y008043D01*
X006424Y007898D01*
X006936Y007898D01*
X007428Y008043D01*
X007859Y008320D01*
X008194Y008707D01*
X008400Y009157D01*
X008400Y008296D01*
X006443Y006339D01*
X006400Y006236D01*
X006400Y005079D01*
X006200Y004879D01*
X006200Y004481D01*
X006481Y004200D01*
X006804Y004200D01*
X006764Y004160D01*
X006481Y004160D01*
X006200Y003879D01*
X006200Y003481D01*
X006481Y003200D01*
X006879Y003200D01*
X007160Y003481D01*
X007160Y003764D01*
X007200Y003804D01*
X007200Y003481D01*
X007481Y003200D01*
X007879Y003200D01*
X008160Y003481D01*
X008160Y003764D01*
X008200Y003804D01*
X008200Y003481D01*
X008481Y003200D01*
X008879Y003200D01*
X009079Y003400D01*
X009736Y003400D01*
X009839Y003443D01*
X010839Y004443D01*
X010917Y004521D01*
X010960Y004624D01*
X010960Y012236D01*
X010917Y012339D01*
X008960Y014296D01*
X008960Y014781D01*
X009087Y014908D01*
X009160Y015085D01*
X009160Y015275D01*
X009087Y015452D01*
X008952Y015587D01*
X008775Y015660D01*
X008585Y015660D01*
X008408Y015587D01*
X008273Y015452D01*
X008200Y015275D01*
X008200Y015085D01*
X008273Y014908D01*
X008400Y014781D01*
X008400Y014124D01*
X008443Y014021D01*
X008521Y013943D01*
X010400Y012064D01*
X010400Y004796D01*
X009564Y003960D01*
X009079Y003960D01*
X008879Y004160D01*
X008481Y004160D01*
X008460Y004139D01*
X008460Y004249D01*
X008489Y004220D01*
X008670Y004220D01*
X008670Y004670D01*
X008690Y004670D01*
X008690Y004690D01*
X008670Y004690D01*
X008670Y005140D01*
X008489Y005140D01*
X008460Y005111D01*
X008460Y005564D01*
X010089Y007193D01*
X010167Y007271D01*
X010210Y007374D01*
X010210Y011986D01*
X010167Y012089D01*
X007960Y014296D01*
X007960Y014781D01*
X008160Y014981D01*
X008160Y015379D01*
X007879Y015660D01*
X007481Y015660D01*
X007200Y015379D01*
X007200Y014981D01*
X007400Y014781D01*
X007400Y014124D01*
X007443Y014021D01*
X009650Y011814D01*
X009650Y007546D01*
X008021Y005917D01*
X007943Y005839D01*
X007900Y005736D01*
X007900Y005139D01*
X007879Y005160D01*
X007481Y005160D01*
X007460Y005139D01*
X007460Y005564D01*
X009417Y007521D01*
X009460Y007624D01*
X009460Y011736D01*
X009417Y011839D01*
X006960Y014296D01*
X006960Y014781D01*
X007160Y014981D01*
X007160Y015379D01*
X006879Y015660D01*
X006556Y015660D01*
X006596Y015700D01*
X006879Y015700D01*
X007160Y015981D01*
X007160Y016379D01*
X006879Y016660D01*
X006481Y016660D01*
X006200Y016379D01*
X006200Y016096D01*
X006160Y016056D01*
X006160Y016379D01*
X005960Y016579D01*
X005960Y016986D01*
X005917Y017089D01*
X005839Y017167D01*
X005589Y017417D01*
X005486Y017460D01*
X004124Y017460D01*
X004021Y017417D01*
X003943Y017339D01*
X003443Y016839D01*
X003400Y016736D01*
X003400Y014874D01*
X003413Y014843D01*
X002960Y015296D01*
X002960Y016564D01*
X004046Y017650D01*
X007064Y017650D01*
X007400Y017314D01*
X007400Y016579D01*
X007200Y016379D01*
X007200Y015981D01*
X007481Y015700D01*
X007879Y015700D01*
X008160Y015981D01*
X008160Y016379D01*
X007960Y016579D01*
X007960Y017486D01*
X007917Y017589D01*
X007839Y017667D01*
X007339Y018167D01*
X007260Y018200D01*
X011200Y018200D01*
X011200Y002660D01*
X002160Y002660D01*
X002160Y002814D02*
X011200Y002814D01*
X011200Y002973D02*
X002160Y002973D01*
X002160Y003131D02*
X002591Y003131D01*
X002569Y003153D02*
X002641Y003081D01*
X002734Y003042D01*
X002836Y003042D01*
X002929Y003081D01*
X002933Y003084D01*
X002936Y003081D01*
X002990Y003059D01*
X003030Y003042D01*
X003131Y003042D01*
X003169Y003058D01*
X003225Y003081D01*
X003323Y003180D01*
X003395Y003251D01*
X003434Y003345D01*
X003434Y003690D01*
X003520Y003726D01*
X003592Y003797D01*
X003631Y003891D01*
X003631Y003993D01*
X003592Y004086D01*
X003520Y004158D01*
X003434Y004194D01*
X003434Y004288D01*
X003395Y004382D01*
X003365Y004412D01*
X003383Y004430D01*
X003525Y004430D01*
X003618Y004469D01*
X003690Y004540D01*
X003729Y004634D01*
X003729Y004736D01*
X003690Y004829D01*
X003618Y004901D01*
X003525Y004940D01*
X003365Y004940D01*
X003395Y004970D01*
X003434Y005064D01*
X003434Y005362D01*
X003416Y005406D01*
X003426Y005406D01*
X003520Y005445D01*
X003592Y005516D01*
X003631Y005610D01*
X003631Y005810D01*
X003592Y005904D01*
X003520Y005975D01*
X003426Y006014D01*
X003365Y006014D01*
X003395Y006044D01*
X003434Y006138D01*
X003434Y006232D01*
X003520Y006268D01*
X003592Y006340D01*
X003631Y006433D01*
X003631Y006535D01*
X003592Y006629D01*
X003520Y006700D01*
X003426Y006739D01*
X002734Y006739D01*
X002641Y006700D01*
X002569Y006629D01*
X002530Y006535D01*
X002530Y006138D01*
X002569Y006044D01*
X002590Y006023D01*
X002569Y006002D01*
X002530Y005908D01*
X002530Y005610D01*
X002569Y005516D01*
X002599Y005486D01*
X002569Y005456D01*
X002530Y005362D01*
X002530Y005064D01*
X002569Y004970D01*
X002590Y004949D01*
X002569Y004928D01*
X002530Y004834D01*
X002530Y004536D01*
X002561Y004461D01*
X002530Y004386D01*
X002530Y004285D01*
X002569Y004191D01*
X002621Y004139D01*
X002569Y004086D01*
X002530Y003993D01*
X002530Y003891D01*
X002569Y003797D01*
X002599Y003767D01*
X002569Y003737D01*
X002530Y003643D01*
X002530Y003247D01*
X002569Y003153D01*
X002530Y003290D02*
X002160Y003290D01*
X002160Y003448D02*
X002530Y003448D01*
X002530Y003607D02*
X002160Y003607D01*
X002160Y003765D02*
X002597Y003765D01*
X002530Y003924D02*
X002160Y003924D01*
X002160Y004082D02*
X002567Y004082D01*
X002548Y004241D02*
X002160Y004241D01*
X002160Y004399D02*
X002535Y004399D01*
X002530Y004558D02*
X002160Y004558D01*
X002160Y004716D02*
X002530Y004716D01*
X002547Y004875D02*
X002160Y004875D01*
X002160Y005033D02*
X002543Y005033D01*
X002530Y005192D02*
X002160Y005192D01*
X002160Y005350D02*
X002530Y005350D01*
X002577Y005509D02*
X002160Y005509D01*
X002160Y005667D02*
X002530Y005667D01*
X002530Y005826D02*
X002160Y005826D01*
X002160Y005984D02*
X002561Y005984D01*
X002530Y006143D02*
X002160Y006143D01*
X002160Y006301D02*
X002530Y006301D01*
X002530Y006460D02*
X002160Y006460D01*
X002160Y006618D02*
X002564Y006618D01*
X002160Y006777D02*
X004688Y006777D01*
X004529Y006935D02*
X002160Y006935D01*
X002160Y007094D02*
X004371Y007094D01*
X004212Y007252D02*
X002160Y007252D01*
X002160Y007411D02*
X004054Y007411D01*
X003895Y007569D02*
X002160Y007569D01*
X002160Y007728D02*
X003760Y007728D01*
X003735Y007886D02*
X002160Y007886D01*
X002160Y008045D02*
X003735Y008045D01*
X003735Y008203D02*
X002160Y008203D01*
X002160Y008362D02*
X003735Y008362D01*
X003735Y008520D02*
X002160Y008520D01*
X002160Y008679D02*
X003735Y008679D01*
X003735Y008837D02*
X002160Y008837D01*
X002160Y008996D02*
X002974Y008996D01*
X002909Y009154D02*
X002160Y009154D01*
X002160Y009313D02*
X002909Y009313D01*
X002909Y009478D02*
X003297Y009478D01*
X003297Y009905D01*
X003066Y009905D01*
X003020Y009893D01*
X002979Y009869D01*
X002945Y009836D01*
X002922Y009795D01*
X002909Y009749D01*
X002909Y009478D01*
X002909Y009630D02*
X002160Y009630D01*
X002160Y009788D02*
X002920Y009788D01*
X003297Y009788D02*
X003393Y009788D01*
X003393Y009630D02*
X003297Y009630D01*
X003297Y009471D02*
X002160Y009471D01*
X002160Y009947D02*
X003898Y009947D01*
X003898Y010105D02*
X002160Y010105D01*
X002160Y010264D02*
X003898Y010264D01*
X003789Y010422D02*
X003071Y010422D01*
X003177Y010581D02*
X003683Y010581D01*
X004178Y010926D02*
X004178Y009593D01*
X004015Y009430D01*
X004015Y007845D01*
X005680Y006180D01*
X005680Y004680D01*
X006006Y005033D02*
X006354Y005033D01*
X006400Y005192D02*
X005960Y005192D01*
X005960Y005350D02*
X006400Y005350D01*
X006400Y005509D02*
X005960Y005509D01*
X005960Y005667D02*
X006400Y005667D01*
X006400Y005826D02*
X005960Y005826D01*
X005960Y005984D02*
X006400Y005984D01*
X006400Y006143D02*
X005960Y006143D01*
X005933Y006301D02*
X006427Y006301D01*
X006564Y006460D02*
X005796Y006460D01*
X005638Y006618D02*
X006722Y006618D01*
X006881Y006777D02*
X005479Y006777D01*
X005321Y006935D02*
X007039Y006935D01*
X007198Y007094D02*
X005162Y007094D01*
X005004Y007252D02*
X007356Y007252D01*
X007515Y007411D02*
X004845Y007411D01*
X004687Y007569D02*
X007673Y007569D01*
X007832Y007728D02*
X004528Y007728D01*
X004370Y007886D02*
X007990Y007886D01*
X008149Y008045D02*
X007431Y008045D01*
X007428Y008043D02*
X007428Y008043D01*
X007677Y008203D02*
X008307Y008203D01*
X008400Y008362D02*
X007895Y008362D01*
X007859Y008320D02*
X007859Y008320D01*
X007859Y008320D01*
X008032Y008520D02*
X008400Y008520D01*
X008400Y008679D02*
X008170Y008679D01*
X008194Y008707D02*
X008194Y008707D01*
X008254Y008837D02*
X008400Y008837D01*
X008400Y008996D02*
X008326Y008996D01*
X008398Y009154D02*
X008400Y009154D01*
X008680Y008180D02*
X008680Y011180D01*
X006180Y013680D01*
X006180Y015680D01*
X006680Y016180D01*
X006990Y015811D02*
X007370Y015811D01*
X007474Y015653D02*
X006886Y015653D01*
X007045Y015494D02*
X007315Y015494D01*
X007200Y015336D02*
X007160Y015336D01*
X007160Y015177D02*
X007200Y015177D01*
X007200Y015019D02*
X007160Y015019D01*
X007039Y014860D02*
X007321Y014860D01*
X007400Y014702D02*
X006960Y014702D01*
X006960Y014543D02*
X007400Y014543D01*
X007400Y014385D02*
X006960Y014385D01*
X007030Y014226D02*
X007400Y014226D01*
X007424Y014068D02*
X007188Y014068D01*
X007347Y013909D02*
X007555Y013909D01*
X007505Y013751D02*
X007714Y013751D01*
X007664Y013592D02*
X007872Y013592D01*
X007822Y013434D02*
X008031Y013434D01*
X007981Y013275D02*
X008189Y013275D01*
X008139Y013117D02*
X008348Y013117D01*
X008298Y012958D02*
X008506Y012958D01*
X008456Y012800D02*
X008665Y012800D01*
X008615Y012641D02*
X008823Y012641D01*
X008773Y012483D02*
X008982Y012483D01*
X008932Y012324D02*
X009140Y012324D01*
X009090Y012166D02*
X009299Y012166D01*
X009249Y012007D02*
X009457Y012007D01*
X009407Y011849D02*
X009616Y011849D01*
X009650Y011690D02*
X009460Y011690D01*
X009460Y011532D02*
X009650Y011532D01*
X009650Y011373D02*
X009460Y011373D01*
X009460Y011215D02*
X009650Y011215D01*
X009650Y011056D02*
X009460Y011056D01*
X009460Y010898D02*
X009650Y010898D01*
X009650Y010739D02*
X009460Y010739D01*
X009460Y010581D02*
X009650Y010581D01*
X009650Y010422D02*
X009460Y010422D01*
X009460Y010264D02*
X009650Y010264D01*
X009650Y010105D02*
X009460Y010105D01*
X009460Y009947D02*
X009650Y009947D01*
X009650Y009788D02*
X009460Y009788D01*
X009460Y009630D02*
X009650Y009630D01*
X009650Y009471D02*
X009460Y009471D01*
X009460Y009313D02*
X009650Y009313D01*
X009650Y009154D02*
X009460Y009154D01*
X009460Y008996D02*
X009650Y008996D01*
X009650Y008837D02*
X009460Y008837D01*
X009460Y008679D02*
X009650Y008679D01*
X009650Y008520D02*
X009460Y008520D01*
X009460Y008362D02*
X009650Y008362D01*
X009650Y008203D02*
X009460Y008203D01*
X009460Y008045D02*
X009650Y008045D01*
X009650Y007886D02*
X009460Y007886D01*
X009460Y007728D02*
X009650Y007728D01*
X009650Y007569D02*
X009437Y007569D01*
X009515Y007411D02*
X009306Y007411D01*
X009356Y007252D02*
X009148Y007252D01*
X009198Y007094D02*
X008989Y007094D01*
X009039Y006935D02*
X008831Y006935D01*
X008881Y006777D02*
X008672Y006777D01*
X008722Y006618D02*
X008514Y006618D01*
X008564Y006460D02*
X008355Y006460D01*
X008405Y006301D02*
X008197Y006301D01*
X008247Y006143D02*
X008038Y006143D01*
X008088Y005984D02*
X007880Y005984D01*
X008021Y005917D02*
X008021Y005917D01*
X007937Y005826D02*
X007721Y005826D01*
X007563Y005667D02*
X007900Y005667D01*
X007900Y005509D02*
X007460Y005509D01*
X007460Y005350D02*
X007900Y005350D01*
X007900Y005192D02*
X007460Y005192D01*
X007180Y005680D02*
X009180Y007680D01*
X009180Y011680D01*
X006680Y014180D01*
X006680Y015180D01*
X007148Y015970D02*
X007212Y015970D01*
X007200Y016128D02*
X007160Y016128D01*
X007160Y016287D02*
X007200Y016287D01*
X007266Y016445D02*
X007094Y016445D01*
X006935Y016604D02*
X007400Y016604D01*
X007400Y016762D02*
X005960Y016762D01*
X005960Y016604D02*
X006425Y016604D01*
X006266Y016445D02*
X006094Y016445D01*
X006160Y016287D02*
X006200Y016287D01*
X006200Y016128D02*
X006160Y016128D01*
X005680Y016180D02*
X005680Y016930D01*
X005430Y017180D01*
X004180Y017180D01*
X003680Y016680D01*
X003680Y014930D01*
X005180Y013430D01*
X005180Y011430D01*
X004680Y010930D01*
X004182Y010930D01*
X002686Y010930D01*
X002682Y010926D01*
X002187Y010898D02*
X002160Y010898D01*
X002160Y011056D02*
X002187Y011056D01*
X002187Y011215D02*
X002160Y011215D01*
X002160Y011373D02*
X002236Y011373D01*
X002160Y011532D02*
X004886Y011532D01*
X004900Y011690D02*
X002160Y011690D01*
X002160Y011849D02*
X004900Y011849D01*
X004900Y012007D02*
X002160Y012007D01*
X002160Y012166D02*
X004900Y012166D01*
X004900Y012324D02*
X002160Y012324D01*
X002160Y012483D02*
X002269Y012483D01*
X002276Y012475D02*
X002317Y012451D01*
X002363Y012439D01*
X002614Y012439D01*
X002614Y012866D01*
X002207Y012866D01*
X002207Y012595D01*
X002219Y012549D01*
X002243Y012508D01*
X002276Y012475D01*
X002207Y012641D02*
X002160Y012641D01*
X002160Y012800D02*
X002207Y012800D01*
X002160Y012958D02*
X002614Y012958D01*
X002614Y013002D02*
X002614Y012866D01*
X002750Y012866D01*
X002750Y013002D01*
X002614Y013002D01*
X002614Y013429D01*
X002363Y013429D01*
X002317Y013417D01*
X002276Y013393D01*
X002243Y013359D01*
X002219Y013318D01*
X002207Y013273D01*
X002207Y013002D01*
X002614Y013002D01*
X002614Y013117D02*
X002750Y013117D01*
X002750Y013002D02*
X002750Y013429D01*
X003001Y013429D01*
X003047Y013417D01*
X003088Y013393D01*
X003121Y013359D01*
X003145Y013318D01*
X003157Y013273D01*
X003157Y013002D01*
X002750Y013002D01*
X002750Y012958D02*
X003683Y012958D01*
X003683Y012800D02*
X003157Y012800D01*
X003157Y012866D02*
X003157Y012595D01*
X003145Y012549D01*
X003121Y012508D01*
X003088Y012475D01*
X003047Y012451D01*
X003001Y012439D01*
X002750Y012439D01*
X002750Y012866D01*
X003157Y012866D01*
X003157Y012641D02*
X003683Y012641D01*
X003736Y012483D02*
X003095Y012483D01*
X002750Y012483D02*
X002614Y012483D01*
X002614Y012641D02*
X002750Y012641D01*
X002750Y012800D02*
X002614Y012800D01*
X002614Y013275D02*
X002750Y013275D01*
X003157Y013275D02*
X003683Y013275D01*
X003683Y013117D02*
X003157Y013117D01*
X003714Y013751D02*
X002160Y013751D01*
X002160Y013909D02*
X003555Y013909D01*
X003397Y014068D02*
X002160Y014068D01*
X002160Y014226D02*
X003238Y014226D01*
X003080Y014385D02*
X002160Y014385D01*
X002160Y014543D02*
X002921Y014543D01*
X002763Y014702D02*
X002160Y014702D01*
X002160Y014860D02*
X002604Y014860D01*
X002445Y015019D02*
X002160Y015019D01*
X002160Y015177D02*
X002400Y015177D01*
X002400Y015336D02*
X002160Y015336D01*
X002160Y015494D02*
X002400Y015494D01*
X002400Y015653D02*
X002160Y015653D01*
X002160Y015811D02*
X002400Y015811D01*
X002400Y015970D02*
X002160Y015970D01*
X002160Y016128D02*
X002400Y016128D01*
X002400Y016287D02*
X002160Y016287D01*
X002160Y016445D02*
X002400Y016445D01*
X002400Y016604D02*
X002160Y016604D01*
X002160Y016762D02*
X002411Y016762D01*
X002525Y016921D02*
X002160Y016921D01*
X002160Y017079D02*
X002683Y017079D01*
X002842Y017238D02*
X002160Y017238D01*
X002160Y017396D02*
X003000Y017396D01*
X003159Y017555D02*
X002160Y017555D01*
X002160Y017713D02*
X003317Y017713D01*
X003476Y017872D02*
X002160Y017872D01*
X002160Y018030D02*
X003634Y018030D01*
X003822Y018189D02*
X002160Y018189D01*
X003158Y016762D02*
X003411Y016762D01*
X003400Y016604D02*
X003000Y016604D01*
X002960Y016445D02*
X003400Y016445D01*
X003400Y016287D02*
X002960Y016287D01*
X002960Y016128D02*
X003400Y016128D01*
X003400Y015970D02*
X002960Y015970D01*
X002960Y015811D02*
X003400Y015811D01*
X003400Y015653D02*
X002960Y015653D01*
X002960Y015494D02*
X003400Y015494D01*
X003400Y015336D02*
X002960Y015336D01*
X003079Y015177D02*
X003400Y015177D01*
X003400Y015019D02*
X003237Y015019D01*
X003396Y014860D02*
X003406Y014860D01*
X003987Y015019D02*
X004200Y015019D01*
X004200Y014981D02*
X004481Y014700D01*
X004879Y014700D01*
X005160Y014981D01*
X005160Y015379D01*
X004879Y015660D01*
X004481Y015660D01*
X004200Y015379D01*
X004200Y014981D01*
X004146Y014860D02*
X004321Y014860D01*
X004304Y014702D02*
X004480Y014702D01*
X004463Y014543D02*
X005900Y014543D01*
X005900Y014385D02*
X004621Y014385D01*
X004780Y014226D02*
X005900Y014226D01*
X005900Y014068D02*
X004938Y014068D01*
X005097Y013909D02*
X005900Y013909D01*
X005900Y013751D02*
X005255Y013751D01*
X005414Y013592D02*
X005913Y013592D01*
X006031Y013434D02*
X005460Y013434D01*
X005460Y013275D02*
X006189Y013275D01*
X006348Y013117D02*
X005460Y013117D01*
X005460Y012958D02*
X006506Y012958D01*
X006665Y012800D02*
X005460Y012800D01*
X005460Y012641D02*
X006823Y012641D01*
X006982Y012483D02*
X005460Y012483D01*
X005460Y012324D02*
X007140Y012324D01*
X007299Y012166D02*
X005460Y012166D01*
X005460Y012007D02*
X007457Y012007D01*
X007616Y011849D02*
X005460Y011849D01*
X005460Y011690D02*
X007774Y011690D01*
X007933Y011532D02*
X005460Y011532D01*
X005459Y011373D02*
X006122Y011373D01*
X005932Y011317D02*
X005932Y011317D01*
X005772Y011215D02*
X005360Y011215D01*
X005202Y011056D02*
X005526Y011056D01*
X005501Y011040D02*
X005501Y011040D01*
X005501Y011040D01*
X005377Y010898D02*
X005043Y010898D01*
X004885Y010739D02*
X005240Y010739D01*
X005166Y010653D02*
X005166Y010653D01*
X005133Y010581D02*
X004673Y010581D01*
X004567Y010422D02*
X005060Y010422D01*
X004988Y010264D02*
X004458Y010264D01*
X004458Y010105D02*
X004941Y010105D01*
X004918Y009947D02*
X004458Y009947D01*
X004471Y009788D02*
X004896Y009788D01*
X004887Y009630D02*
X004471Y009630D01*
X004471Y009471D02*
X004910Y009471D01*
X004933Y009313D02*
X004471Y009313D01*
X004471Y009154D02*
X004962Y009154D01*
X005034Y008996D02*
X004414Y008996D01*
X004295Y008837D02*
X005106Y008837D01*
X005190Y008679D02*
X004295Y008679D01*
X004295Y008520D02*
X005328Y008520D01*
X005465Y008362D02*
X004295Y008362D01*
X004295Y008203D02*
X005683Y008203D01*
X005501Y008320D02*
X005501Y008320D01*
X005929Y008045D02*
X004295Y008045D01*
X003393Y008996D02*
X003297Y008996D01*
X003297Y009154D02*
X003393Y009154D01*
X003393Y009313D02*
X003297Y009313D01*
X002293Y010422D02*
X002160Y010422D01*
X002160Y010581D02*
X002187Y010581D01*
X002187Y010739D02*
X002160Y010739D01*
X003128Y011373D02*
X003732Y011373D01*
X003683Y011215D02*
X003177Y011215D01*
X004178Y010926D02*
X004182Y010930D01*
X004624Y011373D02*
X004727Y011373D01*
X004620Y012483D02*
X004900Y012483D01*
X004900Y012641D02*
X004673Y012641D01*
X004673Y012800D02*
X004900Y012800D01*
X004900Y012958D02*
X004673Y012958D01*
X004673Y013117D02*
X004900Y013117D01*
X004900Y013275D02*
X004673Y013275D01*
X004572Y013434D02*
X004781Y013434D01*
X004622Y013592D02*
X004458Y013592D01*
X004453Y013751D02*
X004464Y013751D01*
X004178Y013682D02*
X002680Y015180D01*
X002680Y016680D01*
X003930Y017930D01*
X007180Y017930D01*
X007680Y017430D01*
X007680Y016180D01*
X007990Y015811D02*
X008398Y015811D01*
X008489Y015720D02*
X008220Y015989D01*
X008220Y016170D01*
X008670Y016170D01*
X008690Y016170D01*
X008690Y016190D01*
X009140Y016190D01*
X009140Y016371D01*
X008871Y016640D01*
X008690Y016640D01*
X008690Y016190D01*
X008670Y016190D01*
X008670Y016640D01*
X008489Y016640D01*
X008220Y016371D01*
X008220Y016190D01*
X008670Y016190D01*
X008670Y016170D01*
X008670Y015720D01*
X008489Y015720D01*
X008566Y015653D02*
X007886Y015653D01*
X008045Y015494D02*
X008315Y015494D01*
X008225Y015336D02*
X008160Y015336D01*
X008160Y015177D02*
X008200Y015177D01*
X008227Y015019D02*
X008160Y015019D01*
X008039Y014860D02*
X008321Y014860D01*
X008400Y014702D02*
X007960Y014702D01*
X007960Y014543D02*
X008400Y014543D01*
X008400Y014385D02*
X007960Y014385D01*
X008030Y014226D02*
X008400Y014226D01*
X008424Y014068D02*
X008188Y014068D01*
X008347Y013909D02*
X008555Y013909D01*
X008505Y013751D02*
X008714Y013751D01*
X008664Y013592D02*
X008872Y013592D01*
X008822Y013434D02*
X009031Y013434D01*
X008981Y013275D02*
X009189Y013275D01*
X009139Y013117D02*
X009348Y013117D01*
X009298Y012958D02*
X009506Y012958D01*
X009456Y012800D02*
X009665Y012800D01*
X009615Y012641D02*
X009823Y012641D01*
X009773Y012483D02*
X009982Y012483D01*
X009932Y012324D02*
X010140Y012324D01*
X010090Y012166D02*
X010299Y012166D01*
X010201Y012007D02*
X010400Y012007D01*
X010400Y011849D02*
X010210Y011849D01*
X010210Y011690D02*
X010400Y011690D01*
X010400Y011532D02*
X010210Y011532D01*
X010210Y011373D02*
X010400Y011373D01*
X010400Y011215D02*
X010210Y011215D01*
X010210Y011056D02*
X010400Y011056D01*
X010400Y010898D02*
X010210Y010898D01*
X010210Y010739D02*
X010400Y010739D01*
X010400Y010581D02*
X010210Y010581D01*
X010210Y010422D02*
X010400Y010422D01*
X010400Y010264D02*
X010210Y010264D01*
X010210Y010105D02*
X010400Y010105D01*
X010400Y009947D02*
X010210Y009947D01*
X010210Y009788D02*
X010400Y009788D01*
X010400Y009630D02*
X010210Y009630D01*
X010210Y009471D02*
X010400Y009471D01*
X010400Y009313D02*
X010210Y009313D01*
X010210Y009154D02*
X010400Y009154D01*
X010400Y008996D02*
X010210Y008996D01*
X010210Y008837D02*
X010400Y008837D01*
X010400Y008679D02*
X010210Y008679D01*
X010210Y008520D02*
X010400Y008520D01*
X010400Y008362D02*
X010210Y008362D01*
X010210Y008203D02*
X010400Y008203D01*
X010400Y008045D02*
X010210Y008045D01*
X010210Y007886D02*
X010400Y007886D01*
X010400Y007728D02*
X010210Y007728D01*
X010210Y007569D02*
X010400Y007569D01*
X010400Y007411D02*
X010210Y007411D01*
X010148Y007252D02*
X010400Y007252D01*
X010400Y007094D02*
X009989Y007094D01*
X010089Y007193D02*
X010089Y007193D01*
X009930Y007430D02*
X009930Y011930D01*
X007680Y014180D01*
X007680Y015180D01*
X008148Y015970D02*
X008240Y015970D01*
X008220Y016128D02*
X008160Y016128D01*
X008160Y016287D02*
X008220Y016287D01*
X008294Y016445D02*
X008094Y016445D01*
X007960Y016604D02*
X008453Y016604D01*
X008670Y016604D02*
X008690Y016604D01*
X008690Y016445D02*
X008670Y016445D01*
X008670Y016287D02*
X008690Y016287D01*
X008690Y016170D02*
X009140Y016170D01*
X009140Y015989D01*
X008871Y015720D01*
X008690Y015720D01*
X008690Y016170D01*
X008690Y016128D02*
X008670Y016128D01*
X008670Y015970D02*
X008690Y015970D01*
X008690Y015811D02*
X008670Y015811D01*
X008794Y015653D02*
X009922Y015653D01*
X009891Y015684D02*
X009989Y015585D01*
X010083Y015546D01*
X010381Y015546D01*
X010475Y015585D01*
X010546Y015657D01*
X010645Y015755D01*
X010684Y015849D01*
X010684Y015950D01*
X010684Y016246D01*
X010645Y016339D01*
X010615Y016370D01*
X010645Y016400D01*
X010684Y016494D01*
X010684Y016792D01*
X010645Y016886D01*
X010615Y016916D01*
X010645Y016946D01*
X010684Y017040D01*
X010684Y017240D01*
X010668Y017277D01*
X010664Y017287D01*
X010667Y017295D01*
X010684Y017335D01*
X010684Y017436D01*
X010668Y017474D01*
X010645Y017530D01*
X010546Y017629D01*
X010475Y017700D01*
X010381Y017739D01*
X009984Y017739D01*
X009891Y017700D01*
X009819Y017629D01*
X009780Y017535D01*
X009780Y017433D01*
X009800Y017386D01*
X009780Y017338D01*
X009780Y017237D01*
X009800Y017189D01*
X009780Y017141D01*
X009780Y017040D01*
X009811Y016965D01*
X009780Y016890D01*
X009780Y016494D01*
X009819Y016400D01*
X009849Y016370D01*
X009819Y016339D01*
X009780Y016246D01*
X009780Y015849D01*
X009819Y015755D01*
X009891Y015684D01*
X009796Y015811D02*
X008962Y015811D01*
X009120Y015970D02*
X009780Y015970D01*
X009780Y016128D02*
X009140Y016128D01*
X009140Y016287D02*
X009797Y016287D01*
X009800Y016445D02*
X009066Y016445D01*
X008907Y016604D02*
X009780Y016604D01*
X009780Y016762D02*
X007960Y016762D01*
X007960Y016921D02*
X009793Y016921D01*
X009780Y017079D02*
X007960Y017079D01*
X007960Y017238D02*
X009780Y017238D01*
X009795Y017396D02*
X007960Y017396D01*
X007931Y017555D02*
X009788Y017555D01*
X009921Y017713D02*
X007793Y017713D01*
X007634Y017872D02*
X011200Y017872D01*
X011200Y018030D02*
X007476Y018030D01*
X007288Y018189D02*
X011200Y018189D01*
X011200Y017713D02*
X010444Y017713D01*
X010620Y017555D02*
X011200Y017555D01*
X011200Y017396D02*
X010684Y017396D01*
X010684Y017238D02*
X011200Y017238D01*
X011200Y017079D02*
X010684Y017079D01*
X010619Y016921D02*
X011200Y016921D01*
X011200Y016762D02*
X010684Y016762D01*
X010684Y016604D02*
X011200Y016604D01*
X011200Y016445D02*
X010664Y016445D01*
X010667Y016287D02*
X011200Y016287D01*
X011200Y016128D02*
X010684Y016128D01*
X010684Y015970D02*
X011200Y015970D01*
X011200Y015811D02*
X010668Y015811D01*
X010542Y015653D02*
X011200Y015653D01*
X011200Y015494D02*
X009045Y015494D01*
X009135Y015336D02*
X011200Y015336D01*
X011200Y015177D02*
X009160Y015177D01*
X009133Y015019D02*
X011200Y015019D01*
X011200Y014860D02*
X009039Y014860D01*
X008960Y014702D02*
X011200Y014702D01*
X011200Y014543D02*
X008960Y014543D01*
X008960Y014385D02*
X011200Y014385D01*
X011200Y014226D02*
X009030Y014226D01*
X009188Y014068D02*
X011200Y014068D01*
X011200Y013909D02*
X009347Y013909D01*
X009505Y013751D02*
X011200Y013751D01*
X011200Y013592D02*
X009664Y013592D01*
X009822Y013434D02*
X011200Y013434D01*
X011200Y013275D02*
X009981Y013275D01*
X010139Y013117D02*
X011200Y013117D01*
X011200Y012958D02*
X010298Y012958D01*
X010456Y012800D02*
X011200Y012800D01*
X011200Y012641D02*
X010615Y012641D01*
X010773Y012483D02*
X011200Y012483D01*
X011200Y012324D02*
X010923Y012324D01*
X010960Y012166D02*
X011200Y012166D01*
X011200Y012007D02*
X010960Y012007D01*
X010960Y011849D02*
X011200Y011849D01*
X011200Y011690D02*
X010960Y011690D01*
X010960Y011532D02*
X011200Y011532D01*
X011200Y011373D02*
X010960Y011373D01*
X010960Y011215D02*
X011200Y011215D01*
X011200Y011056D02*
X010960Y011056D01*
X010960Y010898D02*
X011200Y010898D01*
X011200Y010739D02*
X010960Y010739D01*
X010960Y010581D02*
X011200Y010581D01*
X011200Y010422D02*
X010960Y010422D01*
X010960Y010264D02*
X011200Y010264D01*
X011200Y010105D02*
X010960Y010105D01*
X010960Y009947D02*
X011200Y009947D01*
X011200Y009788D02*
X010960Y009788D01*
X010960Y009630D02*
X011200Y009630D01*
X011200Y009471D02*
X010960Y009471D01*
X010960Y009313D02*
X011200Y009313D01*
X011200Y009154D02*
X010960Y009154D01*
X010960Y008996D02*
X011200Y008996D01*
X011200Y008837D02*
X010960Y008837D01*
X010960Y008679D02*
X011200Y008679D01*
X011200Y008520D02*
X010960Y008520D01*
X010960Y008362D02*
X011200Y008362D01*
X011200Y008203D02*
X010960Y008203D01*
X010960Y008045D02*
X011200Y008045D01*
X011200Y007886D02*
X010960Y007886D01*
X010960Y007728D02*
X011200Y007728D01*
X011200Y007569D02*
X010960Y007569D01*
X010960Y007411D02*
X011200Y007411D01*
X011200Y007252D02*
X010960Y007252D01*
X010960Y007094D02*
X011200Y007094D01*
X011200Y006935D02*
X010960Y006935D01*
X010960Y006777D02*
X011200Y006777D01*
X011200Y006618D02*
X010960Y006618D01*
X010960Y006460D02*
X011200Y006460D01*
X011200Y006301D02*
X010960Y006301D01*
X010960Y006143D02*
X011200Y006143D01*
X011200Y005984D02*
X010960Y005984D01*
X010960Y005826D02*
X011200Y005826D01*
X011200Y005667D02*
X010960Y005667D01*
X010960Y005509D02*
X011200Y005509D01*
X011200Y005350D02*
X010960Y005350D01*
X010960Y005192D02*
X011200Y005192D01*
X011200Y005033D02*
X010960Y005033D01*
X010960Y004875D02*
X011200Y004875D01*
X011200Y004716D02*
X010960Y004716D01*
X010932Y004558D02*
X011200Y004558D01*
X011200Y004399D02*
X010795Y004399D01*
X010636Y004241D02*
X011200Y004241D01*
X011200Y004082D02*
X010478Y004082D01*
X010319Y003924D02*
X011200Y003924D01*
X011200Y003765D02*
X010161Y003765D01*
X010002Y003607D02*
X011200Y003607D01*
X011200Y003448D02*
X009844Y003448D01*
X009680Y003680D02*
X010680Y004680D01*
X010680Y012180D01*
X008680Y014180D01*
X008680Y015180D01*
X007400Y016921D02*
X005960Y016921D01*
X005921Y017079D02*
X007400Y017079D01*
X007400Y017238D02*
X005768Y017238D01*
X005610Y017396D02*
X007318Y017396D01*
X007159Y017555D02*
X003951Y017555D01*
X004000Y017396D02*
X003792Y017396D01*
X003842Y017238D02*
X003634Y017238D01*
X003683Y017079D02*
X003475Y017079D01*
X003525Y016921D02*
X003317Y016921D01*
X004000Y016604D02*
X004453Y016604D01*
X004489Y016640D02*
X004220Y016371D01*
X004220Y016190D01*
X004670Y016190D01*
X004670Y016640D01*
X004489Y016640D01*
X004670Y016604D02*
X004690Y016604D01*
X004690Y016640D02*
X004871Y016640D01*
X005140Y016371D01*
X005140Y016190D01*
X004690Y016190D01*
X004690Y016170D01*
X005140Y016170D01*
X005140Y015989D01*
X004871Y015720D01*
X004690Y015720D01*
X004690Y016170D01*
X004670Y016170D01*
X004670Y015720D01*
X004489Y015720D01*
X004220Y015989D01*
X004220Y016170D01*
X004670Y016170D01*
X004670Y016190D01*
X004690Y016190D01*
X004690Y016640D01*
X004690Y016445D02*
X004670Y016445D01*
X004670Y016287D02*
X004690Y016287D01*
X004690Y016128D02*
X004670Y016128D01*
X004670Y015970D02*
X004690Y015970D01*
X004690Y015811D02*
X004670Y015811D01*
X004474Y015653D02*
X003960Y015653D01*
X003960Y015811D02*
X004398Y015811D01*
X004240Y015970D02*
X003960Y015970D01*
X003960Y016128D02*
X004220Y016128D01*
X004220Y016287D02*
X003960Y016287D01*
X003960Y016445D02*
X004294Y016445D01*
X004158Y016762D02*
X005400Y016762D01*
X005400Y016604D02*
X004907Y016604D01*
X005066Y016445D02*
X005266Y016445D01*
X005200Y016287D02*
X005140Y016287D01*
X005140Y016128D02*
X005200Y016128D01*
X005212Y015970D02*
X005120Y015970D01*
X004962Y015811D02*
X005370Y015811D01*
X005343Y015494D02*
X005045Y015494D01*
X005160Y015336D02*
X005220Y015336D01*
X005220Y015170D02*
X005220Y014989D01*
X005489Y014720D01*
X005670Y014720D01*
X005670Y015170D01*
X005220Y015170D01*
X005160Y015177D02*
X005670Y015177D01*
X005670Y015019D02*
X005690Y015019D01*
X005690Y014860D02*
X005670Y014860D01*
X005900Y014702D02*
X004880Y014702D01*
X005039Y014860D02*
X005349Y014860D01*
X005220Y015019D02*
X005160Y015019D01*
X004886Y015653D02*
X005900Y015653D01*
X005690Y015494D02*
X005670Y015494D01*
X005670Y015336D02*
X005690Y015336D01*
X004315Y015494D02*
X003960Y015494D01*
X003960Y015336D02*
X004200Y015336D01*
X004200Y015177D02*
X003960Y015177D01*
X004178Y013682D02*
X004178Y012934D01*
X003785Y013434D02*
X002160Y013434D01*
X002160Y013592D02*
X003872Y013592D01*
X002207Y013275D02*
X002160Y013275D01*
X002160Y013117D02*
X002207Y013117D01*
X005932Y008043D02*
X005932Y008043D01*
X004846Y006618D02*
X003596Y006618D01*
X003631Y006460D02*
X005005Y006460D01*
X005163Y006301D02*
X003553Y006301D01*
X003434Y006143D02*
X005322Y006143D01*
X005400Y005984D02*
X003499Y005984D01*
X003624Y005826D02*
X005400Y005826D01*
X005400Y005667D02*
X003631Y005667D01*
X003584Y005509D02*
X005400Y005509D01*
X005400Y005350D02*
X003434Y005350D01*
X003434Y005192D02*
X005400Y005192D01*
X005354Y005033D02*
X004978Y005033D01*
X004871Y005140D02*
X004690Y005140D01*
X004690Y004690D01*
X005140Y004690D01*
X005140Y004871D01*
X004871Y005140D01*
X004670Y005140D02*
X004489Y005140D01*
X004220Y004871D01*
X004220Y004690D01*
X004670Y004690D01*
X004670Y005140D01*
X004670Y005033D02*
X004690Y005033D01*
X004690Y004875D02*
X004670Y004875D01*
X004670Y004716D02*
X004690Y004716D01*
X004690Y004690D02*
X004670Y004690D01*
X004670Y004670D01*
X004690Y004670D01*
X004690Y004690D01*
X004690Y004670D02*
X005140Y004670D01*
X005140Y004489D01*
X004871Y004220D01*
X004690Y004220D01*
X004690Y004670D01*
X004670Y004670D02*
X004670Y004220D01*
X004489Y004220D01*
X004220Y004489D01*
X004220Y004670D01*
X004670Y004670D01*
X004670Y004558D02*
X004690Y004558D01*
X004690Y004399D02*
X004670Y004399D01*
X004670Y004241D02*
X004690Y004241D01*
X004879Y004160D02*
X004481Y004160D01*
X004200Y003879D01*
X004200Y003481D01*
X004481Y003200D01*
X004879Y003200D01*
X005160Y003481D01*
X005160Y003879D01*
X004879Y004160D01*
X004891Y004241D02*
X005441Y004241D01*
X005489Y004140D02*
X005220Y003871D01*
X005220Y003690D01*
X005670Y003690D01*
X005670Y004140D01*
X005489Y004140D01*
X005431Y004082D02*
X004957Y004082D01*
X005115Y003924D02*
X005273Y003924D01*
X005220Y003765D02*
X005160Y003765D01*
X005220Y003670D02*
X005220Y003489D01*
X005489Y003220D01*
X005670Y003220D01*
X005670Y003670D01*
X005690Y003670D01*
X005690Y003690D01*
X006140Y003690D01*
X006140Y003871D01*
X005871Y004140D01*
X005690Y004140D01*
X005690Y003690D01*
X005670Y003690D01*
X005670Y003670D01*
X005220Y003670D01*
X005220Y003607D02*
X005160Y003607D01*
X005127Y003448D02*
X005261Y003448D01*
X005420Y003290D02*
X004968Y003290D01*
X004392Y003290D02*
X003411Y003290D01*
X003434Y003448D02*
X004233Y003448D01*
X004200Y003607D02*
X003434Y003607D01*
X003559Y003765D02*
X004200Y003765D01*
X004245Y003924D02*
X003631Y003924D01*
X003594Y004082D02*
X004403Y004082D01*
X004469Y004241D02*
X003434Y004241D01*
X003377Y004399D02*
X004310Y004399D01*
X004220Y004558D02*
X003697Y004558D01*
X003729Y004716D02*
X004220Y004716D01*
X004224Y004875D02*
X003645Y004875D01*
X003421Y005033D02*
X004382Y005033D01*
X005136Y004875D02*
X005200Y004875D01*
X005200Y004716D02*
X005140Y004716D01*
X005140Y004558D02*
X005200Y004558D01*
X005282Y004399D02*
X005050Y004399D01*
X005670Y004082D02*
X005690Y004082D01*
X005690Y003924D02*
X005670Y003924D01*
X005670Y003765D02*
X005690Y003765D01*
X005690Y003670D02*
X006140Y003670D01*
X006140Y003489D01*
X005871Y003220D01*
X005690Y003220D01*
X005690Y003670D01*
X005690Y003607D02*
X005670Y003607D01*
X005670Y003448D02*
X005690Y003448D01*
X005690Y003290D02*
X005670Y003290D01*
X005940Y003290D02*
X006392Y003290D01*
X006233Y003448D02*
X006099Y003448D01*
X006140Y003607D02*
X006200Y003607D01*
X006200Y003765D02*
X006140Y003765D01*
X006087Y003924D02*
X006245Y003924D01*
X006403Y004082D02*
X005929Y004082D01*
X005919Y004241D02*
X006441Y004241D01*
X006282Y004399D02*
X006078Y004399D01*
X006160Y004558D02*
X006200Y004558D01*
X006200Y004716D02*
X006160Y004716D01*
X006160Y004875D02*
X006200Y004875D01*
X006680Y004680D02*
X006680Y006180D01*
X008680Y008180D01*
X009672Y006777D02*
X010400Y006777D01*
X010400Y006935D02*
X009831Y006935D01*
X009514Y006618D02*
X010400Y006618D01*
X010400Y006460D02*
X009355Y006460D01*
X009197Y006301D02*
X010400Y006301D01*
X010400Y006143D02*
X009038Y006143D01*
X008880Y005984D02*
X010400Y005984D01*
X010400Y005826D02*
X008721Y005826D01*
X008563Y005667D02*
X010400Y005667D01*
X010400Y005509D02*
X008460Y005509D01*
X008460Y005350D02*
X010400Y005350D01*
X010400Y005192D02*
X008460Y005192D01*
X008690Y005140D02*
X008690Y004690D01*
X009140Y004690D01*
X009140Y004871D01*
X008871Y005140D01*
X008690Y005140D01*
X008690Y005033D02*
X008670Y005033D01*
X008670Y004875D02*
X008690Y004875D01*
X008690Y004716D02*
X008670Y004716D01*
X008690Y004670D02*
X009140Y004670D01*
X009140Y004489D01*
X008871Y004220D01*
X008690Y004220D01*
X008690Y004670D01*
X008690Y004558D02*
X008670Y004558D01*
X008670Y004399D02*
X008690Y004399D01*
X008690Y004241D02*
X008670Y004241D01*
X008891Y004241D02*
X009845Y004241D01*
X010003Y004399D02*
X009050Y004399D01*
X009140Y004558D02*
X010162Y004558D01*
X010320Y004716D02*
X009140Y004716D01*
X009136Y004875D02*
X010400Y004875D01*
X010400Y005033D02*
X008978Y005033D01*
X008469Y004241D02*
X008460Y004241D01*
X008180Y004180D02*
X008180Y005680D01*
X009930Y007430D01*
X008400Y010264D02*
X008372Y010264D01*
X008400Y010422D02*
X008300Y010422D01*
X008227Y010581D02*
X008400Y010581D01*
X008400Y010739D02*
X008120Y010739D01*
X008194Y010653D02*
X008194Y010653D01*
X008400Y010898D02*
X007983Y010898D01*
X007834Y011056D02*
X008400Y011056D01*
X008250Y011215D02*
X007588Y011215D01*
X007428Y011317D02*
X007428Y011317D01*
X007238Y011373D02*
X008091Y011373D01*
X007180Y005680D02*
X007180Y004180D01*
X006680Y003680D01*
X006968Y003290D02*
X007392Y003290D01*
X007233Y003448D02*
X007127Y003448D01*
X007160Y003607D02*
X007200Y003607D01*
X007200Y003765D02*
X007161Y003765D01*
X007680Y003680D02*
X008180Y004180D01*
X008161Y003765D02*
X008200Y003765D01*
X008200Y003607D02*
X008160Y003607D01*
X008127Y003448D02*
X008233Y003448D01*
X008392Y003290D02*
X007968Y003290D01*
X008680Y003680D02*
X009680Y003680D01*
X009686Y004082D02*
X008957Y004082D01*
X008968Y003290D02*
X011200Y003290D01*
X011200Y003131D02*
X003274Y003131D01*
X002936Y003081D02*
X002936Y003081D01*
X002933Y003084D02*
X002933Y003084D01*
M02*
