%
M48
M72
T01C0.0360
T02C0.1181
%
T01
X5680Y3680
X5680Y4680
X6680Y4680
X6680Y3680
X7680Y3680
X7680Y4680
X8680Y4680
X8680Y3680
X9680Y3680
X9680Y4680
X9680Y15180
X9680Y16180
X8680Y16180
X8680Y15180
X7680Y15180
X7680Y16180
X6680Y16180
X6680Y15180
X5680Y15180
X5680Y16180
T02
X7680Y9680
M30
