%
M48
M72
T01C0.0360
T02C0.0400
T03C0.1181
%
T01
X3180Y2533
X3180Y3533
X4180Y3533
X4180Y2533
X5180Y2533
X5180Y3533
X6180Y3533
X6180Y2533
X7180Y2533
X7180Y3533
X7180Y14033
X7180Y15033
X6180Y15033
X6180Y14033
X5180Y14033
X5180Y15033
X4180Y15033
X4180Y14033
X3180Y14033
X3180Y15033
T02
X9180Y14033
X9180Y13033
X9180Y12033
T03
X5180Y8533
M30
