%
M48
M72
T01C0.0360
T02C0.1181
%
T01
X4680Y3680
X4680Y4680
X5680Y4680
X5680Y3680
X6680Y3680
X6680Y4680
X7680Y4680
X7680Y3680
X8680Y3680
X8680Y4680
X8680Y15180
X8680Y16180
X7680Y16180
X7680Y15180
X6680Y15180
X6680Y16180
X5680Y16180
X5680Y15180
X4680Y15180
X4680Y16180
T02
X6680Y9680
M30
