%
M48
M72
T01C0.0360
T02C0.1181
%
T01
X3000Y1500
X3000Y2500
X4000Y2500
X4000Y1500
X5000Y1500
X5000Y2500
X6000Y2500
X6000Y1500
X7000Y1500
X7000Y2500
X7000Y13000
X7000Y14000
X6000Y14000
X6000Y13000
X5000Y13000
X5000Y14000
X4000Y14000
X4000Y13000
X3000Y13000
X3000Y14000
T02
X5000Y7500
M30
