G75*
%MOIN*%
%OFA0B0*%
%FSLAX24Y24*%
%IPPOS*%
%LPD*%
%AMOC8*
5,1,8,0,0,1.08239X$1,22.5*
%
%ADD10C,0.0020*%
%ADD11C,0.0000*%
D10*
X000000Y000000D02*
X000000Y016500D01*
X010000Y016500D01*
X010000Y000000D01*
X000000Y000000D01*
D11*
X004409Y007500D02*
X004411Y007548D01*
X004417Y007596D01*
X004427Y007643D01*
X004440Y007689D01*
X004458Y007734D01*
X004478Y007778D01*
X004503Y007820D01*
X004531Y007859D01*
X004561Y007896D01*
X004595Y007930D01*
X004632Y007962D01*
X004670Y007991D01*
X004711Y008016D01*
X004754Y008038D01*
X004799Y008056D01*
X004845Y008070D01*
X004892Y008081D01*
X004940Y008088D01*
X004988Y008091D01*
X005036Y008090D01*
X005084Y008085D01*
X005132Y008076D01*
X005178Y008064D01*
X005223Y008047D01*
X005267Y008027D01*
X005309Y008004D01*
X005349Y007977D01*
X005387Y007947D01*
X005422Y007914D01*
X005454Y007878D01*
X005484Y007840D01*
X005510Y007799D01*
X005532Y007756D01*
X005552Y007712D01*
X005567Y007667D01*
X005579Y007620D01*
X005587Y007572D01*
X005591Y007524D01*
X005591Y007476D01*
X005587Y007428D01*
X005579Y007380D01*
X005567Y007333D01*
X005552Y007288D01*
X005532Y007244D01*
X005510Y007201D01*
X005484Y007160D01*
X005454Y007122D01*
X005422Y007086D01*
X005387Y007053D01*
X005349Y007023D01*
X005309Y006996D01*
X005267Y006973D01*
X005223Y006953D01*
X005178Y006936D01*
X005132Y006924D01*
X005084Y006915D01*
X005036Y006910D01*
X004988Y006909D01*
X004940Y006912D01*
X004892Y006919D01*
X004845Y006930D01*
X004799Y006944D01*
X004754Y006962D01*
X004711Y006984D01*
X004670Y007009D01*
X004632Y007038D01*
X004595Y007070D01*
X004561Y007104D01*
X004531Y007141D01*
X004503Y007180D01*
X004478Y007222D01*
X004458Y007266D01*
X004440Y007311D01*
X004427Y007357D01*
X004417Y007404D01*
X004411Y007452D01*
X004409Y007500D01*
M02*
