G75*
%MOIN*%
%OFA0B0*%
%FSLAX24Y24*%
%IPPOS*%
%LPD*%
%AMOC8*
5,1,8,0,0,1.08239X$1,22.5*
%
%ADD10C,0.0010*%
%ADD11C,0.0000*%
D10*
X000180Y001033D02*
X000180Y017533D01*
X009680Y017533D01*
X010180Y017033D01*
X010180Y001033D01*
X000180Y001033D01*
D11*
X004589Y008533D02*
X004591Y008581D01*
X004597Y008629D01*
X004607Y008676D01*
X004620Y008722D01*
X004638Y008767D01*
X004658Y008811D01*
X004683Y008853D01*
X004711Y008892D01*
X004741Y008929D01*
X004775Y008963D01*
X004812Y008995D01*
X004850Y009024D01*
X004891Y009049D01*
X004934Y009071D01*
X004979Y009089D01*
X005025Y009103D01*
X005072Y009114D01*
X005120Y009121D01*
X005168Y009124D01*
X005216Y009123D01*
X005264Y009118D01*
X005312Y009109D01*
X005358Y009097D01*
X005403Y009080D01*
X005447Y009060D01*
X005489Y009037D01*
X005529Y009010D01*
X005567Y008980D01*
X005602Y008947D01*
X005634Y008911D01*
X005664Y008873D01*
X005690Y008832D01*
X005712Y008789D01*
X005732Y008745D01*
X005747Y008700D01*
X005759Y008653D01*
X005767Y008605D01*
X005771Y008557D01*
X005771Y008509D01*
X005767Y008461D01*
X005759Y008413D01*
X005747Y008366D01*
X005732Y008321D01*
X005712Y008277D01*
X005690Y008234D01*
X005664Y008193D01*
X005634Y008155D01*
X005602Y008119D01*
X005567Y008086D01*
X005529Y008056D01*
X005489Y008029D01*
X005447Y008006D01*
X005403Y007986D01*
X005358Y007969D01*
X005312Y007957D01*
X005264Y007948D01*
X005216Y007943D01*
X005168Y007942D01*
X005120Y007945D01*
X005072Y007952D01*
X005025Y007963D01*
X004979Y007977D01*
X004934Y007995D01*
X004891Y008017D01*
X004850Y008042D01*
X004812Y008071D01*
X004775Y008103D01*
X004741Y008137D01*
X004711Y008174D01*
X004683Y008213D01*
X004658Y008255D01*
X004638Y008299D01*
X004620Y008344D01*
X004607Y008390D01*
X004597Y008437D01*
X004591Y008485D01*
X004589Y008533D01*
M02*
