G75*
%MOIN*%
%OFA0B0*%
%FSLAX24Y24*%
%IPPOS*%
%LPD*%
%AMOC8*
5,1,8,0,0,1.08239X$1,22.5*
%
%ADD10C,0.0110*%
%ADD11OC8,0.0600*%
%ADD12OC8,0.0560*%
%ADD13C,0.0520*%
%ADD14OC8,0.0520*%
%ADD15OC8,0.0630*%
%ADD16C,0.0630*%
%ADD17C,0.0600*%
%ADD18C,0.0320*%
%ADD19C,0.0160*%
D10*
X002235Y003235D02*
X002235Y003535D01*
X002385Y003685D01*
X002535Y003535D01*
X002535Y003235D01*
X002751Y003235D02*
X002901Y003235D01*
X002826Y003235D02*
X002826Y003685D01*
X002751Y003685D01*
X002535Y003460D02*
X002235Y003460D01*
X003094Y003535D02*
X003320Y003535D01*
X003395Y003460D01*
X003395Y003310D01*
X003320Y003235D01*
X003094Y003235D01*
X003094Y003685D01*
X003610Y003535D02*
X003685Y003535D01*
X003685Y003235D01*
X003610Y003235D02*
X003760Y003235D01*
X003954Y003235D02*
X003954Y003535D01*
X004179Y003535D01*
X004254Y003460D01*
X004254Y003235D01*
X003685Y003685D02*
X003685Y003760D01*
X004985Y003685D02*
X004985Y003235D01*
X004985Y003460D02*
X005135Y003460D01*
X004985Y003685D02*
X005285Y003685D01*
X005576Y003310D02*
X005576Y003235D01*
X005651Y003235D01*
X005651Y003310D01*
X005576Y003310D01*
X005651Y003235D02*
X005501Y003085D01*
X006360Y003310D02*
X006435Y003235D01*
X006585Y003235D01*
X006660Y003310D01*
X006876Y003235D02*
X006876Y003685D01*
X006951Y003535D02*
X007101Y003535D01*
X007176Y003460D01*
X007176Y003235D01*
X007391Y003235D02*
X007391Y003535D01*
X007391Y003385D02*
X007542Y003535D01*
X007617Y003535D01*
X007821Y003535D02*
X007896Y003535D01*
X007896Y003235D01*
X007821Y003235D02*
X007971Y003235D01*
X008165Y003235D02*
X008390Y003235D01*
X008465Y003310D01*
X008390Y003385D01*
X008240Y003385D01*
X008165Y003460D01*
X008240Y003535D01*
X008465Y003535D01*
X008680Y003535D02*
X008831Y003535D01*
X008756Y003610D02*
X008756Y003310D01*
X008831Y003235D01*
X009024Y003310D02*
X009099Y003235D01*
X009249Y003235D01*
X009325Y003310D01*
X009325Y003460D01*
X009249Y003535D01*
X009099Y003535D01*
X009024Y003460D01*
X009024Y003310D01*
X009540Y003235D02*
X009765Y003235D01*
X009840Y003310D01*
X009840Y003460D01*
X009765Y003535D01*
X009540Y003535D01*
X009540Y003085D01*
X010056Y003235D02*
X010056Y003685D01*
X010131Y003535D02*
X010281Y003535D01*
X010356Y003460D01*
X010356Y003235D01*
X010571Y003310D02*
X010571Y003460D01*
X010646Y003535D01*
X010796Y003535D01*
X010871Y003460D01*
X010871Y003385D01*
X010571Y003385D01*
X010571Y003310D02*
X010646Y003235D01*
X010796Y003235D01*
X011087Y003235D02*
X011087Y003535D01*
X011087Y003385D02*
X011237Y003535D01*
X011312Y003535D01*
X012032Y003610D02*
X012032Y003310D01*
X012107Y003235D01*
X012257Y003235D01*
X012332Y003310D01*
X012332Y003460D01*
X012182Y003460D01*
X012032Y003610D02*
X012107Y003685D01*
X012257Y003685D01*
X012332Y003610D01*
X012623Y003310D02*
X012623Y003235D01*
X012698Y003235D01*
X012698Y003310D01*
X012623Y003310D01*
X012698Y003235D02*
X012548Y003085D01*
X013407Y003235D02*
X013407Y003685D01*
X013557Y003535D01*
X013707Y003685D01*
X013707Y003235D01*
X013923Y003310D02*
X013998Y003385D01*
X014223Y003385D01*
X014223Y003460D02*
X014223Y003235D01*
X013998Y003235D01*
X013923Y003310D01*
X013998Y003535D02*
X014148Y003535D01*
X014223Y003460D01*
X014438Y003535D02*
X014589Y003535D01*
X014514Y003610D02*
X014514Y003310D01*
X014589Y003235D01*
X014857Y003310D02*
X014932Y003235D01*
X014857Y003310D02*
X014857Y003610D01*
X014782Y003535D02*
X014932Y003535D01*
X015126Y003460D02*
X015201Y003535D01*
X015351Y003535D01*
X015426Y003460D01*
X015426Y003235D01*
X015642Y003235D02*
X015792Y003235D01*
X015717Y003235D02*
X015717Y003535D01*
X015642Y003535D01*
X015717Y003685D02*
X015717Y003760D01*
X016060Y003535D02*
X016211Y003535D01*
X016286Y003460D01*
X016286Y003235D01*
X016060Y003235D01*
X015985Y003310D01*
X016060Y003385D01*
X016286Y003385D01*
X016501Y003460D02*
X016576Y003535D01*
X016801Y003535D01*
X016726Y003385D02*
X016576Y003385D01*
X016501Y003460D01*
X016501Y003235D02*
X016726Y003235D01*
X016801Y003310D01*
X016726Y003385D01*
X017532Y003310D02*
X017532Y003235D01*
X017833Y003235D01*
X017532Y003310D02*
X017833Y003610D01*
X017833Y003685D01*
X017532Y003685D01*
X015126Y003685D02*
X015126Y003235D01*
X010131Y003535D02*
X010056Y003460D01*
X007896Y003685D02*
X007896Y003760D01*
X006951Y003535D02*
X006876Y003460D01*
X006660Y003610D02*
X006585Y003685D01*
X006435Y003685D01*
X006360Y003610D01*
X006360Y003310D01*
X006704Y029735D02*
X007004Y029735D01*
X007220Y029810D02*
X007520Y030110D01*
X007520Y029810D01*
X007445Y029735D01*
X007295Y029735D01*
X007220Y029810D01*
X007220Y030110D01*
X007295Y030185D01*
X007445Y030185D01*
X007520Y030110D01*
X007735Y030035D02*
X007885Y030185D01*
X007885Y029735D01*
X007735Y029735D02*
X008035Y029735D01*
X008251Y029810D02*
X008326Y029735D01*
X008476Y029735D01*
X008551Y029810D01*
X008551Y029885D01*
X008476Y029960D01*
X008401Y029960D01*
X008476Y029960D02*
X008551Y030035D01*
X008551Y030110D01*
X008476Y030185D01*
X008326Y030185D01*
X008251Y030110D01*
X008766Y029735D02*
X009067Y030185D01*
X009282Y030035D02*
X009432Y030185D01*
X009432Y029735D01*
X009282Y029735D02*
X009582Y029735D01*
X009798Y029960D02*
X010098Y029960D01*
X010023Y029735D02*
X010023Y030185D01*
X009798Y029960D01*
X007004Y030035D02*
X007004Y030110D01*
X006929Y030185D01*
X006779Y030185D01*
X006704Y030110D01*
X007004Y030035D02*
X006704Y029735D01*
X005973Y029960D02*
X005898Y029885D01*
X005673Y029885D01*
X005673Y029735D02*
X005673Y030185D01*
X005898Y030185D01*
X005973Y030110D01*
X005973Y029960D01*
X005457Y029810D02*
X005382Y029735D01*
X005232Y029735D01*
X005157Y029810D01*
X005157Y030110D01*
X005232Y030185D01*
X005382Y030185D01*
X005457Y030110D01*
X005457Y029810D01*
X004942Y030185D02*
X004641Y030185D01*
X004791Y030185D02*
X004791Y029735D01*
X004426Y029885D02*
X004126Y029885D01*
X004126Y029810D02*
X004126Y029960D01*
X004201Y030035D01*
X004351Y030035D01*
X004426Y029960D01*
X004426Y029885D01*
X004351Y029735D02*
X004201Y029735D01*
X004126Y029810D01*
X003910Y029735D02*
X003910Y029960D01*
X003835Y030035D01*
X003685Y030035D01*
X003610Y029960D01*
X003416Y030035D02*
X003266Y030035D01*
X003341Y030110D02*
X003341Y029810D01*
X003416Y029735D01*
X003610Y029735D02*
X003610Y030185D01*
X003051Y030185D02*
X003051Y029810D01*
X002976Y029735D01*
X002826Y029735D01*
X002751Y029810D01*
X002751Y030185D01*
X002535Y030185D02*
X002235Y030185D01*
X002385Y030185D02*
X002385Y029735D01*
X019235Y029735D02*
X019235Y030035D01*
X019235Y029885D02*
X019385Y030035D01*
X019460Y030035D01*
X019665Y029960D02*
X019740Y030035D01*
X019890Y030035D01*
X019965Y029960D01*
X019965Y029885D01*
X019665Y029885D01*
X019665Y029810D02*
X019665Y029960D01*
X019665Y029810D02*
X019740Y029735D01*
X019890Y029735D01*
X020180Y030035D02*
X020330Y029735D01*
X020481Y030035D01*
X021212Y030110D02*
X021287Y030185D01*
X021437Y030185D01*
X021512Y030110D01*
X021512Y030035D01*
X021212Y029735D01*
X021512Y029735D01*
X021727Y029735D02*
X021727Y029810D01*
X021802Y029810D01*
X021802Y029735D01*
X021727Y029735D01*
X021985Y029810D02*
X022285Y030110D01*
X022285Y029810D01*
X022210Y029735D01*
X022060Y029735D01*
X021985Y029810D01*
X021985Y030110D01*
X022060Y030185D01*
X022210Y030185D01*
X022285Y030110D01*
D11*
X021180Y025180D03*
X021180Y024180D03*
X021180Y023180D03*
X021180Y022180D03*
X021180Y021180D03*
X021180Y020180D03*
X021180Y019180D03*
X021180Y018180D03*
X021180Y017180D03*
X021180Y016180D03*
X021180Y015180D03*
X021180Y014180D03*
X021180Y013180D03*
X021180Y012180D03*
X021180Y011180D03*
X021180Y010180D03*
X021180Y009180D03*
X021180Y008180D03*
X021180Y007180D03*
X021180Y006180D03*
X020180Y006180D03*
X020180Y007180D03*
X020180Y008180D03*
X020180Y009180D03*
X020180Y010180D03*
X020180Y011180D03*
X020180Y012180D03*
X020180Y013180D03*
X020180Y014180D03*
X020180Y015180D03*
X020180Y016180D03*
X020180Y017180D03*
X020180Y018180D03*
X020180Y019180D03*
X020180Y020180D03*
X020180Y021180D03*
X020180Y022180D03*
X020180Y023180D03*
X020180Y024180D03*
X020180Y025180D03*
X004180Y025180D03*
X004180Y024180D03*
X004180Y023180D03*
X004180Y022180D03*
X004180Y021180D03*
X004180Y020180D03*
X004180Y019180D03*
X004180Y018180D03*
X004180Y017180D03*
X004180Y016180D03*
X004180Y015180D03*
X004180Y014180D03*
X004180Y013180D03*
X004180Y012180D03*
X004180Y011180D03*
X004180Y010180D03*
X004180Y009180D03*
X004180Y008180D03*
X004180Y007180D03*
X004180Y006180D03*
X003180Y006180D03*
X003180Y007180D03*
X003180Y008180D03*
X003180Y009180D03*
X003180Y010180D03*
X003180Y011180D03*
X003180Y012180D03*
X003180Y013180D03*
X003180Y014180D03*
X003180Y015180D03*
X003180Y016180D03*
X003180Y017180D03*
X003180Y018180D03*
X003180Y019180D03*
X003180Y020180D03*
X003180Y021180D03*
X003180Y022180D03*
X003180Y023180D03*
X003180Y024180D03*
X003180Y025180D03*
D12*
X009180Y022680D03*
X009180Y021680D03*
X010180Y021680D03*
X010180Y022680D03*
X011180Y022680D03*
X011180Y021680D03*
X012180Y021680D03*
X012180Y022680D03*
X013180Y022680D03*
X013180Y021680D03*
D13*
X013180Y009940D02*
X013180Y009420D01*
X014180Y009420D02*
X014180Y009940D01*
X015180Y009940D02*
X015180Y009420D01*
X016180Y009420D02*
X016180Y009940D01*
X017180Y009940D02*
X017180Y009420D01*
X018180Y009420D02*
X018180Y009940D01*
X015180Y006440D02*
X015180Y005920D01*
X014180Y005920D02*
X014180Y006440D01*
X013180Y006440D02*
X013180Y005920D01*
X012180Y005920D02*
X012180Y006440D01*
X011180Y006440D02*
X011180Y005920D01*
X010180Y005920D02*
X010180Y006440D01*
X009180Y006440D02*
X009180Y005920D01*
X010180Y009420D02*
X010180Y009940D01*
X011180Y009940D02*
X011180Y009420D01*
X012180Y009420D02*
X012180Y009940D01*
D14*
X012180Y011180D03*
X012180Y012180D03*
X011180Y012180D03*
X011180Y011180D03*
X010180Y011180D03*
X010180Y012180D03*
X013180Y012180D03*
X013180Y011180D03*
X014180Y011180D03*
X014180Y012180D03*
X015180Y012180D03*
X015180Y011180D03*
X016180Y011180D03*
X016180Y012180D03*
X017180Y012180D03*
X017180Y011180D03*
X006430Y020680D03*
X005430Y019680D03*
X005430Y024680D03*
X006430Y024680D03*
X011180Y027680D03*
X011180Y028680D03*
D15*
X009180Y027680D03*
D16*
X009180Y028680D03*
D17*
X013680Y027480D02*
X013680Y026880D01*
X014680Y026880D02*
X014680Y027480D01*
X015680Y027480D02*
X015680Y026880D01*
X017680Y026880D02*
X017680Y027480D01*
X018680Y027480D02*
X018680Y026880D01*
X019680Y026880D02*
X019680Y027480D01*
D18*
X018680Y027180D02*
X018680Y028680D01*
X014680Y028680D01*
X014680Y027180D01*
X014680Y028680D02*
X011180Y028680D01*
X009180Y028680D01*
X007680Y028680D01*
X004180Y025180D01*
X003180Y025180D01*
X003180Y024180D02*
X004180Y024180D01*
X004930Y024180D01*
X005430Y024680D01*
X006430Y024680D01*
X011180Y024680D01*
X012180Y023680D01*
X012180Y022680D01*
X015430Y020680D02*
X015430Y018930D01*
X008930Y012430D01*
X008930Y009180D01*
X009430Y008680D01*
X012680Y008680D01*
X014180Y007180D01*
X014180Y006180D01*
X015430Y020680D02*
X018930Y024180D01*
X020180Y024180D01*
X021180Y024180D01*
X021180Y025180D02*
X021180Y027680D01*
X020180Y028680D01*
X018680Y028680D01*
X020180Y025180D02*
X021180Y025180D01*
D19*
X001180Y031180D02*
X001180Y001680D01*
X023180Y001680D01*
X023180Y031180D01*
X001180Y031180D01*
X001660Y030700D02*
X001660Y028641D01*
X001666Y028653D01*
X002001Y029040D01*
X002001Y029040D01*
X002432Y029317D01*
X002924Y029462D01*
X003436Y029462D01*
X003928Y029317D01*
X004359Y029040D01*
X004694Y028653D01*
X004907Y028187D01*
X004980Y027680D01*
X004980Y027680D01*
X004907Y027173D01*
X004907Y027173D01*
X004694Y026707D01*
X004694Y026707D01*
X004359Y026320D01*
X003928Y026043D01*
X003436Y025898D01*
X002924Y025898D01*
X002432Y026043D01*
X002001Y026320D01*
X001666Y026707D01*
X001660Y026719D01*
X001660Y002160D01*
X020250Y002160D01*
X020001Y002320D01*
X019666Y002707D01*
X019453Y003173D01*
X019380Y003680D01*
X019380Y003680D01*
X019453Y004187D01*
X019666Y004653D01*
X020001Y005040D01*
X020001Y005040D01*
X020432Y005317D01*
X020924Y005462D01*
X021436Y005462D01*
X021928Y005317D01*
X022359Y005040D01*
X022694Y004653D01*
X022700Y004641D01*
X022700Y030700D01*
X001660Y030700D01*
X001660Y030686D02*
X022700Y030686D01*
X022700Y030527D02*
X001660Y030527D01*
X001660Y030369D02*
X002058Y030369D01*
X002091Y030402D02*
X002184Y030440D01*
X002586Y030440D01*
X002643Y030417D01*
X002700Y030440D01*
X002801Y030440D01*
X002895Y030402D01*
X002901Y030396D01*
X002906Y030402D01*
X003000Y030440D01*
X003102Y030440D01*
X003195Y030402D01*
X003249Y030348D01*
X003291Y030365D01*
X003392Y030365D01*
X003418Y030354D01*
X003466Y030402D01*
X003559Y030440D01*
X003661Y030440D01*
X003754Y030402D01*
X003826Y030330D01*
X003843Y030290D01*
X003886Y030290D01*
X003980Y030251D01*
X004018Y030213D01*
X004056Y030251D01*
X004150Y030290D01*
X004402Y030290D01*
X004408Y030288D01*
X004425Y030330D01*
X004497Y030402D01*
X004591Y030440D01*
X004992Y030440D01*
X005086Y030402D01*
X005087Y030401D01*
X005088Y030402D01*
X005181Y030440D01*
X005433Y030440D01*
X005527Y030402D01*
X005527Y030401D01*
X005528Y030402D01*
X005622Y030440D01*
X005949Y030440D01*
X006042Y030402D01*
X006117Y030326D01*
X006189Y030255D01*
X006228Y030161D01*
X006228Y029909D01*
X006189Y029816D01*
X006114Y029741D01*
X006042Y029669D01*
X005949Y029630D01*
X005905Y029630D01*
X005889Y029591D01*
X005817Y029519D01*
X005723Y029480D01*
X005622Y029480D01*
X005528Y029519D01*
X005527Y029520D01*
X005527Y029519D01*
X005433Y029480D01*
X005181Y029480D01*
X005088Y029519D01*
X005016Y029591D01*
X005010Y029596D01*
X005008Y029591D01*
X004936Y029519D01*
X004842Y029480D01*
X004741Y029480D01*
X004647Y029519D01*
X004575Y029591D01*
X004571Y029600D01*
X004567Y029591D01*
X004495Y029519D01*
X004402Y029480D01*
X004150Y029480D01*
X004056Y029519D01*
X004056Y029520D01*
X004055Y029519D01*
X003961Y029480D01*
X003860Y029480D01*
X003766Y029519D01*
X003760Y029525D01*
X003754Y029519D01*
X003661Y029480D01*
X003559Y029480D01*
X003513Y029499D01*
X003467Y029480D01*
X003366Y029480D01*
X003272Y029519D01*
X003196Y029595D01*
X003195Y029594D01*
X003120Y029519D01*
X003027Y029480D01*
X002775Y029480D01*
X002681Y029519D01*
X002610Y029591D01*
X002604Y029596D01*
X002601Y029591D01*
X002530Y029519D01*
X002436Y029480D01*
X002334Y029480D01*
X002241Y029519D01*
X002169Y029591D01*
X002130Y029684D01*
X002130Y029953D01*
X002091Y029969D01*
X002019Y030041D01*
X001980Y030135D01*
X001980Y030236D01*
X002019Y030330D01*
X002091Y030402D01*
X001980Y030210D02*
X001660Y030210D01*
X001660Y030052D02*
X002014Y030052D01*
X002130Y029893D02*
X001660Y029893D01*
X001660Y029735D02*
X002130Y029735D01*
X002183Y029576D02*
X001660Y029576D01*
X001660Y029418D02*
X002774Y029418D01*
X002624Y029576D02*
X002587Y029576D01*
X002432Y029317D02*
X002432Y029317D01*
X002342Y029259D02*
X001660Y029259D01*
X001660Y029101D02*
X002095Y029101D01*
X001916Y028942D02*
X001660Y028942D01*
X001660Y028784D02*
X001779Y028784D01*
X001666Y028653D02*
X001666Y028653D01*
X001666Y026707D02*
X001666Y026707D01*
X001660Y026565D02*
X001789Y026565D01*
X001660Y026406D02*
X001926Y026406D01*
X002001Y026320D02*
X002001Y026320D01*
X002001Y026320D01*
X002113Y026248D02*
X001660Y026248D01*
X001660Y026089D02*
X002360Y026089D01*
X002432Y026043D02*
X002432Y026043D01*
X002814Y025931D02*
X001660Y025931D01*
X001660Y025772D02*
X004263Y025772D01*
X004171Y025680D02*
X007476Y028985D01*
X007608Y029040D01*
X008812Y029040D01*
X008888Y029117D01*
X009078Y029195D01*
X009282Y029195D01*
X009472Y029117D01*
X009548Y029040D01*
X010889Y029040D01*
X010989Y029140D01*
X011371Y029140D01*
X011471Y029040D01*
X020252Y029040D01*
X020384Y028985D01*
X020485Y028884D01*
X020485Y028884D01*
X021485Y027884D01*
X021540Y027752D01*
X021540Y025527D01*
X021680Y025387D01*
X021680Y024973D01*
X021387Y024680D01*
X021680Y024387D01*
X021680Y023973D01*
X021387Y023680D01*
X021680Y023387D01*
X021680Y022973D01*
X021387Y022680D01*
X021680Y022387D01*
X021680Y021973D01*
X021387Y021680D01*
X021680Y021387D01*
X021680Y020973D01*
X021387Y020680D01*
X021680Y020387D01*
X021680Y019973D01*
X021387Y019680D01*
X020973Y019680D01*
X020680Y019973D01*
X020387Y019680D01*
X019973Y019680D01*
X019753Y019900D01*
X019546Y019900D01*
X019460Y019814D01*
X019460Y015624D01*
X019417Y015521D01*
X016460Y012564D01*
X016460Y012551D01*
X016640Y012371D01*
X016640Y011989D01*
X016371Y011720D01*
X015989Y011720D01*
X015720Y011989D01*
X015720Y012371D01*
X015900Y012551D01*
X015900Y012736D01*
X015943Y012839D01*
X016021Y012917D01*
X018900Y015796D01*
X018900Y016004D01*
X015460Y012564D01*
X015460Y012551D01*
X015640Y012371D01*
X015640Y011989D01*
X015371Y011720D01*
X014989Y011720D01*
X014720Y011989D01*
X014720Y012371D01*
X014900Y012551D01*
X014900Y012736D01*
X014943Y012839D01*
X015021Y012917D01*
X018400Y016296D01*
X018400Y016504D01*
X014460Y012564D01*
X014460Y012551D01*
X014640Y012371D01*
X014640Y011989D01*
X014371Y011720D01*
X013989Y011720D01*
X013720Y011989D01*
X013720Y012371D01*
X013900Y012551D01*
X013900Y012736D01*
X013943Y012839D01*
X014021Y012917D01*
X017900Y016796D01*
X017900Y017004D01*
X013460Y012564D01*
X013460Y012551D01*
X013640Y012371D01*
X013640Y011989D01*
X013371Y011720D01*
X012989Y011720D01*
X012720Y011989D01*
X012720Y012371D01*
X012900Y012551D01*
X012900Y012736D01*
X012943Y012839D01*
X013021Y012917D01*
X017400Y017296D01*
X017400Y017504D01*
X012460Y012564D01*
X012460Y012551D01*
X012640Y012371D01*
X012640Y011989D01*
X012371Y011720D01*
X011989Y011720D01*
X011720Y011989D01*
X011720Y012371D01*
X011900Y012551D01*
X011900Y012736D01*
X011943Y012839D01*
X012021Y012917D01*
X016900Y017796D01*
X016900Y018004D01*
X011460Y012564D01*
X011460Y012551D01*
X011640Y012371D01*
X011640Y011989D01*
X011371Y011720D01*
X010989Y011720D01*
X010720Y011989D01*
X010720Y012371D01*
X010900Y012551D01*
X010900Y012736D01*
X010943Y012839D01*
X011021Y012917D01*
X016400Y018296D01*
X016400Y018504D01*
X010460Y012564D01*
X010460Y012551D01*
X010640Y012371D01*
X010640Y011989D01*
X010371Y011720D01*
X009989Y011720D01*
X009720Y011989D01*
X009720Y012371D01*
X009900Y012551D01*
X009900Y012736D01*
X009943Y012839D01*
X015900Y018796D01*
X015900Y020236D01*
X015943Y020339D01*
X016021Y020417D01*
X018943Y023339D01*
X019021Y023417D01*
X019124Y023460D01*
X019753Y023460D01*
X019973Y023680D01*
X020387Y023680D01*
X020680Y023387D01*
X020973Y023680D01*
X021387Y023680D01*
X020973Y023680D01*
X020833Y023820D01*
X020527Y023820D01*
X020387Y023680D01*
X019973Y023680D01*
X019833Y023820D01*
X019079Y023820D01*
X015790Y020531D01*
X015790Y018858D01*
X015735Y018726D01*
X015634Y018625D01*
X009290Y012281D01*
X009290Y009329D01*
X009579Y009040D01*
X009909Y009040D01*
X009790Y009159D01*
X009720Y009328D01*
X009720Y010031D01*
X009790Y010201D01*
X009900Y010311D01*
X009900Y010809D01*
X009720Y010989D01*
X009720Y011371D01*
X009989Y011640D01*
X010371Y011640D01*
X010640Y011371D01*
X010640Y010989D01*
X010460Y010809D01*
X010460Y010311D01*
X010570Y010201D01*
X010640Y010031D01*
X010640Y009328D01*
X010570Y009159D01*
X010451Y009040D01*
X010909Y009040D01*
X010790Y009159D01*
X010720Y009328D01*
X010720Y010031D01*
X010790Y010201D01*
X010900Y010311D01*
X010900Y010809D01*
X010720Y010989D01*
X010720Y011371D01*
X010989Y011640D01*
X011371Y011640D01*
X011640Y011371D01*
X011640Y010989D01*
X011460Y010809D01*
X011460Y010311D01*
X011570Y010201D01*
X011640Y010031D01*
X011640Y009328D01*
X011570Y009159D01*
X011451Y009040D01*
X011909Y009040D01*
X011790Y009159D01*
X011720Y009328D01*
X011720Y010031D01*
X011790Y010201D01*
X011900Y010311D01*
X011900Y010809D01*
X011720Y010989D01*
X011720Y011371D01*
X011989Y011640D01*
X012371Y011640D01*
X012640Y011371D01*
X012640Y010989D01*
X012460Y010809D01*
X012460Y010311D01*
X012570Y010201D01*
X012640Y010031D01*
X012640Y009328D01*
X012570Y009159D01*
X012451Y009040D01*
X012752Y009040D01*
X012884Y008985D01*
X014384Y007485D01*
X014485Y007384D01*
X014540Y007252D01*
X014540Y006731D01*
X014570Y006701D01*
X014640Y006531D01*
X014640Y005828D01*
X014570Y005659D01*
X014441Y005530D01*
X014272Y005460D01*
X014089Y005460D01*
X013919Y005530D01*
X013790Y005659D01*
X013720Y005828D01*
X013720Y006531D01*
X013790Y006701D01*
X013820Y006731D01*
X013820Y007031D01*
X012531Y008320D01*
X009358Y008320D01*
X009226Y008375D01*
X009125Y008476D01*
X008625Y008976D01*
X008570Y009108D01*
X008570Y012502D01*
X008625Y012634D01*
X008726Y012735D01*
X015070Y019079D01*
X015070Y020752D01*
X015125Y020884D01*
X015226Y020985D01*
X018726Y024485D01*
X018858Y024540D01*
X019833Y024540D01*
X019973Y024680D01*
X020387Y024680D01*
X020527Y024540D01*
X020833Y024540D01*
X020973Y024680D01*
X021387Y024680D01*
X020973Y024680D01*
X020833Y024820D01*
X020527Y024820D01*
X020387Y024680D01*
X019973Y024680D01*
X019680Y024973D01*
X019680Y025387D01*
X019973Y025680D01*
X020387Y025680D01*
X020527Y025540D01*
X020820Y025540D01*
X020820Y027531D01*
X020031Y028320D01*
X019040Y028320D01*
X019040Y027827D01*
X019104Y027763D01*
X019180Y027579D01*
X019256Y027763D01*
X019397Y027904D01*
X019581Y027980D01*
X019779Y027980D01*
X019963Y027904D01*
X020104Y027763D01*
X020180Y027579D01*
X020180Y026781D01*
X020104Y026597D01*
X019963Y026456D01*
X019960Y026455D01*
X019960Y026124D01*
X019917Y026021D01*
X014960Y021064D01*
X014960Y019374D01*
X014917Y019271D01*
X014839Y019193D01*
X010089Y014443D01*
X009986Y014400D01*
X004667Y014400D01*
X004680Y014387D01*
X004680Y013973D01*
X004387Y013680D01*
X003973Y013680D01*
X003680Y013973D01*
X003387Y013680D01*
X002973Y013680D01*
X002680Y013973D01*
X002680Y014387D01*
X002973Y014680D01*
X002680Y014973D01*
X002680Y015387D01*
X002973Y015680D01*
X003387Y015680D01*
X003680Y015387D01*
X003973Y015680D01*
X004387Y015680D01*
X004607Y015460D01*
X005064Y015460D01*
X006943Y017339D01*
X007021Y017417D01*
X007124Y017460D01*
X010814Y017460D01*
X013650Y020296D01*
X013650Y021471D01*
X013379Y021200D01*
X012981Y021200D01*
X012700Y021481D01*
X012700Y021879D01*
X012981Y022160D01*
X013379Y022160D01*
X013650Y021889D01*
X013650Y021986D01*
X013693Y022089D01*
X015400Y023796D01*
X015400Y026455D01*
X015397Y026456D01*
X015256Y026597D01*
X015180Y026781D01*
X015180Y027579D01*
X015256Y027763D01*
X015397Y027904D01*
X015581Y027980D01*
X015779Y027980D01*
X015963Y027904D01*
X016104Y027763D01*
X016180Y027579D01*
X016180Y026781D01*
X016104Y026597D01*
X015963Y026456D01*
X015960Y026455D01*
X015960Y023624D01*
X015917Y023521D01*
X015839Y023443D01*
X015839Y023443D01*
X014210Y021814D01*
X014210Y020124D01*
X014167Y020021D01*
X014089Y019943D01*
X014089Y019943D01*
X011167Y017021D01*
X011089Y016943D01*
X010986Y016900D01*
X007296Y016900D01*
X005356Y014960D01*
X009814Y014960D01*
X014400Y019546D01*
X014400Y021236D01*
X014443Y021339D01*
X019400Y026296D01*
X019400Y026455D01*
X019397Y026456D01*
X019256Y026597D01*
X019180Y026781D01*
X019180Y027579D01*
X019180Y026781D01*
X019104Y026597D01*
X018963Y026456D01*
X018779Y026380D01*
X018581Y026380D01*
X018397Y026456D01*
X018256Y026597D01*
X018180Y026781D01*
X018180Y027579D01*
X018256Y027763D01*
X018320Y027827D01*
X018320Y028320D01*
X015040Y028320D01*
X015040Y027827D01*
X015104Y027763D01*
X015180Y027579D01*
X015180Y026781D01*
X015104Y026597D01*
X014963Y026456D01*
X014779Y026380D01*
X014581Y026380D01*
X014397Y026456D01*
X014256Y026597D01*
X014180Y026781D01*
X014180Y027579D01*
X014256Y027763D01*
X014320Y027827D01*
X014320Y028320D01*
X011471Y028320D01*
X011371Y028220D01*
X010989Y028220D01*
X010889Y028320D01*
X009548Y028320D01*
X009472Y028243D01*
X009307Y028175D01*
X009385Y028175D01*
X009675Y027885D01*
X009675Y027680D01*
X009180Y027680D01*
X008685Y027680D01*
X008685Y027885D01*
X008975Y028175D01*
X009053Y028175D01*
X008888Y028243D01*
X008812Y028320D01*
X007829Y028320D01*
X004680Y025171D01*
X004680Y024973D01*
X004387Y024680D01*
X004527Y024540D01*
X004781Y024540D01*
X004970Y024729D01*
X004970Y024871D01*
X005239Y025140D01*
X005621Y025140D01*
X005721Y025040D01*
X006139Y025040D01*
X006239Y025140D01*
X006621Y025140D01*
X006721Y025040D01*
X011252Y025040D01*
X011384Y024985D01*
X011485Y024884D01*
X012485Y023884D01*
X012540Y023752D01*
X012540Y022999D01*
X012660Y022879D01*
X012660Y022481D01*
X012379Y022200D01*
X011981Y022200D01*
X011700Y022481D01*
X011700Y022879D01*
X011820Y022999D01*
X011820Y023531D01*
X011031Y024320D01*
X006721Y024320D01*
X006621Y024220D01*
X006239Y024220D01*
X006139Y024320D01*
X005721Y024320D01*
X005621Y024220D01*
X005479Y024220D01*
X005134Y023875D01*
X005002Y023820D01*
X004527Y023820D01*
X004387Y023680D01*
X003973Y023680D01*
X003833Y023820D01*
X003527Y023820D01*
X003387Y023680D01*
X002973Y023680D01*
X002680Y023973D01*
X002680Y024387D01*
X002973Y024680D01*
X003387Y024680D01*
X003527Y024540D01*
X003833Y024540D01*
X003973Y024680D01*
X004387Y024680D01*
X003973Y024680D01*
X003833Y024820D01*
X003527Y024820D01*
X003387Y024680D01*
X002973Y024680D01*
X002680Y024973D01*
X002680Y025387D01*
X002973Y025680D01*
X003387Y025680D01*
X003527Y025540D01*
X003833Y025540D01*
X003973Y025680D01*
X004171Y025680D01*
X003906Y025614D02*
X003454Y025614D01*
X003546Y025931D02*
X004421Y025931D01*
X004580Y026089D02*
X004000Y026089D01*
X003928Y026043D02*
X003928Y026043D01*
X004247Y026248D02*
X004738Y026248D01*
X004897Y026406D02*
X004434Y026406D01*
X004359Y026320D02*
X004359Y026320D01*
X004571Y026565D02*
X005055Y026565D01*
X005214Y026723D02*
X004702Y026723D01*
X004774Y026882D02*
X005372Y026882D01*
X005531Y027040D02*
X004846Y027040D01*
X004911Y027199D02*
X005689Y027199D01*
X005848Y027357D02*
X004934Y027357D01*
X004956Y027516D02*
X006006Y027516D01*
X006165Y027674D02*
X004979Y027674D01*
X004958Y027833D02*
X006323Y027833D01*
X006482Y027991D02*
X004935Y027991D01*
X004912Y028150D02*
X006640Y028150D01*
X006799Y028308D02*
X004852Y028308D01*
X004907Y028187D02*
X004907Y028187D01*
X004779Y028467D02*
X006957Y028467D01*
X007116Y028625D02*
X004707Y028625D01*
X004694Y028653D02*
X004694Y028653D01*
X004581Y028784D02*
X007274Y028784D01*
X007433Y028942D02*
X004444Y028942D01*
X004359Y029040D02*
X004359Y029040D01*
X004359Y029040D01*
X004265Y029101D02*
X008872Y029101D01*
X008767Y029475D02*
X008866Y029495D01*
X008950Y029551D01*
X009032Y029673D01*
X009066Y029591D01*
X009138Y029519D01*
X009231Y029480D01*
X009633Y029480D01*
X009727Y029519D01*
X009799Y029591D01*
X009803Y029600D01*
X009807Y029591D01*
X009878Y029519D01*
X009972Y029480D01*
X010074Y029480D01*
X010167Y029519D01*
X010239Y029591D01*
X010278Y029684D01*
X010278Y029780D01*
X010314Y029816D01*
X010353Y029909D01*
X010353Y030011D01*
X010314Y030105D01*
X010278Y030141D01*
X010278Y030236D01*
X010239Y030330D01*
X010167Y030402D01*
X010074Y030440D01*
X009972Y030440D01*
X009878Y030402D01*
X009687Y030210D01*
X009687Y030236D01*
X009648Y030330D01*
X009577Y030402D01*
X009483Y030440D01*
X009381Y030440D01*
X009288Y030402D01*
X009252Y030366D01*
X009250Y030369D01*
X009166Y030426D01*
X009066Y030445D01*
X008967Y030425D01*
X008883Y030369D01*
X008782Y030218D01*
X008767Y030255D01*
X008695Y030326D01*
X008620Y030402D01*
X008527Y030440D01*
X008275Y030440D01*
X008181Y030402D01*
X008110Y030330D01*
X008104Y030324D01*
X008101Y030330D01*
X008030Y030402D01*
X007936Y030440D01*
X007835Y030440D01*
X007741Y030402D01*
X007669Y030330D01*
X007665Y030326D01*
X007664Y030326D01*
X007664Y030326D01*
X007589Y030402D01*
X007495Y030440D01*
X007244Y030440D01*
X007150Y030402D01*
X007112Y030363D01*
X007074Y030402D01*
X006980Y030440D01*
X006728Y030440D01*
X006634Y030402D01*
X006488Y030255D01*
X006449Y030161D01*
X006449Y030060D01*
X006488Y029966D01*
X006531Y029923D01*
X006488Y029879D01*
X006449Y029786D01*
X006449Y029684D01*
X006488Y029591D01*
X006559Y029519D01*
X006653Y029480D01*
X007055Y029480D01*
X007149Y029519D01*
X007149Y029520D01*
X007150Y029519D01*
X007244Y029480D01*
X007495Y029480D01*
X007589Y029519D01*
X007590Y029520D01*
X007591Y029519D01*
X007684Y029480D01*
X008086Y029480D01*
X008180Y029519D01*
X008181Y029520D01*
X008181Y029519D01*
X008275Y029480D01*
X008527Y029480D01*
X008620Y029519D01*
X008625Y029523D01*
X008667Y029495D01*
X008767Y029475D01*
X008967Y029576D02*
X009080Y029576D01*
X009488Y029101D02*
X010950Y029101D01*
X011410Y029101D02*
X022700Y029101D01*
X022700Y029259D02*
X004018Y029259D01*
X003928Y029317D02*
X003928Y029317D01*
X003586Y029418D02*
X022700Y029418D01*
X022700Y029576D02*
X022412Y029576D01*
X022426Y029591D02*
X022355Y029519D01*
X022261Y029480D01*
X022009Y029480D01*
X021931Y029512D01*
X021853Y029480D01*
X021677Y029480D01*
X021620Y029504D01*
X021563Y029480D01*
X021161Y029480D01*
X021067Y029519D01*
X020995Y029591D01*
X020957Y029684D01*
X020957Y029786D01*
X020995Y029879D01*
X021039Y029923D01*
X020995Y029966D01*
X020957Y030060D01*
X020957Y030161D01*
X020995Y030255D01*
X021142Y030402D01*
X021236Y030440D01*
X021488Y030440D01*
X021581Y030402D01*
X021653Y030330D01*
X021728Y030255D01*
X021748Y030205D01*
X021769Y030255D01*
X021844Y030330D01*
X021916Y030402D01*
X022009Y030440D01*
X022261Y030440D01*
X022355Y030402D01*
X022426Y030330D01*
X022430Y030326D01*
X022502Y030255D01*
X022540Y030161D01*
X022540Y029759D01*
X022502Y029666D01*
X022426Y029591D01*
X022426Y029591D01*
X022530Y029735D02*
X022700Y029735D01*
X022700Y029893D02*
X022540Y029893D01*
X022540Y030052D02*
X022700Y030052D01*
X022700Y030210D02*
X022520Y030210D01*
X022430Y030326D02*
X022430Y030326D01*
X022426Y030330D02*
X022426Y030330D01*
X022388Y030369D02*
X022700Y030369D01*
X021883Y030369D02*
X021614Y030369D01*
X021747Y030210D02*
X021750Y030210D01*
X021109Y030369D02*
X010200Y030369D01*
X010278Y030210D02*
X019049Y030210D01*
X019019Y030180D02*
X019091Y030251D01*
X019184Y030290D01*
X019286Y030290D01*
X019310Y030280D01*
X019334Y030290D01*
X019511Y030290D01*
X019600Y030253D01*
X019689Y030290D01*
X019941Y030290D01*
X020034Y030251D01*
X020037Y030249D01*
X020112Y030286D01*
X020213Y030293D01*
X020309Y030261D01*
X020330Y030243D01*
X020352Y030261D01*
X020448Y030293D01*
X020549Y030286D01*
X020640Y030241D01*
X020706Y030164D01*
X020739Y030068D01*
X020731Y029967D01*
X020567Y029637D01*
X020556Y029606D01*
X020544Y029592D01*
X020536Y029576D01*
X021010Y029576D01*
X020957Y029735D02*
X020615Y029735D01*
X020695Y029893D02*
X021009Y029893D01*
X020960Y030052D02*
X020737Y030052D01*
X020667Y030210D02*
X020977Y030210D01*
X020536Y029576D02*
X020511Y029554D01*
X020490Y029530D01*
X020473Y029521D01*
X020459Y029509D01*
X020428Y029499D01*
X020399Y029484D01*
X020381Y029483D01*
X020363Y029477D01*
X020330Y029479D01*
X020298Y029477D01*
X020280Y029483D01*
X020262Y029484D01*
X020233Y029499D01*
X020202Y029509D01*
X020188Y029521D01*
X020171Y029530D01*
X020150Y029554D01*
X020125Y029576D01*
X020092Y029576D01*
X020106Y029591D02*
X020034Y029519D01*
X019941Y029480D01*
X019689Y029480D01*
X019595Y029519D01*
X019520Y029594D01*
X019472Y029642D01*
X019451Y029591D01*
X019379Y029519D01*
X019286Y029480D01*
X019184Y029480D01*
X019091Y029519D01*
X019019Y029591D01*
X018980Y029684D01*
X018980Y030086D01*
X019019Y030180D01*
X018980Y030052D02*
X010336Y030052D01*
X010346Y029893D02*
X018980Y029893D01*
X018980Y029735D02*
X010278Y029735D01*
X010225Y029576D02*
X019033Y029576D01*
X019437Y029576D02*
X019538Y029576D01*
X020106Y029591D02*
X020110Y029600D01*
X020117Y029592D01*
X020125Y029576D01*
X020427Y028942D02*
X022700Y028942D01*
X022700Y028784D02*
X020586Y028784D01*
X020744Y028625D02*
X022700Y028625D01*
X022700Y028467D02*
X020903Y028467D01*
X021061Y028308D02*
X022700Y028308D01*
X022700Y028150D02*
X021220Y028150D01*
X021378Y027991D02*
X022700Y027991D01*
X022700Y027833D02*
X021506Y027833D01*
X021540Y027674D02*
X022700Y027674D01*
X022700Y027516D02*
X021540Y027516D01*
X021540Y027357D02*
X022700Y027357D01*
X022700Y027199D02*
X021540Y027199D01*
X021540Y027040D02*
X022700Y027040D01*
X022700Y026882D02*
X021540Y026882D01*
X021540Y026723D02*
X022700Y026723D01*
X022700Y026565D02*
X021540Y026565D01*
X021540Y026406D02*
X022700Y026406D01*
X022700Y026248D02*
X021540Y026248D01*
X021540Y026089D02*
X022700Y026089D01*
X022700Y025931D02*
X021540Y025931D01*
X021540Y025772D02*
X022700Y025772D01*
X022700Y025614D02*
X021540Y025614D01*
X021612Y025455D02*
X022700Y025455D01*
X022700Y025297D02*
X021680Y025297D01*
X021680Y025138D02*
X022700Y025138D01*
X022700Y024980D02*
X021680Y024980D01*
X021528Y024821D02*
X022700Y024821D01*
X022700Y024663D02*
X021405Y024663D01*
X021563Y024504D02*
X022700Y024504D01*
X022700Y024346D02*
X021680Y024346D01*
X021680Y024187D02*
X022700Y024187D01*
X022700Y024029D02*
X021680Y024029D01*
X021577Y023870D02*
X022700Y023870D01*
X022700Y023712D02*
X021419Y023712D01*
X021514Y023553D02*
X022700Y023553D01*
X022700Y023395D02*
X021673Y023395D01*
X021680Y023236D02*
X022700Y023236D01*
X022700Y023078D02*
X021680Y023078D01*
X021626Y022919D02*
X022700Y022919D01*
X022700Y022761D02*
X021468Y022761D01*
X021387Y022680D02*
X021076Y022680D01*
X021076Y022680D01*
X021387Y022680D01*
X021465Y022602D02*
X022700Y022602D01*
X022700Y022444D02*
X021624Y022444D01*
X021680Y022285D02*
X022700Y022285D01*
X022700Y022127D02*
X021680Y022127D01*
X021675Y021968D02*
X022700Y021968D01*
X022700Y021810D02*
X021517Y021810D01*
X021387Y021680D02*
X021076Y021680D01*
X021076Y021680D01*
X021387Y021680D01*
X021416Y021651D02*
X022700Y021651D01*
X022700Y021493D02*
X021575Y021493D01*
X021680Y021334D02*
X022700Y021334D01*
X022700Y021176D02*
X021680Y021176D01*
X021680Y021017D02*
X022700Y021017D01*
X022700Y020859D02*
X021566Y020859D01*
X021407Y020700D02*
X022700Y020700D01*
X022700Y020542D02*
X021526Y020542D01*
X021387Y020680D02*
X021076Y020680D01*
X021076Y020680D01*
X021387Y020680D01*
X021680Y020383D02*
X022700Y020383D01*
X022700Y020225D02*
X021680Y020225D01*
X021680Y020066D02*
X022700Y020066D01*
X022700Y019908D02*
X021615Y019908D01*
X021456Y019749D02*
X022700Y019749D01*
X022700Y019591D02*
X021477Y019591D01*
X021387Y019680D02*
X021680Y019387D01*
X021680Y018973D01*
X021387Y018680D01*
X021680Y018387D01*
X021680Y017973D01*
X021387Y017680D01*
X021680Y017387D01*
X021680Y016973D01*
X021387Y016680D01*
X021680Y016387D01*
X021680Y015973D01*
X021387Y015680D01*
X021680Y015387D01*
X021680Y014973D01*
X021387Y014680D01*
X021680Y014387D01*
X021680Y013973D01*
X021387Y013680D01*
X021680Y013387D01*
X021680Y012973D01*
X021387Y012680D01*
X021680Y012387D01*
X021680Y011973D01*
X021667Y011960D01*
X021986Y011960D01*
X022089Y011917D01*
X022339Y011667D01*
X022417Y011589D01*
X022460Y011486D01*
X022460Y009374D01*
X022417Y009271D01*
X022167Y009021D01*
X022089Y008943D01*
X021986Y008900D01*
X021607Y008900D01*
X021387Y008680D01*
X020973Y008680D01*
X020680Y008973D01*
X020680Y009387D01*
X020973Y009680D01*
X021387Y009680D01*
X021607Y009460D01*
X021814Y009460D01*
X021900Y009546D01*
X021900Y011314D01*
X021814Y011400D01*
X021667Y011400D01*
X021680Y011387D01*
X021680Y010973D01*
X021387Y010680D01*
X020973Y010680D01*
X020680Y010973D01*
X020387Y010680D01*
X019973Y010680D01*
X019680Y010973D01*
X019680Y011387D01*
X019693Y011400D01*
X018624Y011400D01*
X018521Y011443D01*
X018443Y011521D01*
X018064Y011900D01*
X017551Y011900D01*
X017371Y011720D01*
X016989Y011720D01*
X016720Y011989D01*
X016720Y012371D01*
X016989Y012640D01*
X017371Y012640D01*
X017551Y012460D01*
X018236Y012460D01*
X018339Y012417D01*
X018796Y011960D01*
X019693Y011960D01*
X019680Y011973D01*
X019680Y012387D01*
X019973Y012680D01*
X020387Y012680D01*
X020680Y012387D01*
X020973Y012680D01*
X021387Y012680D01*
X020973Y012680D01*
X020680Y012973D01*
X020680Y013387D01*
X020973Y013680D01*
X021387Y013680D01*
X020973Y013680D01*
X020680Y013973D01*
X020680Y014387D01*
X020973Y014680D01*
X021387Y014680D01*
X020973Y014680D01*
X020680Y014973D01*
X020680Y015387D01*
X020973Y015680D01*
X021387Y015680D01*
X020973Y015680D01*
X020680Y015973D01*
X020680Y016387D01*
X020973Y016680D01*
X021387Y016680D01*
X020973Y016680D01*
X020680Y016973D01*
X020680Y017387D01*
X020973Y017680D01*
X021387Y017680D01*
X020973Y017680D01*
X020680Y017973D01*
X020680Y018387D01*
X020973Y018680D01*
X021387Y018680D01*
X020973Y018680D01*
X020680Y018973D01*
X020680Y019387D01*
X020973Y019680D01*
X021387Y019680D01*
X021635Y019432D02*
X022700Y019432D01*
X022700Y019274D02*
X021680Y019274D01*
X021680Y019115D02*
X022700Y019115D01*
X022700Y018957D02*
X021664Y018957D01*
X021505Y018798D02*
X022700Y018798D01*
X022700Y018640D02*
X021428Y018640D01*
X021586Y018481D02*
X022700Y018481D01*
X022700Y018323D02*
X021680Y018323D01*
X021680Y018164D02*
X022700Y018164D01*
X022700Y018006D02*
X021680Y018006D01*
X021554Y017847D02*
X022700Y017847D01*
X022700Y017689D02*
X021396Y017689D01*
X021537Y017530D02*
X022700Y017530D01*
X022700Y017372D02*
X021680Y017372D01*
X021680Y017213D02*
X022700Y017213D01*
X022700Y017055D02*
X021680Y017055D01*
X021603Y016896D02*
X022700Y016896D01*
X022700Y016738D02*
X021445Y016738D01*
X021488Y016579D02*
X022700Y016579D01*
X022700Y016421D02*
X021647Y016421D01*
X021680Y016262D02*
X022700Y016262D01*
X022700Y016104D02*
X021680Y016104D01*
X021652Y015945D02*
X022700Y015945D01*
X022700Y015787D02*
X021494Y015787D01*
X021439Y015628D02*
X022700Y015628D01*
X022700Y015470D02*
X021598Y015470D01*
X021680Y015311D02*
X022700Y015311D01*
X022700Y015153D02*
X021680Y015153D01*
X021680Y014994D02*
X022700Y014994D01*
X022700Y014836D02*
X021543Y014836D01*
X021390Y014677D02*
X022700Y014677D01*
X022700Y014519D02*
X021549Y014519D01*
X021680Y014360D02*
X022700Y014360D01*
X022700Y014202D02*
X021680Y014202D01*
X021680Y014043D02*
X022700Y014043D01*
X022700Y013885D02*
X021592Y013885D01*
X021433Y013726D02*
X022700Y013726D01*
X022700Y013568D02*
X021500Y013568D01*
X021658Y013409D02*
X022700Y013409D01*
X022700Y013251D02*
X021680Y013251D01*
X021680Y013092D02*
X022700Y013092D01*
X022700Y012934D02*
X021641Y012934D01*
X021482Y012775D02*
X022700Y012775D01*
X022700Y012617D02*
X021451Y012617D01*
X021609Y012458D02*
X022700Y012458D01*
X022700Y012300D02*
X021680Y012300D01*
X021680Y012141D02*
X022700Y012141D01*
X022700Y011983D02*
X021680Y011983D01*
X021930Y011680D02*
X022180Y011430D01*
X022180Y009430D01*
X021930Y009180D01*
X021180Y009180D01*
X020840Y008813D02*
X020520Y008813D01*
X020387Y008680D02*
X020680Y008973D01*
X020680Y009387D01*
X020387Y009680D01*
X019973Y009680D01*
X019753Y009460D01*
X019124Y009460D01*
X019021Y009417D01*
X018021Y008417D01*
X017943Y008339D01*
X017900Y008236D01*
X017900Y005296D01*
X017564Y004960D01*
X013796Y004960D01*
X013460Y005296D01*
X013460Y005549D01*
X013570Y005659D01*
X013640Y005828D01*
X013640Y006531D01*
X013570Y006701D01*
X013441Y006830D01*
X013272Y006900D01*
X013089Y006900D01*
X012919Y006830D01*
X012790Y006701D01*
X012720Y006531D01*
X012720Y005828D01*
X012790Y005659D01*
X012900Y005549D01*
X012900Y005124D01*
X012943Y005021D01*
X013021Y004943D01*
X013521Y004443D01*
X013624Y004400D01*
X017736Y004400D01*
X017839Y004443D01*
X017917Y004521D01*
X018417Y005021D01*
X018460Y005124D01*
X018460Y008064D01*
X019296Y008900D01*
X019753Y008900D01*
X019973Y008680D01*
X020387Y008680D01*
X020680Y008387D01*
X020680Y007973D01*
X020387Y007680D01*
X019973Y007680D01*
X019680Y007973D01*
X019680Y008387D01*
X019973Y008680D01*
X020387Y008680D01*
X020413Y008654D02*
X020975Y008654D01*
X020981Y008660D02*
X021160Y008660D01*
X021160Y008200D01*
X021200Y008200D01*
X021200Y008660D01*
X021379Y008660D01*
X021660Y008379D01*
X021660Y008200D01*
X021200Y008200D01*
X021200Y008160D01*
X021660Y008160D01*
X021660Y007981D01*
X021379Y007700D01*
X021200Y007700D01*
X021200Y008160D01*
X021160Y008160D01*
X021160Y008200D01*
X020700Y008200D01*
X020700Y008379D01*
X020981Y008660D01*
X021160Y008654D02*
X021200Y008654D01*
X021200Y008496D02*
X021160Y008496D01*
X021160Y008337D02*
X021200Y008337D01*
X021200Y008179D02*
X022700Y008179D01*
X022700Y008337D02*
X021660Y008337D01*
X021543Y008496D02*
X022700Y008496D01*
X022700Y008654D02*
X021385Y008654D01*
X021520Y008813D02*
X022700Y008813D01*
X022700Y008971D02*
X022117Y008971D01*
X022275Y009130D02*
X022700Y009130D01*
X022700Y009288D02*
X022424Y009288D01*
X022460Y009447D02*
X022700Y009447D01*
X022700Y009605D02*
X022460Y009605D01*
X022460Y009764D02*
X022700Y009764D01*
X022700Y009922D02*
X022460Y009922D01*
X022460Y010081D02*
X022700Y010081D01*
X022700Y010239D02*
X022460Y010239D01*
X022460Y010398D02*
X022700Y010398D01*
X022700Y010556D02*
X022460Y010556D01*
X022460Y010715D02*
X022700Y010715D01*
X022700Y010873D02*
X022460Y010873D01*
X022460Y011032D02*
X022700Y011032D01*
X022700Y011190D02*
X022460Y011190D01*
X022460Y011349D02*
X022700Y011349D01*
X022700Y011507D02*
X022451Y011507D01*
X022340Y011666D02*
X022700Y011666D01*
X022700Y011824D02*
X022182Y011824D01*
X021930Y011680D02*
X018680Y011680D01*
X018180Y012180D01*
X017180Y012180D01*
X016885Y011824D02*
X016475Y011824D01*
X016371Y011640D02*
X016640Y011371D01*
X016640Y010989D01*
X016460Y010809D01*
X016460Y010311D01*
X016570Y010201D01*
X016640Y010031D01*
X016640Y009328D01*
X016570Y009159D01*
X016441Y009030D01*
X016272Y008960D01*
X016089Y008960D01*
X015919Y009030D01*
X015790Y009159D01*
X015720Y009328D01*
X015720Y010031D01*
X015790Y010201D01*
X015900Y010311D01*
X015900Y010809D01*
X015720Y010989D01*
X015720Y011371D01*
X015989Y011640D01*
X016371Y011640D01*
X016504Y011507D02*
X016856Y011507D01*
X016989Y011640D02*
X017371Y011640D01*
X017640Y011371D01*
X017640Y010989D01*
X017460Y010809D01*
X017460Y010311D01*
X017570Y010201D01*
X017640Y010031D01*
X017640Y009328D01*
X017570Y009159D01*
X017441Y009030D01*
X017272Y008960D01*
X017089Y008960D01*
X016919Y009030D01*
X016790Y009159D01*
X016720Y009328D01*
X016720Y010031D01*
X016790Y010201D01*
X016900Y010311D01*
X016900Y010809D01*
X016720Y010989D01*
X016720Y011371D01*
X016989Y011640D01*
X016720Y011349D02*
X016640Y011349D01*
X016640Y011190D02*
X016720Y011190D01*
X016720Y011032D02*
X016640Y011032D01*
X016524Y010873D02*
X016836Y010873D01*
X016900Y010715D02*
X016460Y010715D01*
X016460Y010556D02*
X016900Y010556D01*
X016900Y010398D02*
X016460Y010398D01*
X016532Y010239D02*
X016828Y010239D01*
X016740Y010081D02*
X016620Y010081D01*
X016640Y009922D02*
X016720Y009922D01*
X016720Y009764D02*
X016640Y009764D01*
X016640Y009605D02*
X016720Y009605D01*
X016720Y009447D02*
X016640Y009447D01*
X016623Y009288D02*
X016737Y009288D01*
X016820Y009130D02*
X016540Y009130D01*
X016298Y008971D02*
X017062Y008971D01*
X017298Y008971D02*
X018575Y008971D01*
X018467Y009084D02*
X018516Y009133D01*
X018556Y009189D01*
X018588Y009251D01*
X018609Y009317D01*
X018620Y009385D01*
X018620Y009680D01*
X018180Y009680D01*
X017740Y009680D01*
X017740Y009975D01*
X017751Y010043D01*
X017772Y010109D01*
X017804Y010171D01*
X017844Y010227D01*
X017893Y010276D01*
X017949Y010316D01*
X018011Y010348D01*
X018077Y010369D01*
X018145Y010380D01*
X018180Y010380D01*
X018180Y009680D01*
X018180Y009680D01*
X018180Y009680D01*
X017740Y009680D01*
X017740Y009385D01*
X017751Y009317D01*
X017772Y009251D01*
X017804Y009189D01*
X017844Y009133D01*
X017893Y009084D01*
X017949Y009044D01*
X018011Y009012D01*
X018077Y008991D01*
X018145Y008980D01*
X018180Y008980D01*
X018180Y009680D01*
X018180Y009680D01*
X018180Y009680D01*
X018180Y010380D01*
X018215Y010380D01*
X018283Y010369D01*
X018349Y010348D01*
X018411Y010316D01*
X018467Y010276D01*
X018516Y010227D01*
X018556Y010171D01*
X018588Y010109D01*
X018609Y010043D01*
X018620Y009975D01*
X018620Y009680D01*
X018180Y009680D01*
X018180Y008980D01*
X018215Y008980D01*
X018283Y008991D01*
X018349Y009012D01*
X018411Y009044D01*
X018467Y009084D01*
X018512Y009130D02*
X018734Y009130D01*
X018600Y009288D02*
X018892Y009288D01*
X019092Y009447D02*
X018620Y009447D01*
X018620Y009605D02*
X019898Y009605D01*
X019973Y009680D02*
X019680Y009973D01*
X019680Y010387D01*
X019973Y010680D01*
X020387Y010680D01*
X020680Y010387D01*
X020973Y010680D01*
X021387Y010680D01*
X021680Y010387D01*
X021680Y009973D01*
X021387Y009680D01*
X020973Y009680D01*
X020680Y009973D01*
X020680Y010387D01*
X020680Y009973D01*
X020387Y009680D01*
X019973Y009680D01*
X019889Y009764D02*
X018620Y009764D01*
X018620Y009922D02*
X019731Y009922D01*
X019680Y010081D02*
X018597Y010081D01*
X018503Y010239D02*
X019680Y010239D01*
X019690Y010398D02*
X017460Y010398D01*
X017460Y010556D02*
X019849Y010556D01*
X019938Y010715D02*
X017460Y010715D01*
X017524Y010873D02*
X019780Y010873D01*
X019680Y011032D02*
X017640Y011032D01*
X017640Y011190D02*
X019680Y011190D01*
X019680Y011349D02*
X017640Y011349D01*
X017504Y011507D02*
X018457Y011507D01*
X018299Y011666D02*
X009290Y011666D01*
X009290Y011824D02*
X009885Y011824D01*
X009727Y011983D02*
X009290Y011983D01*
X009290Y012141D02*
X009720Y012141D01*
X009720Y012300D02*
X009309Y012300D01*
X009467Y012458D02*
X009807Y012458D01*
X009900Y012617D02*
X009626Y012617D01*
X009784Y012775D02*
X009916Y012775D01*
X009943Y012934D02*
X010038Y012934D01*
X010101Y013092D02*
X010196Y013092D01*
X010260Y013251D02*
X010355Y013251D01*
X010418Y013409D02*
X010513Y013409D01*
X010577Y013568D02*
X010672Y013568D01*
X010735Y013726D02*
X010830Y013726D01*
X010894Y013885D02*
X010989Y013885D01*
X011052Y014043D02*
X011147Y014043D01*
X011211Y014202D02*
X011306Y014202D01*
X011369Y014360D02*
X011464Y014360D01*
X011528Y014519D02*
X011623Y014519D01*
X011686Y014677D02*
X011781Y014677D01*
X011845Y014836D02*
X011940Y014836D01*
X012003Y014994D02*
X012098Y014994D01*
X012162Y015153D02*
X012257Y015153D01*
X012320Y015311D02*
X012415Y015311D01*
X012479Y015470D02*
X012574Y015470D01*
X012637Y015628D02*
X012732Y015628D01*
X012796Y015787D02*
X012891Y015787D01*
X012954Y015945D02*
X013049Y015945D01*
X013113Y016104D02*
X013208Y016104D01*
X013271Y016262D02*
X013366Y016262D01*
X013430Y016421D02*
X013525Y016421D01*
X013588Y016579D02*
X013683Y016579D01*
X013747Y016738D02*
X013842Y016738D01*
X013905Y016896D02*
X014000Y016896D01*
X014064Y017055D02*
X014159Y017055D01*
X014222Y017213D02*
X014317Y017213D01*
X014381Y017372D02*
X014476Y017372D01*
X014539Y017530D02*
X014634Y017530D01*
X014698Y017689D02*
X014793Y017689D01*
X014856Y017847D02*
X014951Y017847D01*
X015015Y018006D02*
X015110Y018006D01*
X015173Y018164D02*
X015268Y018164D01*
X015332Y018323D02*
X015427Y018323D01*
X015490Y018481D02*
X015585Y018481D01*
X015634Y018625D02*
X015634Y018625D01*
X015649Y018640D02*
X015744Y018640D01*
X015765Y018798D02*
X015900Y018798D01*
X015900Y018957D02*
X015790Y018957D01*
X015790Y019115D02*
X015900Y019115D01*
X015900Y019274D02*
X015790Y019274D01*
X015790Y019432D02*
X015900Y019432D01*
X015900Y019591D02*
X015790Y019591D01*
X015790Y019749D02*
X015900Y019749D01*
X015900Y019908D02*
X015790Y019908D01*
X015790Y020066D02*
X015900Y020066D01*
X015900Y020225D02*
X015790Y020225D01*
X015790Y020383D02*
X015987Y020383D01*
X016021Y020417D02*
X016021Y020417D01*
X016146Y020542D02*
X015801Y020542D01*
X015959Y020700D02*
X016304Y020700D01*
X016463Y020859D02*
X016118Y020859D01*
X016276Y021017D02*
X016621Y021017D01*
X016780Y021176D02*
X016435Y021176D01*
X016593Y021334D02*
X016938Y021334D01*
X017097Y021493D02*
X016752Y021493D01*
X016910Y021651D02*
X017255Y021651D01*
X017414Y021810D02*
X017069Y021810D01*
X017227Y021968D02*
X017572Y021968D01*
X017731Y022127D02*
X017386Y022127D01*
X017544Y022285D02*
X017889Y022285D01*
X018048Y022444D02*
X017703Y022444D01*
X017861Y022602D02*
X018206Y022602D01*
X018365Y022761D02*
X018020Y022761D01*
X018178Y022919D02*
X018523Y022919D01*
X018682Y023078D02*
X018337Y023078D01*
X018495Y023236D02*
X018840Y023236D01*
X018943Y023339D02*
X018943Y023339D01*
X018999Y023395D02*
X018654Y023395D01*
X018812Y023553D02*
X019846Y023553D01*
X019941Y023712D02*
X018971Y023712D01*
X019180Y023180D02*
X020180Y023180D01*
X020514Y023553D02*
X020846Y023553D01*
X020941Y023712D02*
X020419Y023712D01*
X020673Y023395D02*
X020687Y023395D01*
X020680Y023387D02*
X020680Y023076D01*
X020680Y023076D01*
X020680Y023387D01*
X020680Y023236D02*
X020680Y023236D01*
X020680Y023078D02*
X020680Y023078D01*
X020680Y022680D02*
X019430Y022680D01*
X016680Y019930D01*
X016680Y018180D01*
X011180Y012680D01*
X011180Y012180D01*
X010720Y012141D02*
X010640Y012141D01*
X010640Y012300D02*
X010720Y012300D01*
X010807Y012458D02*
X010553Y012458D01*
X010512Y012617D02*
X010900Y012617D01*
X010916Y012775D02*
X010671Y012775D01*
X010829Y012934D02*
X011038Y012934D01*
X010988Y013092D02*
X011196Y013092D01*
X011146Y013251D02*
X011355Y013251D01*
X011305Y013409D02*
X011513Y013409D01*
X011463Y013568D02*
X011672Y013568D01*
X011622Y013726D02*
X011830Y013726D01*
X011780Y013885D02*
X011989Y013885D01*
X011939Y014043D02*
X012147Y014043D01*
X012098Y014202D02*
X012306Y014202D01*
X012256Y014360D02*
X012464Y014360D01*
X012415Y014519D02*
X012623Y014519D01*
X012573Y014677D02*
X012781Y014677D01*
X012732Y014836D02*
X012940Y014836D01*
X012890Y014994D02*
X013098Y014994D01*
X013049Y015153D02*
X013257Y015153D01*
X013207Y015311D02*
X013415Y015311D01*
X013366Y015470D02*
X013574Y015470D01*
X013524Y015628D02*
X013732Y015628D01*
X013683Y015787D02*
X013891Y015787D01*
X013841Y015945D02*
X014049Y015945D01*
X014000Y016104D02*
X014208Y016104D01*
X014158Y016262D02*
X014366Y016262D01*
X014317Y016421D02*
X014525Y016421D01*
X014475Y016579D02*
X014683Y016579D01*
X014634Y016738D02*
X014842Y016738D01*
X014792Y016896D02*
X015000Y016896D01*
X014951Y017055D02*
X015159Y017055D01*
X015109Y017213D02*
X015317Y017213D01*
X015268Y017372D02*
X015476Y017372D01*
X015426Y017530D02*
X015634Y017530D01*
X015585Y017689D02*
X015793Y017689D01*
X015743Y017847D02*
X015951Y017847D01*
X015902Y018006D02*
X016110Y018006D01*
X016060Y018164D02*
X016268Y018164D01*
X016219Y018323D02*
X016400Y018323D01*
X016400Y018481D02*
X016377Y018481D01*
X016180Y018680D02*
X016180Y020180D01*
X019180Y023180D01*
X019430Y022180D02*
X017180Y019930D01*
X017180Y017680D01*
X012180Y012680D01*
X012180Y012180D01*
X011720Y012141D02*
X011640Y012141D01*
X011640Y012300D02*
X011720Y012300D01*
X011807Y012458D02*
X011553Y012458D01*
X011512Y012617D02*
X011900Y012617D01*
X011916Y012775D02*
X011671Y012775D01*
X011829Y012934D02*
X012038Y012934D01*
X011988Y013092D02*
X012196Y013092D01*
X012146Y013251D02*
X012355Y013251D01*
X012305Y013409D02*
X012513Y013409D01*
X012463Y013568D02*
X012672Y013568D01*
X012622Y013726D02*
X012830Y013726D01*
X012780Y013885D02*
X012989Y013885D01*
X012939Y014043D02*
X013147Y014043D01*
X013098Y014202D02*
X013306Y014202D01*
X013256Y014360D02*
X013464Y014360D01*
X013415Y014519D02*
X013623Y014519D01*
X013573Y014677D02*
X013781Y014677D01*
X013732Y014836D02*
X013940Y014836D01*
X013890Y014994D02*
X014098Y014994D01*
X014049Y015153D02*
X014257Y015153D01*
X014207Y015311D02*
X014415Y015311D01*
X014366Y015470D02*
X014574Y015470D01*
X014524Y015628D02*
X014732Y015628D01*
X014683Y015787D02*
X014891Y015787D01*
X014841Y015945D02*
X015049Y015945D01*
X015000Y016104D02*
X015208Y016104D01*
X015158Y016262D02*
X015366Y016262D01*
X015317Y016421D02*
X015525Y016421D01*
X015475Y016579D02*
X015683Y016579D01*
X015634Y016738D02*
X015842Y016738D01*
X015792Y016896D02*
X016000Y016896D01*
X015951Y017055D02*
X016159Y017055D01*
X016109Y017213D02*
X016317Y017213D01*
X016268Y017372D02*
X016476Y017372D01*
X016426Y017530D02*
X016634Y017530D01*
X016585Y017689D02*
X016793Y017689D01*
X016743Y017847D02*
X016900Y017847D01*
X017268Y017372D02*
X017400Y017372D01*
X017317Y017213D02*
X017109Y017213D01*
X017159Y017055D02*
X016951Y017055D01*
X017000Y016896D02*
X016792Y016896D01*
X016842Y016738D02*
X016634Y016738D01*
X016683Y016579D02*
X016475Y016579D01*
X016525Y016421D02*
X016317Y016421D01*
X016366Y016262D02*
X016158Y016262D01*
X016208Y016104D02*
X016000Y016104D01*
X016049Y015945D02*
X015841Y015945D01*
X015891Y015787D02*
X015683Y015787D01*
X015732Y015628D02*
X015524Y015628D01*
X015574Y015470D02*
X015366Y015470D01*
X015415Y015311D02*
X015207Y015311D01*
X015257Y015153D02*
X015049Y015153D01*
X015098Y014994D02*
X014890Y014994D01*
X014940Y014836D02*
X014732Y014836D01*
X014781Y014677D02*
X014573Y014677D01*
X014623Y014519D02*
X014415Y014519D01*
X014464Y014360D02*
X014256Y014360D01*
X014306Y014202D02*
X014098Y014202D01*
X014147Y014043D02*
X013939Y014043D01*
X013989Y013885D02*
X013780Y013885D01*
X013830Y013726D02*
X013622Y013726D01*
X013672Y013568D02*
X013463Y013568D01*
X013513Y013409D02*
X013305Y013409D01*
X013355Y013251D02*
X013146Y013251D01*
X013196Y013092D02*
X012988Y013092D01*
X013038Y012934D02*
X012829Y012934D01*
X012916Y012775D02*
X012671Y012775D01*
X012512Y012617D02*
X012900Y012617D01*
X012807Y012458D02*
X012553Y012458D01*
X012640Y012300D02*
X012720Y012300D01*
X012720Y012141D02*
X012640Y012141D01*
X012633Y011983D02*
X012727Y011983D01*
X012885Y011824D02*
X012475Y011824D01*
X012504Y011507D02*
X012856Y011507D01*
X012989Y011640D02*
X012720Y011371D01*
X012720Y010989D01*
X012900Y010809D01*
X012900Y010311D01*
X012790Y010201D01*
X012720Y010031D01*
X012720Y009328D01*
X012790Y009159D01*
X012919Y009030D01*
X013089Y008960D01*
X013272Y008960D01*
X013441Y009030D01*
X013570Y009159D01*
X013640Y009328D01*
X013640Y010031D01*
X013570Y010201D01*
X013460Y010311D01*
X013460Y010809D01*
X013640Y010989D01*
X013640Y011371D01*
X013371Y011640D01*
X012989Y011640D01*
X012720Y011349D02*
X012640Y011349D01*
X012640Y011190D02*
X012720Y011190D01*
X012720Y011032D02*
X012640Y011032D01*
X012524Y010873D02*
X012836Y010873D01*
X012900Y010715D02*
X012460Y010715D01*
X012460Y010556D02*
X012900Y010556D01*
X012900Y010398D02*
X012460Y010398D01*
X012532Y010239D02*
X012828Y010239D01*
X012740Y010081D02*
X012620Y010081D01*
X012640Y009922D02*
X012720Y009922D01*
X012720Y009764D02*
X012640Y009764D01*
X012640Y009605D02*
X012720Y009605D01*
X012720Y009447D02*
X012640Y009447D01*
X012623Y009288D02*
X012737Y009288D01*
X012820Y009130D02*
X012540Y009130D01*
X012898Y008971D02*
X013062Y008971D01*
X013057Y008813D02*
X018417Y008813D01*
X018258Y008654D02*
X013215Y008654D01*
X013374Y008496D02*
X018100Y008496D01*
X017942Y008337D02*
X013532Y008337D01*
X013691Y008179D02*
X017900Y008179D01*
X017900Y008020D02*
X013849Y008020D01*
X014008Y007862D02*
X017900Y007862D01*
X017900Y007703D02*
X014166Y007703D01*
X014325Y007545D02*
X017900Y007545D01*
X017900Y007386D02*
X014483Y007386D01*
X014540Y007228D02*
X017900Y007228D01*
X017900Y007069D02*
X014540Y007069D01*
X014540Y006911D02*
X017900Y006911D01*
X017900Y006752D02*
X015490Y006752D01*
X015467Y006776D02*
X015516Y006727D01*
X015556Y006671D01*
X015588Y006609D01*
X015609Y006543D01*
X015620Y006475D01*
X015620Y006180D01*
X015180Y006180D01*
X014740Y006180D01*
X014740Y006475D01*
X014751Y006543D01*
X014772Y006609D01*
X014804Y006671D01*
X014844Y006727D01*
X014893Y006776D01*
X014949Y006816D01*
X015011Y006848D01*
X015077Y006869D01*
X015145Y006880D01*
X015180Y006880D01*
X015180Y006180D01*
X015180Y006180D01*
X015180Y006180D01*
X014740Y006180D01*
X014740Y005885D01*
X014751Y005817D01*
X014772Y005751D01*
X014804Y005689D01*
X014844Y005633D01*
X014893Y005584D01*
X014949Y005544D01*
X015011Y005512D01*
X015077Y005491D01*
X015145Y005480D01*
X015180Y005480D01*
X015180Y006180D01*
X015180Y006180D01*
X015180Y006180D01*
X015180Y006880D01*
X015215Y006880D01*
X015283Y006869D01*
X015349Y006848D01*
X015411Y006816D01*
X015467Y006776D01*
X015593Y006594D02*
X017900Y006594D01*
X017900Y006435D02*
X015620Y006435D01*
X015620Y006277D02*
X017900Y006277D01*
X017900Y006118D02*
X015620Y006118D01*
X015620Y006180D02*
X015620Y005885D01*
X015609Y005817D01*
X015588Y005751D01*
X015556Y005689D01*
X015516Y005633D01*
X015467Y005584D01*
X015411Y005544D01*
X015349Y005512D01*
X015283Y005491D01*
X015215Y005480D01*
X015180Y005480D01*
X015180Y006180D01*
X015620Y006180D01*
X015620Y005960D02*
X017900Y005960D01*
X017900Y005801D02*
X015604Y005801D01*
X015522Y005643D02*
X017900Y005643D01*
X017900Y005484D02*
X015240Y005484D01*
X015180Y005484D02*
X015180Y005484D01*
X015120Y005484D02*
X014329Y005484D01*
X014553Y005643D02*
X014838Y005643D01*
X014756Y005801D02*
X014629Y005801D01*
X014640Y005960D02*
X014740Y005960D01*
X014740Y006118D02*
X014640Y006118D01*
X014640Y006277D02*
X014740Y006277D01*
X014740Y006435D02*
X014640Y006435D01*
X014614Y006594D02*
X014767Y006594D01*
X014870Y006752D02*
X014540Y006752D01*
X015180Y006752D02*
X015180Y006752D01*
X015180Y006594D02*
X015180Y006594D01*
X015180Y006435D02*
X015180Y006435D01*
X015180Y006277D02*
X015180Y006277D01*
X015180Y006118D02*
X015180Y006118D01*
X015180Y005960D02*
X015180Y005960D01*
X015180Y005801D02*
X015180Y005801D01*
X015180Y005643D02*
X015180Y005643D01*
X014031Y005484D02*
X013460Y005484D01*
X013460Y005326D02*
X017900Y005326D01*
X017771Y005167D02*
X013589Y005167D01*
X013747Y005009D02*
X017613Y005009D01*
X017680Y004680D02*
X013680Y004680D01*
X013180Y005180D01*
X013180Y006180D01*
X013640Y006118D02*
X013720Y006118D01*
X013720Y005960D02*
X013640Y005960D01*
X013629Y005801D02*
X013731Y005801D01*
X013807Y005643D02*
X013553Y005643D01*
X013640Y006277D02*
X013720Y006277D01*
X013720Y006435D02*
X013640Y006435D01*
X013614Y006594D02*
X013746Y006594D01*
X013820Y006752D02*
X013519Y006752D01*
X013820Y006911D02*
X011460Y006911D01*
X011460Y006811D02*
X011570Y006701D01*
X011640Y006531D01*
X011640Y005828D01*
X011570Y005659D01*
X011441Y005530D01*
X011272Y005460D01*
X011089Y005460D01*
X010919Y005530D01*
X010790Y005659D01*
X010720Y005828D01*
X010720Y006531D01*
X010790Y006701D01*
X010900Y006811D01*
X010900Y007064D01*
X010314Y007650D01*
X007624Y007650D01*
X007521Y007693D01*
X007443Y007771D01*
X005443Y009771D01*
X005400Y009874D01*
X005400Y012064D01*
X005064Y012400D01*
X004667Y012400D01*
X004680Y012387D01*
X004680Y011973D01*
X004387Y011680D01*
X004680Y011387D01*
X004680Y010973D01*
X004387Y010680D01*
X004680Y010387D01*
X004680Y009973D01*
X004387Y009680D01*
X003973Y009680D01*
X003680Y009973D01*
X003680Y010387D01*
X003973Y010680D01*
X004387Y010680D01*
X003973Y010680D01*
X003680Y010973D01*
X003680Y011387D01*
X003973Y011680D01*
X004387Y011680D01*
X003973Y011680D01*
X003680Y011973D01*
X003387Y011680D01*
X003680Y011387D01*
X003680Y010973D01*
X003387Y010680D01*
X003680Y010387D01*
X003680Y009973D01*
X003387Y009680D01*
X002973Y009680D01*
X002680Y009973D01*
X002680Y010387D01*
X002973Y010680D01*
X003387Y010680D01*
X002973Y010680D01*
X002680Y010973D01*
X002680Y011387D01*
X002973Y011680D01*
X003387Y011680D01*
X002973Y011680D01*
X002680Y011973D01*
X002680Y012387D01*
X002973Y012680D01*
X002680Y012973D01*
X002680Y013387D01*
X002973Y013680D01*
X003387Y013680D01*
X003680Y013387D01*
X003973Y013680D01*
X004387Y013680D01*
X004680Y013387D01*
X004680Y012973D01*
X004667Y012960D01*
X005236Y012960D01*
X005339Y012917D01*
X005839Y012417D01*
X005917Y012339D01*
X005960Y012236D01*
X005960Y010046D01*
X007796Y008210D01*
X010486Y008210D01*
X010589Y008167D01*
X011339Y007417D01*
X011417Y007339D01*
X011460Y007236D01*
X011460Y006811D01*
X011519Y006752D02*
X011841Y006752D01*
X011790Y006701D02*
X011919Y006830D01*
X012089Y006900D01*
X012272Y006900D01*
X012441Y006830D01*
X012570Y006701D01*
X012640Y006531D01*
X012640Y005828D01*
X012570Y005659D01*
X012441Y005530D01*
X012416Y005520D01*
X012339Y005443D01*
X011839Y004943D01*
X011736Y004900D01*
X002624Y004900D01*
X002521Y004943D01*
X002443Y005021D01*
X002021Y005443D01*
X001943Y005521D01*
X001900Y005624D01*
X001900Y008986D01*
X001943Y009089D01*
X002021Y009167D01*
X002271Y009417D01*
X002374Y009460D01*
X002753Y009460D01*
X002973Y009680D01*
X003387Y009680D01*
X003680Y009387D01*
X003680Y008973D01*
X003387Y008680D01*
X003680Y008387D01*
X003680Y007973D01*
X003387Y007680D01*
X002973Y007680D01*
X002680Y007973D01*
X002680Y008387D01*
X002973Y008680D01*
X003387Y008680D01*
X002973Y008680D01*
X002753Y008900D01*
X002546Y008900D01*
X002460Y008814D01*
X002460Y005796D01*
X002796Y005460D01*
X011564Y005460D01*
X011782Y005678D01*
X011720Y005828D01*
X011720Y006531D01*
X011790Y006701D01*
X011746Y006594D02*
X011614Y006594D01*
X011640Y006435D02*
X011720Y006435D01*
X011720Y006277D02*
X011640Y006277D01*
X011640Y006118D02*
X011720Y006118D01*
X011720Y005960D02*
X011640Y005960D01*
X011629Y005801D02*
X011731Y005801D01*
X011747Y005643D02*
X011553Y005643D01*
X011588Y005484D02*
X011329Y005484D01*
X011031Y005484D02*
X010329Y005484D01*
X010272Y005460D02*
X010089Y005460D01*
X009919Y005530D01*
X009790Y005659D01*
X009720Y005828D01*
X009720Y006531D01*
X009790Y006701D01*
X009900Y006811D01*
X009900Y006814D01*
X009814Y006900D01*
X007124Y006900D01*
X007021Y006943D01*
X006943Y007021D01*
X005064Y008900D01*
X004607Y008900D01*
X004387Y008680D01*
X003973Y008680D01*
X003680Y008973D01*
X003680Y009387D01*
X003973Y009680D01*
X004387Y009680D01*
X004607Y009460D01*
X005236Y009460D01*
X005339Y009417D01*
X007296Y007460D01*
X009986Y007460D01*
X010089Y007417D01*
X010339Y007167D01*
X010417Y007089D01*
X010460Y006986D01*
X010460Y006811D01*
X010570Y006701D01*
X010640Y006531D01*
X010640Y005828D01*
X010570Y005659D01*
X010441Y005530D01*
X010272Y005460D01*
X010031Y005484D02*
X009329Y005484D01*
X009272Y005460D02*
X009089Y005460D01*
X008919Y005530D01*
X008790Y005659D01*
X008720Y005828D01*
X008720Y005900D01*
X007124Y005900D01*
X007021Y005943D01*
X005064Y007900D01*
X004607Y007900D01*
X004387Y007680D01*
X003973Y007680D01*
X003680Y007973D01*
X003680Y008387D01*
X003973Y008680D01*
X004387Y008680D01*
X004607Y008460D01*
X005236Y008460D01*
X005339Y008417D01*
X005417Y008339D01*
X007296Y006460D01*
X008720Y006460D01*
X008720Y006531D01*
X008790Y006701D01*
X008919Y006830D01*
X009089Y006900D01*
X009272Y006900D01*
X009441Y006830D01*
X009570Y006701D01*
X009640Y006531D01*
X009640Y005828D01*
X009570Y005659D01*
X009441Y005530D01*
X009272Y005460D01*
X009031Y005484D02*
X002772Y005484D01*
X002613Y005643D02*
X008807Y005643D01*
X008731Y005801D02*
X004480Y005801D01*
X004379Y005700D02*
X004660Y005981D01*
X004660Y006160D01*
X004200Y006160D01*
X004200Y006200D01*
X004200Y006660D01*
X004379Y006660D01*
X004660Y006379D01*
X004660Y006200D01*
X004200Y006200D01*
X004160Y006200D01*
X004160Y006660D01*
X003981Y006660D01*
X003700Y006379D01*
X003700Y006200D01*
X004160Y006200D01*
X004160Y006160D01*
X003700Y006160D01*
X003700Y005981D01*
X003981Y005700D01*
X004160Y005700D01*
X004160Y006160D01*
X004200Y006160D01*
X004200Y005700D01*
X004379Y005700D01*
X004200Y005801D02*
X004160Y005801D01*
X004160Y005960D02*
X004200Y005960D01*
X004200Y006118D02*
X004160Y006118D01*
X004160Y006277D02*
X004200Y006277D01*
X004200Y006435D02*
X004160Y006435D01*
X004160Y006594D02*
X004200Y006594D01*
X004200Y006700D02*
X004200Y007160D01*
X004660Y007160D01*
X004660Y006981D01*
X004379Y006700D01*
X004200Y006700D01*
X004160Y006700D02*
X003981Y006700D01*
X003700Y006981D01*
X003700Y007160D01*
X004160Y007160D01*
X004160Y007200D01*
X004200Y007200D01*
X004200Y007660D01*
X004379Y007660D01*
X004660Y007379D01*
X004660Y007200D01*
X004200Y007200D01*
X004200Y007160D01*
X004160Y007160D01*
X004160Y006700D01*
X004160Y006752D02*
X004200Y006752D01*
X004200Y006911D02*
X004160Y006911D01*
X004160Y007069D02*
X004200Y007069D01*
X004160Y007200D02*
X003700Y007200D01*
X003700Y007379D01*
X003981Y007660D01*
X004160Y007660D01*
X004160Y007200D01*
X004160Y007228D02*
X004200Y007228D01*
X004200Y007386D02*
X004160Y007386D01*
X004160Y007545D02*
X004200Y007545D01*
X004410Y007703D02*
X005261Y007703D01*
X005103Y007862D02*
X004569Y007862D01*
X004494Y007545D02*
X005420Y007545D01*
X005578Y007386D02*
X004653Y007386D01*
X004660Y007228D02*
X005737Y007228D01*
X005895Y007069D02*
X004660Y007069D01*
X004589Y006911D02*
X006054Y006911D01*
X006212Y006752D02*
X004431Y006752D01*
X004445Y006594D02*
X006371Y006594D01*
X006529Y006435D02*
X004604Y006435D01*
X004660Y006277D02*
X006688Y006277D01*
X006846Y006118D02*
X004660Y006118D01*
X004638Y005960D02*
X007005Y005960D01*
X007180Y006180D02*
X005180Y008180D01*
X004180Y008180D01*
X004572Y008496D02*
X005469Y008496D01*
X005419Y008337D02*
X005627Y008337D01*
X005577Y008179D02*
X005786Y008179D01*
X005736Y008020D02*
X005944Y008020D01*
X005894Y007862D02*
X006103Y007862D01*
X006053Y007703D02*
X006261Y007703D01*
X006211Y007545D02*
X006420Y007545D01*
X006370Y007386D02*
X006578Y007386D01*
X006528Y007228D02*
X006737Y007228D01*
X006687Y007069D02*
X006895Y007069D01*
X006845Y006911D02*
X007099Y006911D01*
X007004Y006752D02*
X008841Y006752D01*
X008746Y006594D02*
X007162Y006594D01*
X007180Y006180D02*
X009180Y006180D01*
X009640Y006118D02*
X009720Y006118D01*
X009720Y005960D02*
X009640Y005960D01*
X009629Y005801D02*
X009731Y005801D01*
X009807Y005643D02*
X009553Y005643D01*
X009640Y006277D02*
X009720Y006277D01*
X009720Y006435D02*
X009640Y006435D01*
X009614Y006594D02*
X009746Y006594D01*
X009841Y006752D02*
X009519Y006752D01*
X009930Y007180D02*
X010180Y006930D01*
X010180Y006180D01*
X010640Y006118D02*
X010720Y006118D01*
X010720Y005960D02*
X010640Y005960D01*
X010629Y005801D02*
X010731Y005801D01*
X010807Y005643D02*
X010553Y005643D01*
X010640Y006277D02*
X010720Y006277D01*
X010720Y006435D02*
X010640Y006435D01*
X010614Y006594D02*
X010746Y006594D01*
X010841Y006752D02*
X010519Y006752D01*
X010460Y006911D02*
X010900Y006911D01*
X010895Y007069D02*
X010425Y007069D01*
X010278Y007228D02*
X010737Y007228D01*
X010578Y007386D02*
X010120Y007386D01*
X009930Y007180D02*
X007180Y007180D01*
X005180Y009180D01*
X004180Y009180D01*
X004520Y008813D02*
X005152Y008813D01*
X005310Y008654D02*
X004413Y008654D01*
X003947Y008654D02*
X003413Y008654D01*
X003520Y008813D02*
X003840Y008813D01*
X003682Y008971D02*
X003678Y008971D01*
X003680Y009130D02*
X003680Y009130D01*
X003680Y009288D02*
X003680Y009288D01*
X003739Y009447D02*
X003621Y009447D01*
X003462Y009605D02*
X003898Y009605D01*
X003889Y009764D02*
X003471Y009764D01*
X003629Y009922D02*
X003731Y009922D01*
X003680Y010081D02*
X003680Y010081D01*
X003680Y010239D02*
X003680Y010239D01*
X003690Y010398D02*
X003670Y010398D01*
X003511Y010556D02*
X003849Y010556D01*
X003938Y010715D02*
X003422Y010715D01*
X003580Y010873D02*
X003780Y010873D01*
X003680Y011032D02*
X003680Y011032D01*
X003680Y011190D02*
X003680Y011190D01*
X003680Y011349D02*
X003680Y011349D01*
X003800Y011507D02*
X003560Y011507D01*
X003402Y011666D02*
X003958Y011666D01*
X003829Y011824D02*
X003531Y011824D01*
X003680Y011973D02*
X003680Y012387D01*
X003667Y012400D01*
X003693Y012400D01*
X003680Y012387D01*
X003680Y011973D01*
X003680Y011983D02*
X003680Y011983D01*
X003680Y012141D02*
X003680Y012141D01*
X003680Y012300D02*
X003680Y012300D01*
X003680Y012680D02*
X005180Y012680D01*
X005680Y012180D01*
X005680Y009930D01*
X007680Y007930D01*
X010430Y007930D01*
X011180Y007180D01*
X011180Y006180D01*
X011460Y007069D02*
X013782Y007069D01*
X013623Y007228D02*
X011460Y007228D01*
X011370Y007386D02*
X013465Y007386D01*
X013306Y007545D02*
X011211Y007545D01*
X011053Y007703D02*
X013148Y007703D01*
X012989Y007862D02*
X010894Y007862D01*
X010736Y008020D02*
X012831Y008020D01*
X012672Y008179D02*
X010562Y008179D01*
X010420Y007545D02*
X007211Y007545D01*
X007053Y007703D02*
X007511Y007703D01*
X007353Y007862D02*
X006894Y007862D01*
X006736Y008020D02*
X007194Y008020D01*
X007036Y008179D02*
X006577Y008179D01*
X006419Y008337D02*
X006877Y008337D01*
X006719Y008496D02*
X006260Y008496D01*
X006102Y008654D02*
X006560Y008654D01*
X006402Y008813D02*
X005943Y008813D01*
X005785Y008971D02*
X006243Y008971D01*
X006085Y009130D02*
X005626Y009130D01*
X005468Y009288D02*
X005926Y009288D01*
X005768Y009447D02*
X005268Y009447D01*
X005451Y009764D02*
X004471Y009764D01*
X004462Y009605D02*
X005609Y009605D01*
X005400Y009922D02*
X004629Y009922D01*
X004680Y010081D02*
X005400Y010081D01*
X005400Y010239D02*
X004680Y010239D01*
X004670Y010398D02*
X005400Y010398D01*
X005400Y010556D02*
X004511Y010556D01*
X004422Y010715D02*
X005400Y010715D01*
X005400Y010873D02*
X004580Y010873D01*
X004680Y011032D02*
X005400Y011032D01*
X005400Y011190D02*
X004680Y011190D01*
X004680Y011349D02*
X005400Y011349D01*
X005400Y011507D02*
X004560Y011507D01*
X004402Y011666D02*
X005400Y011666D01*
X005400Y011824D02*
X004531Y011824D01*
X004680Y011983D02*
X005400Y011983D01*
X005323Y012141D02*
X004680Y012141D01*
X004680Y012300D02*
X005165Y012300D01*
X005481Y012775D02*
X008766Y012775D01*
X008618Y012617D02*
X005639Y012617D01*
X005798Y012458D02*
X008570Y012458D01*
X008570Y012300D02*
X005934Y012300D01*
X005960Y012141D02*
X008570Y012141D01*
X008570Y011983D02*
X005960Y011983D01*
X005960Y011824D02*
X008570Y011824D01*
X008570Y011666D02*
X005960Y011666D01*
X005960Y011507D02*
X008570Y011507D01*
X008570Y011349D02*
X005960Y011349D01*
X005960Y011190D02*
X008570Y011190D01*
X008570Y011032D02*
X005960Y011032D01*
X005960Y010873D02*
X008570Y010873D01*
X008570Y010715D02*
X005960Y010715D01*
X005960Y010556D02*
X008570Y010556D01*
X008570Y010398D02*
X005960Y010398D01*
X005960Y010239D02*
X008570Y010239D01*
X008570Y010081D02*
X005960Y010081D01*
X006084Y009922D02*
X008570Y009922D01*
X008570Y009764D02*
X006242Y009764D01*
X006401Y009605D02*
X008570Y009605D01*
X008570Y009447D02*
X006559Y009447D01*
X006718Y009288D02*
X008570Y009288D01*
X008570Y009130D02*
X006876Y009130D01*
X007035Y008971D02*
X008630Y008971D01*
X008788Y008813D02*
X007193Y008813D01*
X007352Y008654D02*
X008947Y008654D01*
X009105Y008496D02*
X007510Y008496D01*
X007669Y008337D02*
X009317Y008337D01*
X009490Y009130D02*
X009820Y009130D01*
X009737Y009288D02*
X009331Y009288D01*
X009290Y009447D02*
X009720Y009447D01*
X009720Y009605D02*
X009290Y009605D01*
X009290Y009764D02*
X009720Y009764D01*
X009720Y009922D02*
X009290Y009922D01*
X009290Y010081D02*
X009740Y010081D01*
X009828Y010239D02*
X009290Y010239D01*
X009290Y010398D02*
X009900Y010398D01*
X009900Y010556D02*
X009290Y010556D01*
X009290Y010715D02*
X009900Y010715D01*
X009836Y010873D02*
X009290Y010873D01*
X009290Y011032D02*
X009720Y011032D01*
X009720Y011190D02*
X009290Y011190D01*
X009290Y011349D02*
X009720Y011349D01*
X009856Y011507D02*
X009290Y011507D01*
X010180Y011180D02*
X010180Y009680D01*
X010640Y009605D02*
X010720Y009605D01*
X010720Y009447D02*
X010640Y009447D01*
X010623Y009288D02*
X010737Y009288D01*
X010820Y009130D02*
X010540Y009130D01*
X010640Y009764D02*
X010720Y009764D01*
X010720Y009922D02*
X010640Y009922D01*
X010620Y010081D02*
X010740Y010081D01*
X010828Y010239D02*
X010532Y010239D01*
X010460Y010398D02*
X010900Y010398D01*
X010900Y010556D02*
X010460Y010556D01*
X010460Y010715D02*
X010900Y010715D01*
X010836Y010873D02*
X010524Y010873D01*
X010640Y011032D02*
X010720Y011032D01*
X010720Y011190D02*
X010640Y011190D01*
X010640Y011349D02*
X010720Y011349D01*
X010856Y011507D02*
X010504Y011507D01*
X010475Y011824D02*
X010885Y011824D01*
X010727Y011983D02*
X010633Y011983D01*
X010180Y012180D02*
X010180Y012680D01*
X016180Y018680D01*
X015070Y019115D02*
X014761Y019115D01*
X014918Y019274D02*
X015070Y019274D01*
X015070Y019432D02*
X014960Y019432D01*
X014960Y019591D02*
X015070Y019591D01*
X015070Y019749D02*
X014960Y019749D01*
X014960Y019908D02*
X015070Y019908D01*
X015070Y020066D02*
X014960Y020066D01*
X014960Y020225D02*
X015070Y020225D01*
X015070Y020383D02*
X014960Y020383D01*
X014960Y020542D02*
X015070Y020542D01*
X015070Y020700D02*
X014960Y020700D01*
X014960Y020859D02*
X015114Y020859D01*
X015258Y021017D02*
X014960Y021017D01*
X015072Y021176D02*
X015416Y021176D01*
X015575Y021334D02*
X015230Y021334D01*
X015389Y021493D02*
X015733Y021493D01*
X015892Y021651D02*
X015547Y021651D01*
X015706Y021810D02*
X016050Y021810D01*
X016209Y021968D02*
X015864Y021968D01*
X016023Y022127D02*
X016367Y022127D01*
X016526Y022285D02*
X016181Y022285D01*
X016340Y022444D02*
X016684Y022444D01*
X016843Y022602D02*
X016498Y022602D01*
X016657Y022761D02*
X017001Y022761D01*
X017160Y022919D02*
X016815Y022919D01*
X016974Y023078D02*
X017318Y023078D01*
X017477Y023236D02*
X017132Y023236D01*
X017291Y023395D02*
X017635Y023395D01*
X017794Y023553D02*
X017449Y023553D01*
X017608Y023712D02*
X017952Y023712D01*
X018111Y023870D02*
X017766Y023870D01*
X017925Y024029D02*
X018269Y024029D01*
X018428Y024187D02*
X018083Y024187D01*
X018242Y024346D02*
X018586Y024346D01*
X018772Y024504D02*
X018400Y024504D01*
X018559Y024663D02*
X019955Y024663D01*
X019832Y024821D02*
X018717Y024821D01*
X018876Y024980D02*
X019680Y024980D01*
X019680Y025138D02*
X019034Y025138D01*
X019193Y025297D02*
X019680Y025297D01*
X019748Y025455D02*
X019351Y025455D01*
X019510Y025614D02*
X019906Y025614D01*
X019668Y025772D02*
X020820Y025772D01*
X020820Y025614D02*
X020454Y025614D01*
X020820Y025931D02*
X019827Y025931D01*
X019945Y026089D02*
X020820Y026089D01*
X020820Y026248D02*
X019960Y026248D01*
X019960Y026406D02*
X020820Y026406D01*
X020820Y026565D02*
X020072Y026565D01*
X020156Y026723D02*
X020820Y026723D01*
X020820Y026882D02*
X020180Y026882D01*
X020180Y027040D02*
X020820Y027040D01*
X020820Y027199D02*
X020180Y027199D01*
X020180Y027357D02*
X020820Y027357D01*
X020820Y027516D02*
X020180Y027516D01*
X020141Y027674D02*
X020677Y027674D01*
X020518Y027833D02*
X020035Y027833D01*
X020201Y028150D02*
X019040Y028150D01*
X019040Y028308D02*
X020043Y028308D01*
X020360Y027991D02*
X019040Y027991D01*
X019040Y027833D02*
X019325Y027833D01*
X019219Y027674D02*
X019141Y027674D01*
X019180Y027516D02*
X019180Y027516D01*
X019180Y027357D02*
X019180Y027357D01*
X019180Y027199D02*
X019180Y027199D01*
X019180Y027040D02*
X019180Y027040D01*
X019180Y026882D02*
X019180Y026882D01*
X019204Y026723D02*
X019156Y026723D01*
X019072Y026565D02*
X019288Y026565D01*
X019400Y026406D02*
X018842Y026406D01*
X018518Y026406D02*
X017756Y026406D01*
X017792Y026412D02*
X017718Y026400D01*
X017700Y026400D01*
X017700Y027160D01*
X017660Y027160D01*
X017660Y027200D01*
X017200Y027200D01*
X017200Y027518D01*
X017212Y027592D01*
X017235Y027664D01*
X017269Y027732D01*
X017314Y027793D01*
X017367Y027846D01*
X017428Y027891D01*
X017496Y027925D01*
X017568Y027948D01*
X017642Y027960D01*
X017660Y027960D01*
X017660Y027200D01*
X017700Y027200D01*
X017700Y027960D01*
X017718Y027960D01*
X017792Y027948D01*
X017864Y027925D01*
X017932Y027891D01*
X017993Y027846D01*
X018046Y027793D01*
X018091Y027732D01*
X018125Y027664D01*
X018148Y027592D01*
X018160Y027518D01*
X018160Y027200D01*
X017700Y027200D01*
X017700Y027160D01*
X018160Y027160D01*
X018160Y026842D01*
X018148Y026768D01*
X018125Y026696D01*
X018091Y026628D01*
X018046Y026567D01*
X017993Y026514D01*
X017932Y026469D01*
X017864Y026435D01*
X017792Y026412D01*
X017700Y026406D02*
X017660Y026406D01*
X017660Y026400D02*
X017642Y026400D01*
X017568Y026412D01*
X017496Y026435D01*
X017428Y026469D01*
X017367Y026514D01*
X017314Y026567D01*
X017269Y026628D01*
X017235Y026696D01*
X017212Y026768D01*
X017200Y026842D01*
X017200Y027160D01*
X017660Y027160D01*
X017660Y026400D01*
X017604Y026406D02*
X015960Y026406D01*
X015960Y026248D02*
X019352Y026248D01*
X019193Y026089D02*
X015960Y026089D01*
X015960Y025931D02*
X019035Y025931D01*
X018876Y025772D02*
X015960Y025772D01*
X015960Y025614D02*
X018718Y025614D01*
X018559Y025455D02*
X015960Y025455D01*
X015960Y025297D02*
X018401Y025297D01*
X018242Y025138D02*
X015960Y025138D01*
X015960Y024980D02*
X018084Y024980D01*
X017925Y024821D02*
X015960Y024821D01*
X015960Y024663D02*
X017767Y024663D01*
X017608Y024504D02*
X015960Y024504D01*
X015960Y024346D02*
X017450Y024346D01*
X017291Y024187D02*
X015960Y024187D01*
X015960Y024029D02*
X017133Y024029D01*
X016974Y023870D02*
X015960Y023870D01*
X015960Y023712D02*
X016816Y023712D01*
X016657Y023553D02*
X015930Y023553D01*
X015791Y023395D02*
X016499Y023395D01*
X016340Y023236D02*
X015632Y023236D01*
X015474Y023078D02*
X016182Y023078D01*
X016023Y022919D02*
X015315Y022919D01*
X015157Y022761D02*
X015865Y022761D01*
X015706Y022602D02*
X014998Y022602D01*
X014840Y022444D02*
X015548Y022444D01*
X015389Y022285D02*
X014681Y022285D01*
X014523Y022127D02*
X015231Y022127D01*
X015072Y021968D02*
X014364Y021968D01*
X014210Y021810D02*
X014914Y021810D01*
X014755Y021651D02*
X014210Y021651D01*
X014210Y021493D02*
X014597Y021493D01*
X014441Y021334D02*
X014210Y021334D01*
X014210Y021176D02*
X014400Y021176D01*
X014400Y021017D02*
X014210Y021017D01*
X014210Y020859D02*
X014400Y020859D01*
X014400Y020700D02*
X014210Y020700D01*
X014210Y020542D02*
X014400Y020542D01*
X014400Y020383D02*
X014210Y020383D01*
X014210Y020225D02*
X014400Y020225D01*
X014400Y020066D02*
X014186Y020066D01*
X014054Y019908D02*
X014400Y019908D01*
X014400Y019749D02*
X013895Y019749D01*
X013737Y019591D02*
X014400Y019591D01*
X014286Y019432D02*
X013578Y019432D01*
X013420Y019274D02*
X014128Y019274D01*
X013969Y019115D02*
X013261Y019115D01*
X013103Y018957D02*
X013811Y018957D01*
X013652Y018798D02*
X012944Y018798D01*
X012786Y018640D02*
X013494Y018640D01*
X013335Y018481D02*
X012627Y018481D01*
X012469Y018323D02*
X013177Y018323D01*
X013018Y018164D02*
X012310Y018164D01*
X012152Y018006D02*
X012860Y018006D01*
X012701Y017847D02*
X011993Y017847D01*
X011835Y017689D02*
X012543Y017689D01*
X012384Y017530D02*
X011676Y017530D01*
X011518Y017372D02*
X012226Y017372D01*
X012067Y017213D02*
X011359Y017213D01*
X011201Y017055D02*
X011909Y017055D01*
X011750Y016896D02*
X007292Y016896D01*
X007134Y016738D02*
X011592Y016738D01*
X011433Y016579D02*
X006975Y016579D01*
X006817Y016421D02*
X011275Y016421D01*
X011116Y016262D02*
X006658Y016262D01*
X006500Y016104D02*
X010958Y016104D01*
X010799Y015945D02*
X006341Y015945D01*
X006183Y015787D02*
X010641Y015787D01*
X010482Y015628D02*
X006024Y015628D01*
X005866Y015470D02*
X010324Y015470D01*
X010165Y015311D02*
X005707Y015311D01*
X005549Y015153D02*
X010007Y015153D01*
X009848Y014994D02*
X005390Y014994D01*
X005180Y015180D02*
X007180Y017180D01*
X010930Y017180D01*
X013930Y020180D01*
X013930Y021930D01*
X015680Y023680D01*
X015680Y027180D01*
X016072Y026565D02*
X017317Y026565D01*
X017226Y026723D02*
X016156Y026723D01*
X016180Y026882D02*
X017200Y026882D01*
X017200Y027040D02*
X016180Y027040D01*
X016180Y027199D02*
X017660Y027199D01*
X017700Y027199D02*
X018180Y027199D01*
X018180Y027357D02*
X018160Y027357D01*
X018160Y027516D02*
X018180Y027516D01*
X018219Y027674D02*
X018120Y027674D01*
X018006Y027833D02*
X018320Y027833D01*
X018320Y027991D02*
X015040Y027991D01*
X015040Y027833D02*
X015325Y027833D01*
X015219Y027674D02*
X015141Y027674D01*
X015180Y027516D02*
X015180Y027516D01*
X015180Y027357D02*
X015180Y027357D01*
X015180Y027199D02*
X015180Y027199D01*
X015180Y027040D02*
X015180Y027040D01*
X015180Y026882D02*
X015180Y026882D01*
X015204Y026723D02*
X015156Y026723D01*
X015072Y026565D02*
X015288Y026565D01*
X015400Y026406D02*
X014842Y026406D01*
X014518Y026406D02*
X013756Y026406D01*
X013792Y026412D02*
X013718Y026400D01*
X013700Y026400D01*
X013700Y027160D01*
X013660Y027160D01*
X013660Y027200D01*
X013200Y027200D01*
X013200Y027518D01*
X013212Y027592D01*
X013235Y027664D01*
X013269Y027732D01*
X013314Y027793D01*
X013367Y027846D01*
X013428Y027891D01*
X013496Y027925D01*
X013568Y027948D01*
X013642Y027960D01*
X013660Y027960D01*
X013660Y027200D01*
X013700Y027200D01*
X013700Y027960D01*
X013718Y027960D01*
X013792Y027948D01*
X013864Y027925D01*
X013932Y027891D01*
X013993Y027846D01*
X014046Y027793D01*
X014091Y027732D01*
X014125Y027664D01*
X014148Y027592D01*
X014160Y027518D01*
X014160Y027200D01*
X013700Y027200D01*
X013700Y027160D01*
X014160Y027160D01*
X014160Y026842D01*
X014148Y026768D01*
X014125Y026696D01*
X014091Y026628D01*
X014046Y026567D01*
X013993Y026514D01*
X013932Y026469D01*
X013864Y026435D01*
X013792Y026412D01*
X013700Y026406D02*
X013660Y026406D01*
X013660Y026400D02*
X013642Y026400D01*
X013568Y026412D01*
X013496Y026435D01*
X013428Y026469D01*
X013367Y026514D01*
X013314Y026567D01*
X013269Y026628D01*
X013235Y026696D01*
X013212Y026768D01*
X013200Y026842D01*
X013200Y027160D01*
X013660Y027160D01*
X013660Y026400D01*
X013604Y026406D02*
X005915Y026406D01*
X005757Y026248D02*
X015400Y026248D01*
X015400Y026089D02*
X005598Y026089D01*
X005440Y025931D02*
X015400Y025931D01*
X015400Y025772D02*
X005281Y025772D01*
X005123Y025614D02*
X015400Y025614D01*
X015400Y025455D02*
X004964Y025455D01*
X004806Y025297D02*
X015400Y025297D01*
X015400Y025138D02*
X006623Y025138D01*
X006238Y025138D02*
X005623Y025138D01*
X005238Y025138D02*
X004680Y025138D01*
X004680Y024980D02*
X005079Y024980D01*
X004970Y024821D02*
X004528Y024821D01*
X004405Y024663D02*
X004903Y024663D01*
X005446Y024187D02*
X011164Y024187D01*
X011322Y024029D02*
X005288Y024029D01*
X005122Y023870D02*
X011481Y023870D01*
X011639Y023712D02*
X004419Y023712D01*
X004379Y023660D02*
X004660Y023379D01*
X004660Y023200D01*
X004200Y023200D01*
X004200Y023660D01*
X004379Y023660D01*
X004486Y023553D02*
X011798Y023553D01*
X011820Y023395D02*
X004644Y023395D01*
X004660Y023236D02*
X011820Y023236D01*
X011820Y023078D02*
X011461Y023078D01*
X011379Y023160D02*
X011660Y022879D01*
X011660Y022481D01*
X011379Y022200D01*
X011096Y022200D01*
X011056Y022160D01*
X011379Y022160D01*
X011660Y021879D01*
X011660Y021481D01*
X011460Y021281D01*
X011460Y019124D01*
X011417Y019021D01*
X011339Y018943D01*
X010339Y017943D01*
X010236Y017900D01*
X004607Y017900D01*
X004387Y017680D01*
X004680Y017387D01*
X004680Y016973D01*
X004387Y016680D01*
X004680Y016387D01*
X004680Y015973D01*
X004387Y015680D01*
X003973Y015680D01*
X003680Y015973D01*
X003680Y016387D01*
X003973Y016680D01*
X004387Y016680D01*
X003973Y016680D01*
X003680Y016973D01*
X003680Y017387D01*
X003973Y017680D01*
X004387Y017680D01*
X003973Y017680D01*
X003680Y017973D01*
X003387Y017680D01*
X003680Y017387D01*
X003680Y016973D01*
X003387Y016680D01*
X003680Y016387D01*
X003680Y015973D01*
X003387Y015680D01*
X002973Y015680D01*
X002680Y015973D01*
X002680Y016387D01*
X002973Y016680D01*
X003387Y016680D01*
X002973Y016680D01*
X002680Y016973D01*
X002680Y017387D01*
X002973Y017680D01*
X003387Y017680D01*
X002973Y017680D01*
X002680Y017973D01*
X002680Y018387D01*
X002973Y018680D01*
X003387Y018680D01*
X003680Y018387D01*
X003680Y017973D01*
X003680Y018387D01*
X003973Y018680D01*
X003680Y018973D01*
X003680Y019387D01*
X003973Y019680D01*
X004387Y019680D01*
X004680Y019387D01*
X004680Y018973D01*
X004387Y018680D01*
X003973Y018680D01*
X004387Y018680D01*
X004607Y018460D01*
X010064Y018460D01*
X010900Y019296D01*
X010900Y020254D01*
X010089Y019443D01*
X009986Y019400D01*
X005801Y019400D01*
X005621Y019220D01*
X005239Y019220D01*
X004970Y019489D01*
X004970Y019744D01*
X004814Y019900D01*
X004607Y019900D01*
X004387Y019680D01*
X003973Y019680D01*
X003680Y019973D01*
X003387Y019680D01*
X002973Y019680D01*
X002680Y019973D01*
X002680Y020387D01*
X002973Y020680D01*
X002680Y020973D01*
X002680Y021387D01*
X002973Y021680D01*
X002680Y021973D01*
X002680Y022387D01*
X002973Y022680D01*
X003387Y022680D01*
X003680Y022387D01*
X003973Y022680D01*
X004387Y022680D01*
X004607Y022460D01*
X006236Y022460D01*
X006339Y022417D01*
X006796Y021960D01*
X008781Y021960D01*
X008981Y022160D01*
X009379Y022160D01*
X009660Y021879D01*
X009660Y021481D01*
X009379Y021200D01*
X008981Y021200D01*
X008781Y021400D01*
X006624Y021400D01*
X006521Y021443D01*
X006443Y021521D01*
X006064Y021900D01*
X004607Y021900D01*
X004387Y021680D01*
X003973Y021680D01*
X003680Y021973D01*
X003680Y022387D01*
X003680Y021973D01*
X003387Y021680D01*
X002973Y021680D01*
X003387Y021680D01*
X003680Y021387D01*
X003680Y020973D01*
X003387Y020680D01*
X002973Y020680D01*
X003387Y020680D01*
X003680Y020387D01*
X003680Y019973D01*
X003680Y020387D01*
X003973Y020680D01*
X003680Y020973D01*
X003680Y021387D01*
X003973Y021680D01*
X004387Y021680D01*
X004607Y021460D01*
X005986Y021460D01*
X006089Y021417D01*
X006366Y021140D01*
X006621Y021140D01*
X006801Y020960D01*
X009814Y020960D01*
X009900Y021046D01*
X009900Y021281D01*
X009700Y021481D01*
X009700Y021879D01*
X009981Y022160D01*
X010379Y022160D01*
X010400Y022139D01*
X010400Y022221D01*
X010379Y022200D01*
X009981Y022200D01*
X009700Y022481D01*
X009700Y022879D01*
X009981Y023160D01*
X010379Y023160D01*
X010660Y022879D01*
X010660Y022556D01*
X010700Y022596D01*
X010700Y022879D01*
X010981Y023160D01*
X011379Y023160D01*
X011620Y022919D02*
X011740Y022919D01*
X011700Y022761D02*
X011660Y022761D01*
X011660Y022602D02*
X011700Y022602D01*
X011738Y022444D02*
X011622Y022444D01*
X011464Y022285D02*
X011896Y022285D01*
X011989Y022140D02*
X011720Y021871D01*
X011720Y021690D01*
X012170Y021690D01*
X012170Y021670D01*
X011720Y021670D01*
X011720Y021489D01*
X011989Y021220D01*
X012170Y021220D01*
X012170Y021670D01*
X012190Y021670D01*
X012190Y021220D01*
X012371Y021220D01*
X012640Y021489D01*
X012640Y021670D01*
X012190Y021670D01*
X012190Y021690D01*
X012190Y022140D01*
X012371Y022140D01*
X012640Y021871D01*
X012640Y021690D01*
X012190Y021690D01*
X012170Y021690D01*
X012170Y022140D01*
X011989Y022140D01*
X011976Y022127D02*
X011412Y022127D01*
X011571Y021968D02*
X011817Y021968D01*
X011720Y021810D02*
X011660Y021810D01*
X011660Y021651D02*
X011720Y021651D01*
X011720Y021493D02*
X011660Y021493D01*
X011513Y021334D02*
X011875Y021334D01*
X012170Y021334D02*
X012190Y021334D01*
X012190Y021493D02*
X012170Y021493D01*
X012170Y021651D02*
X012190Y021651D01*
X012190Y021810D02*
X012170Y021810D01*
X012170Y021968D02*
X012190Y021968D01*
X012190Y022127D02*
X012170Y022127D01*
X012384Y022127D02*
X012948Y022127D01*
X012989Y022220D02*
X012720Y022489D01*
X012720Y022670D01*
X013170Y022670D01*
X013170Y022690D01*
X012720Y022690D01*
X012720Y022871D01*
X012989Y023140D01*
X013170Y023140D01*
X013170Y022690D01*
X013190Y022690D01*
X013190Y023140D01*
X013371Y023140D01*
X013640Y022871D01*
X013640Y022690D01*
X013190Y022690D01*
X013190Y022670D01*
X013170Y022670D01*
X013170Y022220D01*
X012989Y022220D01*
X012924Y022285D02*
X012464Y022285D01*
X012622Y022444D02*
X012766Y022444D01*
X012720Y022602D02*
X012660Y022602D01*
X012660Y022761D02*
X012720Y022761D01*
X012768Y022919D02*
X012620Y022919D01*
X012540Y023078D02*
X012927Y023078D01*
X013170Y023078D02*
X013190Y023078D01*
X013190Y022919D02*
X013170Y022919D01*
X013170Y022761D02*
X013190Y022761D01*
X013190Y022670D02*
X013640Y022670D01*
X013640Y022489D01*
X013371Y022220D01*
X013190Y022220D01*
X013190Y022670D01*
X013190Y022602D02*
X013170Y022602D01*
X013170Y022444D02*
X013190Y022444D01*
X013190Y022285D02*
X013170Y022285D01*
X013436Y022285D02*
X013889Y022285D01*
X013731Y022127D02*
X013412Y022127D01*
X013571Y021968D02*
X013650Y021968D01*
X013594Y022444D02*
X014048Y022444D01*
X014206Y022602D02*
X013640Y022602D01*
X013640Y022761D02*
X014365Y022761D01*
X014523Y022919D02*
X013592Y022919D01*
X013433Y023078D02*
X014682Y023078D01*
X014840Y023236D02*
X012540Y023236D01*
X012540Y023395D02*
X014999Y023395D01*
X015157Y023553D02*
X012540Y023553D01*
X012540Y023712D02*
X015316Y023712D01*
X015400Y023870D02*
X012491Y023870D01*
X012341Y024029D02*
X015400Y024029D01*
X015400Y024187D02*
X012182Y024187D01*
X012024Y024346D02*
X015400Y024346D01*
X015400Y024504D02*
X011865Y024504D01*
X011707Y024663D02*
X015400Y024663D01*
X015400Y024821D02*
X011548Y024821D01*
X011390Y024980D02*
X015400Y024980D01*
X014288Y026565D02*
X014043Y026565D01*
X014134Y026723D02*
X014204Y026723D01*
X014180Y026882D02*
X014160Y026882D01*
X014160Y027040D02*
X014180Y027040D01*
X014180Y027199D02*
X013700Y027199D01*
X013660Y027199D02*
X009399Y027199D01*
X009385Y027185D02*
X009180Y027185D01*
X008975Y027185D01*
X008685Y027475D01*
X008685Y027680D01*
X009180Y027680D01*
X009180Y027680D01*
X009180Y027185D01*
X009180Y027680D01*
X009180Y027680D01*
X009180Y027680D01*
X009675Y027680D01*
X009675Y027475D01*
X009385Y027185D01*
X009180Y027199D02*
X009180Y027199D01*
X009180Y027357D02*
X009180Y027357D01*
X009180Y027516D02*
X009180Y027516D01*
X009180Y027674D02*
X009180Y027674D01*
X008803Y027357D02*
X006866Y027357D01*
X006708Y027199D02*
X008961Y027199D01*
X008685Y027516D02*
X007025Y027516D01*
X007183Y027674D02*
X008685Y027674D01*
X008685Y027833D02*
X007342Y027833D01*
X007500Y027991D02*
X008791Y027991D01*
X008950Y028150D02*
X007659Y028150D01*
X007817Y028308D02*
X008824Y028308D01*
X009410Y028150D02*
X014320Y028150D01*
X014320Y028308D02*
X011459Y028308D01*
X011362Y028120D02*
X011620Y027862D01*
X011620Y027680D01*
X011180Y027680D01*
X011180Y027680D01*
X011180Y028120D01*
X010998Y028120D01*
X010740Y027862D01*
X010740Y027680D01*
X011180Y027680D01*
X011180Y027680D01*
X011180Y027680D01*
X011180Y028120D01*
X011362Y028120D01*
X011491Y027991D02*
X014320Y027991D01*
X014320Y027833D02*
X014006Y027833D01*
X014120Y027674D02*
X014219Y027674D01*
X014180Y027516D02*
X014160Y027516D01*
X014160Y027357D02*
X014180Y027357D01*
X013700Y027357D02*
X013660Y027357D01*
X013660Y027516D02*
X013700Y027516D01*
X013700Y027674D02*
X013660Y027674D01*
X013660Y027833D02*
X013700Y027833D01*
X013354Y027833D02*
X011620Y027833D01*
X011620Y027680D02*
X011620Y027498D01*
X011362Y027240D01*
X011180Y027240D01*
X010998Y027240D01*
X010740Y027498D01*
X010740Y027680D01*
X011180Y027680D01*
X011180Y027240D01*
X011180Y027680D01*
X011180Y027680D01*
X011620Y027680D01*
X011620Y027674D02*
X013240Y027674D01*
X013200Y027516D02*
X011620Y027516D01*
X011479Y027357D02*
X013200Y027357D01*
X013200Y027040D02*
X006549Y027040D01*
X006391Y026882D02*
X013200Y026882D01*
X013226Y026723D02*
X006232Y026723D01*
X006074Y026565D02*
X013317Y026565D01*
X013660Y026565D02*
X013700Y026565D01*
X013700Y026723D02*
X013660Y026723D01*
X013660Y026882D02*
X013700Y026882D01*
X013700Y027040D02*
X013660Y027040D01*
X015040Y028150D02*
X018320Y028150D01*
X018320Y028308D02*
X015040Y028308D01*
X016035Y027833D02*
X017354Y027833D01*
X017240Y027674D02*
X016141Y027674D01*
X016180Y027516D02*
X017200Y027516D01*
X017200Y027357D02*
X016180Y027357D01*
X017660Y027357D02*
X017700Y027357D01*
X017700Y027516D02*
X017660Y027516D01*
X017660Y027674D02*
X017700Y027674D01*
X017700Y027833D02*
X017660Y027833D01*
X017660Y027040D02*
X017700Y027040D01*
X017700Y026882D02*
X017660Y026882D01*
X017660Y026723D02*
X017700Y026723D01*
X017700Y026565D02*
X017660Y026565D01*
X018043Y026565D02*
X018288Y026565D01*
X018204Y026723D02*
X018134Y026723D01*
X018160Y026882D02*
X018180Y026882D01*
X018180Y027040D02*
X018160Y027040D01*
X019680Y027180D02*
X019680Y026180D01*
X014680Y021180D01*
X014680Y019430D01*
X009930Y014680D01*
X003680Y014680D01*
X003180Y015180D01*
X003598Y015470D02*
X003762Y015470D01*
X003680Y015387D02*
X003680Y015076D01*
X003680Y015076D01*
X003680Y015387D01*
X003680Y015311D02*
X003680Y015311D01*
X003680Y015153D02*
X003680Y015153D01*
X004180Y015180D02*
X005180Y015180D01*
X005074Y015470D02*
X004598Y015470D01*
X004439Y015628D02*
X005232Y015628D01*
X005391Y015787D02*
X004494Y015787D01*
X004652Y015945D02*
X005549Y015945D01*
X005708Y016104D02*
X004680Y016104D01*
X004680Y016262D02*
X005866Y016262D01*
X006025Y016421D02*
X004647Y016421D01*
X004488Y016579D02*
X006183Y016579D01*
X006342Y016738D02*
X004445Y016738D01*
X004603Y016896D02*
X006500Y016896D01*
X006659Y017055D02*
X004680Y017055D01*
X004680Y017213D02*
X006817Y017213D01*
X006976Y017372D02*
X004680Y017372D01*
X004537Y017530D02*
X010884Y017530D01*
X011043Y017689D02*
X004396Y017689D01*
X004554Y017847D02*
X011201Y017847D01*
X011360Y018006D02*
X010402Y018006D01*
X010560Y018164D02*
X011518Y018164D01*
X011677Y018323D02*
X010719Y018323D01*
X010877Y018481D02*
X011835Y018481D01*
X011994Y018640D02*
X011036Y018640D01*
X011194Y018798D02*
X012152Y018798D01*
X012311Y018957D02*
X011353Y018957D01*
X011456Y019115D02*
X012469Y019115D01*
X012628Y019274D02*
X011460Y019274D01*
X011460Y019432D02*
X012786Y019432D01*
X012945Y019591D02*
X011460Y019591D01*
X011460Y019749D02*
X013103Y019749D01*
X013262Y019908D02*
X011460Y019908D01*
X011460Y020066D02*
X013420Y020066D01*
X013579Y020225D02*
X011460Y020225D01*
X011460Y020383D02*
X013650Y020383D01*
X013650Y020542D02*
X011460Y020542D01*
X011460Y020700D02*
X013650Y020700D01*
X013650Y020859D02*
X011460Y020859D01*
X011460Y021017D02*
X013650Y021017D01*
X013650Y021176D02*
X011460Y021176D01*
X011180Y021680D02*
X011180Y019180D01*
X010180Y018180D01*
X004180Y018180D01*
X004586Y018481D02*
X010085Y018481D01*
X010244Y018640D02*
X004428Y018640D01*
X004505Y018798D02*
X010402Y018798D01*
X010561Y018957D02*
X004664Y018957D01*
X004680Y019115D02*
X010719Y019115D01*
X010878Y019274D02*
X005674Y019274D01*
X005430Y019680D02*
X004930Y020180D01*
X004180Y020180D01*
X004526Y020542D02*
X005970Y020542D01*
X005970Y020489D02*
X005970Y020744D01*
X005814Y020900D01*
X004607Y020900D01*
X004387Y020680D01*
X003973Y020680D01*
X004387Y020680D01*
X004607Y020460D01*
X004986Y020460D01*
X005089Y020417D01*
X005366Y020140D01*
X005621Y020140D01*
X005801Y019960D01*
X009814Y019960D01*
X010400Y020546D01*
X010400Y020754D01*
X010339Y020693D01*
X010089Y020443D01*
X009986Y020400D01*
X006801Y020400D01*
X006621Y020220D01*
X006239Y020220D01*
X005970Y020489D01*
X006076Y020383D02*
X005123Y020383D01*
X005281Y020225D02*
X006235Y020225D01*
X006430Y020680D02*
X005930Y021180D01*
X004180Y021180D01*
X004566Y020859D02*
X005855Y020859D01*
X005970Y020700D02*
X004407Y020700D01*
X003953Y020700D02*
X003407Y020700D01*
X003526Y020542D02*
X003834Y020542D01*
X003680Y020383D02*
X003680Y020383D01*
X003680Y020225D02*
X003680Y020225D01*
X003680Y020066D02*
X003680Y020066D01*
X003745Y019908D02*
X003615Y019908D01*
X003456Y019749D02*
X003904Y019749D01*
X003883Y019591D02*
X003477Y019591D01*
X003387Y019680D02*
X003680Y019387D01*
X003680Y018973D01*
X003387Y018680D01*
X002973Y018680D01*
X002680Y018973D01*
X002680Y019387D01*
X002973Y019680D01*
X003387Y019680D01*
X003635Y019432D02*
X003725Y019432D01*
X003680Y019274D02*
X003680Y019274D01*
X003680Y019115D02*
X003680Y019115D01*
X003696Y018957D02*
X003664Y018957D01*
X003505Y018798D02*
X003855Y018798D01*
X003932Y018640D02*
X003428Y018640D01*
X003586Y018481D02*
X003774Y018481D01*
X003680Y018323D02*
X003680Y018323D01*
X003680Y018164D02*
X003680Y018164D01*
X003680Y018006D02*
X003680Y018006D01*
X003806Y017847D02*
X003554Y017847D01*
X003396Y017689D02*
X003964Y017689D01*
X003823Y017530D02*
X003537Y017530D01*
X003680Y017372D02*
X003680Y017372D01*
X003680Y017213D02*
X003680Y017213D01*
X003680Y017055D02*
X003680Y017055D01*
X003757Y016896D02*
X003603Y016896D01*
X003445Y016738D02*
X003915Y016738D01*
X003872Y016579D02*
X003488Y016579D01*
X003647Y016421D02*
X003713Y016421D01*
X003680Y016262D02*
X003680Y016262D01*
X003680Y016104D02*
X003680Y016104D01*
X003708Y015945D02*
X003652Y015945D01*
X003494Y015787D02*
X003866Y015787D01*
X003921Y015628D02*
X003439Y015628D01*
X002921Y015628D02*
X001660Y015628D01*
X001660Y015470D02*
X002762Y015470D01*
X002680Y015311D02*
X001660Y015311D01*
X001660Y015153D02*
X002680Y015153D01*
X002680Y014994D02*
X001660Y014994D01*
X001660Y014836D02*
X002817Y014836D01*
X002973Y014680D02*
X003284Y014680D01*
X003284Y014680D01*
X002973Y014680D01*
X002970Y014677D02*
X001660Y014677D01*
X001660Y014519D02*
X002811Y014519D01*
X002680Y014360D02*
X001660Y014360D01*
X001660Y014202D02*
X002680Y014202D01*
X002680Y014043D02*
X001660Y014043D01*
X001660Y013885D02*
X002768Y013885D01*
X002927Y013726D02*
X001660Y013726D01*
X001660Y013568D02*
X002860Y013568D01*
X002702Y013409D02*
X001660Y013409D01*
X001660Y013251D02*
X002680Y013251D01*
X002680Y013092D02*
X001660Y013092D01*
X001660Y012934D02*
X002719Y012934D01*
X002878Y012775D02*
X001660Y012775D01*
X001660Y012617D02*
X002909Y012617D01*
X002973Y012680D02*
X003284Y012680D01*
X003284Y012680D01*
X002973Y012680D01*
X002751Y012458D02*
X001660Y012458D01*
X001660Y012300D02*
X002680Y012300D01*
X002680Y012141D02*
X001660Y012141D01*
X001660Y011983D02*
X002680Y011983D01*
X002829Y011824D02*
X001660Y011824D01*
X001660Y011666D02*
X002958Y011666D01*
X002800Y011507D02*
X001660Y011507D01*
X001660Y011349D02*
X002680Y011349D01*
X002680Y011190D02*
X001660Y011190D01*
X001660Y011032D02*
X002680Y011032D01*
X002780Y010873D02*
X001660Y010873D01*
X001660Y010715D02*
X002938Y010715D01*
X002849Y010556D02*
X001660Y010556D01*
X001660Y010398D02*
X002690Y010398D01*
X002680Y010239D02*
X001660Y010239D01*
X001660Y010081D02*
X002680Y010081D01*
X002731Y009922D02*
X001660Y009922D01*
X001660Y009764D02*
X002889Y009764D01*
X002898Y009605D02*
X001660Y009605D01*
X001660Y009447D02*
X002342Y009447D01*
X002142Y009288D02*
X001660Y009288D01*
X001660Y009130D02*
X001984Y009130D01*
X001900Y008971D02*
X001660Y008971D01*
X001660Y008813D02*
X001900Y008813D01*
X001900Y008654D02*
X001660Y008654D01*
X001660Y008496D02*
X001900Y008496D01*
X001900Y008337D02*
X001660Y008337D01*
X001660Y008179D02*
X001900Y008179D01*
X001900Y008020D02*
X001660Y008020D01*
X001660Y007862D02*
X001900Y007862D01*
X001900Y007703D02*
X001660Y007703D01*
X001660Y007545D02*
X001900Y007545D01*
X001900Y007386D02*
X001660Y007386D01*
X001660Y007228D02*
X001900Y007228D01*
X001900Y007069D02*
X001660Y007069D01*
X001660Y006911D02*
X001900Y006911D01*
X001900Y006752D02*
X001660Y006752D01*
X001660Y006594D02*
X001900Y006594D01*
X001900Y006435D02*
X001660Y006435D01*
X001660Y006277D02*
X001900Y006277D01*
X001900Y006118D02*
X001660Y006118D01*
X001660Y005960D02*
X001900Y005960D01*
X001900Y005801D02*
X001660Y005801D01*
X001660Y005643D02*
X001900Y005643D01*
X001980Y005484D02*
X001660Y005484D01*
X001660Y005326D02*
X002139Y005326D01*
X002297Y005167D02*
X001660Y005167D01*
X001660Y005009D02*
X002456Y005009D01*
X002680Y005180D02*
X011680Y005180D01*
X012180Y005680D01*
X012180Y006180D01*
X012640Y006118D02*
X012720Y006118D01*
X012720Y005960D02*
X012640Y005960D01*
X012629Y005801D02*
X012731Y005801D01*
X012807Y005643D02*
X012553Y005643D01*
X012380Y005484D02*
X012900Y005484D01*
X012900Y005326D02*
X012221Y005326D01*
X012063Y005167D02*
X012900Y005167D01*
X012956Y005009D02*
X011904Y005009D01*
X012056Y003940D02*
X012308Y003940D01*
X012402Y003902D01*
X012474Y003830D01*
X012549Y003755D01*
X012587Y003661D01*
X012587Y003565D01*
X012749Y003565D01*
X012842Y003526D01*
X012914Y003455D01*
X012953Y003361D01*
X012953Y003184D01*
X012914Y003091D01*
X012842Y003019D01*
X012692Y002869D01*
X012599Y002830D01*
X012497Y002830D01*
X012403Y002869D01*
X012332Y002940D01*
X012314Y002983D01*
X012308Y002980D01*
X012056Y002980D01*
X011963Y003019D01*
X011891Y003091D01*
X011816Y003166D01*
X011777Y003259D01*
X011777Y003661D01*
X011816Y003755D01*
X011888Y003826D01*
X011963Y003902D01*
X012056Y003940D01*
X011960Y003899D02*
X010203Y003899D01*
X010200Y003902D02*
X010272Y003830D01*
X010288Y003790D01*
X010331Y003790D01*
X010425Y003751D01*
X010463Y003713D01*
X010502Y003751D01*
X010596Y003790D01*
X010847Y003790D01*
X010941Y003751D01*
X010942Y003751D01*
X010942Y003751D01*
X011036Y003790D01*
X011138Y003790D01*
X011162Y003780D01*
X011186Y003790D01*
X011363Y003790D01*
X011456Y003751D01*
X011528Y003680D01*
X011567Y003586D01*
X011567Y003485D01*
X011528Y003391D01*
X011456Y003319D01*
X011363Y003280D01*
X011343Y003280D01*
X011342Y003280D01*
X011342Y003184D01*
X011303Y003091D01*
X011231Y003019D01*
X011138Y002980D01*
X011036Y002980D01*
X010942Y003019D01*
X010942Y003020D01*
X010941Y003019D01*
X010847Y002980D01*
X010596Y002980D01*
X010502Y003019D01*
X010501Y003020D01*
X010500Y003019D01*
X010407Y002980D01*
X010305Y002980D01*
X010211Y003019D01*
X010206Y003025D01*
X010200Y003019D01*
X010106Y002980D01*
X010005Y002980D01*
X009911Y003019D01*
X009910Y003020D01*
X009910Y003019D01*
X009816Y002980D01*
X009772Y002980D01*
X009756Y002940D01*
X009684Y002869D01*
X009591Y002830D01*
X009489Y002830D01*
X009395Y002869D01*
X009324Y002940D01*
X009306Y002983D01*
X009300Y002980D01*
X009049Y002980D01*
X008965Y003015D01*
X008881Y002980D01*
X008780Y002980D01*
X008686Y003019D01*
X008610Y003095D01*
X008610Y003094D01*
X008534Y003019D01*
X008441Y002980D01*
X008114Y002980D01*
X008068Y002999D01*
X008022Y002980D01*
X007770Y002980D01*
X007677Y003019D01*
X007606Y003089D01*
X007536Y003019D01*
X007442Y002980D01*
X007341Y002980D01*
X007284Y003004D01*
X007227Y002980D01*
X007125Y002980D01*
X007032Y003019D01*
X007026Y003025D01*
X007020Y003019D01*
X006926Y002980D01*
X006825Y002980D01*
X006731Y003019D01*
X006731Y003020D01*
X006730Y003019D01*
X006636Y002980D01*
X006384Y002980D01*
X006291Y003019D01*
X006219Y003091D01*
X006144Y003166D01*
X006105Y003259D01*
X006105Y003661D01*
X006144Y003755D01*
X006216Y003826D01*
X006291Y003902D01*
X006384Y003940D01*
X006636Y003940D01*
X006730Y003902D01*
X006731Y003901D01*
X006731Y003902D01*
X006825Y003940D01*
X006926Y003940D01*
X007020Y003902D01*
X007092Y003830D01*
X007108Y003790D01*
X007152Y003790D01*
X007245Y003751D01*
X007246Y003751D01*
X007247Y003751D01*
X007341Y003790D01*
X007442Y003790D01*
X007466Y003780D01*
X007491Y003790D01*
X007641Y003790D01*
X007641Y003811D01*
X007680Y003905D01*
X007752Y003977D01*
X007845Y004015D01*
X007947Y004015D01*
X008041Y003977D01*
X008112Y003905D01*
X008151Y003811D01*
X008151Y003774D01*
X008189Y003790D01*
X008516Y003790D01*
X008558Y003773D01*
X008611Y003826D01*
X008705Y003865D01*
X008806Y003865D01*
X008900Y003826D01*
X008969Y003757D01*
X009049Y003790D01*
X009300Y003790D01*
X009394Y003751D01*
X009395Y003751D01*
X009395Y003751D01*
X009489Y003790D01*
X009816Y003790D01*
X009822Y003788D01*
X009839Y003830D01*
X009911Y003902D01*
X010005Y003940D01*
X010106Y003940D01*
X010200Y003902D01*
X010436Y003741D02*
X010491Y003741D01*
X009909Y003899D02*
X008115Y003899D01*
X007678Y003899D02*
X007023Y003899D01*
X006288Y003899D02*
X005432Y003899D01*
X005430Y003902D02*
X005502Y003830D01*
X005540Y003736D01*
X005540Y003635D01*
X005509Y003558D01*
X005525Y003565D01*
X005702Y003565D01*
X005795Y003526D01*
X005867Y003455D01*
X005906Y003361D01*
X005906Y003184D01*
X005867Y003091D01*
X005795Y003019D01*
X005645Y002869D01*
X005551Y002830D01*
X005450Y002830D01*
X005356Y002869D01*
X005285Y002940D01*
X005246Y003034D01*
X005246Y003136D01*
X005285Y003229D01*
X005321Y003266D01*
X005321Y003285D01*
X005280Y003244D01*
X005240Y003228D01*
X005240Y003184D01*
X005201Y003091D01*
X005130Y003019D01*
X005036Y002980D01*
X004934Y002980D01*
X004841Y003019D01*
X004769Y003091D01*
X004730Y003184D01*
X004730Y003736D01*
X004769Y003830D01*
X004841Y003902D01*
X004934Y003940D01*
X005336Y003940D01*
X005430Y003902D01*
X005539Y003741D02*
X006138Y003741D01*
X006216Y003826D02*
X006216Y003826D01*
X006105Y003582D02*
X005519Y003582D01*
X005320Y003265D02*
X005301Y003265D01*
X005246Y003107D02*
X005208Y003107D01*
X005281Y002948D02*
X001660Y002948D01*
X001660Y002790D02*
X019628Y002790D01*
X019666Y002707D02*
X019666Y002707D01*
X019731Y002631D02*
X001660Y002631D01*
X001660Y002473D02*
X019869Y002473D01*
X020001Y002320D02*
X020001Y002320D01*
X020001Y002320D01*
X020010Y002314D02*
X001660Y002314D01*
X001660Y003107D02*
X002012Y003107D01*
X002019Y003091D02*
X001980Y003184D01*
X001980Y003586D01*
X002019Y003680D01*
X002169Y003830D01*
X002241Y003902D01*
X002334Y003940D01*
X002436Y003940D01*
X002530Y003902D01*
X002568Y003863D01*
X002606Y003902D01*
X002700Y003940D01*
X002876Y003940D01*
X002960Y003906D01*
X003044Y003940D01*
X003145Y003940D01*
X003239Y003902D01*
X003311Y003830D01*
X003327Y003790D01*
X003370Y003790D01*
X003430Y003765D01*
X003430Y003811D01*
X003469Y003905D01*
X003541Y003977D01*
X003634Y004015D01*
X003736Y004015D01*
X003830Y003977D01*
X003901Y003905D01*
X003940Y003811D01*
X003940Y003790D01*
X004230Y003790D01*
X004323Y003751D01*
X004399Y003676D01*
X004470Y003605D01*
X004509Y003511D01*
X004509Y003184D01*
X004470Y003091D01*
X004399Y003019D01*
X004305Y002980D01*
X004203Y002980D01*
X004110Y003019D01*
X004104Y003025D01*
X004098Y003019D01*
X004005Y002980D01*
X003903Y002980D01*
X003857Y002999D01*
X003811Y002980D01*
X003559Y002980D01*
X003466Y003019D01*
X003465Y003020D01*
X003464Y003019D01*
X003370Y002980D01*
X003044Y002980D01*
X002998Y002999D01*
X002951Y002980D01*
X002700Y002980D01*
X002643Y003004D01*
X002586Y002980D01*
X002485Y002980D01*
X002391Y003019D01*
X002385Y003025D01*
X002379Y003019D01*
X002286Y002980D01*
X002184Y002980D01*
X002091Y003019D01*
X002019Y003091D01*
X001980Y003265D02*
X001660Y003265D01*
X001660Y003424D02*
X001980Y003424D01*
X001980Y003582D02*
X001660Y003582D01*
X001660Y003741D02*
X002080Y003741D01*
X002238Y003899D02*
X001660Y003899D01*
X001660Y004058D02*
X019434Y004058D01*
X019411Y003899D02*
X017980Y003899D01*
X017977Y003902D02*
X018049Y003830D01*
X018088Y003736D01*
X018088Y003560D01*
X018049Y003466D01*
X018006Y003423D01*
X018049Y003379D01*
X018088Y003286D01*
X018088Y003184D01*
X018049Y003091D01*
X017977Y003019D01*
X017883Y002980D01*
X017482Y002980D01*
X017388Y003019D01*
X017316Y003091D01*
X017277Y003184D01*
X017277Y003361D01*
X017316Y003455D01*
X017359Y003498D01*
X017316Y003541D01*
X017277Y003635D01*
X017277Y003736D01*
X017316Y003830D01*
X017388Y003902D01*
X017482Y003940D01*
X017883Y003940D01*
X017977Y003902D01*
X018086Y003741D02*
X019389Y003741D01*
X019394Y003582D02*
X018088Y003582D01*
X018006Y003424D02*
X019417Y003424D01*
X019440Y003265D02*
X018088Y003265D01*
X018055Y003107D02*
X019483Y003107D01*
X019453Y003173D02*
X019453Y003173D01*
X019556Y002948D02*
X012772Y002948D01*
X012921Y003107D02*
X013184Y003107D01*
X013191Y003091D02*
X013152Y003184D01*
X013152Y003736D01*
X013191Y003830D01*
X013263Y003902D01*
X013356Y003940D01*
X013458Y003940D01*
X013552Y003902D01*
X013557Y003896D01*
X013563Y003902D01*
X013657Y003940D01*
X013758Y003940D01*
X013852Y003902D01*
X013924Y003830D01*
X013941Y003788D01*
X013947Y003790D01*
X014199Y003790D01*
X014292Y003751D01*
X014293Y003751D01*
X014294Y003751D01*
X014296Y003752D01*
X014297Y003755D01*
X014369Y003826D01*
X014463Y003865D01*
X014564Y003865D01*
X014658Y003826D01*
X014685Y003799D01*
X014713Y003826D01*
X014807Y003865D01*
X014908Y003865D01*
X014934Y003854D01*
X014982Y003902D01*
X015075Y003940D01*
X015177Y003940D01*
X015270Y003902D01*
X015342Y003830D01*
X015359Y003790D01*
X015402Y003790D01*
X015462Y003765D01*
X015462Y003811D01*
X015501Y003905D01*
X015572Y003977D01*
X015666Y004015D01*
X015767Y004015D01*
X015861Y003977D01*
X015933Y003905D01*
X015972Y003811D01*
X015972Y003774D01*
X016010Y003790D01*
X016261Y003790D01*
X016355Y003751D01*
X016393Y003713D01*
X016432Y003751D01*
X016525Y003790D01*
X016852Y003790D01*
X016946Y003751D01*
X017017Y003680D01*
X017056Y003586D01*
X017056Y003485D01*
X017031Y003423D01*
X017056Y003361D01*
X017056Y003259D01*
X017017Y003166D01*
X016871Y003019D01*
X016777Y002980D01*
X016450Y002980D01*
X016393Y003004D01*
X016336Y002980D01*
X016010Y002980D01*
X015926Y003015D01*
X015842Y002980D01*
X015591Y002980D01*
X015534Y003004D01*
X015477Y002980D01*
X015376Y002980D01*
X015282Y003019D01*
X015276Y003025D01*
X015270Y003019D01*
X015177Y002980D01*
X015075Y002980D01*
X015029Y002999D01*
X014983Y002980D01*
X014882Y002980D01*
X014788Y003019D01*
X014760Y003046D01*
X014733Y003019D01*
X014639Y002980D01*
X014538Y002980D01*
X014444Y003019D01*
X014406Y003057D01*
X014368Y003019D01*
X014274Y002980D01*
X013947Y002980D01*
X013853Y003019D01*
X013853Y003020D01*
X013852Y003019D01*
X013758Y002980D01*
X013657Y002980D01*
X013563Y003019D01*
X013557Y003025D01*
X013552Y003019D01*
X013458Y002980D01*
X013356Y002980D01*
X013263Y003019D01*
X013191Y003091D01*
X013152Y003265D02*
X012953Y003265D01*
X012927Y003424D02*
X013152Y003424D01*
X013152Y003582D02*
X012587Y003582D01*
X012554Y003741D02*
X013154Y003741D01*
X013260Y003899D02*
X012404Y003899D01*
X011810Y003741D02*
X011467Y003741D01*
X011567Y003582D02*
X011777Y003582D01*
X011777Y003424D02*
X011542Y003424D01*
X011342Y003265D02*
X011777Y003265D01*
X011875Y003107D02*
X011310Y003107D01*
X012328Y002948D02*
X009759Y002948D01*
X009321Y002948D02*
X005724Y002948D01*
X005874Y003107D02*
X006203Y003107D01*
X006105Y003265D02*
X005906Y003265D01*
X005880Y003424D02*
X006105Y003424D01*
X004838Y003899D02*
X003904Y003899D01*
X004334Y003741D02*
X004732Y003741D01*
X004730Y003582D02*
X004480Y003582D01*
X004509Y003424D02*
X004730Y003424D01*
X004730Y003265D02*
X004509Y003265D01*
X004477Y003107D02*
X004762Y003107D01*
X003466Y003899D02*
X003241Y003899D01*
X002604Y003899D02*
X002532Y003899D01*
X001660Y004216D02*
X019466Y004216D01*
X019538Y004375D02*
X001660Y004375D01*
X001660Y004533D02*
X013431Y004533D01*
X013273Y004692D02*
X001660Y004692D01*
X001660Y004850D02*
X013114Y004850D01*
X013554Y003899D02*
X013560Y003899D01*
X013854Y003899D02*
X014979Y003899D01*
X015273Y003899D02*
X015498Y003899D01*
X015935Y003899D02*
X017385Y003899D01*
X017279Y003741D02*
X016957Y003741D01*
X017056Y003582D02*
X017299Y003582D01*
X017303Y003424D02*
X017031Y003424D01*
X017056Y003265D02*
X017277Y003265D01*
X017310Y003107D02*
X016958Y003107D01*
X016421Y003741D02*
X016366Y003741D01*
X017680Y004680D02*
X018180Y005180D01*
X018180Y008180D01*
X019180Y009180D01*
X020180Y009180D01*
X019840Y008813D02*
X019208Y008813D01*
X019050Y008654D02*
X019947Y008654D01*
X019788Y008496D02*
X018891Y008496D01*
X018733Y008337D02*
X019680Y008337D01*
X019680Y008179D02*
X018574Y008179D01*
X018460Y008020D02*
X019680Y008020D01*
X019791Y007862D02*
X018460Y007862D01*
X018460Y007703D02*
X019950Y007703D01*
X019981Y007660D02*
X019700Y007379D01*
X019700Y007200D01*
X020160Y007200D01*
X020200Y007200D01*
X020200Y007660D01*
X020379Y007660D01*
X020660Y007379D01*
X020660Y007200D01*
X020200Y007200D01*
X020200Y007160D01*
X020660Y007160D01*
X020660Y006981D01*
X020379Y006700D01*
X020200Y006700D01*
X020200Y007160D01*
X020160Y007160D01*
X020160Y007200D01*
X020160Y007660D01*
X019981Y007660D01*
X019866Y007545D02*
X018460Y007545D01*
X018460Y007386D02*
X019707Y007386D01*
X019700Y007228D02*
X018460Y007228D01*
X018460Y007069D02*
X019700Y007069D01*
X019700Y006981D02*
X019700Y007160D01*
X020160Y007160D01*
X020160Y006700D01*
X019981Y006700D01*
X019700Y006981D01*
X019771Y006911D02*
X018460Y006911D01*
X018460Y006752D02*
X019929Y006752D01*
X019981Y006660D02*
X019700Y006379D01*
X019700Y006200D01*
X020160Y006200D01*
X020200Y006200D01*
X020200Y006660D01*
X020379Y006660D01*
X020660Y006379D01*
X020660Y006200D01*
X020200Y006200D01*
X020200Y006160D01*
X020660Y006160D01*
X020660Y005981D01*
X020379Y005700D01*
X020200Y005700D01*
X020200Y006160D01*
X020160Y006160D01*
X020160Y006200D01*
X020160Y006660D01*
X019981Y006660D01*
X019915Y006594D02*
X018460Y006594D01*
X018460Y006435D02*
X019756Y006435D01*
X019700Y006277D02*
X018460Y006277D01*
X018460Y006118D02*
X019700Y006118D01*
X019700Y006160D02*
X019700Y005981D01*
X019981Y005700D01*
X020160Y005700D01*
X020160Y006160D01*
X019700Y006160D01*
X019722Y005960D02*
X018460Y005960D01*
X018460Y005801D02*
X019880Y005801D01*
X020160Y005801D02*
X020200Y005801D01*
X020200Y005960D02*
X020160Y005960D01*
X020160Y006118D02*
X020200Y006118D01*
X020200Y006277D02*
X020160Y006277D01*
X020160Y006435D02*
X020200Y006435D01*
X020200Y006594D02*
X020160Y006594D01*
X020160Y006752D02*
X020200Y006752D01*
X020200Y006911D02*
X020160Y006911D01*
X020160Y007069D02*
X020200Y007069D01*
X020200Y007228D02*
X020160Y007228D01*
X020160Y007386D02*
X020200Y007386D01*
X020200Y007545D02*
X020160Y007545D01*
X020410Y007703D02*
X020978Y007703D01*
X020981Y007700D02*
X020700Y007981D01*
X020700Y008160D01*
X021160Y008160D01*
X021160Y007700D01*
X020981Y007700D01*
X020981Y007660D02*
X021160Y007660D01*
X021160Y007200D01*
X021200Y007200D01*
X021200Y007660D01*
X021379Y007660D01*
X021660Y007379D01*
X021660Y007200D01*
X021200Y007200D01*
X021200Y007160D01*
X021660Y007160D01*
X021660Y006981D01*
X021379Y006700D01*
X021200Y006700D01*
X021200Y007160D01*
X021160Y007160D01*
X021160Y007200D01*
X020700Y007200D01*
X020700Y007379D01*
X020981Y007660D01*
X020866Y007545D02*
X020494Y007545D01*
X020653Y007386D02*
X020707Y007386D01*
X020700Y007228D02*
X020660Y007228D01*
X020700Y007160D02*
X021160Y007160D01*
X021160Y006700D01*
X020981Y006700D01*
X020700Y006981D01*
X020700Y007160D01*
X020700Y007069D02*
X020660Y007069D01*
X020589Y006911D02*
X020771Y006911D01*
X020929Y006752D02*
X020431Y006752D01*
X020445Y006594D02*
X020915Y006594D01*
X020981Y006660D02*
X020700Y006379D01*
X020700Y006200D01*
X021160Y006200D01*
X021200Y006200D01*
X021200Y006660D01*
X021379Y006660D01*
X021660Y006379D01*
X021660Y006200D01*
X021200Y006200D01*
X021200Y006160D01*
X021660Y006160D01*
X021660Y005981D01*
X021379Y005700D01*
X021200Y005700D01*
X021200Y006160D01*
X021160Y006160D01*
X021160Y006200D01*
X021160Y006660D01*
X020981Y006660D01*
X021160Y006594D02*
X021200Y006594D01*
X021200Y006752D02*
X021160Y006752D01*
X021160Y006911D02*
X021200Y006911D01*
X021200Y007069D02*
X021160Y007069D01*
X021160Y007228D02*
X021200Y007228D01*
X021200Y007386D02*
X021160Y007386D01*
X021160Y007545D02*
X021200Y007545D01*
X021200Y007703D02*
X021160Y007703D01*
X021160Y007862D02*
X021200Y007862D01*
X021200Y008020D02*
X021160Y008020D01*
X021160Y008179D02*
X020680Y008179D01*
X020680Y008337D02*
X020700Y008337D01*
X020817Y008496D02*
X020572Y008496D01*
X020678Y008971D02*
X020682Y008971D01*
X020680Y009130D02*
X020680Y009130D01*
X020680Y009288D02*
X020680Y009288D01*
X020739Y009447D02*
X020621Y009447D01*
X020462Y009605D02*
X020898Y009605D01*
X020889Y009764D02*
X020471Y009764D01*
X020629Y009922D02*
X020731Y009922D01*
X020680Y010081D02*
X020680Y010081D01*
X020680Y010239D02*
X020680Y010239D01*
X020690Y010398D02*
X020670Y010398D01*
X020511Y010556D02*
X020849Y010556D01*
X020938Y010715D02*
X020422Y010715D01*
X020580Y010873D02*
X020780Y010873D01*
X020680Y010973D02*
X020680Y011387D01*
X020680Y010973D01*
X020680Y011032D02*
X020680Y011032D01*
X020680Y011190D02*
X020680Y011190D01*
X020680Y011349D02*
X020680Y011349D01*
X020680Y011387D02*
X020667Y011400D01*
X020693Y011400D01*
X020680Y011387D01*
X020693Y011960D02*
X020680Y011973D01*
X020680Y012387D01*
X020680Y011973D01*
X020667Y011960D01*
X020693Y011960D01*
X020680Y011983D02*
X020680Y011983D01*
X020680Y012141D02*
X020680Y012141D01*
X020680Y012300D02*
X020680Y012300D01*
X020751Y012458D02*
X020609Y012458D01*
X020451Y012617D02*
X020909Y012617D01*
X020878Y012775D02*
X020482Y012775D01*
X020387Y012680D02*
X020680Y012973D01*
X020680Y013387D01*
X020387Y013680D01*
X019973Y013680D01*
X019680Y013387D01*
X019680Y012973D01*
X019973Y012680D01*
X020387Y012680D01*
X020641Y012934D02*
X020719Y012934D01*
X020680Y013092D02*
X020680Y013092D01*
X020680Y013251D02*
X020680Y013251D01*
X020702Y013409D02*
X020658Y013409D01*
X020500Y013568D02*
X020860Y013568D01*
X020927Y013726D02*
X020433Y013726D01*
X020387Y013680D02*
X019973Y013680D01*
X019680Y013973D01*
X019680Y014387D01*
X019973Y014680D01*
X020387Y014680D01*
X020680Y014387D01*
X020680Y013973D01*
X020387Y013680D01*
X020592Y013885D02*
X020768Y013885D01*
X020680Y014043D02*
X020680Y014043D01*
X020680Y014202D02*
X020680Y014202D01*
X020680Y014360D02*
X020680Y014360D01*
X020811Y014519D02*
X020549Y014519D01*
X020390Y014677D02*
X020970Y014677D01*
X020817Y014836D02*
X020543Y014836D01*
X020680Y014973D02*
X020387Y014680D01*
X019973Y014680D01*
X019680Y014973D01*
X019680Y015387D01*
X019973Y015680D01*
X020387Y015680D01*
X020680Y015387D01*
X020680Y014973D01*
X020680Y014994D02*
X020680Y014994D01*
X020680Y015153D02*
X020680Y015153D01*
X020680Y015311D02*
X020680Y015311D01*
X020762Y015470D02*
X020598Y015470D01*
X020439Y015628D02*
X020921Y015628D01*
X020866Y015787D02*
X020494Y015787D01*
X020387Y015680D02*
X020680Y015973D01*
X020680Y016387D01*
X020387Y016680D01*
X019973Y016680D01*
X019680Y016387D01*
X019680Y015973D01*
X019973Y015680D01*
X020387Y015680D01*
X020652Y015945D02*
X020708Y015945D01*
X020680Y016104D02*
X020680Y016104D01*
X020680Y016262D02*
X020680Y016262D01*
X020713Y016421D02*
X020647Y016421D01*
X020488Y016579D02*
X020872Y016579D01*
X020915Y016738D02*
X020445Y016738D01*
X020387Y016680D02*
X019973Y016680D01*
X019680Y016973D01*
X019680Y017387D01*
X019973Y017680D01*
X020387Y017680D01*
X020680Y017387D01*
X020680Y016973D01*
X020387Y016680D01*
X020603Y016896D02*
X020757Y016896D01*
X020680Y017055D02*
X020680Y017055D01*
X020680Y017213D02*
X020680Y017213D01*
X020680Y017372D02*
X020680Y017372D01*
X020823Y017530D02*
X020537Y017530D01*
X020387Y017680D02*
X020680Y017973D01*
X020680Y018387D01*
X020387Y018680D01*
X019973Y018680D01*
X019680Y018387D01*
X019680Y017973D01*
X019973Y017680D01*
X020387Y017680D01*
X020396Y017689D02*
X020964Y017689D01*
X020806Y017847D02*
X020554Y017847D01*
X020680Y018006D02*
X020680Y018006D01*
X020680Y018164D02*
X020680Y018164D01*
X020680Y018323D02*
X020680Y018323D01*
X020774Y018481D02*
X020586Y018481D01*
X020428Y018640D02*
X020932Y018640D01*
X020855Y018798D02*
X020505Y018798D01*
X020387Y018680D02*
X020680Y018973D01*
X020680Y019387D01*
X020387Y019680D01*
X019973Y019680D01*
X019680Y019387D01*
X019680Y018973D01*
X019973Y018680D01*
X020387Y018680D01*
X020664Y018957D02*
X020696Y018957D01*
X020680Y019115D02*
X020680Y019115D01*
X020680Y019274D02*
X020680Y019274D01*
X020725Y019432D02*
X020635Y019432D01*
X020477Y019591D02*
X020883Y019591D01*
X020904Y019749D02*
X020456Y019749D01*
X020615Y019908D02*
X020745Y019908D01*
X020680Y019973D02*
X020680Y020387D01*
X020667Y020400D01*
X020693Y020400D01*
X020680Y020387D01*
X020680Y019973D01*
X020680Y020066D02*
X020680Y020066D01*
X020680Y020225D02*
X020680Y020225D01*
X020680Y020383D02*
X020680Y020383D01*
X020680Y020680D02*
X019430Y020680D01*
X018680Y019930D01*
X018680Y016180D01*
X015180Y012680D01*
X015180Y012180D01*
X014885Y011824D02*
X014475Y011824D01*
X014371Y011640D02*
X014640Y011371D01*
X014640Y010989D01*
X014460Y010809D01*
X014460Y010311D01*
X014570Y010201D01*
X014640Y010031D01*
X014640Y009328D01*
X014570Y009159D01*
X014441Y009030D01*
X014272Y008960D01*
X014089Y008960D01*
X013919Y009030D01*
X013790Y009159D01*
X013720Y009328D01*
X013720Y010031D01*
X013790Y010201D01*
X013900Y010311D01*
X013900Y010809D01*
X013720Y010989D01*
X013720Y011371D01*
X013989Y011640D01*
X014371Y011640D01*
X014504Y011507D02*
X014856Y011507D01*
X014989Y011640D02*
X014720Y011371D01*
X014720Y010989D01*
X014900Y010809D01*
X014900Y010311D01*
X014790Y010201D01*
X014720Y010031D01*
X014720Y009328D01*
X014790Y009159D01*
X014919Y009030D01*
X015089Y008960D01*
X015272Y008960D01*
X015441Y009030D01*
X015570Y009159D01*
X015640Y009328D01*
X015640Y010031D01*
X015570Y010201D01*
X015460Y010311D01*
X015460Y010809D01*
X015640Y010989D01*
X015640Y011371D01*
X015371Y011640D01*
X014989Y011640D01*
X014720Y011349D02*
X014640Y011349D01*
X014640Y011190D02*
X014720Y011190D01*
X014720Y011032D02*
X014640Y011032D01*
X014524Y010873D02*
X014836Y010873D01*
X014900Y010715D02*
X014460Y010715D01*
X014460Y010556D02*
X014900Y010556D01*
X014900Y010398D02*
X014460Y010398D01*
X014532Y010239D02*
X014828Y010239D01*
X014740Y010081D02*
X014620Y010081D01*
X014640Y009922D02*
X014720Y009922D01*
X014720Y009764D02*
X014640Y009764D01*
X014640Y009605D02*
X014720Y009605D01*
X014720Y009447D02*
X014640Y009447D01*
X014623Y009288D02*
X014737Y009288D01*
X014820Y009130D02*
X014540Y009130D01*
X014298Y008971D02*
X015062Y008971D01*
X015298Y008971D02*
X016062Y008971D01*
X015820Y009130D02*
X015540Y009130D01*
X015623Y009288D02*
X015737Y009288D01*
X015720Y009447D02*
X015640Y009447D01*
X015640Y009605D02*
X015720Y009605D01*
X015720Y009764D02*
X015640Y009764D01*
X015640Y009922D02*
X015720Y009922D01*
X015740Y010081D02*
X015620Y010081D01*
X015532Y010239D02*
X015828Y010239D01*
X015900Y010398D02*
X015460Y010398D01*
X015460Y010556D02*
X015900Y010556D01*
X015900Y010715D02*
X015460Y010715D01*
X015524Y010873D02*
X015836Y010873D01*
X015720Y011032D02*
X015640Y011032D01*
X015640Y011190D02*
X015720Y011190D01*
X015720Y011349D02*
X015640Y011349D01*
X015504Y011507D02*
X015856Y011507D01*
X015885Y011824D02*
X015475Y011824D01*
X015633Y011983D02*
X015727Y011983D01*
X015720Y012141D02*
X015640Y012141D01*
X015640Y012300D02*
X015720Y012300D01*
X015807Y012458D02*
X015553Y012458D01*
X015512Y012617D02*
X015900Y012617D01*
X015916Y012775D02*
X015671Y012775D01*
X015829Y012934D02*
X016038Y012934D01*
X015988Y013092D02*
X016196Y013092D01*
X016146Y013251D02*
X016355Y013251D01*
X016305Y013409D02*
X016513Y013409D01*
X016463Y013568D02*
X016672Y013568D01*
X016622Y013726D02*
X016830Y013726D01*
X016780Y013885D02*
X016989Y013885D01*
X016939Y014043D02*
X017147Y014043D01*
X017098Y014202D02*
X017306Y014202D01*
X017256Y014360D02*
X017464Y014360D01*
X017415Y014519D02*
X017623Y014519D01*
X017573Y014677D02*
X017781Y014677D01*
X017732Y014836D02*
X017940Y014836D01*
X017890Y014994D02*
X018098Y014994D01*
X018049Y015153D02*
X018257Y015153D01*
X018207Y015311D02*
X018415Y015311D01*
X018366Y015470D02*
X018574Y015470D01*
X018524Y015628D02*
X018732Y015628D01*
X018683Y015787D02*
X018891Y015787D01*
X018900Y015945D02*
X018841Y015945D01*
X019180Y015680D02*
X016180Y012680D01*
X016180Y012180D01*
X016553Y012458D02*
X016807Y012458D01*
X016720Y012300D02*
X016640Y012300D01*
X016640Y012141D02*
X016720Y012141D01*
X016727Y011983D02*
X016633Y011983D01*
X016512Y012617D02*
X016966Y012617D01*
X016671Y012775D02*
X019878Y012775D01*
X019909Y012617D02*
X017394Y012617D01*
X016988Y013092D02*
X019680Y013092D01*
X019680Y013251D02*
X017146Y013251D01*
X017305Y013409D02*
X019702Y013409D01*
X019860Y013568D02*
X017463Y013568D01*
X017622Y013726D02*
X019927Y013726D01*
X019768Y013885D02*
X017780Y013885D01*
X017939Y014043D02*
X019680Y014043D01*
X019680Y014202D02*
X018098Y014202D01*
X018256Y014360D02*
X019680Y014360D01*
X019811Y014519D02*
X018415Y014519D01*
X018573Y014677D02*
X019970Y014677D01*
X019817Y014836D02*
X018732Y014836D01*
X018890Y014994D02*
X019680Y014994D01*
X019680Y015153D02*
X019049Y015153D01*
X019207Y015311D02*
X019680Y015311D01*
X019762Y015470D02*
X019366Y015470D01*
X019460Y015628D02*
X019921Y015628D01*
X019866Y015787D02*
X019460Y015787D01*
X019460Y015945D02*
X019708Y015945D01*
X019680Y016104D02*
X019460Y016104D01*
X019460Y016262D02*
X019680Y016262D01*
X019713Y016421D02*
X019460Y016421D01*
X019460Y016579D02*
X019872Y016579D01*
X019915Y016738D02*
X019460Y016738D01*
X019460Y016896D02*
X019757Y016896D01*
X019680Y017055D02*
X019460Y017055D01*
X019460Y017213D02*
X019680Y017213D01*
X019680Y017372D02*
X019460Y017372D01*
X019460Y017530D02*
X019823Y017530D01*
X019964Y017689D02*
X019460Y017689D01*
X019460Y017847D02*
X019806Y017847D01*
X019680Y018006D02*
X019460Y018006D01*
X019460Y018164D02*
X019680Y018164D01*
X019680Y018323D02*
X019460Y018323D01*
X019460Y018481D02*
X019774Y018481D01*
X019932Y018640D02*
X019460Y018640D01*
X019460Y018798D02*
X019855Y018798D01*
X019696Y018957D02*
X019460Y018957D01*
X019460Y019115D02*
X019680Y019115D01*
X019680Y019274D02*
X019460Y019274D01*
X019460Y019432D02*
X019725Y019432D01*
X019883Y019591D02*
X019460Y019591D01*
X019460Y019749D02*
X019904Y019749D01*
X020180Y020180D02*
X019430Y020180D01*
X019180Y019930D01*
X019180Y015680D01*
X018366Y016262D02*
X018158Y016262D01*
X018208Y016104D02*
X018000Y016104D01*
X018049Y015945D02*
X017841Y015945D01*
X017891Y015787D02*
X017683Y015787D01*
X017732Y015628D02*
X017524Y015628D01*
X017574Y015470D02*
X017366Y015470D01*
X017415Y015311D02*
X017207Y015311D01*
X017257Y015153D02*
X017049Y015153D01*
X017098Y014994D02*
X016890Y014994D01*
X016940Y014836D02*
X016732Y014836D01*
X016781Y014677D02*
X016573Y014677D01*
X016623Y014519D02*
X016415Y014519D01*
X016464Y014360D02*
X016256Y014360D01*
X016306Y014202D02*
X016098Y014202D01*
X016147Y014043D02*
X015939Y014043D01*
X015989Y013885D02*
X015780Y013885D01*
X015830Y013726D02*
X015622Y013726D01*
X015672Y013568D02*
X015463Y013568D01*
X015513Y013409D02*
X015305Y013409D01*
X015355Y013251D02*
X015146Y013251D01*
X015196Y013092D02*
X014988Y013092D01*
X015038Y012934D02*
X014829Y012934D01*
X014916Y012775D02*
X014671Y012775D01*
X014512Y012617D02*
X014900Y012617D01*
X014807Y012458D02*
X014553Y012458D01*
X014640Y012300D02*
X014720Y012300D01*
X014720Y012141D02*
X014640Y012141D01*
X014633Y011983D02*
X014727Y011983D01*
X014180Y012180D02*
X014180Y012680D01*
X018180Y016680D01*
X018180Y019930D01*
X019430Y021180D01*
X020180Y021180D01*
X020680Y020680D02*
X021180Y021180D01*
X020680Y021680D02*
X019430Y021680D01*
X017680Y019930D01*
X017680Y017180D01*
X013180Y012680D01*
X013180Y012180D01*
X013640Y012141D02*
X013720Y012141D01*
X013720Y012300D02*
X013640Y012300D01*
X013553Y012458D02*
X013807Y012458D01*
X013900Y012617D02*
X013512Y012617D01*
X013671Y012775D02*
X013916Y012775D01*
X013829Y012934D02*
X014038Y012934D01*
X013988Y013092D02*
X014196Y013092D01*
X014146Y013251D02*
X014355Y013251D01*
X014305Y013409D02*
X014513Y013409D01*
X014463Y013568D02*
X014672Y013568D01*
X014622Y013726D02*
X014830Y013726D01*
X014780Y013885D02*
X014989Y013885D01*
X014939Y014043D02*
X015147Y014043D01*
X015098Y014202D02*
X015306Y014202D01*
X015256Y014360D02*
X015464Y014360D01*
X015415Y014519D02*
X015623Y014519D01*
X015573Y014677D02*
X015781Y014677D01*
X015732Y014836D02*
X015940Y014836D01*
X015890Y014994D02*
X016098Y014994D01*
X016049Y015153D02*
X016257Y015153D01*
X016207Y015311D02*
X016415Y015311D01*
X016366Y015470D02*
X016574Y015470D01*
X016524Y015628D02*
X016732Y015628D01*
X016683Y015787D02*
X016891Y015787D01*
X016841Y015945D02*
X017049Y015945D01*
X017000Y016104D02*
X017208Y016104D01*
X017158Y016262D02*
X017366Y016262D01*
X017317Y016421D02*
X017525Y016421D01*
X017475Y016579D02*
X017683Y016579D01*
X017634Y016738D02*
X017842Y016738D01*
X017792Y016896D02*
X017900Y016896D01*
X018317Y016421D02*
X018400Y016421D01*
X019719Y012934D02*
X016829Y012934D01*
X017475Y011824D02*
X018140Y011824D01*
X018615Y012141D02*
X019680Y012141D01*
X019680Y011983D02*
X018773Y011983D01*
X018456Y012300D02*
X019680Y012300D01*
X019751Y012458D02*
X018240Y012458D01*
X017180Y011180D02*
X017180Y009680D01*
X017640Y009605D02*
X017740Y009605D01*
X017740Y009447D02*
X017640Y009447D01*
X017623Y009288D02*
X017760Y009288D01*
X017848Y009130D02*
X017540Y009130D01*
X018180Y009130D02*
X018180Y009130D01*
X018180Y009288D02*
X018180Y009288D01*
X018180Y009447D02*
X018180Y009447D01*
X018180Y009605D02*
X018180Y009605D01*
X018180Y009764D02*
X018180Y009764D01*
X018180Y009922D02*
X018180Y009922D01*
X018180Y010081D02*
X018180Y010081D01*
X018180Y010239D02*
X018180Y010239D01*
X017857Y010239D02*
X017532Y010239D01*
X017620Y010081D02*
X017763Y010081D01*
X017740Y009922D02*
X017640Y009922D01*
X017640Y009764D02*
X017740Y009764D01*
X016180Y009680D02*
X016180Y011180D01*
X015180Y011180D02*
X015180Y009680D01*
X014180Y009680D02*
X014180Y011180D01*
X013900Y010715D02*
X013460Y010715D01*
X013460Y010556D02*
X013900Y010556D01*
X013900Y010398D02*
X013460Y010398D01*
X013532Y010239D02*
X013828Y010239D01*
X013740Y010081D02*
X013620Y010081D01*
X013640Y009922D02*
X013720Y009922D01*
X013720Y009764D02*
X013640Y009764D01*
X013640Y009605D02*
X013720Y009605D01*
X013720Y009447D02*
X013640Y009447D01*
X013623Y009288D02*
X013737Y009288D01*
X013820Y009130D02*
X013540Y009130D01*
X013298Y008971D02*
X014062Y008971D01*
X013180Y009680D02*
X013180Y011180D01*
X013504Y011507D02*
X013856Y011507D01*
X013720Y011349D02*
X013640Y011349D01*
X013640Y011190D02*
X013720Y011190D01*
X013720Y011032D02*
X013640Y011032D01*
X013524Y010873D02*
X013836Y010873D01*
X013885Y011824D02*
X013475Y011824D01*
X013633Y011983D02*
X013727Y011983D01*
X012180Y011180D02*
X012180Y009680D01*
X011720Y009605D02*
X011640Y009605D01*
X011640Y009447D02*
X011720Y009447D01*
X011737Y009288D02*
X011623Y009288D01*
X011540Y009130D02*
X011820Y009130D01*
X011720Y009764D02*
X011640Y009764D01*
X011640Y009922D02*
X011720Y009922D01*
X011740Y010081D02*
X011620Y010081D01*
X011532Y010239D02*
X011828Y010239D01*
X011900Y010398D02*
X011460Y010398D01*
X011460Y010556D02*
X011900Y010556D01*
X011900Y010715D02*
X011460Y010715D01*
X011524Y010873D02*
X011836Y010873D01*
X011720Y011032D02*
X011640Y011032D01*
X011640Y011190D02*
X011720Y011190D01*
X011720Y011349D02*
X011640Y011349D01*
X011504Y011507D02*
X011856Y011507D01*
X011885Y011824D02*
X011475Y011824D01*
X011633Y011983D02*
X011727Y011983D01*
X011180Y011180D02*
X011180Y009680D01*
X012519Y006752D02*
X012841Y006752D01*
X012746Y006594D02*
X012614Y006594D01*
X012640Y006435D02*
X012720Y006435D01*
X012720Y006277D02*
X012640Y006277D01*
X008924Y012934D02*
X005300Y012934D01*
X004680Y013092D02*
X009083Y013092D01*
X009241Y013251D02*
X004680Y013251D01*
X004658Y013409D02*
X009400Y013409D01*
X009558Y013568D02*
X004500Y013568D01*
X004433Y013726D02*
X009717Y013726D01*
X009875Y013885D02*
X004592Y013885D01*
X004680Y014043D02*
X010034Y014043D01*
X010192Y014202D02*
X004680Y014202D01*
X004680Y014360D02*
X010351Y014360D01*
X010509Y014519D02*
X010165Y014519D01*
X010323Y014677D02*
X010668Y014677D01*
X010826Y014836D02*
X010482Y014836D01*
X010640Y014994D02*
X010985Y014994D01*
X011143Y015153D02*
X010799Y015153D01*
X010957Y015311D02*
X011302Y015311D01*
X011460Y015470D02*
X011116Y015470D01*
X011274Y015628D02*
X011619Y015628D01*
X011777Y015787D02*
X011433Y015787D01*
X011591Y015945D02*
X011936Y015945D01*
X012094Y016104D02*
X011750Y016104D01*
X011908Y016262D02*
X012253Y016262D01*
X012411Y016421D02*
X012067Y016421D01*
X012225Y016579D02*
X012570Y016579D01*
X012728Y016738D02*
X012384Y016738D01*
X012542Y016896D02*
X012887Y016896D01*
X013045Y017055D02*
X012701Y017055D01*
X012859Y017213D02*
X013204Y017213D01*
X013362Y017372D02*
X013018Y017372D01*
X013176Y017530D02*
X013521Y017530D01*
X013679Y017689D02*
X013335Y017689D01*
X013493Y017847D02*
X013838Y017847D01*
X013996Y018006D02*
X013652Y018006D01*
X013810Y018164D02*
X014155Y018164D01*
X014313Y018323D02*
X013969Y018323D01*
X014127Y018481D02*
X014472Y018481D01*
X014630Y018640D02*
X014286Y018640D01*
X014444Y018798D02*
X014789Y018798D01*
X014947Y018957D02*
X014603Y018957D01*
X013650Y021334D02*
X013513Y021334D01*
X012847Y021334D02*
X012485Y021334D01*
X012640Y021493D02*
X012700Y021493D01*
X012700Y021651D02*
X012640Y021651D01*
X012640Y021810D02*
X012700Y021810D01*
X012789Y021968D02*
X012543Y021968D01*
X011180Y022680D02*
X010680Y022180D01*
X010680Y020430D01*
X009930Y019680D01*
X005430Y019680D01*
X005186Y019274D02*
X004680Y019274D01*
X004635Y019432D02*
X005027Y019432D01*
X004970Y019591D02*
X004477Y019591D01*
X004456Y019749D02*
X004965Y019749D01*
X005695Y020066D02*
X009920Y020066D01*
X010079Y020225D02*
X006625Y020225D01*
X006784Y020383D02*
X010237Y020383D01*
X010188Y020542D02*
X010396Y020542D01*
X010400Y020700D02*
X010346Y020700D01*
X010180Y020930D02*
X010180Y021680D01*
X009847Y021334D02*
X009513Y021334D01*
X009660Y021493D02*
X009700Y021493D01*
X009700Y021651D02*
X009660Y021651D01*
X009660Y021810D02*
X009700Y021810D01*
X009789Y021968D02*
X009571Y021968D01*
X009412Y022127D02*
X009948Y022127D01*
X009896Y022285D02*
X009436Y022285D01*
X009371Y022220D02*
X009190Y022220D01*
X009190Y022670D01*
X009170Y022670D01*
X009170Y022690D01*
X008720Y022690D01*
X008720Y022871D01*
X008989Y023140D01*
X009170Y023140D01*
X009170Y022690D01*
X009190Y022690D01*
X009190Y023140D01*
X009371Y023140D01*
X009640Y022871D01*
X009640Y022690D01*
X009190Y022690D01*
X009190Y022670D01*
X009640Y022670D01*
X009640Y022489D01*
X009371Y022220D01*
X009190Y022285D02*
X009170Y022285D01*
X009170Y022220D02*
X008989Y022220D01*
X008720Y022489D01*
X008720Y022670D01*
X009170Y022670D01*
X009170Y022220D01*
X009190Y022444D02*
X009170Y022444D01*
X009170Y022602D02*
X009190Y022602D01*
X009190Y022761D02*
X009170Y022761D01*
X009170Y022919D02*
X009190Y022919D01*
X009190Y023078D02*
X009170Y023078D01*
X008927Y023078D02*
X004660Y023078D01*
X004660Y023160D02*
X004660Y022981D01*
X004379Y022700D01*
X004200Y022700D01*
X004200Y023160D01*
X004660Y023160D01*
X004598Y022919D02*
X008768Y022919D01*
X008720Y022761D02*
X004439Y022761D01*
X004465Y022602D02*
X008720Y022602D01*
X008766Y022444D02*
X006275Y022444D01*
X006471Y022285D02*
X008924Y022285D01*
X008948Y022127D02*
X006629Y022127D01*
X006788Y021968D02*
X008789Y021968D01*
X009180Y021680D02*
X006680Y021680D01*
X006180Y022180D01*
X004180Y022180D01*
X004517Y021810D02*
X006154Y021810D01*
X006313Y021651D02*
X004416Y021651D01*
X004575Y021493D02*
X006471Y021493D01*
X006172Y021334D02*
X008847Y021334D01*
X009900Y021176D02*
X006330Y021176D01*
X006744Y021017D02*
X009871Y021017D01*
X010180Y020930D02*
X009930Y020680D01*
X006430Y020680D01*
X004160Y022700D02*
X003981Y022700D01*
X003700Y022981D01*
X003700Y023160D01*
X004160Y023160D01*
X004160Y023200D01*
X004200Y023200D01*
X004200Y023160D01*
X004160Y023160D01*
X004160Y022700D01*
X004160Y022761D02*
X004200Y022761D01*
X004200Y022919D02*
X004160Y022919D01*
X004160Y023078D02*
X004200Y023078D01*
X004160Y023200D02*
X003700Y023200D01*
X003700Y023379D01*
X003981Y023660D01*
X004160Y023660D01*
X004160Y023200D01*
X004160Y023236D02*
X004200Y023236D01*
X004200Y023395D02*
X004160Y023395D01*
X004160Y023553D02*
X004200Y023553D01*
X003941Y023712D02*
X003419Y023712D01*
X003379Y023660D02*
X003660Y023379D01*
X003660Y023200D01*
X003200Y023200D01*
X003200Y023660D01*
X003379Y023660D01*
X003486Y023553D02*
X003874Y023553D01*
X003716Y023395D02*
X003644Y023395D01*
X003660Y023236D02*
X003700Y023236D01*
X003660Y023160D02*
X003660Y022981D01*
X003379Y022700D01*
X003200Y022700D01*
X003200Y023160D01*
X003660Y023160D01*
X003660Y023078D02*
X003700Y023078D01*
X003762Y022919D02*
X003598Y022919D01*
X003439Y022761D02*
X003921Y022761D01*
X003895Y022602D02*
X003465Y022602D01*
X003624Y022444D02*
X003736Y022444D01*
X003680Y022285D02*
X003680Y022285D01*
X003680Y022127D02*
X003680Y022127D01*
X003685Y021968D02*
X003675Y021968D01*
X003517Y021810D02*
X003843Y021810D01*
X003944Y021651D02*
X003416Y021651D01*
X003575Y021493D02*
X003785Y021493D01*
X003680Y021334D02*
X003680Y021334D01*
X003680Y021176D02*
X003680Y021176D01*
X003680Y021017D02*
X003680Y021017D01*
X003794Y020859D02*
X003566Y020859D01*
X002953Y020700D02*
X001660Y020700D01*
X001660Y020542D02*
X002834Y020542D01*
X002680Y020383D02*
X001660Y020383D01*
X001660Y020225D02*
X002680Y020225D01*
X002680Y020066D02*
X001660Y020066D01*
X001660Y019908D02*
X002745Y019908D01*
X002904Y019749D02*
X001660Y019749D01*
X001660Y019591D02*
X002883Y019591D01*
X002725Y019432D02*
X001660Y019432D01*
X001660Y019274D02*
X002680Y019274D01*
X002680Y019115D02*
X001660Y019115D01*
X001660Y018957D02*
X002696Y018957D01*
X002855Y018798D02*
X001660Y018798D01*
X001660Y018640D02*
X002932Y018640D01*
X002774Y018481D02*
X001660Y018481D01*
X001660Y018323D02*
X002680Y018323D01*
X002680Y018164D02*
X001660Y018164D01*
X001660Y018006D02*
X002680Y018006D01*
X002806Y017847D02*
X001660Y017847D01*
X001660Y017689D02*
X002964Y017689D01*
X002823Y017530D02*
X001660Y017530D01*
X001660Y017372D02*
X002680Y017372D01*
X002680Y017213D02*
X001660Y017213D01*
X001660Y017055D02*
X002680Y017055D01*
X002757Y016896D02*
X001660Y016896D01*
X001660Y016738D02*
X002915Y016738D01*
X002872Y016579D02*
X001660Y016579D01*
X001660Y016421D02*
X002713Y016421D01*
X002680Y016262D02*
X001660Y016262D01*
X001660Y016104D02*
X002680Y016104D01*
X002708Y015945D02*
X001660Y015945D01*
X001660Y015787D02*
X002866Y015787D01*
X003667Y014400D02*
X003680Y014387D01*
X003680Y013973D01*
X003680Y014387D01*
X003693Y014400D01*
X003667Y014400D01*
X003680Y014360D02*
X003680Y014360D01*
X003680Y014202D02*
X003680Y014202D01*
X003680Y014043D02*
X003680Y014043D01*
X003768Y013885D02*
X003592Y013885D01*
X003433Y013726D02*
X003927Y013726D01*
X003860Y013568D02*
X003500Y013568D01*
X003658Y013409D02*
X003702Y013409D01*
X003680Y013387D02*
X003680Y013076D01*
X003680Y013076D01*
X003680Y013387D01*
X003680Y013251D02*
X003680Y013251D01*
X003680Y013092D02*
X003680Y013092D01*
X003680Y012680D02*
X003180Y013180D01*
X003180Y009180D02*
X002430Y009180D01*
X002180Y008930D01*
X002180Y005680D01*
X002680Y005180D01*
X002981Y005700D02*
X002700Y005981D01*
X002700Y006160D01*
X003160Y006160D01*
X003160Y006200D01*
X003200Y006200D01*
X003200Y006660D01*
X003379Y006660D01*
X003660Y006379D01*
X003660Y006200D01*
X003200Y006200D01*
X003200Y006160D01*
X003660Y006160D01*
X003660Y005981D01*
X003379Y005700D01*
X003200Y005700D01*
X003200Y006160D01*
X003160Y006160D01*
X003160Y005700D01*
X002981Y005700D01*
X002880Y005801D02*
X002460Y005801D01*
X002460Y005960D02*
X002722Y005960D01*
X002700Y006118D02*
X002460Y006118D01*
X002460Y006277D02*
X002700Y006277D01*
X002700Y006200D02*
X002700Y006379D01*
X002981Y006660D01*
X003160Y006660D01*
X003160Y006200D01*
X002700Y006200D01*
X002756Y006435D02*
X002460Y006435D01*
X002460Y006594D02*
X002915Y006594D01*
X002981Y006700D02*
X002700Y006981D01*
X002700Y007160D01*
X003160Y007160D01*
X003160Y007200D01*
X003200Y007200D01*
X003200Y007660D01*
X003379Y007660D01*
X003660Y007379D01*
X003660Y007200D01*
X003200Y007200D01*
X003200Y007160D01*
X003660Y007160D01*
X003660Y006981D01*
X003379Y006700D01*
X003200Y006700D01*
X003200Y007160D01*
X003160Y007160D01*
X003160Y006700D01*
X002981Y006700D01*
X002929Y006752D02*
X002460Y006752D01*
X002460Y006911D02*
X002771Y006911D01*
X002700Y007069D02*
X002460Y007069D01*
X002460Y007228D02*
X002700Y007228D01*
X002700Y007200D02*
X002700Y007379D01*
X002981Y007660D01*
X003160Y007660D01*
X003160Y007200D01*
X002700Y007200D01*
X002707Y007386D02*
X002460Y007386D01*
X002460Y007545D02*
X002866Y007545D01*
X002950Y007703D02*
X002460Y007703D01*
X002460Y007862D02*
X002791Y007862D01*
X002680Y008020D02*
X002460Y008020D01*
X002460Y008179D02*
X002680Y008179D01*
X002680Y008337D02*
X002460Y008337D01*
X002460Y008496D02*
X002788Y008496D01*
X002947Y008654D02*
X002460Y008654D01*
X002460Y008813D02*
X002840Y008813D01*
X003572Y008496D02*
X003788Y008496D01*
X003680Y008337D02*
X003680Y008337D01*
X003680Y008179D02*
X003680Y008179D01*
X003680Y008020D02*
X003680Y008020D01*
X003791Y007862D02*
X003569Y007862D01*
X003410Y007703D02*
X003950Y007703D01*
X003866Y007545D02*
X003494Y007545D01*
X003653Y007386D02*
X003707Y007386D01*
X003700Y007228D02*
X003660Y007228D01*
X003660Y007069D02*
X003700Y007069D01*
X003771Y006911D02*
X003589Y006911D01*
X003431Y006752D02*
X003929Y006752D01*
X003915Y006594D02*
X003445Y006594D01*
X003604Y006435D02*
X003756Y006435D01*
X003700Y006277D02*
X003660Y006277D01*
X003660Y006118D02*
X003700Y006118D01*
X003722Y005960D02*
X003638Y005960D01*
X003480Y005801D02*
X003880Y005801D01*
X003200Y005801D02*
X003160Y005801D01*
X003160Y005960D02*
X003200Y005960D01*
X003200Y006118D02*
X003160Y006118D01*
X003160Y006277D02*
X003200Y006277D01*
X003200Y006435D02*
X003160Y006435D01*
X003160Y006594D02*
X003200Y006594D01*
X003200Y006752D02*
X003160Y006752D01*
X003160Y006911D02*
X003200Y006911D01*
X003200Y007069D02*
X003160Y007069D01*
X003160Y007228D02*
X003200Y007228D01*
X003200Y007386D02*
X003160Y007386D01*
X003160Y007545D02*
X003200Y007545D01*
X011167Y017021D02*
X011167Y017021D01*
X010900Y019432D02*
X010063Y019432D01*
X010237Y019591D02*
X010900Y019591D01*
X010900Y019749D02*
X010395Y019749D01*
X010554Y019908D02*
X010900Y019908D01*
X010900Y020066D02*
X010712Y020066D01*
X010871Y020225D02*
X010900Y020225D01*
X010700Y022602D02*
X010660Y022602D01*
X010660Y022761D02*
X010700Y022761D01*
X010740Y022919D02*
X010620Y022919D01*
X010461Y023078D02*
X010899Y023078D01*
X009899Y023078D02*
X009433Y023078D01*
X009592Y022919D02*
X009740Y022919D01*
X009700Y022761D02*
X009640Y022761D01*
X009640Y022602D02*
X009700Y022602D01*
X009738Y022444D02*
X009594Y022444D01*
X009557Y027357D02*
X010881Y027357D01*
X010740Y027516D02*
X009675Y027516D01*
X009675Y027674D02*
X010740Y027674D01*
X010740Y027833D02*
X009675Y027833D01*
X009569Y027991D02*
X010869Y027991D01*
X011180Y027991D02*
X011180Y027991D01*
X011180Y027833D02*
X011180Y027833D01*
X011180Y027674D02*
X011180Y027674D01*
X011180Y027516D02*
X011180Y027516D01*
X011180Y027357D02*
X011180Y027357D01*
X010901Y028308D02*
X009536Y028308D01*
X009784Y029576D02*
X009821Y029576D01*
X009845Y030369D02*
X009610Y030369D01*
X009255Y030369D02*
X009251Y030369D01*
X008882Y030369D02*
X008653Y030369D01*
X008148Y030369D02*
X008063Y030369D01*
X007708Y030369D02*
X007622Y030369D01*
X007117Y030369D02*
X007107Y030369D01*
X006601Y030369D02*
X006075Y030369D01*
X006117Y030326D02*
X006117Y030326D01*
X006208Y030210D02*
X006469Y030210D01*
X006452Y030052D02*
X006228Y030052D01*
X006221Y029893D02*
X006501Y029893D01*
X006449Y029735D02*
X006108Y029735D01*
X005874Y029576D02*
X006502Y029576D01*
X005030Y029576D02*
X004993Y029576D01*
X004590Y029576D02*
X004553Y029576D01*
X004464Y030369D02*
X003788Y030369D01*
X003433Y030369D02*
X003228Y030369D01*
X003215Y029576D02*
X003178Y029576D01*
X002906Y025614D02*
X001660Y025614D01*
X001660Y025455D02*
X002748Y025455D01*
X002680Y025297D02*
X001660Y025297D01*
X001660Y025138D02*
X002680Y025138D01*
X002680Y024980D02*
X001660Y024980D01*
X001660Y024821D02*
X002832Y024821D01*
X002955Y024663D02*
X001660Y024663D01*
X001660Y024504D02*
X002797Y024504D01*
X002680Y024346D02*
X001660Y024346D01*
X001660Y024187D02*
X002680Y024187D01*
X002680Y024029D02*
X001660Y024029D01*
X001660Y023870D02*
X002783Y023870D01*
X002941Y023712D02*
X001660Y023712D01*
X001660Y023553D02*
X002874Y023553D01*
X002981Y023660D02*
X002700Y023379D01*
X002700Y023200D01*
X003160Y023200D01*
X003200Y023200D01*
X003200Y023160D01*
X003160Y023160D01*
X003160Y023200D01*
X003160Y023660D01*
X002981Y023660D01*
X003160Y023553D02*
X003200Y023553D01*
X003200Y023395D02*
X003160Y023395D01*
X003160Y023236D02*
X003200Y023236D01*
X003160Y023160D02*
X002700Y023160D01*
X002700Y022981D01*
X002981Y022700D01*
X003160Y022700D01*
X003160Y023160D01*
X003160Y023078D02*
X003200Y023078D01*
X003200Y022919D02*
X003160Y022919D01*
X003160Y022761D02*
X003200Y022761D01*
X002921Y022761D02*
X001660Y022761D01*
X001660Y022919D02*
X002762Y022919D01*
X002700Y023078D02*
X001660Y023078D01*
X001660Y023236D02*
X002700Y023236D01*
X002716Y023395D02*
X001660Y023395D01*
X001660Y022602D02*
X002895Y022602D01*
X002736Y022444D02*
X001660Y022444D01*
X001660Y022285D02*
X002680Y022285D01*
X002680Y022127D02*
X001660Y022127D01*
X001660Y021968D02*
X002685Y021968D01*
X002843Y021810D02*
X001660Y021810D01*
X001660Y021651D02*
X002944Y021651D01*
X002785Y021493D02*
X001660Y021493D01*
X001660Y021334D02*
X002680Y021334D01*
X002680Y021176D02*
X001660Y021176D01*
X001660Y021017D02*
X002680Y021017D01*
X002794Y020859D02*
X001660Y020859D01*
X003405Y024663D02*
X003955Y024663D01*
X018460Y005643D02*
X022700Y005643D01*
X022700Y005801D02*
X021480Y005801D01*
X021638Y005960D02*
X022700Y005960D01*
X022700Y006118D02*
X021660Y006118D01*
X021660Y006277D02*
X022700Y006277D01*
X022700Y006435D02*
X021604Y006435D01*
X021445Y006594D02*
X022700Y006594D01*
X022700Y006752D02*
X021431Y006752D01*
X021589Y006911D02*
X022700Y006911D01*
X022700Y007069D02*
X021660Y007069D01*
X021660Y007228D02*
X022700Y007228D01*
X022700Y007386D02*
X021653Y007386D01*
X021494Y007545D02*
X022700Y007545D01*
X022700Y007703D02*
X021382Y007703D01*
X021540Y007862D02*
X022700Y007862D01*
X022700Y008020D02*
X021660Y008020D01*
X020820Y007862D02*
X020569Y007862D01*
X020680Y008020D02*
X020700Y008020D01*
X020756Y006435D02*
X020604Y006435D01*
X020660Y006277D02*
X020700Y006277D01*
X020700Y006160D02*
X021160Y006160D01*
X021160Y005700D01*
X020981Y005700D01*
X020700Y005981D01*
X020700Y006160D01*
X020700Y006118D02*
X020660Y006118D01*
X020638Y005960D02*
X020722Y005960D01*
X020880Y005801D02*
X020480Y005801D01*
X020460Y005326D02*
X018460Y005326D01*
X018460Y005484D02*
X022700Y005484D01*
X022700Y005326D02*
X021900Y005326D01*
X021928Y005317D02*
X021928Y005317D01*
X022162Y005167D02*
X022700Y005167D01*
X022700Y005009D02*
X022386Y005009D01*
X022359Y005040D02*
X022359Y005040D01*
X022359Y005040D01*
X022524Y004850D02*
X022700Y004850D01*
X022700Y004692D02*
X022661Y004692D01*
X022694Y004653D02*
X022694Y004653D01*
X021200Y005801D02*
X021160Y005801D01*
X021160Y005960D02*
X021200Y005960D01*
X021200Y006118D02*
X021160Y006118D01*
X021160Y006277D02*
X021200Y006277D01*
X021200Y006435D02*
X021160Y006435D01*
X020432Y005317D02*
X020432Y005317D01*
X020198Y005167D02*
X018460Y005167D01*
X018404Y005009D02*
X019974Y005009D01*
X019836Y004850D02*
X018246Y004850D01*
X018087Y004692D02*
X019699Y004692D01*
X019611Y004533D02*
X017929Y004533D01*
X021462Y009605D02*
X021900Y009605D01*
X021900Y009764D02*
X021471Y009764D01*
X021629Y009922D02*
X021900Y009922D01*
X021900Y010081D02*
X021680Y010081D01*
X021680Y010239D02*
X021900Y010239D01*
X021900Y010398D02*
X021670Y010398D01*
X021511Y010556D02*
X021900Y010556D01*
X021900Y010715D02*
X021422Y010715D01*
X021580Y010873D02*
X021900Y010873D01*
X021900Y011032D02*
X021680Y011032D01*
X021680Y011190D02*
X021900Y011190D01*
X021866Y011349D02*
X021680Y011349D01*
X020680Y021680D02*
X021180Y022180D01*
X020680Y022680D02*
X021180Y023180D01*
X020180Y022180D02*
X019430Y022180D01*
X020405Y024663D02*
X020955Y024663D01*
M02*
