G75*
%MOIN*%
%OFA0B0*%
%FSLAX24Y24*%
%IPPOS*%
%LPD*%
%AMOC8*
5,1,8,0,0,1.08239X$1,22.5*
%
%ADD10OC8,0.0600*%
%ADD11OC8,0.0560*%
%ADD12C,0.0520*%
%ADD13OC8,0.0520*%
%ADD14OC8,0.0630*%
%ADD15C,0.0630*%
%ADD16C,0.0600*%
%ADD17C,0.0320*%
%ADD18C,0.0160*%
D10*
X002680Y006180D03*
X002680Y007180D03*
X002680Y008180D03*
X002680Y009180D03*
X002680Y010180D03*
X002680Y011180D03*
X002680Y012180D03*
X002680Y013180D03*
X002680Y014180D03*
X002680Y015180D03*
X002680Y016180D03*
X002680Y017180D03*
X002680Y018180D03*
X002680Y019180D03*
X002680Y020180D03*
X002680Y021180D03*
X002680Y022180D03*
X002680Y023180D03*
X002680Y024180D03*
X002680Y025180D03*
X003680Y025180D03*
X003680Y024180D03*
X003680Y023180D03*
X003680Y022180D03*
X003680Y021180D03*
X003680Y020180D03*
X003680Y019180D03*
X003680Y018180D03*
X003680Y017180D03*
X003680Y016180D03*
X003680Y015180D03*
X003680Y014180D03*
X003680Y013180D03*
X003680Y012180D03*
X003680Y011180D03*
X003680Y010180D03*
X003680Y009180D03*
X003680Y008180D03*
X003680Y007180D03*
X003680Y006180D03*
X019680Y006180D03*
X019680Y007180D03*
X019680Y008180D03*
X019680Y009180D03*
X019680Y010180D03*
X019680Y011180D03*
X019680Y012180D03*
X019680Y013180D03*
X019680Y014180D03*
X019680Y015180D03*
X019680Y016180D03*
X019680Y017180D03*
X019680Y018180D03*
X019680Y019180D03*
X019680Y020180D03*
X019680Y021180D03*
X019680Y022180D03*
X019680Y023180D03*
X019680Y024180D03*
X019680Y025180D03*
X020680Y025180D03*
X020680Y024180D03*
X020680Y023180D03*
X020680Y022180D03*
X020680Y021180D03*
X020680Y020180D03*
X020680Y019180D03*
X020680Y018180D03*
X020680Y017180D03*
X020680Y016180D03*
X020680Y015180D03*
X020680Y014180D03*
X020680Y013180D03*
X020680Y012180D03*
X020680Y011180D03*
X020680Y010180D03*
X020680Y009180D03*
X020680Y008180D03*
X020680Y007180D03*
X020680Y006180D03*
D11*
X012680Y021680D03*
X012680Y022680D03*
X011680Y022680D03*
X011680Y021680D03*
X010680Y021680D03*
X010680Y022680D03*
X009680Y022680D03*
X009680Y021680D03*
X008680Y021680D03*
X008680Y022680D03*
D12*
X009680Y009940D02*
X009680Y009420D01*
X010680Y009420D02*
X010680Y009940D01*
X011680Y009940D02*
X011680Y009420D01*
X012680Y009420D02*
X012680Y009940D01*
X013680Y009940D02*
X013680Y009420D01*
X014680Y009420D02*
X014680Y009940D01*
X015680Y009940D02*
X015680Y009420D01*
X016680Y009420D02*
X016680Y009940D01*
X017680Y009940D02*
X017680Y009420D01*
X014680Y006440D02*
X014680Y005920D01*
X013680Y005920D02*
X013680Y006440D01*
X012680Y006440D02*
X012680Y005920D01*
X011680Y005920D02*
X011680Y006440D01*
X010680Y006440D02*
X010680Y005920D01*
X009680Y005920D02*
X009680Y006440D01*
X008680Y006440D02*
X008680Y005920D01*
D13*
X009680Y011180D03*
X009680Y012180D03*
X010680Y012180D03*
X010680Y011180D03*
X011680Y011180D03*
X011680Y012180D03*
X012680Y012180D03*
X012680Y011180D03*
X013680Y011180D03*
X013680Y012180D03*
X014680Y012180D03*
X014680Y011180D03*
X015680Y011180D03*
X015680Y012180D03*
X016680Y012180D03*
X016680Y011180D03*
X014680Y017180D03*
X014680Y019680D03*
X010680Y017180D03*
X009680Y019680D03*
X006180Y020180D03*
X006180Y024180D03*
X011680Y026680D03*
X011680Y028680D03*
D14*
X009180Y027680D03*
D15*
X009180Y028680D03*
D16*
X013180Y027480D02*
X013180Y026880D01*
X014180Y026880D02*
X014180Y027480D01*
X015180Y027480D02*
X015180Y026880D01*
X017180Y026880D02*
X017180Y027480D01*
X018180Y027480D02*
X018180Y026880D01*
X019180Y026880D02*
X019180Y027480D01*
D17*
X019180Y028680D02*
X018180Y028680D01*
X018180Y027180D01*
X018180Y028680D02*
X014180Y028680D01*
X014180Y027180D01*
X014180Y028680D02*
X011680Y028680D01*
X009180Y028680D01*
X007180Y028680D01*
X003680Y025180D01*
X002680Y025180D01*
X002680Y024180D02*
X003680Y024180D01*
X006180Y024180D01*
X009680Y021680D02*
X009680Y019680D01*
X013430Y017180D02*
X008430Y012180D01*
X008430Y009180D01*
X009180Y008430D01*
X012430Y008430D01*
X013680Y007180D01*
X013680Y006180D01*
X013430Y017180D02*
X014680Y017180D01*
X014680Y019680D01*
X014680Y020180D01*
X018680Y024180D01*
X019680Y024180D01*
X020680Y024180D01*
X020680Y025180D02*
X020680Y027180D01*
X019180Y028680D01*
X019680Y025180D02*
X020680Y025180D01*
D18*
X019490Y002160D02*
X001290Y002160D01*
X001290Y026738D01*
X001292Y026734D01*
X001633Y026367D01*
X001633Y026367D01*
X001633Y026367D01*
X002066Y026116D01*
X002066Y026116D01*
X002554Y026005D01*
X002554Y026005D01*
X003054Y026042D01*
X003054Y026042D01*
X003520Y026225D01*
X003520Y026225D01*
X003912Y026537D01*
X003912Y026537D01*
X003912Y026537D01*
X004194Y026951D01*
X004194Y026951D01*
X004341Y027430D01*
X004341Y027930D01*
X004194Y028409D01*
X004194Y028409D01*
X003912Y028823D01*
X003912Y028823D01*
X003520Y029135D01*
X003520Y029135D01*
X003054Y029318D01*
X003054Y029318D01*
X002554Y029355D01*
X002554Y029355D01*
X002066Y029244D01*
X002066Y029244D01*
X001633Y028993D01*
X001633Y028993D01*
X001292Y028626D01*
X001292Y028626D01*
X001290Y028622D01*
X001290Y030696D01*
X021700Y030696D01*
X021700Y004388D01*
X021694Y004409D01*
X021694Y004409D01*
X021412Y004823D01*
X021412Y004823D01*
X021412Y004823D01*
X021020Y005135D01*
X021020Y005135D01*
X020554Y005318D01*
X020554Y005318D01*
X020054Y005355D01*
X020054Y005355D01*
X019566Y005244D01*
X019566Y005244D01*
X019133Y004993D01*
X019133Y004993D01*
X018792Y004626D01*
X018792Y004626D01*
X018575Y004175D01*
X018575Y004175D01*
X018500Y003680D01*
X018575Y003185D01*
X018792Y002734D01*
X018792Y002734D01*
X019133Y002367D01*
X019133Y002367D01*
X019490Y002160D01*
X019224Y002314D02*
X001290Y002314D01*
X001290Y002473D02*
X019034Y002473D01*
X018887Y002631D02*
X001290Y002631D01*
X001290Y002790D02*
X018765Y002790D01*
X018689Y002948D02*
X001290Y002948D01*
X001290Y003107D02*
X018612Y003107D01*
X018575Y003185D02*
X018575Y003185D01*
X018563Y003265D02*
X001290Y003265D01*
X001290Y003424D02*
X018539Y003424D01*
X018515Y003582D02*
X001290Y003582D01*
X001290Y003741D02*
X018509Y003741D01*
X018533Y003899D02*
X001290Y003899D01*
X001290Y004058D02*
X018557Y004058D01*
X018594Y004216D02*
X001290Y004216D01*
X001290Y004375D02*
X018671Y004375D01*
X018747Y004533D02*
X001290Y004533D01*
X001290Y004692D02*
X018852Y004692D01*
X018999Y004850D02*
X001290Y004850D01*
X001290Y005009D02*
X002012Y005009D01*
X002044Y004977D02*
X001977Y005044D01*
X001477Y005544D01*
X001440Y005632D01*
X001440Y008228D01*
X001477Y008316D01*
X001544Y008383D01*
X002220Y009059D01*
X002220Y009371D01*
X002489Y009640D01*
X002871Y009640D01*
X003140Y009371D01*
X003140Y008989D01*
X002871Y008720D01*
X002559Y008720D01*
X001920Y008081D01*
X001920Y005779D01*
X002279Y005420D01*
X011081Y005420D01*
X011333Y005673D01*
X011324Y005682D01*
X011260Y005836D01*
X011260Y006524D01*
X011324Y006678D01*
X011442Y006796D01*
X011596Y006860D01*
X011764Y006860D01*
X011918Y006796D01*
X012036Y006678D01*
X012100Y006524D01*
X012100Y005836D01*
X012036Y005682D01*
X011918Y005564D01*
X011886Y005551D01*
X011883Y005544D01*
X011816Y005477D01*
X011316Y004977D01*
X011228Y004940D01*
X002132Y004940D01*
X002044Y004977D01*
X002180Y005180D02*
X011180Y005180D01*
X011680Y005680D01*
X011680Y006180D01*
X011260Y006118D02*
X011100Y006118D01*
X011100Y005960D02*
X011260Y005960D01*
X011275Y005801D02*
X011085Y005801D01*
X011100Y005836D02*
X011036Y005682D01*
X010918Y005564D01*
X010764Y005500D01*
X010596Y005500D01*
X010442Y005564D01*
X010324Y005682D01*
X010260Y005836D01*
X010260Y006524D01*
X010324Y006678D01*
X010333Y006687D01*
X009581Y007440D01*
X006632Y007440D01*
X006544Y007477D01*
X006477Y007544D01*
X004477Y009544D01*
X004440Y009632D01*
X004440Y012081D01*
X004081Y012440D01*
X004071Y012440D01*
X004140Y012371D01*
X004140Y011989D01*
X003871Y011720D01*
X003489Y011720D01*
X003220Y011989D01*
X003220Y012371D01*
X003289Y012440D01*
X003132Y012440D01*
X003044Y012477D01*
X002977Y012544D01*
X002801Y012720D01*
X002489Y012720D01*
X002220Y012989D01*
X002220Y013371D01*
X002489Y013640D01*
X002871Y013640D01*
X003140Y013371D01*
X003140Y013059D01*
X003279Y012920D01*
X003289Y012920D01*
X003220Y012989D01*
X003220Y013371D01*
X003489Y013640D01*
X003871Y013640D01*
X004140Y013371D01*
X004140Y012989D01*
X004071Y012920D01*
X004228Y012920D01*
X004316Y012883D01*
X004816Y012383D01*
X004883Y012316D01*
X004920Y012228D01*
X004920Y009779D01*
X006779Y007920D01*
X009728Y007920D01*
X009816Y007883D01*
X010816Y006883D01*
X010883Y006816D01*
X010886Y006809D01*
X010918Y006796D01*
X011036Y006678D01*
X011100Y006524D01*
X011100Y005836D01*
X010996Y005643D02*
X011303Y005643D01*
X011145Y005484D02*
X002215Y005484D01*
X002057Y005643D02*
X008364Y005643D01*
X008324Y005682D02*
X008260Y005836D01*
X008260Y005940D01*
X006132Y005940D01*
X006044Y005977D01*
X004086Y007935D01*
X003871Y007720D01*
X003489Y007720D01*
X003220Y007989D01*
X003220Y008371D01*
X003489Y008640D01*
X003871Y008640D01*
X004091Y008420D01*
X004228Y008420D01*
X004316Y008383D01*
X004383Y008316D01*
X006279Y006420D01*
X008260Y006420D01*
X008260Y006524D01*
X008324Y006678D01*
X008442Y006796D01*
X008596Y006860D01*
X008764Y006860D01*
X008918Y006796D01*
X009036Y006678D01*
X009100Y006524D01*
X009100Y005836D01*
X009036Y005682D01*
X008918Y005564D01*
X008764Y005500D01*
X008596Y005500D01*
X008442Y005564D01*
X008324Y005682D01*
X008275Y005801D02*
X003980Y005801D01*
X003879Y005700D02*
X004160Y005981D01*
X004160Y006160D01*
X003700Y006160D01*
X003700Y006200D01*
X003700Y006660D01*
X003879Y006660D01*
X004160Y006379D01*
X004160Y006200D01*
X003700Y006200D01*
X003660Y006200D01*
X003660Y006660D01*
X003481Y006660D01*
X003200Y006379D01*
X003200Y006200D01*
X003660Y006200D01*
X003660Y006160D01*
X003200Y006160D01*
X003200Y005981D01*
X003481Y005700D01*
X003660Y005700D01*
X003660Y006160D01*
X003700Y006160D01*
X003700Y005700D01*
X003879Y005700D01*
X003700Y005801D02*
X003660Y005801D01*
X003660Y005960D02*
X003700Y005960D01*
X003700Y006118D02*
X003660Y006118D01*
X003660Y006277D02*
X003700Y006277D01*
X003700Y006435D02*
X003660Y006435D01*
X003660Y006594D02*
X003700Y006594D01*
X003700Y006700D02*
X003700Y007160D01*
X004160Y007160D01*
X004160Y006981D01*
X003879Y006700D01*
X003700Y006700D01*
X003660Y006700D02*
X003481Y006700D01*
X003200Y006981D01*
X003200Y007160D01*
X003660Y007160D01*
X003660Y007200D01*
X003700Y007200D01*
X003700Y007660D01*
X003879Y007660D01*
X004160Y007379D01*
X004160Y007200D01*
X003700Y007200D01*
X003700Y007160D01*
X003660Y007160D01*
X003660Y006700D01*
X003660Y006752D02*
X003700Y006752D01*
X003700Y006911D02*
X003660Y006911D01*
X003660Y007069D02*
X003700Y007069D01*
X003660Y007200D02*
X003200Y007200D01*
X003200Y007379D01*
X003481Y007660D01*
X003660Y007660D01*
X003660Y007200D01*
X003660Y007228D02*
X003700Y007228D01*
X003700Y007386D02*
X003660Y007386D01*
X003660Y007545D02*
X003700Y007545D01*
X003366Y007545D02*
X002994Y007545D01*
X002879Y007660D02*
X003160Y007379D01*
X003160Y007200D01*
X002700Y007200D01*
X002700Y007660D01*
X002879Y007660D01*
X002871Y007720D02*
X002489Y007720D01*
X002220Y007989D01*
X002220Y008371D01*
X002489Y008640D01*
X002871Y008640D01*
X003140Y008371D01*
X003140Y007989D01*
X002871Y007720D01*
X003012Y007862D02*
X003348Y007862D01*
X003220Y008020D02*
X003140Y008020D01*
X003140Y008179D02*
X003220Y008179D01*
X003220Y008337D02*
X003140Y008337D01*
X003015Y008496D02*
X003345Y008496D01*
X003489Y008720D02*
X003220Y008989D01*
X003220Y009371D01*
X003489Y009640D01*
X003871Y009640D01*
X004091Y009420D01*
X004228Y009420D01*
X004316Y009383D01*
X006279Y007420D01*
X009228Y007420D01*
X009316Y007383D01*
X009816Y006883D01*
X009883Y006816D01*
X009886Y006809D01*
X009918Y006796D01*
X010036Y006678D01*
X010100Y006524D01*
X010100Y005836D01*
X010036Y005682D01*
X009918Y005564D01*
X009764Y005500D01*
X009596Y005500D01*
X009442Y005564D01*
X009324Y005682D01*
X009260Y005836D01*
X009260Y006524D01*
X009324Y006678D01*
X009333Y006687D01*
X009081Y006940D01*
X006132Y006940D01*
X006044Y006977D01*
X005977Y007044D01*
X004086Y008935D01*
X003871Y008720D01*
X003489Y008720D01*
X003397Y008813D02*
X002963Y008813D01*
X003122Y008971D02*
X003238Y008971D01*
X003220Y009130D02*
X003140Y009130D01*
X003140Y009288D02*
X003220Y009288D01*
X003296Y009447D02*
X003064Y009447D01*
X002906Y009605D02*
X003454Y009605D01*
X003489Y009720D02*
X003220Y009989D01*
X003220Y010371D01*
X003489Y010640D01*
X003871Y010640D01*
X004140Y010371D01*
X004140Y009989D01*
X003871Y009720D01*
X003489Y009720D01*
X003446Y009764D02*
X002914Y009764D01*
X002871Y009720D02*
X002489Y009720D01*
X002220Y009989D01*
X002220Y010371D01*
X002489Y010640D01*
X002871Y010640D01*
X003140Y010371D01*
X003140Y009989D01*
X002871Y009720D01*
X003073Y009922D02*
X003287Y009922D01*
X003220Y010081D02*
X003140Y010081D01*
X003140Y010239D02*
X003220Y010239D01*
X003247Y010398D02*
X003113Y010398D01*
X002955Y010556D02*
X003405Y010556D01*
X003489Y010720D02*
X003220Y010989D01*
X003220Y011371D01*
X003489Y011640D01*
X003871Y011640D01*
X004140Y011371D01*
X004140Y010989D01*
X003871Y010720D01*
X003489Y010720D01*
X003336Y010873D02*
X003024Y010873D01*
X003140Y010989D02*
X002871Y010720D01*
X002489Y010720D01*
X002220Y010989D01*
X002220Y011371D01*
X002489Y011640D01*
X002871Y011640D01*
X003140Y011371D01*
X003140Y010989D01*
X003140Y011032D02*
X003220Y011032D01*
X003220Y011190D02*
X003140Y011190D01*
X003140Y011349D02*
X003220Y011349D01*
X003356Y011507D02*
X003004Y011507D01*
X002871Y011720D02*
X002489Y011720D01*
X002220Y011989D01*
X002220Y012371D01*
X002489Y012640D01*
X002871Y012640D01*
X003140Y012371D01*
X003140Y011989D01*
X002871Y011720D01*
X002975Y011824D02*
X003385Y011824D01*
X003227Y011983D02*
X003133Y011983D01*
X003140Y012141D02*
X003220Y012141D01*
X003220Y012300D02*
X003140Y012300D01*
X003089Y012458D02*
X003053Y012458D01*
X002904Y012617D02*
X002894Y012617D01*
X003180Y012680D02*
X004180Y012680D01*
X004680Y012180D01*
X004680Y009680D01*
X006680Y007680D01*
X009680Y007680D01*
X010680Y006680D01*
X010680Y006180D01*
X010289Y006594D02*
X010071Y006594D01*
X010100Y006435D02*
X010260Y006435D01*
X010260Y006277D02*
X010100Y006277D01*
X010100Y006118D02*
X010260Y006118D01*
X010260Y005960D02*
X010100Y005960D01*
X010085Y005801D02*
X010275Y005801D01*
X010364Y005643D02*
X009996Y005643D01*
X009680Y006180D02*
X009680Y006680D01*
X009180Y007180D01*
X006180Y007180D01*
X004180Y009180D01*
X003680Y009180D01*
X003963Y008813D02*
X004208Y008813D01*
X004367Y008654D02*
X002493Y008654D01*
X002345Y008496D02*
X002335Y008496D01*
X002220Y008337D02*
X002176Y008337D01*
X002220Y008179D02*
X002018Y008179D01*
X001920Y008020D02*
X002220Y008020D01*
X002348Y007862D02*
X001920Y007862D01*
X001920Y007703D02*
X004318Y007703D01*
X004476Y007545D02*
X003994Y007545D01*
X004153Y007386D02*
X004635Y007386D01*
X004793Y007228D02*
X004160Y007228D01*
X004160Y007069D02*
X004952Y007069D01*
X005110Y006911D02*
X004089Y006911D01*
X003931Y006752D02*
X005269Y006752D01*
X005427Y006594D02*
X003945Y006594D01*
X004104Y006435D02*
X005586Y006435D01*
X005744Y006277D02*
X004160Y006277D01*
X004160Y006118D02*
X005903Y006118D01*
X006085Y005960D02*
X004138Y005960D01*
X003380Y005801D02*
X002980Y005801D01*
X002879Y005700D02*
X003160Y005981D01*
X003160Y006160D01*
X002700Y006160D01*
X002700Y006200D01*
X002700Y006660D01*
X002879Y006660D01*
X003160Y006379D01*
X003160Y006200D01*
X002700Y006200D01*
X002660Y006200D01*
X002660Y006660D01*
X002481Y006660D01*
X002200Y006379D01*
X002200Y006200D01*
X002660Y006200D01*
X002660Y006160D01*
X002200Y006160D01*
X002200Y005981D01*
X002481Y005700D01*
X002660Y005700D01*
X002660Y006160D01*
X002700Y006160D01*
X002700Y005700D01*
X002879Y005700D01*
X002700Y005801D02*
X002660Y005801D01*
X002660Y005960D02*
X002700Y005960D01*
X002700Y006118D02*
X002660Y006118D01*
X002660Y006277D02*
X002700Y006277D01*
X002700Y006435D02*
X002660Y006435D01*
X002660Y006594D02*
X002700Y006594D01*
X002700Y006700D02*
X002700Y007160D01*
X003160Y007160D01*
X003160Y006981D01*
X002879Y006700D01*
X002700Y006700D01*
X002660Y006700D02*
X002481Y006700D01*
X002200Y006981D01*
X002200Y007160D01*
X002660Y007160D01*
X002660Y007200D01*
X002700Y007200D01*
X002700Y007160D01*
X002660Y007160D01*
X002660Y006700D01*
X002660Y006752D02*
X002700Y006752D01*
X002700Y006911D02*
X002660Y006911D01*
X002660Y007069D02*
X002700Y007069D01*
X002660Y007200D02*
X002200Y007200D01*
X002200Y007379D01*
X002481Y007660D01*
X002660Y007660D01*
X002660Y007200D01*
X002660Y007228D02*
X002700Y007228D01*
X002700Y007386D02*
X002660Y007386D01*
X002660Y007545D02*
X002700Y007545D01*
X002366Y007545D02*
X001920Y007545D01*
X001920Y007386D02*
X002207Y007386D01*
X002200Y007228D02*
X001920Y007228D01*
X001920Y007069D02*
X002200Y007069D01*
X002271Y006911D02*
X001920Y006911D01*
X001920Y006752D02*
X002429Y006752D01*
X002415Y006594D02*
X001920Y006594D01*
X001920Y006435D02*
X002256Y006435D01*
X002200Y006277D02*
X001920Y006277D01*
X001920Y006118D02*
X002200Y006118D01*
X002222Y005960D02*
X001920Y005960D01*
X001920Y005801D02*
X002380Y005801D01*
X002180Y005180D02*
X001680Y005680D01*
X001680Y008180D01*
X002680Y009180D01*
X002454Y009605D02*
X001290Y009605D01*
X001290Y009447D02*
X002296Y009447D01*
X002220Y009288D02*
X001290Y009288D01*
X001290Y009130D02*
X002220Y009130D01*
X002132Y008971D02*
X001290Y008971D01*
X001290Y008813D02*
X001973Y008813D01*
X001815Y008654D02*
X001290Y008654D01*
X001290Y008496D02*
X001656Y008496D01*
X001498Y008337D02*
X001290Y008337D01*
X001290Y008179D02*
X001440Y008179D01*
X001440Y008020D02*
X001290Y008020D01*
X001290Y007862D02*
X001440Y007862D01*
X001440Y007703D02*
X001290Y007703D01*
X001290Y007545D02*
X001440Y007545D01*
X001440Y007386D02*
X001290Y007386D01*
X001290Y007228D02*
X001440Y007228D01*
X001440Y007069D02*
X001290Y007069D01*
X001290Y006911D02*
X001440Y006911D01*
X001440Y006752D02*
X001290Y006752D01*
X001290Y006594D02*
X001440Y006594D01*
X001440Y006435D02*
X001290Y006435D01*
X001290Y006277D02*
X001440Y006277D01*
X001440Y006118D02*
X001290Y006118D01*
X001290Y005960D02*
X001440Y005960D01*
X001440Y005801D02*
X001290Y005801D01*
X001290Y005643D02*
X001440Y005643D01*
X001537Y005484D02*
X001290Y005484D01*
X001290Y005326D02*
X001695Y005326D01*
X001854Y005167D02*
X001290Y005167D01*
X002945Y006594D02*
X003415Y006594D01*
X003429Y006752D02*
X002931Y006752D01*
X003089Y006911D02*
X003271Y006911D01*
X003200Y007069D02*
X003160Y007069D01*
X003160Y007228D02*
X003200Y007228D01*
X003207Y007386D02*
X003153Y007386D01*
X003104Y006435D02*
X003256Y006435D01*
X003200Y006277D02*
X003160Y006277D01*
X003160Y006118D02*
X003200Y006118D01*
X003222Y005960D02*
X003138Y005960D01*
X004012Y007862D02*
X004159Y007862D01*
X004180Y008180D02*
X003680Y008180D01*
X004015Y008496D02*
X004525Y008496D01*
X004684Y008337D02*
X004362Y008337D01*
X004521Y008179D02*
X004842Y008179D01*
X005001Y008020D02*
X004679Y008020D01*
X004838Y007862D02*
X005159Y007862D01*
X005318Y007703D02*
X004996Y007703D01*
X005155Y007545D02*
X005476Y007545D01*
X005635Y007386D02*
X005313Y007386D01*
X005472Y007228D02*
X005793Y007228D01*
X005952Y007069D02*
X005630Y007069D01*
X005789Y006911D02*
X009110Y006911D01*
X008962Y006752D02*
X009269Y006752D01*
X009289Y006594D02*
X009071Y006594D01*
X009100Y006435D02*
X009260Y006435D01*
X009260Y006277D02*
X009100Y006277D01*
X009100Y006118D02*
X009260Y006118D01*
X009260Y005960D02*
X009100Y005960D01*
X009085Y005801D02*
X009275Y005801D01*
X009364Y005643D02*
X008996Y005643D01*
X008680Y006180D02*
X006180Y006180D01*
X004180Y008180D01*
X004887Y008813D02*
X005208Y008813D01*
X005050Y008971D02*
X004728Y008971D01*
X004570Y009130D02*
X004891Y009130D01*
X004733Y009288D02*
X004411Y009288D01*
X004574Y009447D02*
X004064Y009447D01*
X003906Y009605D02*
X004451Y009605D01*
X004440Y009764D02*
X003914Y009764D01*
X004073Y009922D02*
X004440Y009922D01*
X004440Y010081D02*
X004140Y010081D01*
X004140Y010239D02*
X004440Y010239D01*
X004440Y010398D02*
X004113Y010398D01*
X003955Y010556D02*
X004440Y010556D01*
X004440Y010715D02*
X001290Y010715D01*
X001290Y010873D02*
X002336Y010873D01*
X002220Y011032D02*
X001290Y011032D01*
X001290Y011190D02*
X002220Y011190D01*
X002220Y011349D02*
X001290Y011349D01*
X001290Y011507D02*
X002356Y011507D01*
X002385Y011824D02*
X001290Y011824D01*
X001290Y011666D02*
X004440Y011666D01*
X004440Y011824D02*
X003975Y011824D01*
X004133Y011983D02*
X004440Y011983D01*
X004380Y012141D02*
X004140Y012141D01*
X004140Y012300D02*
X004221Y012300D01*
X004583Y012617D02*
X008414Y012617D01*
X008572Y012775D02*
X004424Y012775D01*
X004084Y012934D02*
X008731Y012934D01*
X008889Y013092D02*
X004140Y013092D01*
X004140Y013251D02*
X009048Y013251D01*
X009206Y013409D02*
X004102Y013409D01*
X003943Y013568D02*
X009365Y013568D01*
X009523Y013726D02*
X003877Y013726D01*
X003871Y013720D02*
X003489Y013720D01*
X003220Y013989D01*
X003220Y014371D01*
X003289Y014440D01*
X003132Y014440D01*
X003044Y014477D01*
X002977Y014544D01*
X002801Y014720D01*
X002489Y014720D01*
X002220Y014989D01*
X002220Y015371D01*
X002489Y015640D01*
X002871Y015640D01*
X003140Y015371D01*
X003140Y015059D01*
X003279Y014920D01*
X003289Y014920D01*
X003220Y014989D01*
X003220Y015371D01*
X003489Y015640D01*
X003871Y015640D01*
X004091Y015420D01*
X009581Y015420D01*
X013440Y019279D01*
X013440Y023728D01*
X013477Y023816D01*
X014940Y025279D01*
X014940Y026482D01*
X014919Y026490D01*
X014790Y026619D01*
X014720Y026788D01*
X014720Y027571D01*
X014790Y027741D01*
X014919Y027870D01*
X015089Y027940D01*
X015272Y027940D01*
X015441Y027870D01*
X015570Y027741D01*
X015640Y027571D01*
X015640Y026788D01*
X015570Y026619D01*
X015441Y026490D01*
X015420Y026482D01*
X015420Y025132D01*
X015383Y025044D01*
X015316Y024977D01*
X013920Y023581D01*
X013920Y019259D01*
X013940Y019279D01*
X013940Y021228D01*
X013977Y021316D01*
X018940Y026279D01*
X018940Y026482D01*
X018919Y026490D01*
X018790Y026619D01*
X018720Y026788D01*
X018720Y027571D01*
X018790Y027741D01*
X018919Y027870D01*
X019089Y027940D01*
X019272Y027940D01*
X019441Y027870D01*
X019570Y027741D01*
X019640Y027571D01*
X019640Y026788D01*
X019570Y026619D01*
X019441Y026490D01*
X019420Y026482D01*
X019420Y026132D01*
X019383Y026044D01*
X019316Y025977D01*
X014420Y021081D01*
X014420Y020373D01*
X018409Y024361D01*
X018499Y024451D01*
X018616Y024500D01*
X019349Y024500D01*
X019489Y024640D01*
X019871Y024640D01*
X020011Y024500D01*
X020349Y024500D01*
X020489Y024640D01*
X020871Y024640D01*
X021140Y024371D01*
X021140Y023989D01*
X020871Y023720D01*
X020489Y023720D01*
X020349Y023860D01*
X020011Y023860D01*
X019871Y023720D01*
X019489Y023720D01*
X019349Y023860D01*
X018813Y023860D01*
X015000Y020047D01*
X015000Y019954D01*
X015100Y019854D01*
X015100Y019506D01*
X015000Y019406D01*
X015000Y017454D01*
X015100Y017354D01*
X015100Y017006D01*
X014854Y016760D01*
X014506Y016760D01*
X014406Y016860D01*
X013563Y016860D01*
X013116Y016413D01*
X013132Y016420D01*
X015081Y016420D01*
X015440Y016779D01*
X015440Y020228D01*
X015477Y020316D01*
X018544Y023383D01*
X018632Y023420D01*
X019269Y023420D01*
X019489Y023640D01*
X019871Y023640D01*
X020140Y023371D01*
X020140Y022989D01*
X020071Y022920D01*
X020081Y022920D01*
X020220Y023059D01*
X020220Y023371D01*
X020489Y023640D01*
X020871Y023640D01*
X021140Y023371D01*
X021140Y022989D01*
X020871Y022720D01*
X020559Y022720D01*
X020316Y022477D01*
X020228Y022440D01*
X020071Y022440D01*
X020140Y022371D01*
X020140Y021989D01*
X020071Y021920D01*
X020081Y021920D01*
X020220Y022059D01*
X020220Y022371D01*
X020489Y022640D01*
X020871Y022640D01*
X021140Y022371D01*
X021140Y021989D01*
X020871Y021720D01*
X020559Y021720D01*
X020316Y021477D01*
X020228Y021440D01*
X020071Y021440D01*
X020140Y021371D01*
X020140Y020989D01*
X020071Y020920D01*
X020081Y020920D01*
X020220Y021059D01*
X020220Y021371D01*
X020489Y021640D01*
X020871Y021640D01*
X021140Y021371D01*
X021140Y020989D01*
X020871Y020720D01*
X020559Y020720D01*
X020316Y020477D01*
X020228Y020440D01*
X020071Y020440D01*
X020140Y020371D01*
X020140Y019989D01*
X019871Y019720D01*
X019489Y019720D01*
X019274Y019935D01*
X018920Y019581D01*
X018920Y013632D01*
X018883Y013544D01*
X018816Y013477D01*
X018316Y012977D01*
X018228Y012940D01*
X016279Y012940D01*
X015920Y012581D01*
X015920Y012534D01*
X016100Y012354D01*
X016100Y012006D01*
X015854Y011760D01*
X015506Y011760D01*
X015260Y012006D01*
X015260Y012354D01*
X015440Y012534D01*
X015440Y012728D01*
X015477Y012816D01*
X015977Y013316D01*
X016044Y013383D01*
X016132Y013420D01*
X018081Y013420D01*
X018440Y013779D01*
X018440Y019728D01*
X018477Y019816D01*
X018977Y020316D01*
X019044Y020383D01*
X018722Y020383D01*
X018779Y020440D02*
X018420Y020081D01*
X018420Y014132D01*
X018383Y014044D01*
X018316Y013977D01*
X017816Y013477D01*
X017728Y013440D01*
X015779Y013440D01*
X014920Y012581D01*
X014920Y012534D01*
X015100Y012354D01*
X015100Y012006D01*
X014854Y011760D01*
X014506Y011760D01*
X014260Y012006D01*
X014260Y012354D01*
X014440Y012534D01*
X014440Y012728D01*
X014477Y012816D01*
X015477Y013816D01*
X015544Y013883D01*
X015632Y013920D01*
X017581Y013920D01*
X017940Y014279D01*
X017940Y020101D01*
X017920Y020081D01*
X017920Y014632D01*
X017883Y014544D01*
X017816Y014477D01*
X017316Y013977D01*
X017228Y013940D01*
X015279Y013940D01*
X013920Y012581D01*
X013920Y012534D01*
X014100Y012354D01*
X014100Y012006D01*
X013854Y011760D01*
X013506Y011760D01*
X013260Y012006D01*
X013260Y012354D01*
X013440Y012534D01*
X013440Y012728D01*
X013477Y012816D01*
X014977Y014316D01*
X015044Y014383D01*
X015132Y014420D01*
X017081Y014420D01*
X017440Y014779D01*
X017440Y020101D01*
X017420Y020081D01*
X017420Y015132D01*
X017383Y015044D01*
X017316Y014977D01*
X016816Y014477D01*
X016728Y014440D01*
X014779Y014440D01*
X012920Y012581D01*
X012920Y012534D01*
X013100Y012354D01*
X013100Y012006D01*
X012854Y011760D01*
X012506Y011760D01*
X012260Y012006D01*
X012260Y012354D01*
X012440Y012534D01*
X012440Y012728D01*
X012477Y012816D01*
X014477Y014816D01*
X014544Y014883D01*
X014632Y014920D01*
X016581Y014920D01*
X016940Y015279D01*
X016940Y020101D01*
X016920Y020081D01*
X016920Y015632D01*
X016883Y015544D01*
X016816Y015477D01*
X016316Y014977D01*
X016228Y014940D01*
X014279Y014940D01*
X011920Y012581D01*
X011920Y012534D01*
X012100Y012354D01*
X012100Y012006D01*
X011854Y011760D01*
X011506Y011760D01*
X011260Y012006D01*
X011260Y012354D01*
X011440Y012534D01*
X011440Y012728D01*
X011477Y012816D01*
X013977Y015316D01*
X014044Y015383D01*
X014132Y015420D01*
X016081Y015420D01*
X016440Y015779D01*
X016440Y020101D01*
X016420Y020081D01*
X016420Y016132D01*
X016383Y016044D01*
X016316Y015977D01*
X015816Y015477D01*
X015728Y015440D01*
X013779Y015440D01*
X010920Y012581D01*
X010920Y012534D01*
X011100Y012354D01*
X011100Y012006D01*
X010854Y011760D01*
X010506Y011760D01*
X010260Y012006D01*
X010260Y012354D01*
X010440Y012534D01*
X010440Y012728D01*
X010477Y012816D01*
X013477Y015816D01*
X013544Y015883D01*
X013632Y015920D01*
X015581Y015920D01*
X015940Y016279D01*
X015940Y020101D01*
X015920Y020081D01*
X015920Y016632D01*
X015883Y016544D01*
X015816Y016477D01*
X015316Y015977D01*
X015228Y015940D01*
X013279Y015940D01*
X009920Y012581D01*
X009920Y012534D01*
X010100Y012354D01*
X010100Y012006D01*
X009854Y011760D01*
X009506Y011760D01*
X009260Y012006D01*
X009260Y012354D01*
X009440Y012534D01*
X009440Y012728D01*
X009447Y012744D01*
X008750Y012047D01*
X008750Y009313D01*
X009313Y008750D01*
X012494Y008750D01*
X012611Y008701D01*
X013861Y007451D01*
X013951Y007361D01*
X014000Y007244D01*
X014000Y006714D01*
X014036Y006678D01*
X014100Y006524D01*
X014100Y005836D01*
X014036Y005682D01*
X013918Y005564D01*
X013764Y005500D01*
X013596Y005500D01*
X013442Y005564D01*
X013324Y005682D01*
X013260Y005836D01*
X013260Y006524D01*
X013324Y006678D01*
X013360Y006714D01*
X013360Y007047D01*
X012297Y008110D01*
X009116Y008110D01*
X008999Y008159D01*
X008909Y008249D01*
X008159Y008999D01*
X008110Y009116D01*
X008110Y012244D01*
X008159Y012361D01*
X008249Y012451D01*
X013249Y017451D01*
X013366Y017500D01*
X014360Y017500D01*
X014360Y019021D01*
X014316Y018977D01*
X009816Y014477D01*
X009728Y014440D01*
X004071Y014440D01*
X004140Y014371D01*
X004140Y013989D01*
X003871Y013720D01*
X004035Y013885D02*
X009682Y013885D01*
X009840Y014043D02*
X004140Y014043D01*
X004140Y014202D02*
X009999Y014202D01*
X010157Y014360D02*
X004140Y014360D01*
X003680Y015180D02*
X009680Y015180D01*
X013680Y019180D01*
X013680Y023680D01*
X015180Y025180D01*
X015180Y027180D01*
X014720Y027199D02*
X014640Y027199D01*
X014640Y027357D02*
X014720Y027357D01*
X014720Y027516D02*
X014640Y027516D01*
X014640Y027571D02*
X014570Y027741D01*
X014500Y027811D01*
X014500Y028360D01*
X017860Y028360D01*
X017860Y027811D01*
X017790Y027741D01*
X017720Y027571D01*
X017720Y026788D01*
X017790Y026619D01*
X017919Y026490D01*
X018089Y026420D01*
X018272Y026420D01*
X018441Y026490D01*
X018570Y026619D01*
X018640Y026788D01*
X018640Y027571D01*
X018570Y027741D01*
X018500Y027811D01*
X018500Y028360D01*
X019047Y028360D01*
X020360Y027047D01*
X020360Y025511D01*
X020349Y025500D01*
X020011Y025500D01*
X019871Y025640D01*
X019489Y025640D01*
X019220Y025371D01*
X019220Y024989D01*
X019489Y024720D01*
X019871Y024720D01*
X020011Y024860D01*
X020349Y024860D01*
X020489Y024720D01*
X020871Y024720D01*
X021140Y024989D01*
X021140Y025371D01*
X021000Y025511D01*
X021000Y027244D01*
X020951Y027361D01*
X019451Y028861D01*
X019361Y028951D01*
X019244Y029000D01*
X011954Y029000D01*
X011854Y029100D01*
X011506Y029100D01*
X011406Y029000D01*
X009532Y029000D01*
X009449Y029083D01*
X009274Y029155D01*
X009086Y029155D01*
X008911Y029083D01*
X008828Y029000D01*
X007116Y029000D01*
X006999Y028951D01*
X003687Y025640D01*
X003489Y025640D01*
X003349Y025500D01*
X003011Y025500D01*
X002871Y025640D01*
X002489Y025640D01*
X002220Y025371D01*
X002220Y024989D01*
X002489Y024720D01*
X002871Y024720D01*
X003011Y024860D01*
X003349Y024860D01*
X003489Y024720D01*
X003871Y024720D01*
X004140Y024989D01*
X004140Y025187D01*
X007313Y028360D01*
X008828Y028360D01*
X008911Y028277D01*
X009086Y028205D01*
X009274Y028205D01*
X009449Y028277D01*
X009532Y028360D01*
X011406Y028360D01*
X011506Y028260D01*
X011854Y028260D01*
X011954Y028360D01*
X013860Y028360D01*
X013860Y027811D01*
X013790Y027741D01*
X013720Y027571D01*
X013720Y026788D01*
X013790Y026619D01*
X013919Y026490D01*
X014089Y026420D01*
X014272Y026420D01*
X014441Y026490D01*
X014570Y026619D01*
X014640Y026788D01*
X014640Y027571D01*
X014598Y027674D02*
X014762Y027674D01*
X014882Y027833D02*
X014500Y027833D01*
X014500Y027991D02*
X017860Y027991D01*
X017860Y027833D02*
X017506Y027833D01*
X017493Y027846D02*
X017546Y027793D01*
X017591Y027732D01*
X017625Y027664D01*
X017648Y027592D01*
X017660Y027518D01*
X017660Y027200D01*
X017200Y027200D01*
X017200Y027960D01*
X017218Y027960D01*
X017292Y027948D01*
X017364Y027925D01*
X017432Y027891D01*
X017493Y027846D01*
X017620Y027674D02*
X017762Y027674D01*
X017720Y027516D02*
X017660Y027516D01*
X017660Y027357D02*
X017720Y027357D01*
X017720Y027199D02*
X017200Y027199D01*
X017200Y027200D02*
X017200Y027160D01*
X017160Y027160D01*
X017160Y027200D01*
X016700Y027200D01*
X016700Y027518D01*
X016712Y027592D01*
X016735Y027664D01*
X016769Y027732D01*
X016814Y027793D01*
X016867Y027846D01*
X016928Y027891D01*
X016996Y027925D01*
X017068Y027948D01*
X017142Y027960D01*
X017160Y027960D01*
X017160Y027200D01*
X017200Y027200D01*
X017200Y027160D02*
X017660Y027160D01*
X017660Y026842D01*
X017648Y026768D01*
X017625Y026696D01*
X017591Y026628D01*
X017546Y026567D01*
X017493Y026514D01*
X017432Y026469D01*
X017364Y026435D01*
X017292Y026412D01*
X017218Y026400D01*
X017200Y026400D01*
X017200Y027160D01*
X017160Y027160D02*
X017160Y026400D01*
X017142Y026400D01*
X017068Y026412D01*
X016996Y026435D01*
X016928Y026469D01*
X016867Y026514D01*
X016814Y026567D01*
X016769Y026628D01*
X016735Y026696D01*
X016712Y026768D01*
X016700Y026842D01*
X016700Y027160D01*
X017160Y027160D01*
X017160Y027199D02*
X015640Y027199D01*
X015640Y027357D02*
X016700Y027357D01*
X016700Y027516D02*
X015640Y027516D01*
X015598Y027674D02*
X016740Y027674D01*
X016854Y027833D02*
X015478Y027833D01*
X015640Y027040D02*
X016700Y027040D01*
X016700Y026882D02*
X015640Y026882D01*
X015613Y026723D02*
X016726Y026723D01*
X016817Y026565D02*
X015515Y026565D01*
X015420Y026406D02*
X017104Y026406D01*
X017160Y026406D02*
X017200Y026406D01*
X017256Y026406D02*
X018940Y026406D01*
X018908Y026248D02*
X015420Y026248D01*
X015420Y026089D02*
X018750Y026089D01*
X018591Y025931D02*
X015420Y025931D01*
X015420Y025772D02*
X018433Y025772D01*
X018274Y025614D02*
X015420Y025614D01*
X015420Y025455D02*
X018116Y025455D01*
X017957Y025297D02*
X015420Y025297D01*
X015420Y025138D02*
X017799Y025138D01*
X017640Y024980D02*
X015319Y024980D01*
X015316Y024977D02*
X015316Y024977D01*
X015160Y024821D02*
X017482Y024821D01*
X017323Y024663D02*
X015002Y024663D01*
X014843Y024504D02*
X017165Y024504D01*
X017006Y024346D02*
X014685Y024346D01*
X014526Y024187D02*
X016848Y024187D01*
X016689Y024029D02*
X014368Y024029D01*
X014209Y023870D02*
X016531Y023870D01*
X016372Y023712D02*
X014051Y023712D01*
X013920Y023553D02*
X016214Y023553D01*
X016055Y023395D02*
X013920Y023395D01*
X013920Y023236D02*
X015897Y023236D01*
X015738Y023078D02*
X013920Y023078D01*
X013920Y022919D02*
X015580Y022919D01*
X015421Y022761D02*
X013920Y022761D01*
X013920Y022602D02*
X015263Y022602D01*
X015104Y022444D02*
X013920Y022444D01*
X013920Y022285D02*
X014946Y022285D01*
X014787Y022127D02*
X013920Y022127D01*
X013920Y021968D02*
X014629Y021968D01*
X014470Y021810D02*
X013920Y021810D01*
X013920Y021651D02*
X014312Y021651D01*
X014153Y021493D02*
X013920Y021493D01*
X013920Y021334D02*
X013995Y021334D01*
X013940Y021176D02*
X013920Y021176D01*
X013920Y021017D02*
X013940Y021017D01*
X013940Y020859D02*
X013920Y020859D01*
X013920Y020700D02*
X013940Y020700D01*
X013940Y020542D02*
X013920Y020542D01*
X013920Y020383D02*
X013940Y020383D01*
X013940Y020225D02*
X013920Y020225D01*
X013920Y020066D02*
X013940Y020066D01*
X013940Y019908D02*
X013920Y019908D01*
X013920Y019749D02*
X013940Y019749D01*
X013940Y019591D02*
X013920Y019591D01*
X013920Y019432D02*
X013940Y019432D01*
X013934Y019274D02*
X013920Y019274D01*
X014180Y019180D02*
X014180Y021180D01*
X019180Y026180D01*
X019180Y027180D01*
X019613Y026723D02*
X020360Y026723D01*
X020360Y026565D02*
X019515Y026565D01*
X019420Y026406D02*
X020360Y026406D01*
X020360Y026248D02*
X019420Y026248D01*
X019402Y026089D02*
X020360Y026089D01*
X020360Y025931D02*
X019270Y025931D01*
X019111Y025772D02*
X020360Y025772D01*
X020360Y025614D02*
X019897Y025614D01*
X019463Y025614D02*
X018953Y025614D01*
X018794Y025455D02*
X019305Y025455D01*
X019220Y025297D02*
X018636Y025297D01*
X018477Y025138D02*
X019220Y025138D01*
X019230Y024980D02*
X018319Y024980D01*
X018160Y024821D02*
X019388Y024821D01*
X019353Y024504D02*
X017843Y024504D01*
X017685Y024346D02*
X018393Y024346D01*
X018234Y024187D02*
X017526Y024187D01*
X017368Y024029D02*
X018076Y024029D01*
X017917Y023870D02*
X017209Y023870D01*
X017051Y023712D02*
X017759Y023712D01*
X017600Y023553D02*
X016892Y023553D01*
X016734Y023395D02*
X017442Y023395D01*
X017283Y023236D02*
X016575Y023236D01*
X016417Y023078D02*
X017125Y023078D01*
X016966Y022919D02*
X016258Y022919D01*
X016100Y022761D02*
X016808Y022761D01*
X016649Y022602D02*
X015941Y022602D01*
X015783Y022444D02*
X016491Y022444D01*
X016332Y022285D02*
X015624Y022285D01*
X015466Y022127D02*
X016174Y022127D01*
X016015Y021968D02*
X015307Y021968D01*
X015149Y021810D02*
X015857Y021810D01*
X015698Y021651D02*
X014990Y021651D01*
X014832Y021493D02*
X015540Y021493D01*
X015381Y021334D02*
X014673Y021334D01*
X014515Y021176D02*
X015223Y021176D01*
X015064Y021017D02*
X014420Y021017D01*
X014420Y020859D02*
X014906Y020859D01*
X014747Y020700D02*
X014420Y020700D01*
X014420Y020542D02*
X014589Y020542D01*
X014430Y020383D02*
X014420Y020383D01*
X015019Y020066D02*
X015440Y020066D01*
X015440Y019908D02*
X015046Y019908D01*
X015100Y019749D02*
X015440Y019749D01*
X015440Y019591D02*
X015100Y019591D01*
X015026Y019432D02*
X015440Y019432D01*
X015440Y019274D02*
X015000Y019274D01*
X015000Y019115D02*
X015440Y019115D01*
X015440Y018957D02*
X015000Y018957D01*
X015000Y018798D02*
X015440Y018798D01*
X015440Y018640D02*
X015000Y018640D01*
X015000Y018481D02*
X015440Y018481D01*
X015440Y018323D02*
X015000Y018323D01*
X015000Y018164D02*
X015440Y018164D01*
X015440Y018006D02*
X015000Y018006D01*
X015000Y017847D02*
X015440Y017847D01*
X015440Y017689D02*
X015000Y017689D01*
X015000Y017530D02*
X015440Y017530D01*
X015440Y017372D02*
X015082Y017372D01*
X015100Y017213D02*
X015440Y017213D01*
X015440Y017055D02*
X015100Y017055D01*
X014990Y016896D02*
X015440Y016896D01*
X015398Y016738D02*
X013440Y016738D01*
X013282Y016579D02*
X015240Y016579D01*
X015081Y016421D02*
X013123Y016421D01*
X013180Y016180D02*
X015180Y016180D01*
X015680Y016680D01*
X015680Y020180D01*
X018680Y023180D01*
X019680Y023180D01*
X019402Y023553D02*
X018506Y023553D01*
X018571Y023395D02*
X018347Y023395D01*
X018397Y023236D02*
X018189Y023236D01*
X018238Y023078D02*
X018030Y023078D01*
X018080Y022919D02*
X017872Y022919D01*
X017921Y022761D02*
X017713Y022761D01*
X017763Y022602D02*
X017555Y022602D01*
X017604Y022444D02*
X017396Y022444D01*
X017446Y022285D02*
X017238Y022285D01*
X017287Y022127D02*
X017079Y022127D01*
X017129Y021968D02*
X016921Y021968D01*
X016970Y021810D02*
X016762Y021810D01*
X016812Y021651D02*
X016604Y021651D01*
X016653Y021493D02*
X016445Y021493D01*
X016495Y021334D02*
X016287Y021334D01*
X016336Y021176D02*
X016128Y021176D01*
X016178Y021017D02*
X015970Y021017D01*
X016019Y020859D02*
X015811Y020859D01*
X015861Y020700D02*
X015653Y020700D01*
X015702Y020542D02*
X015494Y020542D01*
X015544Y020383D02*
X015336Y020383D01*
X015440Y020225D02*
X015177Y020225D01*
X015920Y020066D02*
X015940Y020066D01*
X015940Y019908D02*
X015920Y019908D01*
X015920Y019749D02*
X015940Y019749D01*
X015940Y019591D02*
X015920Y019591D01*
X015920Y019432D02*
X015940Y019432D01*
X015940Y019274D02*
X015920Y019274D01*
X015920Y019115D02*
X015940Y019115D01*
X015940Y018957D02*
X015920Y018957D01*
X015920Y018798D02*
X015940Y018798D01*
X015940Y018640D02*
X015920Y018640D01*
X015920Y018481D02*
X015940Y018481D01*
X015940Y018323D02*
X015920Y018323D01*
X015920Y018164D02*
X015940Y018164D01*
X015940Y018006D02*
X015920Y018006D01*
X015920Y017847D02*
X015940Y017847D01*
X015940Y017689D02*
X015920Y017689D01*
X015920Y017530D02*
X015940Y017530D01*
X015940Y017372D02*
X015920Y017372D01*
X015920Y017213D02*
X015940Y017213D01*
X015940Y017055D02*
X015920Y017055D01*
X015920Y016896D02*
X015940Y016896D01*
X015940Y016738D02*
X015920Y016738D01*
X015940Y016579D02*
X015898Y016579D01*
X015940Y016421D02*
X015760Y016421D01*
X015601Y016262D02*
X015923Y016262D01*
X015764Y016104D02*
X015443Y016104D01*
X015606Y015945D02*
X015240Y015945D01*
X015680Y015680D02*
X016180Y016180D01*
X016180Y020180D01*
X018680Y022680D01*
X020180Y022680D01*
X020680Y023180D01*
X020402Y023553D02*
X019958Y023553D01*
X020116Y023395D02*
X020244Y023395D01*
X020220Y023236D02*
X020140Y023236D01*
X020140Y023078D02*
X020220Y023078D01*
X020441Y022602D02*
X020451Y022602D01*
X020293Y022444D02*
X020236Y022444D01*
X020220Y022285D02*
X020140Y022285D01*
X020140Y022127D02*
X020220Y022127D01*
X020129Y021968D02*
X020119Y021968D01*
X020180Y021680D02*
X020680Y022180D01*
X020960Y021810D02*
X021700Y021810D01*
X021700Y021968D02*
X021119Y021968D01*
X021140Y022127D02*
X021700Y022127D01*
X021700Y022285D02*
X021140Y022285D01*
X021067Y022444D02*
X021700Y022444D01*
X021700Y022602D02*
X020909Y022602D01*
X020911Y022761D02*
X021700Y022761D01*
X021700Y022919D02*
X021070Y022919D01*
X021140Y023078D02*
X021700Y023078D01*
X021700Y023236D02*
X021140Y023236D01*
X021116Y023395D02*
X021700Y023395D01*
X021700Y023553D02*
X020958Y023553D01*
X021021Y023870D02*
X021700Y023870D01*
X021700Y023712D02*
X018664Y023712D01*
X018002Y024663D02*
X021700Y024663D01*
X021700Y024821D02*
X020972Y024821D01*
X021130Y024980D02*
X021700Y024980D01*
X021700Y025138D02*
X021140Y025138D01*
X021140Y025297D02*
X021700Y025297D01*
X021700Y025455D02*
X021055Y025455D01*
X021000Y025614D02*
X021700Y025614D01*
X021700Y025772D02*
X021000Y025772D01*
X021000Y025931D02*
X021700Y025931D01*
X021700Y026089D02*
X021000Y026089D01*
X021000Y026248D02*
X021700Y026248D01*
X021700Y026406D02*
X021000Y026406D01*
X021000Y026565D02*
X021700Y026565D01*
X021700Y026723D02*
X021000Y026723D01*
X021000Y026882D02*
X021700Y026882D01*
X021700Y027040D02*
X021000Y027040D01*
X021000Y027199D02*
X021700Y027199D01*
X021700Y027357D02*
X020953Y027357D01*
X020797Y027516D02*
X021700Y027516D01*
X021700Y027674D02*
X020639Y027674D01*
X020480Y027833D02*
X021700Y027833D01*
X021700Y027991D02*
X020322Y027991D01*
X020163Y028150D02*
X021700Y028150D01*
X021700Y028308D02*
X020005Y028308D01*
X019846Y028467D02*
X021700Y028467D01*
X021700Y028625D02*
X019688Y028625D01*
X019529Y028784D02*
X021700Y028784D01*
X021700Y028942D02*
X019371Y028942D01*
X019099Y028308D02*
X018500Y028308D01*
X018500Y028150D02*
X019258Y028150D01*
X019416Y027991D02*
X018500Y027991D01*
X018500Y027833D02*
X018882Y027833D01*
X018762Y027674D02*
X018598Y027674D01*
X018640Y027516D02*
X018720Y027516D01*
X018720Y027357D02*
X018640Y027357D01*
X018640Y027199D02*
X018720Y027199D01*
X018720Y027040D02*
X018640Y027040D01*
X018640Y026882D02*
X018720Y026882D01*
X018747Y026723D02*
X018613Y026723D01*
X018515Y026565D02*
X018845Y026565D01*
X019598Y027674D02*
X019733Y027674D01*
X019640Y027516D02*
X019892Y027516D01*
X020050Y027357D02*
X019640Y027357D01*
X019640Y027199D02*
X020209Y027199D01*
X020360Y027040D02*
X019640Y027040D01*
X019640Y026882D02*
X020360Y026882D01*
X019575Y027833D02*
X019478Y027833D01*
X017860Y028150D02*
X014500Y028150D01*
X014500Y028308D02*
X017860Y028308D01*
X017200Y027833D02*
X017160Y027833D01*
X017160Y027674D02*
X017200Y027674D01*
X017200Y027516D02*
X017160Y027516D01*
X017160Y027357D02*
X017200Y027357D01*
X017200Y027040D02*
X017160Y027040D01*
X017160Y026882D02*
X017200Y026882D01*
X017200Y026723D02*
X017160Y026723D01*
X017160Y026565D02*
X017200Y026565D01*
X017543Y026565D02*
X017845Y026565D01*
X017747Y026723D02*
X017634Y026723D01*
X017660Y026882D02*
X017720Y026882D01*
X017720Y027040D02*
X017660Y027040D01*
X019972Y024821D02*
X020388Y024821D01*
X020353Y024504D02*
X020007Y024504D01*
X021007Y024504D02*
X021700Y024504D01*
X021700Y024346D02*
X021140Y024346D01*
X021140Y024187D02*
X021700Y024187D01*
X021700Y024029D02*
X021140Y024029D01*
X019680Y022180D02*
X018680Y022180D01*
X016680Y020180D01*
X016680Y015680D01*
X016180Y015180D01*
X014180Y015180D01*
X011680Y012680D01*
X011680Y012180D01*
X011364Y012458D02*
X010996Y012458D01*
X010956Y012617D02*
X011440Y012617D01*
X011460Y012775D02*
X011114Y012775D01*
X011273Y012934D02*
X011594Y012934D01*
X011753Y013092D02*
X011431Y013092D01*
X011590Y013251D02*
X011911Y013251D01*
X012070Y013409D02*
X011748Y013409D01*
X011907Y013568D02*
X012228Y013568D01*
X012387Y013726D02*
X012065Y013726D01*
X012224Y013885D02*
X012545Y013885D01*
X012704Y014043D02*
X012382Y014043D01*
X012541Y014202D02*
X012862Y014202D01*
X013021Y014360D02*
X012699Y014360D01*
X012858Y014519D02*
X013179Y014519D01*
X013338Y014677D02*
X013016Y014677D01*
X013175Y014836D02*
X013496Y014836D01*
X013655Y014994D02*
X013333Y014994D01*
X013492Y015153D02*
X013813Y015153D01*
X013972Y015311D02*
X013650Y015311D01*
X013977Y015316D02*
X013977Y015316D01*
X013680Y015680D02*
X015680Y015680D01*
X015799Y015470D02*
X016130Y015470D01*
X016289Y015628D02*
X015967Y015628D01*
X016126Y015787D02*
X016440Y015787D01*
X016440Y015945D02*
X016284Y015945D01*
X016408Y016104D02*
X016440Y016104D01*
X016440Y016262D02*
X016420Y016262D01*
X016420Y016421D02*
X016440Y016421D01*
X016440Y016579D02*
X016420Y016579D01*
X016420Y016738D02*
X016440Y016738D01*
X016440Y016896D02*
X016420Y016896D01*
X016420Y017055D02*
X016440Y017055D01*
X016440Y017213D02*
X016420Y017213D01*
X016420Y017372D02*
X016440Y017372D01*
X016440Y017530D02*
X016420Y017530D01*
X016420Y017689D02*
X016440Y017689D01*
X016440Y017847D02*
X016420Y017847D01*
X016420Y018006D02*
X016440Y018006D01*
X016440Y018164D02*
X016420Y018164D01*
X016420Y018323D02*
X016440Y018323D01*
X016440Y018481D02*
X016420Y018481D01*
X016420Y018640D02*
X016440Y018640D01*
X016440Y018798D02*
X016420Y018798D01*
X016420Y018957D02*
X016440Y018957D01*
X016440Y019115D02*
X016420Y019115D01*
X016420Y019274D02*
X016440Y019274D01*
X016440Y019432D02*
X016420Y019432D01*
X016420Y019591D02*
X016440Y019591D01*
X016440Y019749D02*
X016420Y019749D01*
X016420Y019908D02*
X016440Y019908D01*
X016440Y020066D02*
X016420Y020066D01*
X016920Y020066D02*
X016940Y020066D01*
X016940Y019908D02*
X016920Y019908D01*
X016920Y019749D02*
X016940Y019749D01*
X016940Y019591D02*
X016920Y019591D01*
X016920Y019432D02*
X016940Y019432D01*
X016940Y019274D02*
X016920Y019274D01*
X016920Y019115D02*
X016940Y019115D01*
X016940Y018957D02*
X016920Y018957D01*
X016920Y018798D02*
X016940Y018798D01*
X016940Y018640D02*
X016920Y018640D01*
X016920Y018481D02*
X016940Y018481D01*
X016940Y018323D02*
X016920Y018323D01*
X016920Y018164D02*
X016940Y018164D01*
X016940Y018006D02*
X016920Y018006D01*
X016920Y017847D02*
X016940Y017847D01*
X016940Y017689D02*
X016920Y017689D01*
X016920Y017530D02*
X016940Y017530D01*
X016940Y017372D02*
X016920Y017372D01*
X016920Y017213D02*
X016940Y017213D01*
X016940Y017055D02*
X016920Y017055D01*
X016920Y016896D02*
X016940Y016896D01*
X016940Y016738D02*
X016920Y016738D01*
X016920Y016579D02*
X016940Y016579D01*
X016940Y016421D02*
X016920Y016421D01*
X016920Y016262D02*
X016940Y016262D01*
X016940Y016104D02*
X016920Y016104D01*
X016920Y015945D02*
X016940Y015945D01*
X016940Y015787D02*
X016920Y015787D01*
X016918Y015628D02*
X016940Y015628D01*
X016940Y015470D02*
X016809Y015470D01*
X016940Y015311D02*
X016650Y015311D01*
X016492Y015153D02*
X016813Y015153D01*
X016655Y014994D02*
X016333Y014994D01*
X016680Y014680D02*
X017180Y015180D01*
X017180Y020180D01*
X018680Y021680D01*
X020180Y021680D01*
X020332Y021493D02*
X020342Y021493D01*
X020220Y021334D02*
X020140Y021334D01*
X020140Y021176D02*
X020220Y021176D01*
X020178Y021017D02*
X020140Y021017D01*
X020180Y020680D02*
X020680Y021180D01*
X021009Y020859D02*
X021700Y020859D01*
X021700Y021017D02*
X021140Y021017D01*
X021140Y021176D02*
X021700Y021176D01*
X021700Y021334D02*
X021140Y021334D01*
X021018Y021493D02*
X021700Y021493D01*
X021700Y021651D02*
X020490Y021651D01*
X019680Y021180D02*
X018680Y021180D01*
X017680Y020180D01*
X017680Y014680D01*
X017180Y014180D01*
X015180Y014180D01*
X013680Y012680D01*
X013680Y012180D01*
X013364Y012458D02*
X012996Y012458D01*
X012956Y012617D02*
X013440Y012617D01*
X013460Y012775D02*
X013114Y012775D01*
X013273Y012934D02*
X013594Y012934D01*
X013753Y013092D02*
X013431Y013092D01*
X013590Y013251D02*
X013911Y013251D01*
X014070Y013409D02*
X013748Y013409D01*
X013907Y013568D02*
X014228Y013568D01*
X014387Y013726D02*
X014065Y013726D01*
X014224Y013885D02*
X014545Y013885D01*
X014704Y014043D02*
X014382Y014043D01*
X014541Y014202D02*
X014862Y014202D01*
X015021Y014360D02*
X014699Y014360D01*
X014680Y014680D02*
X016680Y014680D01*
X016858Y014519D02*
X017179Y014519D01*
X017338Y014677D02*
X017016Y014677D01*
X017175Y014836D02*
X017440Y014836D01*
X017440Y014994D02*
X017333Y014994D01*
X017420Y015153D02*
X017440Y015153D01*
X017440Y015311D02*
X017420Y015311D01*
X017420Y015470D02*
X017440Y015470D01*
X017440Y015628D02*
X017420Y015628D01*
X017420Y015787D02*
X017440Y015787D01*
X017440Y015945D02*
X017420Y015945D01*
X017420Y016104D02*
X017440Y016104D01*
X017440Y016262D02*
X017420Y016262D01*
X017420Y016421D02*
X017440Y016421D01*
X017440Y016579D02*
X017420Y016579D01*
X017420Y016738D02*
X017440Y016738D01*
X017440Y016896D02*
X017420Y016896D01*
X017420Y017055D02*
X017440Y017055D01*
X017440Y017213D02*
X017420Y017213D01*
X017420Y017372D02*
X017440Y017372D01*
X017440Y017530D02*
X017420Y017530D01*
X017420Y017689D02*
X017440Y017689D01*
X017440Y017847D02*
X017420Y017847D01*
X017420Y018006D02*
X017440Y018006D01*
X017440Y018164D02*
X017420Y018164D01*
X017420Y018323D02*
X017440Y018323D01*
X017440Y018481D02*
X017420Y018481D01*
X017420Y018640D02*
X017440Y018640D01*
X017440Y018798D02*
X017420Y018798D01*
X017420Y018957D02*
X017440Y018957D01*
X017440Y019115D02*
X017420Y019115D01*
X017420Y019274D02*
X017440Y019274D01*
X017440Y019432D02*
X017420Y019432D01*
X017420Y019591D02*
X017440Y019591D01*
X017440Y019749D02*
X017420Y019749D01*
X017420Y019908D02*
X017440Y019908D01*
X017440Y020066D02*
X017420Y020066D01*
X017920Y020066D02*
X017940Y020066D01*
X017940Y019908D02*
X017920Y019908D01*
X017920Y019749D02*
X017940Y019749D01*
X017940Y019591D02*
X017920Y019591D01*
X017920Y019432D02*
X017940Y019432D01*
X017940Y019274D02*
X017920Y019274D01*
X017920Y019115D02*
X017940Y019115D01*
X017940Y018957D02*
X017920Y018957D01*
X017920Y018798D02*
X017940Y018798D01*
X017940Y018640D02*
X017920Y018640D01*
X017920Y018481D02*
X017940Y018481D01*
X017940Y018323D02*
X017920Y018323D01*
X017920Y018164D02*
X017940Y018164D01*
X017940Y018006D02*
X017920Y018006D01*
X017920Y017847D02*
X017940Y017847D01*
X017940Y017689D02*
X017920Y017689D01*
X017920Y017530D02*
X017940Y017530D01*
X017940Y017372D02*
X017920Y017372D01*
X017920Y017213D02*
X017940Y017213D01*
X017940Y017055D02*
X017920Y017055D01*
X017920Y016896D02*
X017940Y016896D01*
X017940Y016738D02*
X017920Y016738D01*
X017920Y016579D02*
X017940Y016579D01*
X017940Y016421D02*
X017920Y016421D01*
X017920Y016262D02*
X017940Y016262D01*
X017940Y016104D02*
X017920Y016104D01*
X017920Y015945D02*
X017940Y015945D01*
X017940Y015787D02*
X017920Y015787D01*
X017920Y015628D02*
X017940Y015628D01*
X017940Y015470D02*
X017920Y015470D01*
X017920Y015311D02*
X017940Y015311D01*
X017940Y015153D02*
X017920Y015153D01*
X017920Y014994D02*
X017940Y014994D01*
X017940Y014836D02*
X017920Y014836D01*
X017920Y014677D02*
X017940Y014677D01*
X017940Y014519D02*
X017858Y014519D01*
X017940Y014360D02*
X017699Y014360D01*
X017541Y014202D02*
X017862Y014202D01*
X017704Y014043D02*
X017382Y014043D01*
X017680Y013680D02*
X018180Y014180D01*
X018180Y020180D01*
X018680Y020680D01*
X020180Y020680D01*
X020381Y020542D02*
X020391Y020542D01*
X020489Y020640D02*
X020871Y020640D01*
X021140Y020371D01*
X021140Y019989D01*
X020871Y019720D01*
X020489Y019720D01*
X020220Y019989D01*
X020220Y020371D01*
X020489Y020640D01*
X020539Y020700D02*
X021700Y020700D01*
X021700Y020542D02*
X020969Y020542D01*
X021128Y020383D02*
X021700Y020383D01*
X021700Y020225D02*
X021140Y020225D01*
X021140Y020066D02*
X021700Y020066D01*
X021700Y019908D02*
X021058Y019908D01*
X020900Y019749D02*
X021700Y019749D01*
X021700Y019591D02*
X020920Y019591D01*
X020871Y019640D02*
X021140Y019371D01*
X021140Y018989D01*
X020871Y018720D01*
X020489Y018720D01*
X020220Y018989D01*
X020220Y019371D01*
X020489Y019640D01*
X020871Y019640D01*
X021079Y019432D02*
X021700Y019432D01*
X021700Y019274D02*
X021140Y019274D01*
X021140Y019115D02*
X021700Y019115D01*
X021700Y018957D02*
X021107Y018957D01*
X020949Y018798D02*
X021700Y018798D01*
X021700Y018640D02*
X020871Y018640D01*
X021140Y018371D01*
X021140Y017989D01*
X020871Y017720D01*
X020489Y017720D01*
X020220Y017989D01*
X020220Y018371D01*
X020489Y018640D01*
X020871Y018640D01*
X021030Y018481D02*
X021700Y018481D01*
X021700Y018323D02*
X021140Y018323D01*
X021140Y018164D02*
X021700Y018164D01*
X021700Y018006D02*
X021140Y018006D01*
X020998Y017847D02*
X021700Y017847D01*
X021700Y017689D02*
X018920Y017689D01*
X018920Y017847D02*
X019362Y017847D01*
X019489Y017720D02*
X019220Y017989D01*
X019220Y018371D01*
X019489Y018640D01*
X019871Y018640D01*
X020140Y018371D01*
X020140Y017989D01*
X019871Y017720D01*
X019489Y017720D01*
X019489Y017640D02*
X019871Y017640D01*
X020140Y017371D01*
X020140Y016989D01*
X019871Y016720D01*
X019489Y016720D01*
X019220Y016989D01*
X019220Y017371D01*
X019489Y017640D01*
X019379Y017530D02*
X018920Y017530D01*
X018920Y017372D02*
X019221Y017372D01*
X019220Y017213D02*
X018920Y017213D01*
X018920Y017055D02*
X019220Y017055D01*
X019313Y016896D02*
X018920Y016896D01*
X018920Y016738D02*
X019472Y016738D01*
X019489Y016640D02*
X019871Y016640D01*
X020140Y016371D01*
X020140Y015989D01*
X019871Y015720D01*
X019489Y015720D01*
X019220Y015989D01*
X019220Y016371D01*
X019489Y016640D01*
X019428Y016579D02*
X018920Y016579D01*
X018920Y016421D02*
X019270Y016421D01*
X019220Y016262D02*
X018920Y016262D01*
X018920Y016104D02*
X019220Y016104D01*
X019264Y015945D02*
X018920Y015945D01*
X018920Y015787D02*
X019423Y015787D01*
X019489Y015640D02*
X019871Y015640D01*
X020140Y015371D01*
X020140Y014989D01*
X019871Y014720D01*
X019489Y014720D01*
X019220Y014989D01*
X019220Y015371D01*
X019489Y015640D01*
X019477Y015628D02*
X018920Y015628D01*
X018920Y015470D02*
X019319Y015470D01*
X019220Y015311D02*
X018920Y015311D01*
X018920Y015153D02*
X019220Y015153D01*
X019220Y014994D02*
X018920Y014994D01*
X018920Y014836D02*
X019374Y014836D01*
X019489Y014640D02*
X019220Y014371D01*
X019220Y013989D01*
X019489Y013720D01*
X019871Y013720D01*
X020140Y013989D01*
X020140Y014371D01*
X019871Y014640D01*
X019489Y014640D01*
X019368Y014519D02*
X018920Y014519D01*
X018920Y014677D02*
X021700Y014677D01*
X021700Y014519D02*
X020992Y014519D01*
X020871Y014640D02*
X021140Y014371D01*
X021140Y013989D01*
X020871Y013720D01*
X020489Y013720D01*
X020220Y013989D01*
X020220Y014371D01*
X020489Y014640D01*
X020871Y014640D01*
X020871Y014720D02*
X020489Y014720D01*
X020220Y014989D01*
X020220Y015371D01*
X020489Y015640D01*
X020871Y015640D01*
X021140Y015371D01*
X021140Y014989D01*
X020871Y014720D01*
X020986Y014836D02*
X021700Y014836D01*
X021700Y014994D02*
X021140Y014994D01*
X021140Y015153D02*
X021700Y015153D01*
X021700Y015311D02*
X021140Y015311D01*
X021041Y015470D02*
X021700Y015470D01*
X021700Y015628D02*
X020883Y015628D01*
X020871Y015720D02*
X020489Y015720D01*
X020220Y015989D01*
X020220Y016371D01*
X020489Y016640D01*
X020871Y016640D01*
X021140Y016371D01*
X021140Y015989D01*
X020871Y015720D01*
X020937Y015787D02*
X021700Y015787D01*
X021700Y015945D02*
X021096Y015945D01*
X021140Y016104D02*
X021700Y016104D01*
X021700Y016262D02*
X021140Y016262D01*
X021090Y016421D02*
X021700Y016421D01*
X021700Y016579D02*
X020932Y016579D01*
X020871Y016720D02*
X020489Y016720D01*
X020220Y016989D01*
X020220Y017371D01*
X020489Y017640D01*
X020871Y017640D01*
X021140Y017371D01*
X021140Y016989D01*
X020871Y016720D01*
X020888Y016738D02*
X021700Y016738D01*
X021700Y016896D02*
X021047Y016896D01*
X021140Y017055D02*
X021700Y017055D01*
X021700Y017213D02*
X021140Y017213D01*
X021139Y017372D02*
X021700Y017372D01*
X021700Y017530D02*
X020981Y017530D01*
X020379Y017530D02*
X019981Y017530D01*
X020139Y017372D02*
X020221Y017372D01*
X020220Y017213D02*
X020140Y017213D01*
X020140Y017055D02*
X020220Y017055D01*
X020313Y016896D02*
X020047Y016896D01*
X019888Y016738D02*
X020472Y016738D01*
X020428Y016579D02*
X019932Y016579D01*
X020090Y016421D02*
X020270Y016421D01*
X020220Y016262D02*
X020140Y016262D01*
X020140Y016104D02*
X020220Y016104D01*
X020264Y015945D02*
X020096Y015945D01*
X019937Y015787D02*
X020423Y015787D01*
X020477Y015628D02*
X019883Y015628D01*
X020041Y015470D02*
X020319Y015470D01*
X020220Y015311D02*
X020140Y015311D01*
X020140Y015153D02*
X020220Y015153D01*
X020220Y014994D02*
X020140Y014994D01*
X019986Y014836D02*
X020374Y014836D01*
X020368Y014519D02*
X019992Y014519D01*
X020140Y014360D02*
X020220Y014360D01*
X020220Y014202D02*
X020140Y014202D01*
X020140Y014043D02*
X020220Y014043D01*
X020325Y013885D02*
X020035Y013885D01*
X019877Y013726D02*
X020483Y013726D01*
X020489Y013640D02*
X020871Y013640D01*
X021140Y013371D01*
X021140Y012989D01*
X020871Y012720D01*
X020489Y012720D01*
X020220Y012989D01*
X020220Y013371D01*
X020489Y013640D01*
X020417Y013568D02*
X019943Y013568D01*
X019871Y013640D02*
X020140Y013371D01*
X020140Y012989D01*
X019871Y012720D01*
X019489Y012720D01*
X019220Y012989D01*
X019220Y013371D01*
X019489Y013640D01*
X019871Y013640D01*
X020102Y013409D02*
X020258Y013409D01*
X020220Y013251D02*
X020140Y013251D01*
X020140Y013092D02*
X020220Y013092D01*
X020276Y012934D02*
X020084Y012934D01*
X019926Y012775D02*
X020434Y012775D01*
X020489Y012640D02*
X020871Y012640D01*
X021140Y012371D01*
X021140Y011989D01*
X020871Y011720D01*
X020489Y011720D01*
X020220Y011989D01*
X020220Y012371D01*
X020489Y012640D01*
X020466Y012617D02*
X019894Y012617D01*
X019871Y012640D02*
X020140Y012371D01*
X020140Y011989D01*
X019871Y011720D01*
X019489Y011720D01*
X019220Y011989D01*
X019220Y012371D01*
X019489Y012640D01*
X019871Y012640D01*
X020053Y012458D02*
X020307Y012458D01*
X020220Y012300D02*
X020140Y012300D01*
X020140Y012141D02*
X020220Y012141D01*
X020227Y011983D02*
X020133Y011983D01*
X019975Y011824D02*
X020385Y011824D01*
X020489Y011640D02*
X020871Y011640D01*
X021140Y011371D01*
X021140Y010989D01*
X020871Y010720D01*
X020489Y010720D01*
X020220Y010989D01*
X020220Y011371D01*
X020489Y011640D01*
X020356Y011507D02*
X020004Y011507D01*
X019871Y011640D02*
X020140Y011371D01*
X020140Y010989D01*
X019871Y010720D01*
X019489Y010720D01*
X019220Y010989D01*
X019220Y011371D01*
X019489Y011640D01*
X019871Y011640D01*
X020140Y011349D02*
X020220Y011349D01*
X020220Y011190D02*
X020140Y011190D01*
X020140Y011032D02*
X020220Y011032D01*
X020336Y010873D02*
X020024Y010873D01*
X019871Y010640D02*
X020140Y010371D01*
X020140Y009989D01*
X020071Y009920D01*
X020228Y009920D01*
X020316Y009883D01*
X020559Y009640D01*
X020871Y009640D01*
X021140Y009371D01*
X021140Y008989D01*
X020871Y008720D01*
X020489Y008720D01*
X020220Y008989D01*
X020220Y009301D01*
X020081Y009440D01*
X020071Y009440D01*
X020140Y009371D01*
X020140Y008989D01*
X019871Y008720D01*
X019559Y008720D01*
X015883Y005044D01*
X015816Y004977D01*
X015728Y004940D01*
X013132Y004940D01*
X013044Y004977D01*
X012544Y005477D01*
X012477Y005544D01*
X012474Y005551D01*
X012442Y005564D01*
X012324Y005682D01*
X012260Y005836D01*
X012260Y006524D01*
X012324Y006678D01*
X012442Y006796D01*
X012596Y006860D01*
X012764Y006860D01*
X012918Y006796D01*
X013036Y006678D01*
X013100Y006524D01*
X013100Y005836D01*
X013036Y005682D01*
X013027Y005673D01*
X013279Y005420D01*
X015581Y005420D01*
X019220Y009059D01*
X019220Y009371D01*
X019289Y009440D01*
X019132Y009440D01*
X019044Y009477D01*
X018977Y009544D01*
X016761Y011760D01*
X016506Y011760D01*
X016260Y012006D01*
X016260Y012354D01*
X016506Y012600D01*
X016854Y012600D01*
X017100Y012354D01*
X017100Y012099D01*
X019279Y009920D01*
X019289Y009920D01*
X019220Y009989D01*
X019220Y010371D01*
X019489Y010640D01*
X019871Y010640D01*
X019955Y010556D02*
X020405Y010556D01*
X020489Y010640D02*
X020871Y010640D01*
X021140Y010371D01*
X021140Y009989D01*
X020871Y009720D01*
X020489Y009720D01*
X020220Y009989D01*
X020220Y010371D01*
X020489Y010640D01*
X020247Y010398D02*
X020113Y010398D01*
X020140Y010239D02*
X020220Y010239D01*
X020220Y010081D02*
X020140Y010081D01*
X020073Y009922D02*
X020287Y009922D01*
X020436Y009764D02*
X020446Y009764D01*
X020180Y009680D02*
X020680Y009180D01*
X020963Y008813D02*
X021700Y008813D01*
X021700Y008971D02*
X021122Y008971D01*
X021140Y009130D02*
X021700Y009130D01*
X021700Y009288D02*
X021140Y009288D01*
X021064Y009447D02*
X021700Y009447D01*
X021700Y009605D02*
X020906Y009605D01*
X020914Y009764D02*
X021700Y009764D01*
X021700Y009922D02*
X021073Y009922D01*
X021140Y010081D02*
X021700Y010081D01*
X021700Y010239D02*
X021140Y010239D01*
X021113Y010398D02*
X021700Y010398D01*
X021700Y010556D02*
X020955Y010556D01*
X021024Y010873D02*
X021700Y010873D01*
X021700Y010715D02*
X018485Y010715D01*
X018326Y010873D02*
X019336Y010873D01*
X019220Y011032D02*
X018168Y011032D01*
X018009Y011190D02*
X019220Y011190D01*
X019220Y011349D02*
X017851Y011349D01*
X017692Y011507D02*
X019356Y011507D01*
X019385Y011824D02*
X017375Y011824D01*
X017217Y011983D02*
X019227Y011983D01*
X019220Y012141D02*
X017100Y012141D01*
X017100Y012300D02*
X019220Y012300D01*
X019307Y012458D02*
X016996Y012458D01*
X016680Y012180D02*
X019180Y009680D01*
X020180Y009680D01*
X020220Y009288D02*
X020140Y009288D01*
X020140Y009130D02*
X020220Y009130D01*
X020238Y008971D02*
X020122Y008971D01*
X019963Y008813D02*
X020397Y008813D01*
X020481Y008660D02*
X020660Y008660D01*
X020660Y008200D01*
X020700Y008200D01*
X020700Y008660D01*
X020879Y008660D01*
X021160Y008379D01*
X021160Y008200D01*
X020700Y008200D01*
X020700Y008160D01*
X021160Y008160D01*
X021160Y007981D01*
X020879Y007700D01*
X020700Y007700D01*
X020700Y008160D01*
X020660Y008160D01*
X020660Y008200D01*
X020200Y008200D01*
X020200Y008379D01*
X020481Y008660D01*
X020475Y008654D02*
X019493Y008654D01*
X019489Y008640D02*
X019871Y008640D01*
X020140Y008371D01*
X020140Y007989D01*
X019871Y007720D01*
X019489Y007720D01*
X019220Y007989D01*
X019220Y008371D01*
X019489Y008640D01*
X019345Y008496D02*
X019335Y008496D01*
X019220Y008337D02*
X019176Y008337D01*
X019220Y008179D02*
X019018Y008179D01*
X018859Y008020D02*
X019220Y008020D01*
X019348Y007862D02*
X018701Y007862D01*
X018542Y007703D02*
X020478Y007703D01*
X020481Y007700D02*
X020200Y007981D01*
X020200Y008160D01*
X020660Y008160D01*
X020660Y007700D01*
X020481Y007700D01*
X020481Y007660D02*
X020660Y007660D01*
X020660Y007200D01*
X020700Y007200D01*
X020700Y007660D01*
X020879Y007660D01*
X021160Y007379D01*
X021160Y007200D01*
X020700Y007200D01*
X020700Y007160D01*
X021160Y007160D01*
X021160Y006981D01*
X020879Y006700D01*
X020700Y006700D01*
X020700Y007160D01*
X020660Y007160D01*
X020660Y007200D01*
X020200Y007200D01*
X020200Y007379D01*
X020481Y007660D01*
X020366Y007545D02*
X019994Y007545D01*
X019879Y007660D02*
X020160Y007379D01*
X020160Y007200D01*
X019700Y007200D01*
X019700Y007660D01*
X019879Y007660D01*
X019700Y007545D02*
X019660Y007545D01*
X019660Y007660D02*
X019660Y007200D01*
X019700Y007200D01*
X019700Y007160D01*
X020160Y007160D01*
X020160Y006981D01*
X019879Y006700D01*
X019700Y006700D01*
X019700Y007160D01*
X019660Y007160D01*
X019660Y007200D01*
X019200Y007200D01*
X019200Y007379D01*
X019481Y007660D01*
X019660Y007660D01*
X019660Y007386D02*
X019700Y007386D01*
X019700Y007228D02*
X019660Y007228D01*
X019660Y007160D02*
X019200Y007160D01*
X019200Y006981D01*
X019481Y006700D01*
X019660Y006700D01*
X019660Y007160D01*
X019660Y007069D02*
X019700Y007069D01*
X019700Y006911D02*
X019660Y006911D01*
X019660Y006752D02*
X019700Y006752D01*
X019700Y006660D02*
X019879Y006660D01*
X020160Y006379D01*
X020160Y006200D01*
X019700Y006200D01*
X019700Y006660D01*
X019660Y006660D02*
X019660Y006200D01*
X019700Y006200D01*
X019700Y006160D01*
X020160Y006160D01*
X020160Y005981D01*
X019879Y005700D01*
X019700Y005700D01*
X019700Y006160D01*
X019660Y006160D01*
X019660Y006200D01*
X019200Y006200D01*
X019200Y006379D01*
X019481Y006660D01*
X019660Y006660D01*
X019660Y006594D02*
X019700Y006594D01*
X019700Y006435D02*
X019660Y006435D01*
X019660Y006277D02*
X019700Y006277D01*
X019660Y006160D02*
X019200Y006160D01*
X019200Y005981D01*
X019481Y005700D01*
X019660Y005700D01*
X019660Y006160D01*
X019660Y006118D02*
X019700Y006118D01*
X019700Y005960D02*
X019660Y005960D01*
X019660Y005801D02*
X019700Y005801D01*
X019980Y005801D02*
X020380Y005801D01*
X020481Y005700D02*
X020200Y005981D01*
X020200Y006160D01*
X020660Y006160D01*
X020660Y006200D01*
X020700Y006200D01*
X020700Y006660D01*
X020879Y006660D01*
X021160Y006379D01*
X021160Y006200D01*
X020700Y006200D01*
X020700Y006160D01*
X021160Y006160D01*
X021160Y005981D01*
X020879Y005700D01*
X020700Y005700D01*
X020700Y006160D01*
X020660Y006160D01*
X020660Y005700D01*
X020481Y005700D01*
X020660Y005801D02*
X020700Y005801D01*
X020700Y005960D02*
X020660Y005960D01*
X020660Y006118D02*
X020700Y006118D01*
X020660Y006200D02*
X020200Y006200D01*
X020200Y006379D01*
X020481Y006660D01*
X020660Y006660D01*
X020660Y006200D01*
X020660Y006277D02*
X020700Y006277D01*
X020700Y006435D02*
X020660Y006435D01*
X020660Y006594D02*
X020700Y006594D01*
X020660Y006700D02*
X020481Y006700D01*
X020200Y006981D01*
X020200Y007160D01*
X020660Y007160D01*
X020660Y006700D01*
X020660Y006752D02*
X020700Y006752D01*
X020700Y006911D02*
X020660Y006911D01*
X020660Y007069D02*
X020700Y007069D01*
X020700Y007228D02*
X020660Y007228D01*
X020660Y007386D02*
X020700Y007386D01*
X020700Y007545D02*
X020660Y007545D01*
X020660Y007703D02*
X020700Y007703D01*
X020700Y007862D02*
X020660Y007862D01*
X020660Y008020D02*
X020700Y008020D01*
X020700Y008179D02*
X021700Y008179D01*
X021700Y008337D02*
X021160Y008337D01*
X021043Y008496D02*
X021700Y008496D01*
X021700Y008654D02*
X020885Y008654D01*
X020700Y008654D02*
X020660Y008654D01*
X020660Y008496D02*
X020700Y008496D01*
X020700Y008337D02*
X020660Y008337D01*
X020660Y008179D02*
X020140Y008179D01*
X020140Y008337D02*
X020200Y008337D01*
X020317Y008496D02*
X020015Y008496D01*
X020140Y008020D02*
X020200Y008020D01*
X020320Y007862D02*
X020012Y007862D01*
X020153Y007386D02*
X020207Y007386D01*
X020200Y007228D02*
X020160Y007228D01*
X020160Y007069D02*
X020200Y007069D01*
X020271Y006911D02*
X020089Y006911D01*
X019931Y006752D02*
X020429Y006752D01*
X020415Y006594D02*
X019945Y006594D01*
X020104Y006435D02*
X020256Y006435D01*
X020200Y006277D02*
X020160Y006277D01*
X020160Y006118D02*
X020200Y006118D01*
X020222Y005960D02*
X020138Y005960D01*
X019924Y005326D02*
X016165Y005326D01*
X016323Y005484D02*
X021700Y005484D01*
X021700Y005326D02*
X020452Y005326D01*
X020938Y005167D02*
X021700Y005167D01*
X021700Y005009D02*
X021179Y005009D01*
X021377Y004850D02*
X021700Y004850D01*
X021700Y004692D02*
X021501Y004692D01*
X021609Y004533D02*
X021700Y004533D01*
X021700Y005643D02*
X016482Y005643D01*
X016640Y005801D02*
X019380Y005801D01*
X019222Y005960D02*
X016799Y005960D01*
X016957Y006118D02*
X019200Y006118D01*
X019200Y006277D02*
X017116Y006277D01*
X017274Y006435D02*
X019256Y006435D01*
X019415Y006594D02*
X017433Y006594D01*
X017591Y006752D02*
X019429Y006752D01*
X019271Y006911D02*
X017750Y006911D01*
X017908Y007069D02*
X019200Y007069D01*
X019200Y007228D02*
X018067Y007228D01*
X018225Y007386D02*
X019207Y007386D01*
X019366Y007545D02*
X018384Y007545D01*
X018022Y007862D02*
X013451Y007862D01*
X013293Y008020D02*
X018181Y008020D01*
X018339Y008179D02*
X013134Y008179D01*
X012976Y008337D02*
X018498Y008337D01*
X018656Y008496D02*
X012817Y008496D01*
X012659Y008654D02*
X018815Y008654D01*
X018973Y008813D02*
X009250Y008813D01*
X009092Y008971D02*
X019132Y008971D01*
X019220Y009130D02*
X018012Y009130D01*
X018016Y009133D02*
X017967Y009084D01*
X017911Y009044D01*
X017849Y009012D01*
X017783Y008991D01*
X017715Y008980D01*
X017680Y008980D01*
X017645Y008980D01*
X017577Y008991D01*
X017511Y009012D01*
X017449Y009044D01*
X017393Y009084D01*
X017344Y009133D01*
X017304Y009189D01*
X017272Y009251D01*
X017251Y009317D01*
X017240Y009385D01*
X017240Y009680D01*
X017240Y009975D01*
X017251Y010043D01*
X017272Y010109D01*
X017304Y010171D01*
X017344Y010227D01*
X017393Y010276D01*
X017449Y010316D01*
X017511Y010348D01*
X017577Y010369D01*
X017645Y010380D01*
X017680Y010380D01*
X017680Y009680D01*
X017240Y009680D01*
X017680Y009680D01*
X017680Y009680D01*
X017680Y009680D01*
X017680Y008980D01*
X017680Y009680D01*
X017680Y009680D01*
X017680Y009680D01*
X018120Y009680D01*
X018120Y009975D01*
X018109Y010043D01*
X018088Y010109D01*
X018056Y010171D01*
X018016Y010227D01*
X017967Y010276D01*
X017911Y010316D01*
X017849Y010348D01*
X017783Y010369D01*
X017715Y010380D01*
X017680Y010380D01*
X017680Y009680D01*
X018120Y009680D01*
X018120Y009385D01*
X018109Y009317D01*
X018088Y009251D01*
X018056Y009189D01*
X018016Y009133D01*
X018100Y009288D02*
X019220Y009288D01*
X019117Y009447D02*
X018120Y009447D01*
X018120Y009605D02*
X018916Y009605D01*
X018757Y009764D02*
X018120Y009764D01*
X018120Y009922D02*
X018599Y009922D01*
X018440Y010081D02*
X018097Y010081D01*
X018003Y010239D02*
X018282Y010239D01*
X018123Y010398D02*
X016920Y010398D01*
X016920Y010294D02*
X017036Y010178D01*
X017100Y010024D01*
X017100Y009336D01*
X017036Y009182D01*
X016918Y009064D01*
X016764Y009000D01*
X016596Y009000D01*
X016442Y009064D01*
X016324Y009182D01*
X016260Y009336D01*
X016260Y010024D01*
X016324Y010178D01*
X016440Y010294D01*
X016440Y010826D01*
X016260Y011006D01*
X016260Y011354D01*
X016506Y011600D01*
X016854Y011600D01*
X017100Y011354D01*
X017100Y011006D01*
X016920Y010826D01*
X016920Y010294D01*
X016975Y010239D02*
X017357Y010239D01*
X017263Y010081D02*
X017076Y010081D01*
X017100Y009922D02*
X017240Y009922D01*
X017240Y009764D02*
X017100Y009764D01*
X017100Y009605D02*
X017240Y009605D01*
X017240Y009447D02*
X017100Y009447D01*
X017080Y009288D02*
X017260Y009288D01*
X017348Y009130D02*
X016983Y009130D01*
X016680Y009680D02*
X016680Y011180D01*
X016393Y010873D02*
X015967Y010873D01*
X015920Y010826D02*
X015920Y010294D01*
X016036Y010178D01*
X016100Y010024D01*
X016100Y009336D01*
X016036Y009182D01*
X015918Y009064D01*
X015764Y009000D01*
X015596Y009000D01*
X015442Y009064D01*
X015324Y009182D01*
X015260Y009336D01*
X015260Y010024D01*
X015324Y010178D01*
X015440Y010294D01*
X015440Y010826D01*
X015260Y011006D01*
X015260Y011354D01*
X015506Y011600D01*
X015854Y011600D01*
X016100Y011354D01*
X016100Y011006D01*
X015920Y010826D01*
X015920Y010715D02*
X016440Y010715D01*
X016440Y010556D02*
X015920Y010556D01*
X015920Y010398D02*
X016440Y010398D01*
X016385Y010239D02*
X015975Y010239D01*
X016076Y010081D02*
X016284Y010081D01*
X016260Y009922D02*
X016100Y009922D01*
X016100Y009764D02*
X016260Y009764D01*
X016260Y009605D02*
X016100Y009605D01*
X016100Y009447D02*
X016260Y009447D01*
X016280Y009288D02*
X016080Y009288D01*
X015983Y009130D02*
X016377Y009130D01*
X015680Y009680D02*
X015680Y011180D01*
X016100Y011190D02*
X016260Y011190D01*
X016260Y011032D02*
X016100Y011032D01*
X016100Y011349D02*
X016260Y011349D01*
X016413Y011507D02*
X015947Y011507D01*
X015918Y011824D02*
X016442Y011824D01*
X016284Y011983D02*
X016076Y011983D01*
X016100Y012141D02*
X016260Y012141D01*
X016260Y012300D02*
X016100Y012300D01*
X015996Y012458D02*
X016364Y012458D01*
X016273Y012934D02*
X019276Y012934D01*
X019220Y013092D02*
X018431Y013092D01*
X018590Y013251D02*
X019220Y013251D01*
X019258Y013409D02*
X018748Y013409D01*
X018893Y013568D02*
X019417Y013568D01*
X019483Y013726D02*
X018920Y013726D01*
X018920Y013885D02*
X019325Y013885D01*
X019220Y014043D02*
X018920Y014043D01*
X018920Y014202D02*
X019220Y014202D01*
X019220Y014360D02*
X018920Y014360D01*
X018440Y014360D02*
X018420Y014360D01*
X018420Y014202D02*
X018440Y014202D01*
X018440Y014043D02*
X018382Y014043D01*
X018440Y013885D02*
X018224Y013885D01*
X018065Y013726D02*
X018387Y013726D01*
X018228Y013568D02*
X017907Y013568D01*
X017680Y013680D02*
X015680Y013680D01*
X014680Y012680D01*
X014680Y012180D01*
X014364Y012458D02*
X013996Y012458D01*
X013956Y012617D02*
X014440Y012617D01*
X014460Y012775D02*
X014114Y012775D01*
X014273Y012934D02*
X014594Y012934D01*
X014753Y013092D02*
X014431Y013092D01*
X014590Y013251D02*
X014911Y013251D01*
X015070Y013409D02*
X014748Y013409D01*
X014907Y013568D02*
X015228Y013568D01*
X015387Y013726D02*
X015065Y013726D01*
X015224Y013885D02*
X015547Y013885D01*
X015748Y013409D02*
X016106Y013409D01*
X016180Y013180D02*
X018180Y013180D01*
X018680Y013680D01*
X018680Y019680D01*
X019180Y020180D01*
X019680Y020180D01*
X020058Y019908D02*
X020302Y019908D01*
X020220Y020066D02*
X020140Y020066D01*
X020140Y020225D02*
X020220Y020225D01*
X020232Y020383D02*
X020128Y020383D01*
X019900Y019749D02*
X020460Y019749D01*
X020440Y019591D02*
X019920Y019591D01*
X019871Y019640D02*
X020140Y019371D01*
X020140Y018989D01*
X019871Y018720D01*
X019489Y018720D01*
X019220Y018989D01*
X019220Y019371D01*
X019489Y019640D01*
X019871Y019640D01*
X020079Y019432D02*
X020281Y019432D01*
X020220Y019274D02*
X020140Y019274D01*
X020140Y019115D02*
X020220Y019115D01*
X020253Y018957D02*
X020107Y018957D01*
X019949Y018798D02*
X020411Y018798D01*
X020489Y018640D02*
X019871Y018640D01*
X020030Y018481D02*
X020330Y018481D01*
X020220Y018323D02*
X020140Y018323D01*
X020140Y018164D02*
X020220Y018164D01*
X020220Y018006D02*
X020140Y018006D01*
X019998Y017847D02*
X020362Y017847D01*
X019489Y018640D02*
X018920Y018640D01*
X018920Y018798D02*
X019411Y018798D01*
X019253Y018957D02*
X018920Y018957D01*
X018920Y019115D02*
X019220Y019115D01*
X019220Y019274D02*
X018920Y019274D01*
X018920Y019432D02*
X019281Y019432D01*
X019440Y019591D02*
X018930Y019591D01*
X019088Y019749D02*
X019460Y019749D01*
X019302Y019908D02*
X019247Y019908D01*
X019044Y020383D02*
X019132Y020420D01*
X019269Y020420D01*
X019289Y020440D01*
X018779Y020440D01*
X018885Y020225D02*
X018564Y020225D01*
X018420Y020066D02*
X018727Y020066D01*
X018568Y019908D02*
X018420Y019908D01*
X018420Y019749D02*
X018449Y019749D01*
X018440Y019591D02*
X018420Y019591D01*
X018420Y019432D02*
X018440Y019432D01*
X018440Y019274D02*
X018420Y019274D01*
X018420Y019115D02*
X018440Y019115D01*
X018440Y018957D02*
X018420Y018957D01*
X018420Y018798D02*
X018440Y018798D01*
X018440Y018640D02*
X018420Y018640D01*
X018420Y018481D02*
X018440Y018481D01*
X018440Y018323D02*
X018420Y018323D01*
X018420Y018164D02*
X018440Y018164D01*
X018440Y018006D02*
X018420Y018006D01*
X018420Y017847D02*
X018440Y017847D01*
X018440Y017689D02*
X018420Y017689D01*
X018420Y017530D02*
X018440Y017530D01*
X018440Y017372D02*
X018420Y017372D01*
X018420Y017213D02*
X018440Y017213D01*
X018440Y017055D02*
X018420Y017055D01*
X018420Y016896D02*
X018440Y016896D01*
X018440Y016738D02*
X018420Y016738D01*
X018420Y016579D02*
X018440Y016579D01*
X018440Y016421D02*
X018420Y016421D01*
X018420Y016262D02*
X018440Y016262D01*
X018440Y016104D02*
X018420Y016104D01*
X018420Y015945D02*
X018440Y015945D01*
X018440Y015787D02*
X018420Y015787D01*
X018420Y015628D02*
X018440Y015628D01*
X018440Y015470D02*
X018420Y015470D01*
X018420Y015311D02*
X018440Y015311D01*
X018440Y015153D02*
X018420Y015153D01*
X018420Y014994D02*
X018440Y014994D01*
X018440Y014836D02*
X018420Y014836D01*
X018420Y014677D02*
X018440Y014677D01*
X018440Y014519D02*
X018420Y014519D01*
X019434Y012775D02*
X016114Y012775D01*
X015956Y012617D02*
X019466Y012617D01*
X020894Y012617D02*
X021700Y012617D01*
X021700Y012775D02*
X020926Y012775D01*
X021084Y012934D02*
X021700Y012934D01*
X021700Y013092D02*
X021140Y013092D01*
X021140Y013251D02*
X021700Y013251D01*
X021700Y013409D02*
X021102Y013409D01*
X020943Y013568D02*
X021700Y013568D01*
X021700Y013726D02*
X020877Y013726D01*
X021035Y013885D02*
X021700Y013885D01*
X021700Y014043D02*
X021140Y014043D01*
X021140Y014202D02*
X021700Y014202D01*
X021700Y014360D02*
X021140Y014360D01*
X021053Y012458D02*
X021700Y012458D01*
X021700Y012300D02*
X021140Y012300D01*
X021140Y012141D02*
X021700Y012141D01*
X021700Y011983D02*
X021133Y011983D01*
X020975Y011824D02*
X021700Y011824D01*
X021700Y011666D02*
X017534Y011666D01*
X017172Y011349D02*
X017100Y011349D01*
X017100Y011190D02*
X017331Y011190D01*
X017489Y011032D02*
X017100Y011032D01*
X016967Y010873D02*
X017648Y010873D01*
X017806Y010715D02*
X016920Y010715D01*
X016920Y010556D02*
X017965Y010556D01*
X017680Y010239D02*
X017680Y010239D01*
X017680Y010081D02*
X017680Y010081D01*
X017680Y009922D02*
X017680Y009922D01*
X017680Y009764D02*
X017680Y009764D01*
X017680Y009605D02*
X017680Y009605D01*
X017680Y009447D02*
X017680Y009447D01*
X017680Y009288D02*
X017680Y009288D01*
X017680Y009130D02*
X017680Y009130D01*
X018643Y010556D02*
X019405Y010556D01*
X019247Y010398D02*
X018802Y010398D01*
X018960Y010239D02*
X019220Y010239D01*
X019220Y010081D02*
X019119Y010081D01*
X019277Y009922D02*
X019287Y009922D01*
X019680Y009180D02*
X015680Y005180D01*
X013180Y005180D01*
X012680Y005680D01*
X012680Y006180D01*
X013071Y006594D02*
X013289Y006594D01*
X013260Y006435D02*
X013100Y006435D01*
X013100Y006277D02*
X013260Y006277D01*
X013260Y006118D02*
X013100Y006118D01*
X013100Y005960D02*
X013260Y005960D01*
X013275Y005801D02*
X013085Y005801D01*
X013057Y005643D02*
X013364Y005643D01*
X013215Y005484D02*
X014620Y005484D01*
X014645Y005480D02*
X014577Y005491D01*
X014511Y005512D01*
X014449Y005544D01*
X014393Y005584D01*
X014344Y005633D01*
X014304Y005689D01*
X014272Y005751D01*
X014251Y005817D01*
X014240Y005885D01*
X014240Y006180D01*
X014240Y006475D01*
X014251Y006543D01*
X014272Y006609D01*
X014304Y006671D01*
X014344Y006727D01*
X014393Y006776D01*
X014449Y006816D01*
X014511Y006848D01*
X014577Y006869D01*
X014645Y006880D01*
X014680Y006880D01*
X014680Y006180D01*
X014240Y006180D01*
X014680Y006180D01*
X014680Y006180D01*
X014680Y006180D01*
X014680Y005480D01*
X014645Y005480D01*
X014680Y005480D02*
X014680Y006180D01*
X014680Y006180D01*
X014680Y006180D01*
X015120Y006180D01*
X015120Y006475D01*
X015109Y006543D01*
X015088Y006609D01*
X015056Y006671D01*
X015016Y006727D01*
X014967Y006776D01*
X014911Y006816D01*
X014849Y006848D01*
X014783Y006869D01*
X014715Y006880D01*
X014680Y006880D01*
X014680Y006180D01*
X015120Y006180D01*
X015120Y005885D01*
X015109Y005817D01*
X015088Y005751D01*
X015056Y005689D01*
X015016Y005633D01*
X014967Y005584D01*
X014911Y005544D01*
X014849Y005512D01*
X014783Y005491D01*
X014715Y005480D01*
X014680Y005480D01*
X014680Y005484D02*
X014680Y005484D01*
X014740Y005484D02*
X015645Y005484D01*
X015803Y005643D02*
X015022Y005643D01*
X015104Y005801D02*
X015962Y005801D01*
X016120Y005960D02*
X015120Y005960D01*
X015120Y006118D02*
X016279Y006118D01*
X016437Y006277D02*
X015120Y006277D01*
X015120Y006435D02*
X016596Y006435D01*
X016754Y006594D02*
X015093Y006594D01*
X014990Y006752D02*
X016913Y006752D01*
X017071Y006911D02*
X014000Y006911D01*
X014000Y007069D02*
X017230Y007069D01*
X017388Y007228D02*
X014000Y007228D01*
X013927Y007386D02*
X017547Y007386D01*
X017705Y007545D02*
X013768Y007545D01*
X013610Y007703D02*
X017864Y007703D01*
X019433Y005167D02*
X016006Y005167D01*
X015848Y005009D02*
X019159Y005009D01*
X020980Y005801D02*
X021700Y005801D01*
X021700Y005960D02*
X021138Y005960D01*
X021160Y006118D02*
X021700Y006118D01*
X021700Y006277D02*
X021160Y006277D01*
X021104Y006435D02*
X021700Y006435D01*
X021700Y006594D02*
X020945Y006594D01*
X020931Y006752D02*
X021700Y006752D01*
X021700Y006911D02*
X021089Y006911D01*
X021160Y007069D02*
X021700Y007069D01*
X021700Y007228D02*
X021160Y007228D01*
X021153Y007386D02*
X021700Y007386D01*
X021700Y007545D02*
X020994Y007545D01*
X020882Y007703D02*
X021700Y007703D01*
X021700Y007862D02*
X021040Y007862D01*
X021160Y008020D02*
X021700Y008020D01*
X021700Y011032D02*
X021140Y011032D01*
X021140Y011190D02*
X021700Y011190D01*
X021700Y011349D02*
X021140Y011349D01*
X021004Y011507D02*
X021700Y011507D01*
X017014Y011507D02*
X016947Y011507D01*
X016855Y011666D02*
X008750Y011666D01*
X008750Y011824D02*
X009442Y011824D01*
X009284Y011983D02*
X008750Y011983D01*
X008844Y012141D02*
X009260Y012141D01*
X009260Y012300D02*
X009002Y012300D01*
X009161Y012458D02*
X009364Y012458D01*
X009319Y012617D02*
X009440Y012617D01*
X009680Y012680D02*
X009680Y012180D01*
X009996Y012458D02*
X010364Y012458D01*
X010440Y012617D02*
X009956Y012617D01*
X010114Y012775D02*
X010460Y012775D01*
X010594Y012934D02*
X010273Y012934D01*
X010431Y013092D02*
X010753Y013092D01*
X010911Y013251D02*
X010590Y013251D01*
X010748Y013409D02*
X011070Y013409D01*
X011228Y013568D02*
X010907Y013568D01*
X011065Y013726D02*
X011387Y013726D01*
X011545Y013885D02*
X011224Y013885D01*
X011382Y014043D02*
X011704Y014043D01*
X011862Y014202D02*
X011541Y014202D01*
X011699Y014360D02*
X012021Y014360D01*
X012179Y014519D02*
X011858Y014519D01*
X012016Y014677D02*
X012338Y014677D01*
X012496Y014836D02*
X012175Y014836D01*
X012333Y014994D02*
X012655Y014994D01*
X012813Y015153D02*
X012492Y015153D01*
X012650Y015311D02*
X012972Y015311D01*
X013130Y015470D02*
X012809Y015470D01*
X012967Y015628D02*
X013289Y015628D01*
X013447Y015787D02*
X013126Y015787D01*
X013180Y016180D02*
X009680Y012680D01*
X010100Y012300D02*
X010260Y012300D01*
X010260Y012141D02*
X010100Y012141D01*
X010076Y011983D02*
X010284Y011983D01*
X010442Y011824D02*
X009918Y011824D01*
X009854Y011600D02*
X010100Y011354D01*
X010100Y011006D01*
X009920Y010826D01*
X009920Y010294D01*
X010036Y010178D01*
X010100Y010024D01*
X010100Y009336D01*
X010036Y009182D01*
X009918Y009064D01*
X009764Y009000D01*
X009596Y009000D01*
X009442Y009064D01*
X009324Y009182D01*
X009260Y009336D01*
X009260Y010024D01*
X009324Y010178D01*
X009440Y010294D01*
X009440Y010826D01*
X009260Y011006D01*
X009260Y011354D01*
X009506Y011600D01*
X009854Y011600D01*
X009947Y011507D02*
X010413Y011507D01*
X010506Y011600D02*
X010854Y011600D01*
X011100Y011354D01*
X011100Y011006D01*
X010920Y010826D01*
X010920Y010294D01*
X011036Y010178D01*
X011100Y010024D01*
X011100Y009336D01*
X011036Y009182D01*
X010918Y009064D01*
X010764Y009000D01*
X010596Y009000D01*
X010442Y009064D01*
X010324Y009182D01*
X010260Y009336D01*
X010260Y010024D01*
X010324Y010178D01*
X010440Y010294D01*
X010440Y010826D01*
X010260Y011006D01*
X010260Y011354D01*
X010506Y011600D01*
X010260Y011349D02*
X010100Y011349D01*
X010100Y011190D02*
X010260Y011190D01*
X010260Y011032D02*
X010100Y011032D01*
X009967Y010873D02*
X010393Y010873D01*
X010440Y010715D02*
X009920Y010715D01*
X009920Y010556D02*
X010440Y010556D01*
X010440Y010398D02*
X009920Y010398D01*
X009975Y010239D02*
X010385Y010239D01*
X010284Y010081D02*
X010076Y010081D01*
X010100Y009922D02*
X010260Y009922D01*
X010260Y009764D02*
X010100Y009764D01*
X010100Y009605D02*
X010260Y009605D01*
X010260Y009447D02*
X010100Y009447D01*
X010080Y009288D02*
X010280Y009288D01*
X010377Y009130D02*
X009983Y009130D01*
X009680Y009680D02*
X009680Y011180D01*
X009393Y010873D02*
X008750Y010873D01*
X008750Y010715D02*
X009440Y010715D01*
X009440Y010556D02*
X008750Y010556D01*
X008750Y010398D02*
X009440Y010398D01*
X009385Y010239D02*
X008750Y010239D01*
X008750Y010081D02*
X009284Y010081D01*
X009260Y009922D02*
X008750Y009922D01*
X008750Y009764D02*
X009260Y009764D01*
X009260Y009605D02*
X008750Y009605D01*
X008750Y009447D02*
X009260Y009447D01*
X009280Y009288D02*
X008775Y009288D01*
X008933Y009130D02*
X009377Y009130D01*
X008662Y008496D02*
X006204Y008496D01*
X006045Y008654D02*
X008503Y008654D01*
X008345Y008813D02*
X005887Y008813D01*
X005728Y008971D02*
X008186Y008971D01*
X008110Y009130D02*
X005570Y009130D01*
X005411Y009288D02*
X008110Y009288D01*
X008110Y009447D02*
X005253Y009447D01*
X005094Y009605D02*
X008110Y009605D01*
X008110Y009764D02*
X004936Y009764D01*
X004920Y009922D02*
X008110Y009922D01*
X008110Y010081D02*
X004920Y010081D01*
X004920Y010239D02*
X008110Y010239D01*
X008110Y010398D02*
X004920Y010398D01*
X004920Y010556D02*
X008110Y010556D01*
X008110Y010715D02*
X004920Y010715D01*
X004920Y010873D02*
X008110Y010873D01*
X008110Y011032D02*
X004920Y011032D01*
X004920Y011190D02*
X008110Y011190D01*
X008110Y011349D02*
X004920Y011349D01*
X004920Y011507D02*
X008110Y011507D01*
X008110Y011666D02*
X004920Y011666D01*
X004920Y011824D02*
X008110Y011824D01*
X008110Y011983D02*
X004920Y011983D01*
X004920Y012141D02*
X008110Y012141D01*
X008133Y012300D02*
X004890Y012300D01*
X004741Y012458D02*
X008255Y012458D01*
X008750Y011507D02*
X009413Y011507D01*
X009260Y011349D02*
X008750Y011349D01*
X008750Y011190D02*
X009260Y011190D01*
X009260Y011032D02*
X008750Y011032D01*
X010680Y011180D02*
X010680Y009680D01*
X011100Y009605D02*
X011260Y009605D01*
X011260Y009447D02*
X011100Y009447D01*
X011080Y009288D02*
X011280Y009288D01*
X011260Y009336D02*
X011260Y010024D01*
X011324Y010178D01*
X011440Y010294D01*
X011440Y010826D01*
X011260Y011006D01*
X011260Y011354D01*
X011506Y011600D01*
X011854Y011600D01*
X012100Y011354D01*
X012100Y011006D01*
X011920Y010826D01*
X011920Y010294D01*
X012036Y010178D01*
X012100Y010024D01*
X012100Y009336D01*
X012036Y009182D01*
X011918Y009064D01*
X011764Y009000D01*
X011596Y009000D01*
X011442Y009064D01*
X011324Y009182D01*
X011260Y009336D01*
X011377Y009130D02*
X010983Y009130D01*
X011100Y009764D02*
X011260Y009764D01*
X011260Y009922D02*
X011100Y009922D01*
X011076Y010081D02*
X011284Y010081D01*
X011385Y010239D02*
X010975Y010239D01*
X010920Y010398D02*
X011440Y010398D01*
X011440Y010556D02*
X010920Y010556D01*
X010920Y010715D02*
X011440Y010715D01*
X011393Y010873D02*
X010967Y010873D01*
X011100Y011032D02*
X011260Y011032D01*
X011260Y011190D02*
X011100Y011190D01*
X011100Y011349D02*
X011260Y011349D01*
X011413Y011507D02*
X010947Y011507D01*
X010918Y011824D02*
X011442Y011824D01*
X011284Y011983D02*
X011076Y011983D01*
X011100Y012141D02*
X011260Y012141D01*
X011260Y012300D02*
X011100Y012300D01*
X010680Y012180D02*
X010680Y012680D01*
X013680Y015680D01*
X014175Y014836D02*
X014496Y014836D01*
X014338Y014677D02*
X014016Y014677D01*
X013858Y014519D02*
X014179Y014519D01*
X014021Y014360D02*
X013699Y014360D01*
X013541Y014202D02*
X013862Y014202D01*
X013704Y014043D02*
X013382Y014043D01*
X013224Y013885D02*
X013545Y013885D01*
X013387Y013726D02*
X013065Y013726D01*
X012907Y013568D02*
X013228Y013568D01*
X013070Y013409D02*
X012748Y013409D01*
X012590Y013251D02*
X012911Y013251D01*
X012753Y013092D02*
X012431Y013092D01*
X012273Y012934D02*
X012594Y012934D01*
X012460Y012775D02*
X012114Y012775D01*
X011956Y012617D02*
X012440Y012617D01*
X012364Y012458D02*
X011996Y012458D01*
X012100Y012300D02*
X012260Y012300D01*
X012260Y012141D02*
X012100Y012141D01*
X012076Y011983D02*
X012284Y011983D01*
X012442Y011824D02*
X011918Y011824D01*
X011947Y011507D02*
X012413Y011507D01*
X012506Y011600D02*
X012854Y011600D01*
X013100Y011354D01*
X013100Y011006D01*
X012920Y010826D01*
X012920Y010294D01*
X013036Y010178D01*
X013100Y010024D01*
X013100Y009336D01*
X013036Y009182D01*
X012918Y009064D01*
X012764Y009000D01*
X012596Y009000D01*
X012442Y009064D01*
X012324Y009182D01*
X012260Y009336D01*
X012260Y010024D01*
X012324Y010178D01*
X012440Y010294D01*
X012440Y010826D01*
X012260Y011006D01*
X012260Y011354D01*
X012506Y011600D01*
X012260Y011349D02*
X012100Y011349D01*
X012100Y011190D02*
X012260Y011190D01*
X012260Y011032D02*
X012100Y011032D01*
X011967Y010873D02*
X012393Y010873D01*
X012440Y010715D02*
X011920Y010715D01*
X011920Y010556D02*
X012440Y010556D01*
X012440Y010398D02*
X011920Y010398D01*
X011975Y010239D02*
X012385Y010239D01*
X012284Y010081D02*
X012076Y010081D01*
X012100Y009922D02*
X012260Y009922D01*
X012260Y009764D02*
X012100Y009764D01*
X012100Y009605D02*
X012260Y009605D01*
X012260Y009447D02*
X012100Y009447D01*
X012080Y009288D02*
X012280Y009288D01*
X012377Y009130D02*
X011983Y009130D01*
X011680Y009680D02*
X011680Y011180D01*
X012680Y011180D02*
X012680Y009680D01*
X013080Y009288D02*
X013280Y009288D01*
X013260Y009336D02*
X013260Y010024D01*
X013324Y010178D01*
X013440Y010294D01*
X013440Y010826D01*
X013260Y011006D01*
X013260Y011354D01*
X013506Y011600D01*
X013854Y011600D01*
X014100Y011354D01*
X014100Y011006D01*
X013920Y010826D01*
X013920Y010294D01*
X014036Y010178D01*
X014100Y010024D01*
X014100Y009336D01*
X014036Y009182D01*
X013918Y009064D01*
X013764Y009000D01*
X013596Y009000D01*
X013442Y009064D01*
X013324Y009182D01*
X013260Y009336D01*
X013260Y009447D02*
X013100Y009447D01*
X013100Y009605D02*
X013260Y009605D01*
X013260Y009764D02*
X013100Y009764D01*
X013100Y009922D02*
X013260Y009922D01*
X013284Y010081D02*
X013076Y010081D01*
X012975Y010239D02*
X013385Y010239D01*
X013440Y010398D02*
X012920Y010398D01*
X012920Y010556D02*
X013440Y010556D01*
X013440Y010715D02*
X012920Y010715D01*
X012967Y010873D02*
X013393Y010873D01*
X013260Y011032D02*
X013100Y011032D01*
X013100Y011190D02*
X013260Y011190D01*
X013260Y011349D02*
X013100Y011349D01*
X012947Y011507D02*
X013413Y011507D01*
X013442Y011824D02*
X012918Y011824D01*
X013076Y011983D02*
X013284Y011983D01*
X013260Y012141D02*
X013100Y012141D01*
X013100Y012300D02*
X013260Y012300D01*
X012680Y012180D02*
X012680Y012680D01*
X014680Y014680D01*
X015590Y013251D02*
X015911Y013251D01*
X015753Y013092D02*
X015431Y013092D01*
X015273Y012934D02*
X015594Y012934D01*
X015460Y012775D02*
X015114Y012775D01*
X014956Y012617D02*
X015440Y012617D01*
X015364Y012458D02*
X014996Y012458D01*
X015100Y012300D02*
X015260Y012300D01*
X015260Y012141D02*
X015100Y012141D01*
X015076Y011983D02*
X015284Y011983D01*
X015442Y011824D02*
X014918Y011824D01*
X014854Y011600D02*
X015100Y011354D01*
X015100Y011006D01*
X014920Y010826D01*
X014920Y010294D01*
X015036Y010178D01*
X015100Y010024D01*
X015100Y009336D01*
X015036Y009182D01*
X014918Y009064D01*
X014764Y009000D01*
X014596Y009000D01*
X014442Y009064D01*
X014324Y009182D01*
X014260Y009336D01*
X014260Y010024D01*
X014324Y010178D01*
X014440Y010294D01*
X014440Y010826D01*
X014260Y011006D01*
X014260Y011354D01*
X014506Y011600D01*
X014854Y011600D01*
X014947Y011507D02*
X015413Y011507D01*
X015260Y011349D02*
X015100Y011349D01*
X015100Y011190D02*
X015260Y011190D01*
X015260Y011032D02*
X015100Y011032D01*
X014967Y010873D02*
X015393Y010873D01*
X015440Y010715D02*
X014920Y010715D01*
X014920Y010556D02*
X015440Y010556D01*
X015440Y010398D02*
X014920Y010398D01*
X014975Y010239D02*
X015385Y010239D01*
X015284Y010081D02*
X015076Y010081D01*
X015100Y009922D02*
X015260Y009922D01*
X015260Y009764D02*
X015100Y009764D01*
X015100Y009605D02*
X015260Y009605D01*
X015260Y009447D02*
X015100Y009447D01*
X015080Y009288D02*
X015280Y009288D01*
X015377Y009130D02*
X014983Y009130D01*
X014680Y009680D02*
X014680Y011180D01*
X014260Y011190D02*
X014100Y011190D01*
X014100Y011032D02*
X014260Y011032D01*
X014393Y010873D02*
X013967Y010873D01*
X013920Y010715D02*
X014440Y010715D01*
X014440Y010556D02*
X013920Y010556D01*
X013920Y010398D02*
X014440Y010398D01*
X014385Y010239D02*
X013975Y010239D01*
X014076Y010081D02*
X014284Y010081D01*
X014260Y009922D02*
X014100Y009922D01*
X014100Y009764D02*
X014260Y009764D01*
X014260Y009605D02*
X014100Y009605D01*
X014100Y009447D02*
X014260Y009447D01*
X014280Y009288D02*
X014080Y009288D01*
X013983Y009130D02*
X014377Y009130D01*
X013680Y009680D02*
X013680Y011180D01*
X013947Y011507D02*
X014413Y011507D01*
X014260Y011349D02*
X014100Y011349D01*
X013918Y011824D02*
X014442Y011824D01*
X014284Y011983D02*
X014076Y011983D01*
X014100Y012141D02*
X014260Y012141D01*
X014260Y012300D02*
X014100Y012300D01*
X015680Y012180D02*
X015680Y012680D01*
X016180Y013180D01*
X013377Y009130D02*
X012983Y009130D01*
X012387Y008020D02*
X006679Y008020D01*
X006521Y008179D02*
X008979Y008179D01*
X008820Y008337D02*
X006362Y008337D01*
X006159Y007862D02*
X005838Y007862D01*
X005679Y008020D02*
X006001Y008020D01*
X005842Y008179D02*
X005521Y008179D01*
X005362Y008337D02*
X005684Y008337D01*
X005525Y008496D02*
X005204Y008496D01*
X005045Y008654D02*
X005367Y008654D01*
X005996Y007703D02*
X006318Y007703D01*
X006476Y007545D02*
X006155Y007545D01*
X005947Y006752D02*
X008398Y006752D01*
X008289Y006594D02*
X006106Y006594D01*
X006264Y006435D02*
X008260Y006435D01*
X009310Y007386D02*
X009635Y007386D01*
X009793Y007228D02*
X009472Y007228D01*
X009630Y007069D02*
X009952Y007069D01*
X010110Y006911D02*
X009789Y006911D01*
X009962Y006752D02*
X010269Y006752D01*
X010630Y007069D02*
X013338Y007069D01*
X013360Y006911D02*
X010789Y006911D01*
X010962Y006752D02*
X011398Y006752D01*
X011289Y006594D02*
X011071Y006594D01*
X011100Y006435D02*
X011260Y006435D01*
X011260Y006277D02*
X011100Y006277D01*
X011823Y005484D02*
X012537Y005484D01*
X012695Y005326D02*
X011665Y005326D01*
X011506Y005167D02*
X012854Y005167D01*
X013012Y005009D02*
X011348Y005009D01*
X011996Y005643D02*
X012364Y005643D01*
X012275Y005801D02*
X012085Y005801D01*
X012100Y005960D02*
X012260Y005960D01*
X012260Y006118D02*
X012100Y006118D01*
X012100Y006277D02*
X012260Y006277D01*
X012260Y006435D02*
X012100Y006435D01*
X012071Y006594D02*
X012289Y006594D01*
X012398Y006752D02*
X011962Y006752D01*
X012704Y007703D02*
X009996Y007703D01*
X009838Y007862D02*
X012546Y007862D01*
X012863Y007545D02*
X010155Y007545D01*
X010313Y007386D02*
X013021Y007386D01*
X013180Y007228D02*
X010472Y007228D01*
X012962Y006752D02*
X013360Y006752D01*
X014000Y006752D02*
X014370Y006752D01*
X014267Y006594D02*
X014071Y006594D01*
X014100Y006435D02*
X014240Y006435D01*
X014240Y006277D02*
X014100Y006277D01*
X014100Y006118D02*
X014240Y006118D01*
X014240Y005960D02*
X014100Y005960D01*
X014085Y005801D02*
X014256Y005801D01*
X014338Y005643D02*
X013996Y005643D01*
X014680Y005643D02*
X014680Y005643D01*
X014680Y005801D02*
X014680Y005801D01*
X014680Y005960D02*
X014680Y005960D01*
X014680Y006118D02*
X014680Y006118D01*
X014680Y006277D02*
X014680Y006277D01*
X014680Y006435D02*
X014680Y006435D01*
X014680Y006594D02*
X014680Y006594D01*
X014680Y006752D02*
X014680Y006752D01*
X010316Y014519D02*
X009858Y014519D01*
X010016Y014677D02*
X010474Y014677D01*
X010633Y014836D02*
X010175Y014836D01*
X010333Y014994D02*
X010791Y014994D01*
X010950Y015153D02*
X010492Y015153D01*
X010650Y015311D02*
X011108Y015311D01*
X011267Y015470D02*
X010809Y015470D01*
X010967Y015628D02*
X011425Y015628D01*
X011584Y015787D02*
X011126Y015787D01*
X011284Y015945D02*
X011742Y015945D01*
X011901Y016104D02*
X011443Y016104D01*
X011601Y016262D02*
X012059Y016262D01*
X012218Y016421D02*
X011760Y016421D01*
X011918Y016579D02*
X012376Y016579D01*
X012535Y016738D02*
X012077Y016738D01*
X012235Y016896D02*
X012693Y016896D01*
X012852Y017055D02*
X012394Y017055D01*
X012552Y017213D02*
X013010Y017213D01*
X013169Y017372D02*
X012711Y017372D01*
X012869Y017530D02*
X014360Y017530D01*
X014360Y017689D02*
X013028Y017689D01*
X013186Y017847D02*
X014360Y017847D01*
X014360Y018006D02*
X013345Y018006D01*
X013503Y018164D02*
X014360Y018164D01*
X014360Y018323D02*
X013662Y018323D01*
X013820Y018481D02*
X014360Y018481D01*
X014360Y018640D02*
X013979Y018640D01*
X014137Y018798D02*
X014360Y018798D01*
X014360Y018957D02*
X014296Y018957D01*
X014316Y018977D02*
X014316Y018977D01*
X014180Y019180D02*
X009680Y014680D01*
X003180Y014680D01*
X002680Y015180D01*
X002374Y014836D02*
X001290Y014836D01*
X001290Y014994D02*
X002220Y014994D01*
X002220Y015153D02*
X001290Y015153D01*
X001290Y015311D02*
X002220Y015311D01*
X002319Y015470D02*
X001290Y015470D01*
X001290Y015628D02*
X002477Y015628D01*
X002489Y015720D02*
X002220Y015989D01*
X002220Y016371D01*
X002289Y016440D01*
X002132Y016440D01*
X002044Y016477D01*
X001977Y016544D01*
X001477Y017044D01*
X001440Y017132D01*
X001440Y020228D01*
X001477Y020316D01*
X001544Y020383D01*
X001290Y020383D01*
X001290Y020225D02*
X001440Y020225D01*
X001440Y020066D02*
X001290Y020066D01*
X001290Y019908D02*
X001440Y019908D01*
X001440Y019749D02*
X001290Y019749D01*
X001290Y019591D02*
X001440Y019591D01*
X001440Y019432D02*
X001290Y019432D01*
X001290Y019274D02*
X001440Y019274D01*
X001440Y019115D02*
X001290Y019115D01*
X001290Y018957D02*
X001440Y018957D01*
X001440Y018798D02*
X001290Y018798D01*
X001290Y018640D02*
X001440Y018640D01*
X001440Y018481D02*
X001290Y018481D01*
X001290Y018323D02*
X001440Y018323D01*
X001440Y018164D02*
X001290Y018164D01*
X001290Y018006D02*
X001440Y018006D01*
X001440Y017847D02*
X001290Y017847D01*
X001290Y017689D02*
X001440Y017689D01*
X001440Y017530D02*
X001290Y017530D01*
X001290Y017372D02*
X001440Y017372D01*
X001440Y017213D02*
X001290Y017213D01*
X001290Y017055D02*
X001472Y017055D01*
X001625Y016896D02*
X001290Y016896D01*
X001290Y016738D02*
X001783Y016738D01*
X001942Y016579D02*
X001290Y016579D01*
X001290Y016421D02*
X002270Y016421D01*
X002220Y016262D02*
X001290Y016262D01*
X001290Y016104D02*
X002220Y016104D01*
X002264Y015945D02*
X001290Y015945D01*
X001290Y015787D02*
X002423Y015787D01*
X002489Y015720D02*
X002871Y015720D01*
X003140Y015989D01*
X003140Y016371D01*
X003071Y016440D01*
X003289Y016440D01*
X003220Y016371D01*
X003220Y015989D01*
X003489Y015720D01*
X003871Y015720D01*
X004140Y015989D01*
X004140Y016371D01*
X004071Y016440D01*
X010228Y016440D01*
X010316Y016477D01*
X010599Y016760D01*
X010854Y016760D01*
X011100Y017006D01*
X011100Y017261D01*
X012316Y018477D01*
X012383Y018544D01*
X012420Y018632D01*
X012420Y021289D01*
X012489Y021220D01*
X012670Y021220D01*
X012670Y021670D01*
X012690Y021670D01*
X012690Y021220D01*
X012871Y021220D01*
X013140Y021489D01*
X013140Y021670D01*
X012690Y021670D01*
X012690Y021690D01*
X012690Y022140D01*
X012871Y022140D01*
X013140Y021871D01*
X013140Y021690D01*
X012690Y021690D01*
X012670Y021690D01*
X012670Y022140D01*
X012489Y022140D01*
X012420Y022071D01*
X012420Y022228D01*
X012383Y022316D01*
X012120Y022579D01*
X012120Y022862D01*
X011862Y023120D01*
X011498Y023120D01*
X011240Y022862D01*
X011240Y022498D01*
X011498Y022240D01*
X011781Y022240D01*
X011940Y022081D01*
X011940Y022042D01*
X011862Y022120D01*
X011498Y022120D01*
X011240Y021862D01*
X011240Y021498D01*
X011440Y021298D01*
X011440Y019779D01*
X010581Y018920D01*
X004071Y018920D01*
X004140Y018989D01*
X004140Y019371D01*
X003871Y019640D01*
X003489Y019640D01*
X003220Y019371D01*
X003220Y018989D01*
X003289Y018920D01*
X003279Y018920D01*
X003140Y019059D01*
X003140Y019371D01*
X002871Y019640D01*
X002489Y019640D01*
X002220Y019371D01*
X002220Y018989D01*
X002489Y018720D01*
X002801Y018720D01*
X002977Y018544D01*
X003044Y018477D01*
X003132Y018440D01*
X003289Y018440D01*
X003220Y018371D01*
X003220Y017989D01*
X003489Y017720D01*
X003871Y017720D01*
X004140Y017989D01*
X004140Y018371D01*
X004071Y018440D01*
X010728Y018440D01*
X010816Y018477D01*
X011816Y019477D01*
X011883Y019544D01*
X011920Y019632D01*
X011920Y021298D01*
X011940Y021318D01*
X011940Y018779D01*
X010761Y017600D01*
X010506Y017600D01*
X010260Y017354D01*
X010260Y017099D01*
X010081Y016920D01*
X004071Y016920D01*
X004140Y016989D01*
X004140Y017371D01*
X003871Y017640D01*
X003489Y017640D01*
X003220Y017371D01*
X003220Y016989D01*
X003289Y016920D01*
X003071Y016920D01*
X003140Y016989D01*
X003140Y017371D01*
X002871Y017640D01*
X002489Y017640D01*
X002220Y017371D01*
X002220Y016989D01*
X002289Y016920D01*
X002279Y016920D01*
X001920Y017279D01*
X001920Y020081D01*
X002279Y020440D01*
X002289Y020440D01*
X002220Y020371D01*
X002220Y019989D01*
X002489Y019720D01*
X002871Y019720D01*
X003140Y019989D01*
X003140Y020371D01*
X003071Y020440D01*
X003228Y020440D01*
X003316Y020477D01*
X003383Y020544D01*
X003559Y020720D01*
X003871Y020720D01*
X004140Y020989D01*
X004140Y021371D01*
X004071Y021440D01*
X006228Y021440D01*
X006316Y021477D01*
X007779Y022940D01*
X008318Y022940D01*
X008240Y022862D01*
X008240Y022498D01*
X008498Y022240D01*
X008862Y022240D01*
X009120Y022498D01*
X009120Y022862D01*
X009042Y022940D01*
X009289Y022940D01*
X009220Y022871D01*
X009220Y022690D01*
X009670Y022690D01*
X009670Y022670D01*
X009220Y022670D01*
X009220Y022489D01*
X009489Y022220D01*
X009670Y022220D01*
X009670Y022670D01*
X009690Y022670D01*
X009690Y022220D01*
X009871Y022220D01*
X010140Y022489D01*
X010140Y022670D01*
X009690Y022670D01*
X009690Y022690D01*
X010140Y022690D01*
X010140Y022871D01*
X010071Y022940D01*
X010081Y022940D01*
X010240Y022781D01*
X010240Y022498D01*
X010498Y022240D01*
X010862Y022240D01*
X011120Y022498D01*
X011120Y022862D01*
X010862Y023120D01*
X010579Y023120D01*
X010316Y023383D01*
X010228Y023420D01*
X007632Y023420D01*
X007544Y023383D01*
X007477Y023316D01*
X006081Y021920D01*
X004071Y021920D01*
X004091Y021940D01*
X005728Y021940D01*
X005816Y021977D01*
X007279Y023440D01*
X011581Y023440D01*
X012240Y022781D01*
X012240Y022498D01*
X012498Y022240D01*
X012862Y022240D01*
X013120Y022498D01*
X013120Y022862D01*
X012862Y023120D01*
X012579Y023120D01*
X011816Y023883D01*
X011728Y023920D01*
X007132Y023920D01*
X007044Y023883D01*
X006977Y023816D01*
X005581Y022420D01*
X004091Y022420D01*
X003871Y022640D01*
X003489Y022640D01*
X003220Y022371D01*
X003220Y021989D01*
X003289Y021920D01*
X003132Y021920D01*
X003044Y021883D01*
X002977Y021816D01*
X002801Y021640D01*
X002489Y021640D01*
X002220Y021371D01*
X002220Y020989D01*
X002289Y020920D01*
X002132Y020920D01*
X002044Y020883D01*
X001544Y020383D01*
X001702Y020542D02*
X001290Y020542D01*
X001290Y020700D02*
X001861Y020700D01*
X002019Y020859D02*
X001290Y020859D01*
X001290Y021017D02*
X002220Y021017D01*
X002220Y021176D02*
X001290Y021176D01*
X001290Y021334D02*
X002220Y021334D01*
X002342Y021493D02*
X001290Y021493D01*
X001290Y021651D02*
X002812Y021651D01*
X002871Y021720D02*
X003140Y021989D01*
X003140Y022371D01*
X002871Y022640D01*
X002489Y022640D01*
X002220Y022371D01*
X002220Y021989D01*
X002489Y021720D01*
X002871Y021720D01*
X002960Y021810D02*
X002970Y021810D01*
X003119Y021968D02*
X003241Y021968D01*
X003220Y022127D02*
X003140Y022127D01*
X003140Y022285D02*
X003220Y022285D01*
X003293Y022444D02*
X003067Y022444D01*
X002909Y022602D02*
X003451Y022602D01*
X003481Y022700D02*
X003660Y022700D01*
X003660Y023160D01*
X003660Y023200D01*
X003700Y023200D01*
X003700Y023660D01*
X003879Y023660D01*
X004160Y023379D01*
X004160Y023200D01*
X003700Y023200D01*
X003700Y023160D01*
X004160Y023160D01*
X004160Y022981D01*
X003879Y022700D01*
X003700Y022700D01*
X003700Y023160D01*
X003660Y023160D01*
X003200Y023160D01*
X003200Y022981D01*
X003481Y022700D01*
X003421Y022761D02*
X002939Y022761D01*
X002879Y022700D02*
X003160Y022981D01*
X003160Y023160D01*
X002700Y023160D01*
X002700Y023200D01*
X002700Y023660D01*
X002879Y023660D01*
X003160Y023379D01*
X003160Y023200D01*
X002700Y023200D01*
X002660Y023200D01*
X002660Y023660D01*
X002481Y023660D01*
X002200Y023379D01*
X002200Y023200D01*
X002660Y023200D01*
X002660Y023160D01*
X002200Y023160D01*
X002200Y022981D01*
X002481Y022700D01*
X002660Y022700D01*
X002660Y023160D01*
X002700Y023160D01*
X002700Y022700D01*
X002879Y022700D01*
X002700Y022761D02*
X002660Y022761D01*
X002660Y022919D02*
X002700Y022919D01*
X002700Y023078D02*
X002660Y023078D01*
X002660Y023236D02*
X002700Y023236D01*
X002700Y023395D02*
X002660Y023395D01*
X002660Y023553D02*
X002700Y023553D01*
X002871Y023720D02*
X002489Y023720D01*
X002220Y023989D01*
X002220Y024371D01*
X002489Y024640D01*
X002871Y024640D01*
X003011Y024500D01*
X003349Y024500D01*
X003489Y024640D01*
X003871Y024640D01*
X004011Y024500D01*
X005906Y024500D01*
X006006Y024600D01*
X006354Y024600D01*
X006600Y024354D01*
X006600Y024006D01*
X006354Y023760D01*
X006006Y023760D01*
X005906Y023860D01*
X004011Y023860D01*
X003871Y023720D01*
X003489Y023720D01*
X003349Y023860D01*
X003011Y023860D01*
X002871Y023720D01*
X002986Y023553D02*
X003374Y023553D01*
X003481Y023660D02*
X003660Y023660D01*
X003660Y023200D01*
X003200Y023200D01*
X003200Y023379D01*
X003481Y023660D01*
X003660Y023553D02*
X003700Y023553D01*
X003700Y023395D02*
X003660Y023395D01*
X003660Y023236D02*
X003700Y023236D01*
X003700Y023078D02*
X003660Y023078D01*
X003660Y022919D02*
X003700Y022919D01*
X003700Y022761D02*
X003660Y022761D01*
X003939Y022761D02*
X005921Y022761D01*
X006080Y022919D02*
X004098Y022919D01*
X004160Y023078D02*
X006238Y023078D01*
X006397Y023236D02*
X004160Y023236D01*
X004144Y023395D02*
X006555Y023395D01*
X006714Y023553D02*
X003986Y023553D01*
X004007Y024504D02*
X005910Y024504D01*
X006450Y024504D02*
X014165Y024504D01*
X014323Y024663D02*
X001290Y024663D01*
X001290Y024821D02*
X002388Y024821D01*
X002230Y024980D02*
X001290Y024980D01*
X001290Y025138D02*
X002220Y025138D01*
X002220Y025297D02*
X001290Y025297D01*
X001290Y025455D02*
X002305Y025455D01*
X002463Y025614D02*
X001290Y025614D01*
X001290Y025772D02*
X003819Y025772D01*
X003978Y025931D02*
X001290Y025931D01*
X001290Y026089D02*
X002185Y026089D01*
X001839Y026248D02*
X001290Y026248D01*
X001290Y026406D02*
X001596Y026406D01*
X001449Y026565D02*
X001290Y026565D01*
X001302Y026723D02*
X001290Y026723D01*
X001291Y028625D02*
X001290Y028625D01*
X001290Y028784D02*
X001438Y028784D01*
X001585Y028942D02*
X001290Y028942D01*
X001290Y029101D02*
X001818Y029101D01*
X002133Y029259D02*
X001290Y029259D01*
X001290Y029418D02*
X021700Y029418D01*
X021700Y029576D02*
X001290Y029576D01*
X001290Y029735D02*
X021700Y029735D01*
X021700Y029893D02*
X001290Y029893D01*
X001290Y030052D02*
X021700Y030052D01*
X021700Y030210D02*
X001290Y030210D01*
X001290Y030369D02*
X021700Y030369D01*
X021700Y030527D02*
X001290Y030527D01*
X001290Y030686D02*
X021700Y030686D01*
X021700Y029259D02*
X003204Y029259D01*
X003563Y029101D02*
X008954Y029101D01*
X009406Y029101D02*
X021700Y029101D01*
X014940Y026406D02*
X013256Y026406D01*
X013292Y026412D02*
X013218Y026400D01*
X013200Y026400D01*
X013200Y027160D01*
X013160Y027160D01*
X013160Y027200D01*
X012700Y027200D01*
X012700Y027518D01*
X012712Y027592D01*
X012735Y027664D01*
X012769Y027732D01*
X012814Y027793D01*
X012867Y027846D01*
X012928Y027891D01*
X012996Y027925D01*
X013068Y027948D01*
X013142Y027960D01*
X013160Y027960D01*
X013160Y027200D01*
X013200Y027200D01*
X013200Y027960D01*
X013218Y027960D01*
X013292Y027948D01*
X013364Y027925D01*
X013432Y027891D01*
X013493Y027846D01*
X013546Y027793D01*
X013591Y027732D01*
X013625Y027664D01*
X013648Y027592D01*
X013660Y027518D01*
X013660Y027200D01*
X013200Y027200D01*
X013200Y027160D01*
X013660Y027160D01*
X013660Y026842D01*
X013648Y026768D01*
X013625Y026696D01*
X013591Y026628D01*
X013546Y026567D01*
X013493Y026514D01*
X013432Y026469D01*
X013364Y026435D01*
X013292Y026412D01*
X013200Y026406D02*
X013160Y026406D01*
X013160Y026400D02*
X013142Y026400D01*
X013068Y026412D01*
X012996Y026435D01*
X012928Y026469D01*
X012867Y026514D01*
X012814Y026567D01*
X012769Y026628D01*
X012735Y026696D01*
X012712Y026768D01*
X012700Y026842D01*
X012700Y027160D01*
X013160Y027160D01*
X013160Y026400D01*
X013104Y026406D02*
X012028Y026406D01*
X012120Y026498D02*
X011862Y026240D01*
X011680Y026240D01*
X011498Y026240D01*
X011240Y026498D01*
X011240Y026680D01*
X011240Y026862D01*
X011498Y027120D01*
X011680Y027120D01*
X011680Y026680D01*
X011680Y026680D01*
X011240Y026680D01*
X011680Y026680D01*
X011680Y026680D01*
X011680Y026240D01*
X011680Y026680D01*
X011680Y026680D01*
X011680Y027120D01*
X011862Y027120D01*
X012120Y026862D01*
X012120Y026680D01*
X011680Y026680D01*
X011680Y026680D01*
X012120Y026680D01*
X012120Y026498D01*
X012120Y026565D02*
X012817Y026565D01*
X012726Y026723D02*
X012120Y026723D01*
X012101Y026882D02*
X012700Y026882D01*
X012700Y027040D02*
X011942Y027040D01*
X011680Y027040D02*
X011680Y027040D01*
X011680Y026882D02*
X011680Y026882D01*
X011680Y026723D02*
X011680Y026723D01*
X011680Y026565D02*
X011680Y026565D01*
X011680Y026406D02*
X011680Y026406D01*
X011680Y026248D02*
X011680Y026248D01*
X011490Y026248D02*
X005200Y026248D01*
X005359Y026406D02*
X011332Y026406D01*
X011240Y026565D02*
X005517Y026565D01*
X005676Y026723D02*
X011240Y026723D01*
X011259Y026882D02*
X005834Y026882D01*
X005993Y027040D02*
X011418Y027040D01*
X011870Y026248D02*
X014940Y026248D01*
X014940Y026089D02*
X005042Y026089D01*
X004883Y025931D02*
X014940Y025931D01*
X014940Y025772D02*
X004725Y025772D01*
X004566Y025614D02*
X014940Y025614D01*
X014940Y025455D02*
X004408Y025455D01*
X004249Y025297D02*
X014940Y025297D01*
X014799Y025138D02*
X004140Y025138D01*
X004130Y024980D02*
X014640Y024980D01*
X014482Y024821D02*
X003972Y024821D01*
X003388Y024821D02*
X002972Y024821D01*
X003007Y024504D02*
X003353Y024504D01*
X003216Y023395D02*
X003144Y023395D01*
X003160Y023236D02*
X003200Y023236D01*
X003200Y023078D02*
X003160Y023078D01*
X003098Y022919D02*
X003262Y022919D01*
X003680Y022180D02*
X005680Y022180D01*
X007180Y023680D01*
X011680Y023680D01*
X012680Y022680D01*
X013063Y022919D02*
X013440Y022919D01*
X013440Y022761D02*
X013120Y022761D01*
X013120Y022602D02*
X013440Y022602D01*
X013440Y022444D02*
X013066Y022444D01*
X012907Y022285D02*
X013440Y022285D01*
X013440Y022127D02*
X012884Y022127D01*
X012690Y022127D02*
X012670Y022127D01*
X012670Y021968D02*
X012690Y021968D01*
X012690Y021810D02*
X012670Y021810D01*
X012670Y021651D02*
X012690Y021651D01*
X012690Y021493D02*
X012670Y021493D01*
X012670Y021334D02*
X012690Y021334D01*
X012985Y021334D02*
X013440Y021334D01*
X013440Y021176D02*
X012420Y021176D01*
X012420Y021017D02*
X013440Y021017D01*
X013440Y020859D02*
X012420Y020859D01*
X012420Y020700D02*
X013440Y020700D01*
X013440Y020542D02*
X012420Y020542D01*
X012420Y020383D02*
X013440Y020383D01*
X013440Y020225D02*
X012420Y020225D01*
X012420Y020066D02*
X013440Y020066D01*
X013440Y019908D02*
X012420Y019908D01*
X012420Y019749D02*
X013440Y019749D01*
X013440Y019591D02*
X012420Y019591D01*
X012420Y019432D02*
X013440Y019432D01*
X013434Y019274D02*
X012420Y019274D01*
X012420Y019115D02*
X013276Y019115D01*
X013117Y018957D02*
X012420Y018957D01*
X012420Y018798D02*
X012959Y018798D01*
X012800Y018640D02*
X012420Y018640D01*
X012320Y018481D02*
X012642Y018481D01*
X012483Y018323D02*
X012162Y018323D01*
X012003Y018164D02*
X012325Y018164D01*
X012166Y018006D02*
X011845Y018006D01*
X011686Y017847D02*
X012008Y017847D01*
X011849Y017689D02*
X011528Y017689D01*
X011369Y017530D02*
X011691Y017530D01*
X011532Y017372D02*
X011211Y017372D01*
X011100Y017213D02*
X011374Y017213D01*
X011215Y017055D02*
X011100Y017055D01*
X011057Y016896D02*
X010990Y016896D01*
X010898Y016738D02*
X010577Y016738D01*
X010418Y016579D02*
X010740Y016579D01*
X010581Y016421D02*
X004090Y016421D01*
X004140Y016262D02*
X010423Y016262D01*
X010264Y016104D02*
X004140Y016104D01*
X004096Y015945D02*
X010106Y015945D01*
X009947Y015787D02*
X003937Y015787D01*
X003883Y015628D02*
X009789Y015628D01*
X009630Y015470D02*
X004041Y015470D01*
X003477Y015628D02*
X002883Y015628D01*
X002937Y015787D02*
X003423Y015787D01*
X003264Y015945D02*
X003096Y015945D01*
X003140Y016104D02*
X003220Y016104D01*
X003220Y016262D02*
X003140Y016262D01*
X003090Y016421D02*
X003270Y016421D01*
X003220Y017055D02*
X003140Y017055D01*
X003140Y017213D02*
X003220Y017213D01*
X003221Y017372D02*
X003139Y017372D01*
X002981Y017530D02*
X003379Y017530D01*
X003362Y017847D02*
X002998Y017847D01*
X002871Y017720D02*
X002489Y017720D01*
X002220Y017989D01*
X002220Y018371D01*
X002489Y018640D01*
X002871Y018640D01*
X003140Y018371D01*
X003140Y017989D01*
X002871Y017720D01*
X003140Y018006D02*
X003220Y018006D01*
X003220Y018164D02*
X003140Y018164D01*
X003140Y018323D02*
X003220Y018323D01*
X003040Y018481D02*
X003030Y018481D01*
X002881Y018640D02*
X002871Y018640D01*
X003180Y018680D02*
X010680Y018680D01*
X011680Y019680D01*
X011680Y021680D01*
X011240Y021651D02*
X011120Y021651D01*
X011120Y021498D02*
X010920Y021298D01*
X010920Y019632D01*
X010883Y019544D01*
X010816Y019477D01*
X010316Y018977D01*
X010228Y018940D01*
X007132Y018940D01*
X007044Y018977D01*
X006977Y019044D01*
X006261Y019760D01*
X006006Y019760D01*
X005826Y019940D01*
X004091Y019940D01*
X003871Y019720D01*
X003489Y019720D01*
X003220Y019989D01*
X003220Y020371D01*
X003489Y020640D01*
X003871Y020640D01*
X004091Y020420D01*
X005826Y020420D01*
X006006Y020600D01*
X006354Y020600D01*
X006600Y020354D01*
X006600Y020099D01*
X007279Y019420D01*
X009346Y019420D01*
X009260Y019506D01*
X009260Y019854D01*
X009360Y019954D01*
X009360Y021378D01*
X009240Y021498D01*
X009240Y021862D01*
X009498Y022120D01*
X009862Y022120D01*
X010120Y021862D01*
X010120Y021498D01*
X010000Y021378D01*
X010000Y019954D01*
X010100Y019854D01*
X010100Y019506D01*
X010014Y019420D01*
X010081Y019420D01*
X010440Y019779D01*
X010440Y021298D01*
X010240Y021498D01*
X010240Y021862D01*
X010498Y022120D01*
X010862Y022120D01*
X011120Y021862D01*
X011120Y021498D01*
X011115Y021493D02*
X011245Y021493D01*
X011404Y021334D02*
X010956Y021334D01*
X010920Y021176D02*
X011440Y021176D01*
X011440Y021017D02*
X010920Y021017D01*
X010920Y020859D02*
X011440Y020859D01*
X011440Y020700D02*
X010920Y020700D01*
X010920Y020542D02*
X011440Y020542D01*
X011440Y020383D02*
X010920Y020383D01*
X010920Y020225D02*
X011440Y020225D01*
X011440Y020066D02*
X010920Y020066D01*
X010920Y019908D02*
X011440Y019908D01*
X011410Y019749D02*
X010920Y019749D01*
X010903Y019591D02*
X011251Y019591D01*
X011093Y019432D02*
X010771Y019432D01*
X010613Y019274D02*
X010934Y019274D01*
X010776Y019115D02*
X010454Y019115D01*
X010617Y018957D02*
X010268Y018957D01*
X010180Y019180D02*
X010680Y019680D01*
X010680Y021680D01*
X010346Y021968D02*
X010014Y021968D01*
X010120Y021810D02*
X010240Y021810D01*
X010240Y021651D02*
X010120Y021651D01*
X010115Y021493D02*
X010245Y021493D01*
X010404Y021334D02*
X010000Y021334D01*
X010000Y021176D02*
X010440Y021176D01*
X010440Y021017D02*
X010000Y021017D01*
X010000Y020859D02*
X010440Y020859D01*
X010440Y020700D02*
X010000Y020700D01*
X010000Y020542D02*
X010440Y020542D01*
X010440Y020383D02*
X010000Y020383D01*
X010000Y020225D02*
X010440Y020225D01*
X010440Y020066D02*
X010000Y020066D01*
X010046Y019908D02*
X010440Y019908D01*
X010410Y019749D02*
X010100Y019749D01*
X010100Y019591D02*
X010251Y019591D01*
X010093Y019432D02*
X010026Y019432D01*
X010180Y019180D02*
X007180Y019180D01*
X006180Y020180D01*
X003680Y020180D01*
X003969Y020542D02*
X005948Y020542D01*
X006412Y020542D02*
X009360Y020542D01*
X009360Y020700D02*
X003539Y020700D01*
X003391Y020542D02*
X003381Y020542D01*
X003232Y020383D02*
X003128Y020383D01*
X003140Y020225D02*
X003220Y020225D01*
X003220Y020066D02*
X003140Y020066D01*
X003058Y019908D02*
X003302Y019908D01*
X003460Y019749D02*
X002900Y019749D01*
X002920Y019591D02*
X003440Y019591D01*
X003281Y019432D02*
X003079Y019432D01*
X003140Y019274D02*
X003220Y019274D01*
X003220Y019115D02*
X003140Y019115D01*
X003243Y018957D02*
X003253Y018957D01*
X003180Y018680D02*
X002680Y019180D01*
X002411Y018798D02*
X001920Y018798D01*
X001920Y018640D02*
X002489Y018640D01*
X002330Y018481D02*
X001920Y018481D01*
X001920Y018323D02*
X002220Y018323D01*
X002220Y018164D02*
X001920Y018164D01*
X001920Y018006D02*
X002220Y018006D01*
X002362Y017847D02*
X001920Y017847D01*
X001920Y017689D02*
X010849Y017689D01*
X011008Y017847D02*
X003998Y017847D01*
X004140Y018006D02*
X011166Y018006D01*
X011325Y018164D02*
X004140Y018164D01*
X004140Y018323D02*
X011483Y018323D01*
X011642Y018481D02*
X010820Y018481D01*
X010979Y018640D02*
X011800Y018640D01*
X011940Y018798D02*
X011137Y018798D01*
X011296Y018957D02*
X011940Y018957D01*
X011940Y019115D02*
X011454Y019115D01*
X011613Y019274D02*
X011940Y019274D01*
X011940Y019432D02*
X011771Y019432D01*
X011903Y019591D02*
X011940Y019591D01*
X011940Y019749D02*
X011920Y019749D01*
X011920Y019908D02*
X011940Y019908D01*
X011940Y020066D02*
X011920Y020066D01*
X011920Y020225D02*
X011940Y020225D01*
X011940Y020383D02*
X011920Y020383D01*
X011920Y020542D02*
X011940Y020542D01*
X011940Y020700D02*
X011920Y020700D01*
X011920Y020859D02*
X011940Y020859D01*
X011940Y021017D02*
X011920Y021017D01*
X011920Y021176D02*
X011940Y021176D01*
X011240Y021810D02*
X011120Y021810D01*
X011014Y021968D02*
X011346Y021968D01*
X011453Y022285D02*
X010907Y022285D01*
X011066Y022444D02*
X011294Y022444D01*
X011240Y022602D02*
X011120Y022602D01*
X011120Y022761D02*
X011240Y022761D01*
X011297Y022919D02*
X011063Y022919D01*
X010905Y023078D02*
X011455Y023078D01*
X011626Y023395D02*
X010289Y023395D01*
X010463Y023236D02*
X011785Y023236D01*
X011905Y023078D02*
X011943Y023078D01*
X012063Y022919D02*
X012102Y022919D01*
X012120Y022761D02*
X012240Y022761D01*
X012240Y022602D02*
X012120Y022602D01*
X012256Y022444D02*
X012294Y022444D01*
X012396Y022285D02*
X012453Y022285D01*
X012476Y022127D02*
X012420Y022127D01*
X012180Y022180D02*
X011680Y022680D01*
X011894Y022127D02*
X008884Y022127D01*
X008871Y022140D02*
X009140Y021871D01*
X009140Y021690D01*
X008690Y021690D01*
X008690Y022140D01*
X008871Y022140D01*
X008907Y022285D02*
X009424Y022285D01*
X009266Y022444D02*
X009066Y022444D01*
X009120Y022602D02*
X009220Y022602D01*
X009220Y022761D02*
X009120Y022761D01*
X009063Y022919D02*
X009268Y022919D01*
X009670Y022602D02*
X009690Y022602D01*
X009690Y022444D02*
X009670Y022444D01*
X009670Y022285D02*
X009690Y022285D01*
X009936Y022285D02*
X010453Y022285D01*
X010294Y022444D02*
X010094Y022444D01*
X010140Y022602D02*
X010240Y022602D01*
X010240Y022761D02*
X010140Y022761D01*
X010102Y022919D02*
X010092Y022919D01*
X010180Y023180D02*
X010680Y022680D01*
X010180Y023180D02*
X007680Y023180D01*
X006180Y021680D01*
X003180Y021680D01*
X002680Y021180D01*
X002400Y021810D02*
X001290Y021810D01*
X001290Y021968D02*
X002241Y021968D01*
X002220Y022127D02*
X001290Y022127D01*
X001290Y022285D02*
X002220Y022285D01*
X002293Y022444D02*
X001290Y022444D01*
X001290Y022602D02*
X002451Y022602D01*
X002421Y022761D02*
X001290Y022761D01*
X001290Y022919D02*
X002262Y022919D01*
X002200Y023078D02*
X001290Y023078D01*
X001290Y023236D02*
X002200Y023236D01*
X002216Y023395D02*
X001290Y023395D01*
X001290Y023553D02*
X002374Y023553D01*
X002339Y023870D02*
X001290Y023870D01*
X001290Y023712D02*
X006872Y023712D01*
X007031Y023870D02*
X006464Y023870D01*
X006600Y024029D02*
X013689Y024029D01*
X013848Y024187D02*
X006600Y024187D01*
X006600Y024346D02*
X014006Y024346D01*
X013531Y023870D02*
X011829Y023870D01*
X011988Y023712D02*
X013440Y023712D01*
X013440Y023553D02*
X012146Y023553D01*
X012305Y023395D02*
X013440Y023395D01*
X013440Y023236D02*
X012463Y023236D01*
X012905Y023078D02*
X013440Y023078D01*
X013440Y021968D02*
X013043Y021968D01*
X013140Y021810D02*
X013440Y021810D01*
X013440Y021651D02*
X013140Y021651D01*
X013140Y021493D02*
X013440Y021493D01*
X012180Y022180D02*
X012180Y018680D01*
X010680Y017180D01*
X010180Y016680D01*
X002180Y016680D01*
X001680Y017180D01*
X001680Y020180D01*
X002180Y020680D01*
X003180Y020680D01*
X003680Y021180D01*
X004140Y021176D02*
X009360Y021176D01*
X009360Y021334D02*
X008985Y021334D01*
X008871Y021220D02*
X009140Y021489D01*
X009140Y021670D01*
X008690Y021670D01*
X008670Y021670D01*
X008670Y021690D01*
X008220Y021690D01*
X008220Y021871D01*
X008489Y022140D01*
X008670Y022140D01*
X008670Y021690D01*
X008690Y021690D01*
X008690Y021670D01*
X008690Y021220D01*
X008871Y021220D01*
X008670Y021220D02*
X008489Y021220D01*
X008220Y021489D01*
X008220Y021670D01*
X008670Y021670D01*
X008670Y021220D01*
X008670Y021334D02*
X008690Y021334D01*
X008690Y021493D02*
X008670Y021493D01*
X008670Y021651D02*
X008690Y021651D01*
X008690Y021810D02*
X008670Y021810D01*
X008670Y021968D02*
X008690Y021968D01*
X008690Y022127D02*
X008670Y022127D01*
X008476Y022127D02*
X006966Y022127D01*
X007124Y022285D02*
X008453Y022285D01*
X008294Y022444D02*
X007283Y022444D01*
X007441Y022602D02*
X008240Y022602D01*
X008240Y022761D02*
X007600Y022761D01*
X007758Y022919D02*
X008297Y022919D01*
X007571Y023395D02*
X007234Y023395D01*
X007075Y023236D02*
X007397Y023236D01*
X007238Y023078D02*
X006917Y023078D01*
X006758Y022919D02*
X007080Y022919D01*
X006921Y022761D02*
X006600Y022761D01*
X006441Y022602D02*
X006763Y022602D01*
X006604Y022444D02*
X006283Y022444D01*
X006124Y022285D02*
X006446Y022285D01*
X006287Y022127D02*
X005966Y022127D01*
X006129Y021968D02*
X005795Y021968D01*
X005604Y022444D02*
X004067Y022444D01*
X003909Y022602D02*
X005763Y022602D01*
X006490Y021651D02*
X008220Y021651D01*
X008220Y021493D02*
X006332Y021493D01*
X006649Y021810D02*
X008220Y021810D01*
X008317Y021968D02*
X006807Y021968D01*
X006571Y020383D02*
X009360Y020383D01*
X009360Y020225D02*
X006600Y020225D01*
X006633Y020066D02*
X009360Y020066D01*
X009314Y019908D02*
X006792Y019908D01*
X006950Y019749D02*
X009260Y019749D01*
X009260Y019591D02*
X007109Y019591D01*
X007267Y019432D02*
X009334Y019432D01*
X009360Y020859D02*
X004009Y020859D01*
X004140Y021017D02*
X009360Y021017D01*
X009245Y021493D02*
X009140Y021493D01*
X009140Y021651D02*
X009240Y021651D01*
X009240Y021810D02*
X009140Y021810D01*
X009043Y021968D02*
X009346Y021968D01*
X008375Y021334D02*
X004140Y021334D01*
X004058Y019908D02*
X005859Y019908D01*
X006272Y019749D02*
X003900Y019749D01*
X003920Y019591D02*
X006430Y019591D01*
X006589Y019432D02*
X004079Y019432D01*
X004140Y019274D02*
X006747Y019274D01*
X006906Y019115D02*
X004140Y019115D01*
X004107Y018957D02*
X007092Y018957D01*
X004139Y017372D02*
X010278Y017372D01*
X010260Y017213D02*
X004140Y017213D01*
X004140Y017055D02*
X010215Y017055D01*
X010436Y017530D02*
X003981Y017530D01*
X002379Y017530D02*
X001920Y017530D01*
X001920Y017372D02*
X002221Y017372D01*
X002220Y017213D02*
X001986Y017213D01*
X002145Y017055D02*
X002220Y017055D01*
X001977Y016544D02*
X001977Y016544D01*
X003041Y015470D02*
X003319Y015470D01*
X003220Y015311D02*
X003140Y015311D01*
X003140Y015153D02*
X003220Y015153D01*
X003220Y014994D02*
X003205Y014994D01*
X002844Y014677D02*
X001290Y014677D01*
X001290Y014519D02*
X002368Y014519D01*
X002489Y014640D02*
X002871Y014640D01*
X003140Y014371D01*
X003140Y013989D01*
X002871Y013720D01*
X002489Y013720D01*
X002220Y013989D01*
X002220Y014371D01*
X002489Y014640D01*
X002220Y014360D02*
X001290Y014360D01*
X001290Y014202D02*
X002220Y014202D01*
X002220Y014043D02*
X001290Y014043D01*
X001290Y013885D02*
X002325Y013885D01*
X002483Y013726D02*
X001290Y013726D01*
X001290Y013568D02*
X002417Y013568D01*
X002258Y013409D02*
X001290Y013409D01*
X001290Y013251D02*
X002220Y013251D01*
X002220Y013092D02*
X001290Y013092D01*
X001290Y012934D02*
X002276Y012934D01*
X002434Y012775D02*
X001290Y012775D01*
X001290Y012617D02*
X002466Y012617D01*
X002307Y012458D02*
X001290Y012458D01*
X001290Y012300D02*
X002220Y012300D01*
X002220Y012141D02*
X001290Y012141D01*
X001290Y011983D02*
X002227Y011983D01*
X003180Y012680D02*
X002680Y013180D01*
X002943Y013568D02*
X003417Y013568D01*
X003483Y013726D02*
X002877Y013726D01*
X003035Y013885D02*
X003325Y013885D01*
X003220Y014043D02*
X003140Y014043D01*
X003140Y014202D02*
X003220Y014202D01*
X003220Y014360D02*
X003140Y014360D01*
X003002Y014519D02*
X002992Y014519D01*
X002977Y014544D02*
X002977Y014544D01*
X003102Y013409D02*
X003258Y013409D01*
X003220Y013251D02*
X003140Y013251D01*
X003140Y013092D02*
X003220Y013092D01*
X003266Y012934D02*
X003276Y012934D01*
X004004Y011507D02*
X004440Y011507D01*
X004440Y011349D02*
X004140Y011349D01*
X004140Y011190D02*
X004440Y011190D01*
X004440Y011032D02*
X004140Y011032D01*
X004024Y010873D02*
X004440Y010873D01*
X002405Y010556D02*
X001290Y010556D01*
X001290Y010398D02*
X002247Y010398D01*
X002220Y010239D02*
X001290Y010239D01*
X001290Y010081D02*
X002220Y010081D01*
X002287Y009922D02*
X001290Y009922D01*
X001290Y009764D02*
X002446Y009764D01*
X002253Y018957D02*
X001920Y018957D01*
X001920Y019115D02*
X002220Y019115D01*
X002220Y019274D02*
X001920Y019274D01*
X001920Y019432D02*
X002281Y019432D01*
X002440Y019591D02*
X001920Y019591D01*
X001920Y019749D02*
X002460Y019749D01*
X002302Y019908D02*
X001920Y019908D01*
X001920Y020066D02*
X002220Y020066D01*
X002220Y020225D02*
X002064Y020225D01*
X002222Y020383D02*
X002232Y020383D01*
X002220Y024029D02*
X001290Y024029D01*
X001290Y024187D02*
X002220Y024187D01*
X002220Y024346D02*
X001290Y024346D01*
X001290Y024504D02*
X002353Y024504D01*
X002897Y025614D02*
X003463Y025614D01*
X003173Y026089D02*
X004136Y026089D01*
X004295Y026248D02*
X003548Y026248D01*
X003747Y026406D02*
X004453Y026406D01*
X004612Y026565D02*
X003930Y026565D01*
X004038Y026723D02*
X004770Y026723D01*
X004929Y026882D02*
X004146Y026882D01*
X004221Y027040D02*
X005087Y027040D01*
X005246Y027199D02*
X004270Y027199D01*
X004319Y027357D02*
X005404Y027357D01*
X005563Y027516D02*
X004341Y027516D01*
X004341Y027674D02*
X005721Y027674D01*
X005880Y027833D02*
X004341Y027833D01*
X004323Y027991D02*
X006038Y027991D01*
X006197Y028150D02*
X004274Y028150D01*
X004225Y028308D02*
X006355Y028308D01*
X006514Y028467D02*
X004154Y028467D01*
X004046Y028625D02*
X006672Y028625D01*
X006831Y028784D02*
X003938Y028784D01*
X003762Y028942D02*
X006989Y028942D01*
X007261Y028308D02*
X008880Y028308D01*
X008975Y028175D02*
X009180Y028175D01*
X009180Y027680D01*
X009180Y027680D01*
X008685Y027680D01*
X008685Y027885D01*
X008975Y028175D01*
X008950Y028150D02*
X007102Y028150D01*
X006944Y027991D02*
X008791Y027991D01*
X008685Y027833D02*
X006785Y027833D01*
X006627Y027674D02*
X008685Y027674D01*
X008685Y027680D02*
X009180Y027680D01*
X009180Y027680D01*
X009180Y027680D01*
X009675Y027680D01*
X009675Y027885D01*
X009385Y028175D01*
X009180Y028175D01*
X009180Y027680D01*
X009180Y027185D01*
X008975Y027185D01*
X008685Y027475D01*
X008685Y027680D01*
X008685Y027516D02*
X006468Y027516D01*
X006310Y027357D02*
X008803Y027357D01*
X008961Y027199D02*
X006151Y027199D01*
X009180Y027199D02*
X009180Y027199D01*
X009180Y027185D02*
X009180Y027680D01*
X009180Y027680D01*
X009675Y027680D01*
X009675Y027475D01*
X009385Y027185D01*
X009180Y027185D01*
X009180Y027357D02*
X009180Y027357D01*
X009180Y027516D02*
X009180Y027516D01*
X009180Y027674D02*
X009180Y027674D01*
X009180Y027833D02*
X009180Y027833D01*
X009180Y027991D02*
X009180Y027991D01*
X009180Y028150D02*
X009180Y028150D01*
X009410Y028150D02*
X013860Y028150D01*
X013860Y028308D02*
X011902Y028308D01*
X011458Y028308D02*
X009480Y028308D01*
X009569Y027991D02*
X013860Y027991D01*
X013860Y027833D02*
X013506Y027833D01*
X013620Y027674D02*
X013762Y027674D01*
X013720Y027516D02*
X013660Y027516D01*
X013660Y027357D02*
X013720Y027357D01*
X013720Y027199D02*
X013200Y027199D01*
X013160Y027199D02*
X009399Y027199D01*
X009557Y027357D02*
X012700Y027357D01*
X012700Y027516D02*
X009675Y027516D01*
X009675Y027674D02*
X012740Y027674D01*
X012854Y027833D02*
X009675Y027833D01*
X013160Y027833D02*
X013200Y027833D01*
X013200Y027674D02*
X013160Y027674D01*
X013160Y027516D02*
X013200Y027516D01*
X013200Y027357D02*
X013160Y027357D01*
X013160Y027040D02*
X013200Y027040D01*
X013200Y026882D02*
X013160Y026882D01*
X013160Y026723D02*
X013200Y026723D01*
X013200Y026565D02*
X013160Y026565D01*
X013543Y026565D02*
X013845Y026565D01*
X013747Y026723D02*
X013634Y026723D01*
X013660Y026882D02*
X013720Y026882D01*
X013720Y027040D02*
X013660Y027040D01*
X014515Y026565D02*
X014845Y026565D01*
X014747Y026723D02*
X014613Y026723D01*
X014640Y026882D02*
X014720Y026882D01*
X014720Y027040D02*
X014640Y027040D01*
X018920Y018481D02*
X019330Y018481D01*
X019220Y018323D02*
X018920Y018323D01*
X018920Y018164D02*
X019220Y018164D01*
X019220Y018006D02*
X018920Y018006D01*
M02*
