%
M48
M72
T01C0.0320
T02C0.0360
T03C0.0400
T04C0.1181
%
T01
X9180Y6180
X10180Y6180
X11180Y6180
X12180Y6180
X13180Y6180
X14180Y6180
X15180Y6180
X15180Y9680
X16180Y9680
X17180Y9680
X18180Y9680
X17180Y11180
X17180Y12180
X16180Y12180
X16180Y11180
X15180Y11180
X15180Y12180
X14180Y12180
X14180Y11180
X13180Y11180
X13180Y12180
X12180Y12180
X12180Y11180
X11180Y11180
X11180Y12180
X10180Y12180
X10180Y11180
X10180Y9680
X11180Y9680
X12180Y9680
X13180Y9680
X14180Y9680
X6430Y20680
X5430Y19680
X5430Y24680
X6430Y24680
X9180Y27680
X9180Y28680
X11180Y28680
X11180Y27680
T02
X11180Y22680
X11180Y21680
X12180Y21680
X12180Y22680
X13180Y22680
X13180Y21680
X10180Y21680
X10180Y22680
X9180Y22680
X9180Y21680
T03
X3180Y6180
X3180Y7180
X3180Y8180
X3180Y9180
X3180Y10180
X3180Y11180
X3180Y12180
X3180Y13180
X3180Y14180
X3180Y15180
X3180Y16180
X3180Y17180
X3180Y18180
X3180Y19180
X3180Y20180
X3180Y21180
X3180Y22180
X3180Y23180
X3180Y24180
X3180Y25180
X4180Y25180
X4180Y24180
X4180Y23180
X4180Y22180
X4180Y21180
X4180Y20180
X4180Y19180
X4180Y18180
X4180Y17180
X4180Y16180
X4180Y15180
X4180Y14180
X4180Y13180
X4180Y12180
X4180Y11180
X4180Y10180
X4180Y9180
X4180Y8180
X4180Y7180
X4180Y6180
X13680Y27180
X14680Y27180
X15680Y27180
X17680Y27180
X18680Y27180
X19680Y27180
X20180Y25180
X20180Y24180
X20180Y23180
X20180Y22180
X20180Y21180
X20180Y20180
X20180Y19180
X20180Y18180
X20180Y17180
X20180Y16180
X20180Y15180
X20180Y14180
X20180Y13180
X20180Y12180
X20180Y11180
X20180Y10180
X20180Y9180
X20180Y8180
X20180Y7180
X20180Y6180
X21180Y6180
X21180Y7180
X21180Y8180
X21180Y9180
X21180Y10180
X21180Y11180
X21180Y12180
X21180Y13180
X21180Y14180
X21180Y15180
X21180Y16180
X21180Y17180
X21180Y18180
X21180Y19180
X21180Y20180
X21180Y21180
X21180Y22180
X21180Y23180
X21180Y24180
X21180Y25180
T04
X21180Y3680
X3180Y27680
M30
