%
M48
M72
T01C0.0320
T02C0.0360
T03C0.0400
T04C0.1181
%
T01
X5000Y8000
X6000Y8000
X7000Y8000
X8000Y8000
X9000Y8000
X10000Y8000
X11000Y8000
X12000Y8000
X13000Y8000
X13000Y9500
X13000Y10500
X12000Y10500
X12000Y9500
X11000Y9500
X11000Y10500
X10000Y10500
X10000Y9500
X9000Y9500
X9000Y10500
X8000Y10500
X8000Y9500
X7000Y9500
X7000Y10500
X6000Y10500
X6000Y9500
X8000Y4500
X9000Y4500
X10000Y4500
X11000Y4500
X12000Y4500
X13000Y4500
X14000Y4500
X17750Y18000
X16750Y19000
X16750Y23000
X17750Y23000
X14000Y26000
X14000Y27000
X12000Y27000
X12000Y26000
T02
X12000Y21000
X12000Y20000
X11000Y20000
X11000Y21000
X10000Y21000
X10000Y20000
X13000Y20000
X13000Y21000
X14000Y21000
X14000Y20000
T03
X9500Y25500
X8500Y25500
X7500Y25500
X5500Y25500
X4500Y25500
X3500Y25500
X3000Y23500
X3000Y22500
X3000Y21500
X3000Y20500
X3000Y19500
X3000Y18500
X3000Y17500
X3000Y16500
X3000Y15500
X3000Y14500
X3000Y13500
X3000Y12500
X3000Y11500
X3000Y10500
X3000Y9500
X3000Y8500
X3000Y7500
X3000Y6500
X3000Y5500
X3000Y4500
X2000Y4500
X2000Y5500
X2000Y6500
X2000Y7500
X2000Y8500
X2000Y9500
X2000Y10500
X2000Y11500
X2000Y12500
X2000Y13500
X2000Y14500
X2000Y15500
X2000Y16500
X2000Y17500
X2000Y18500
X2000Y19500
X2000Y20500
X2000Y21500
X2000Y22500
X2000Y23500
X19000Y23500
X19000Y22500
X19000Y21500
X19000Y20500
X19000Y19500
X19000Y18500
X19000Y17500
X19000Y16500
X19000Y15500
X19000Y14500
X19000Y13500
X19000Y12500
X19000Y11500
X19000Y10500
X19000Y9500
X19000Y8500
X19000Y7500
X19000Y6500
X19000Y5500
X19000Y4500
X20000Y4500
X20000Y5500
X20000Y6500
X20000Y7500
X20000Y8500
X20000Y9500
X20000Y10500
X20000Y11500
X20000Y12500
X20000Y13500
X20000Y14500
X20000Y15500
X20000Y16500
X20000Y17500
X20000Y18500
X20000Y19500
X20000Y20500
X20000Y21500
X20000Y22500
X20000Y23500
T04
X2000Y2000
X20000Y26000
M30
