G75*
%MOIN*%
%OFA0B0*%
%FSLAX24Y24*%
%IPPOS*%
%LPD*%
%AMOC8*
5,1,8,0,0,1.08239X$1,22.5*
%
%ADD10C,0.0020*%
%ADD11C,0.0000*%
D10*
X000000Y000000D02*
X000000Y029500D01*
X022000Y029500D01*
X022000Y000000D01*
X000000Y000000D01*
D11*
X001409Y002000D02*
X001411Y002048D01*
X001417Y002096D01*
X001427Y002143D01*
X001440Y002189D01*
X001458Y002234D01*
X001478Y002278D01*
X001503Y002320D01*
X001531Y002359D01*
X001561Y002396D01*
X001595Y002430D01*
X001632Y002462D01*
X001670Y002491D01*
X001711Y002516D01*
X001754Y002538D01*
X001799Y002556D01*
X001845Y002570D01*
X001892Y002581D01*
X001940Y002588D01*
X001988Y002591D01*
X002036Y002590D01*
X002084Y002585D01*
X002132Y002576D01*
X002178Y002564D01*
X002223Y002547D01*
X002267Y002527D01*
X002309Y002504D01*
X002349Y002477D01*
X002387Y002447D01*
X002422Y002414D01*
X002454Y002378D01*
X002484Y002340D01*
X002510Y002299D01*
X002532Y002256D01*
X002552Y002212D01*
X002567Y002167D01*
X002579Y002120D01*
X002587Y002072D01*
X002591Y002024D01*
X002591Y001976D01*
X002587Y001928D01*
X002579Y001880D01*
X002567Y001833D01*
X002552Y001788D01*
X002532Y001744D01*
X002510Y001701D01*
X002484Y001660D01*
X002454Y001622D01*
X002422Y001586D01*
X002387Y001553D01*
X002349Y001523D01*
X002309Y001496D01*
X002267Y001473D01*
X002223Y001453D01*
X002178Y001436D01*
X002132Y001424D01*
X002084Y001415D01*
X002036Y001410D01*
X001988Y001409D01*
X001940Y001412D01*
X001892Y001419D01*
X001845Y001430D01*
X001799Y001444D01*
X001754Y001462D01*
X001711Y001484D01*
X001670Y001509D01*
X001632Y001538D01*
X001595Y001570D01*
X001561Y001604D01*
X001531Y001641D01*
X001503Y001680D01*
X001478Y001722D01*
X001458Y001766D01*
X001440Y001811D01*
X001427Y001857D01*
X001417Y001904D01*
X001411Y001952D01*
X001409Y002000D01*
X019409Y026000D02*
X019411Y026048D01*
X019417Y026096D01*
X019427Y026143D01*
X019440Y026189D01*
X019458Y026234D01*
X019478Y026278D01*
X019503Y026320D01*
X019531Y026359D01*
X019561Y026396D01*
X019595Y026430D01*
X019632Y026462D01*
X019670Y026491D01*
X019711Y026516D01*
X019754Y026538D01*
X019799Y026556D01*
X019845Y026570D01*
X019892Y026581D01*
X019940Y026588D01*
X019988Y026591D01*
X020036Y026590D01*
X020084Y026585D01*
X020132Y026576D01*
X020178Y026564D01*
X020223Y026547D01*
X020267Y026527D01*
X020309Y026504D01*
X020349Y026477D01*
X020387Y026447D01*
X020422Y026414D01*
X020454Y026378D01*
X020484Y026340D01*
X020510Y026299D01*
X020532Y026256D01*
X020552Y026212D01*
X020567Y026167D01*
X020579Y026120D01*
X020587Y026072D01*
X020591Y026024D01*
X020591Y025976D01*
X020587Y025928D01*
X020579Y025880D01*
X020567Y025833D01*
X020552Y025788D01*
X020532Y025744D01*
X020510Y025701D01*
X020484Y025660D01*
X020454Y025622D01*
X020422Y025586D01*
X020387Y025553D01*
X020349Y025523D01*
X020309Y025496D01*
X020267Y025473D01*
X020223Y025453D01*
X020178Y025436D01*
X020132Y025424D01*
X020084Y025415D01*
X020036Y025410D01*
X019988Y025409D01*
X019940Y025412D01*
X019892Y025419D01*
X019845Y025430D01*
X019799Y025444D01*
X019754Y025462D01*
X019711Y025484D01*
X019670Y025509D01*
X019632Y025538D01*
X019595Y025570D01*
X019561Y025604D01*
X019531Y025641D01*
X019503Y025680D01*
X019478Y025722D01*
X019458Y025766D01*
X019440Y025811D01*
X019427Y025857D01*
X019417Y025904D01*
X019411Y025952D01*
X019409Y026000D01*
M02*
